<?xml version="1.0" encoding="utf-8"?>
<COLLADA xmlns="http://www.collada.org/2005/11/COLLADASchema" version="1.4.1">
  <asset>
    <contributor>
      <authoring_tool>Blender COLLADA Exporter</authoring_tool>
    </contributor>
    <up_axis>Z_UP</up_axis>
  </asset>
  <library_images>
    <image id="Plastic010_1K_Displacement-image" name="Plastic010_1K_Displacement-image">
      <init_from>../Plastic010_1K_Displacement.jpg</init_from>
    </image>
  </library_images>
  <library_effects>
    <effect id="Plastic010_1K_Displacement-effect">
      <profile_COMMON>
        <newparam sid="Plastic010_1K_Displacement-surface">
          <surface type="2D">
            <init_from>Plastic010_1K_Displacement-image</init_from>
          </surface>
        </newparam>
        <newparam sid="Plastic010_1K_Displacement-sampler">
          <sampler2D>
            <source>Plastic010_1K_Displacement-surface</source>
          </sampler2D>
        </newparam>
        <technique sid="common">
          <lambert>
            <emission>
              <color sid="emission">0 0 0 1</color>
            </emission>
            <diffuse>
              <texture texture="Plastic010_1K_Displacement-sampler" texcoord="UVMap"/>
            </diffuse>
          </lambert>
        </technique>
      </profile_COMMON>
    </effect>
  </library_effects>
  <library_materials>
    <material id="Plastic010_1K_Displacement-material" name="Plastic010_1K_Displacement">
      <instance_effect url="#Plastic010_1K_Displacement-effect"/>
    </material>
  </library_materials>
  <library_geometries>
    <geometry id="Cylinder.001-mesh" name="Cylinder.001">
      <mesh>
        <source id="Cylinder.001-mesh-positions">
          <float_array id="Cylinder.001-mesh-positions-array" count="1800">0.322749 0 0.814487 0 0 0.881595 0.59636 0 0.623385 0.779183 0 0.337367 0.843381 0 -4.21719e-06 0.779183 0 -0.337375 0.59636 0 -0.623393 0.322749 0 -0.814495 0 0 -0.881603 -0.322749 0 -0.814495 -0.59636 0 -0.623393 -0.779183 0 -0.337375 -0.843381 0 -4.21719e-06 -0.779183 0 0.337367 -0.59636 0 0.623385 -0.322748 0 0.814487 0.231605 -2.56445 0.584477 0 -2.56445 0.632633 0.42795 -2.56445 0.447338 0.559144 -2.56445 0.242092 0.605213 -2.56445 -4.21719e-06 0.559144 -2.56445 -0.2421 0.42795 -2.56445 -0.447347 0.231605 -2.56445 -0.584486 0 -2.56445 -0.632642 -0.231605 -2.56445 -0.584486 -0.42795 -2.56445 -0.447347 -0.559144 -2.56445 -0.2421 -0.605213 -2.56445 -4.21719e-06 -0.559144 -2.56445 0.242092 -0.42795 -2.56445 0.447338 -0.231605 -2.56445 0.584477 0.397657 -0.124427 1.00353 0 -0.124427 1.08621 0.734774 -0.124427 0.768068 0.960029 -0.124427 0.415667 1.03913 -0.124427 -4.21719e-06 0.960029 -0.124427 -0.415676 0.734774 -0.124427 -0.768077 0.397657 -0.124427 -1.00354 0 -0.124427 -1.08622 -0.397657 -0.124427 -1.00354 -0.734774 -0.124427 -0.768077 -0.960029 -0.124427 -0.415676 -1.03913 -0.124427 -4.21719e-06 -0.960029 -0.124427 0.415667 -0.734774 -0.124427 0.768068 -0.397656 -0.124427 1.00353 0.734774 -0.937767 0.768068 0.670676 -1.75111 0.701066 0.876281 -1.75111 0.379408 0.960029 -0.937767 0.415667 -0.734774 -0.937767 -0.768077 -0.670676 -1.75111 -0.701074 -0.876281 -1.75111 -0.379416 -0.960029 -0.937767 -0.415676 0.94848 -1.75111 -4.21719e-06 1.03913 -0.937767 -4.21719e-06 -0.94848 -1.75111 -4.21719e-06 -1.03913 -0.937767 -4.21719e-06 0.876281 -1.75111 -0.379416 0.960029 -0.937767 -0.415676 -0.876281 -1.75111 0.379408 -0.960029 -0.937767 0.415667 0.670676 -1.75111 -0.701074 0.734774 -0.937767 -0.768077 -0.670676 -1.75111 0.701066 -0.734774 -0.937767 0.768068 0.362968 -1.75111 -0.915995 0.397657 -0.937767 -1.00354 -0.362967 -1.75111 0.915986 -0.397656 -0.937767 1.00353 0 -1.75111 -0.991461 0 -0.937767 -1.08622 0 -0.937767 1.08621 0 -1.75111 0.991453 0.362967 -1.75111 0.915986 0.397657 -0.937767 1.00353 -0.362967 -1.75111 -0.915995 -0.397657 -0.937767 -1.00354 0 -1.21158 0.525942 0 -1.58978 1.18057 0.158638 -1.28386 0.525942 0.0779884 -1.62325 1.17323 0.27477 -1.48134 0.525942 0.13508 -1.7147 1.15319 0.317277 -1.75111 0.525942 0.155977 -1.83961 1.12581 0.27477 -2.02087 0.525942 0.13508 -1.96453 1.09843 0.158638 -2.21835 0.525942 0.0779884 -2.05598 1.07839 0 -2.29064 0.525942 0 -2.08945 1.07105 -0.158638 -2.21835 0.525942 -0.0779883 -2.05598 1.07839 -0.27477 -2.02087 0.525942 -0.13508 -1.96453 1.09843 -0.317277 -1.75111 0.525942 -0.155977 -1.83961 1.12581 -0.27477 -1.48134 0.525942 -0.13508 -1.7147 1.15319 -0.158638 -1.28386 0.525942 -0.0779884 -1.62325 1.17323 0.158638 -1.37191 1.1747 0 -1.30383 1.18962 0.27477 -1.55792 1.13393 0.317277 -1.81202 1.07824 0.27477 -2.06612 1.02255 0.158638 -2.25213 0.981778 0 -2.32021 0.966855 -0.158638 -2.25213 0.981778 -0.27477 -2.06612 1.02255 -0.317277 -1.81202 1.07824 -0.27477 -1.55792 1.13393 -0.158638 -1.37191 1.1747 0.0985689 -1.63836 1.57081 0.0306399 -1.58331 1.57081 0.141212 -1.72361 1.57081 0.147143 -1.81624 1.57081 0.114771 -1.89141 1.57081 0.0527729 -1.92899 1.57081 -0.0222407 -1.91891 1.57081 -0.0901698 -1.86386 1.57081 -0.132813 -1.7786 1.57081 -0.138743 -1.68598 1.57081 -0.106373 -1.6108 1.57081 -0.044374 -1.57322 1.57081 -0.054509 -1.38762 2.81227 -0.310967 -1.21867 2.81227 0.117914 -1.60851 2.81227 0.160102 -1.82215 2.81227 0.0607495 -1.97129 2.81227 -0.153521 -2.01598 2.81227 -0.425296 -1.94424 2.81227 -0.681755 -1.77529 2.81227 -0.854178 -1.55441 2.81227 -0.896366 -1.34077 2.81227 -0.797014 -1.19162 2.81227 -0.582744 -1.14693 2.81227 -0.0327728 -1.39752 23.1339 -0.105463 -1.31231 23.1339 0.00512278 -1.55711 23.1339 -0.00192976 -1.74832 23.1339 -0.0520415 -1.9199 23.1339 -0.131784 -2.02589 23.1339 -0.219792 -2.03788 23.1339 -0.292482 -1.95266 23.1339 -0.330378 -1.79307 23.1339 -0.323325 -1.60187 23.1339 -0.273214 -1.43029 23.1339 -0.193471 -1.3243 23.1339 0 -1.21009 1.13814 -0.176329 -1.28577 1.12155 -0.176329 -1.23176 0.459223 -0.30541 -1.49252 1.07624 -0.30541 -1.45126 0.459223 -0.352658 -1.77495 1.01434 -0.352658 -1.75111 0.459223 -0.30541 -2.05738 0.952433 -0.30541 -2.05096 0.459223 -0.176329 -2.26414 0.907118 -0.176329 -2.27046 0.459223 0 -2.33982 0.890531 0 -2.3508 0.459223 0.176329 -2.26414 0.907118 0.176329 -2.27046 0.459223 0.30541 -2.05738 0.952433 0.30541 -2.05096 0.459223 0.352658 -1.77495 1.01434 0.352658 -1.75111 0.459223 0.30541 -1.49252 1.07624 0.30541 -1.45126 0.459223 0.176329 -1.28577 1.12155 0.176329 -1.23176 0.459223 0 -1.15141 0.459223 -0.158638 -1.335 1.11106 -0.27477 -1.52101 1.0703 -0.317277 -1.77511 1.0146 -0.27477 -2.02921 0.958912 -0.158638 -2.21522 0.918142 0 -2.2833 0.90322 0.158638 -2.21522 0.918142 0.27477 -2.02921 0.958912 0.317277 -1.77511 1.0146 0.27477 -1.52101 1.0703 0.158638 -1.335 1.11106 0 -1.26692 1.12599 -0.118313 -1.48379 1.15018 -0.204925 -1.62251 1.11977 -0.236627 -1.81202 1.07824 -0.204925 -2.00153 1.0367 -0.118313 -2.14025 1.0063 0 -2.19103 0.995168 0.118313 -2.14025 1.0063 0.204925 -2.00153 1.0367 0.236627 -1.81202 1.07824 0.204925 -1.62251 1.11977 0.118313 -1.48379 1.15018 0 -1.43301 1.16131 0.0823484 -1.5923 12.7547 -0.135151 -2.02435 12.7547 -0.634517 -1.65449 12.7547 -0.0361389 -1.39599 12.7547 -0.21892 -1.26061 12.7547 -0.417018 -1.22244 12.7547 0.0251839 -1.95509 12.7547 0.104794 -1.79694 12.7547 -0.516029 -1.85081 12.7547 -0.333248 -1.98618 12.7547 -0.577353 -1.29171 12.7547 -0.656963 -1.44985 12.7547 0.125593 -2.8 0.316943 0 -2.8 0.343056 0.232066 -2.8 0.242577 0.303208 -2.8 0.131277 0.32819 -2.8 -4.21719e-06 0.303208 -2.8 -0.131285 0.232066 -2.8 -0.242585 0.125593 -2.8 -0.316951 0 -2.8 -0.343064 -0.125593 -2.8 -0.316951 -0.232066 -2.8 -0.242585 -0.303208 -2.8 -0.131285 -0.32819 -2.8 -4.21719e-06 -0.303208 -2.8 0.131277 -0.232066 -2.8 0.242577 -0.125593 -2.8 0.316943 -0.223769 -1.93157 2.03869 -0.385962 -1.81958 2.03869 0.153622 -1.81919 2.03869 0.0877604 -1.93135 2.03869 -0.451693 -1.40121 2.03869 -0.313559 -1.36008 2.03869 -0.140164 -1.40099 2.03869 0.0220299 -1.51299 2.03869 -0.493496 -1.6665 2.03869 -0.0503739 -1.97249 2.03869 0.129563 -1.66606 2.03869 -0.517555 -1.51337 2.03869 0.435739 -1.21158 -0.262978 0.978088 -1.58978 -0.590292 0.35642 -1.28386 -0.406588 0.933016 -1.62325 -0.657224 0.298354 -1.48134 -0.511718 0.887865 -1.7147 -0.698885 0.277101 -1.75111 -0.550198 0.854734 -1.83961 -0.704113 0.298354 -2.02087 -0.511718 0.842499 -1.96453 -0.671507 0.35642 -2.21835 -0.406588 0.85444 -2.05598 -0.609802 0.435739 -2.29064 -0.262978 0.887356 -2.08945 -0.535534 0.515058 -2.21835 -0.119368 0.932429 -2.05598 -0.468602 0.573124 -2.02087 -0.0142379 0.977579 -1.96453 -0.42694 0.594378 -1.75111 0.0242424 1.01071 -1.83961 -0.421712 0.573124 -1.48134 -0.0142376 1.02295 -1.7147 -0.454319 0.515058 -1.28386 -0.119367 1.011 -1.62325 -0.516023 0.893905 -1.37191 -0.730966 0.985588 -1.30383 -0.594818 0.802063 -1.55792 -0.815712 0.73467 -1.81202 -0.826346 0.709783 -2.06612 -0.76002 0.734072 -2.25213 -0.634506 0.801029 -2.32021 -0.483434 0.892711 -2.25213 -0.347285 0.984553 -2.06612 -0.26254 1.05195 -1.81202 -0.251906 1.07683 -1.55792 -0.318232 1.05254 -1.37191 -0.443746 1.25212 -1.63836 -0.874645 1.28608 -1.58331 -0.813151 1.23079 -1.72361 -0.913248 1.22783 -1.81624 -0.918617 1.24401 -1.89141 -0.889313 1.27501 -1.92899 -0.833188 1.31252 -1.91891 -0.76528 1.34648 -1.86386 -0.703786 1.36781 -1.7786 -0.665183 1.37077 -1.68598 -0.659814 1.35459 -1.6108 -0.689118 1.32359 -1.57322 -0.745243 2.35718 -1.38762 -1.3568 2.48541 -1.21867 -1.12463 2.27097 -1.60851 -1.51289 2.24988 -1.82214 -1.55108 2.29955 -1.97129 -1.46114 2.40669 -2.01598 -1.26716 2.54258 -1.94424 -1.02114 2.6708 -1.77529 -0.788972 2.75702 -1.55441 -0.632883 2.77811 -1.34077 -0.594691 2.72843 -1.19162 -0.684631 2.6213 -1.14693 -0.878603 19.1825 -1.39752 -11.5373 19.2189 -1.3123 -11.4715 19.1636 -1.55711 -11.5716 19.1671 -1.74831 -11.5652 19.1921 -1.91989 -11.5199 19.232 -2.02588 -11.4477 19.276 -2.03787 -11.368 19.3124 -1.95266 -11.3022 19.3313 -1.79307 -11.2679 19.3278 -1.60187 -11.2743 19.3027 -1.43028 -11.3196 19.2629 -1.3243 -11.3918 0.942936 -1.21009 -0.569077 1.01736 -1.28577 -0.401158 0.468628 -1.23176 -0.0699932 1.04436 -1.49252 -0.261647 0.533168 -1.45126 0.04686 1.01669 -1.77495 -0.187925 0.556792 -1.75111 0.0896312 0.941785 -2.05738 -0.199745 0.533168 -2.05095 0.0468597 0.839701 -2.26414 -0.293941 0.468628 -2.27046 -0.0699935 0.737795 -2.33982 -0.445272 0.380463 -2.3508 -0.229618 0.663373 -2.26414 -0.61319 0.292299 -2.27046 -0.389243 0.636375 -2.05738 -0.752701 0.227758 -2.05095 -0.506096 0.664037 -1.77495 -0.826424 0.204134 -1.75111 -0.548867 0.738945 -1.49252 -0.814604 0.227758 -1.45126 -0.506096 0.841029 -1.28577 -0.720408 0.292299 -1.23176 -0.389243 0.380463 -1.15141 -0.229618 0.999823 -1.335 -0.411928 1.02411 -1.52101 -0.286414 0.999226 -1.77511 -0.220088 0.931832 -2.0292 -0.230723 0.83999 -2.21522 -0.315468 0.748308 -2.2833 -0.451616 0.681352 -2.21522 -0.602688 0.657063 -2.0292 -0.728202 0.681949 -1.77511 -0.794529 0.749342 -1.52101 -0.783894 0.841185 -1.335 -0.699149 0.932867 -1.26692 -0.563 1.01207 -1.48379 -0.467991 1.03018 -1.62251 -0.374382 1.01162 -1.81202 -0.324915 0.961359 -2.00153 -0.332847 0.892863 -2.14025 -0.39605 0.824485 -2.19103 -0.497591 0.774549 -2.14025 -0.61026 0.756435 -2.00153 -0.70387 0.774995 -1.81202 -0.753336 0.825257 -1.62251 -0.745405 0.893754 -1.48379 -0.682202 0.962131 -1.43301 -0.580661 10.5259 -1.5923 -6.45193 10.6347 -2.02435 -6.25503 10.8844 -1.65449 -5.80297 10.5852 -1.39599 -6.34466 10.6766 -1.26061 -6.1792 10.7756 -1.22244 -5.99987 10.5545 -1.95508 -6.40018 10.5147 -1.79694 -6.47225 10.8251 -1.8508 -5.91024 10.7337 -1.98618 -6.0757 10.8558 -1.29171 -5.85472 10.8956 -1.44985 -5.78265 1.80091 -1.93157 -0.816782 1.88201 -1.81958 -0.669953 1.61222 -1.81919 -1.15842 1.64515 -1.93135 -1.0988 1.91487 -1.40121 -0.610449 1.84581 -1.36008 -0.735497 1.75911 -1.40099 -0.892466 1.67801 -1.51299 -1.03929 1.93578 -1.6665 -0.572607 1.71422 -1.97249 -0.97375 1.62425 -1.66606 -1.13664 1.94781 -1.51337 -0.550827 -0.435739 -1.21158 -0.262977 -0.978088 -1.58978 -0.590291 -0.515058 -1.28386 -0.119367 -1.011 -1.62325 -0.516023 -0.573124 -1.48134 -0.0142375 -1.02295 -1.7147 -0.454318 -0.594378 -1.75111 0.0242425 -1.01071 -1.83961 -0.421712 -0.573124 -2.02087 -0.0142376 -0.977579 -1.96453 -0.42694 -0.515058 -2.21835 -0.119368 -0.932429 -2.05598 -0.468601 -0.435739 -2.29064 -0.262977 -0.887356 -2.08945 -0.535534 -0.35642 -2.21835 -0.406587 -0.85444 -2.05598 -0.609802 -0.298354 -2.02087 -0.511718 -0.8425 -1.96453 -0.671506 -0.277101 -1.75111 -0.550198 -0.854734 -1.83961 -0.704113 -0.298354 -1.48134 -0.511718 -0.887865 -1.7147 -0.698885 -0.35642 -1.28386 -0.406588 -0.933016 -1.62325 -0.657223 -1.05254 -1.37191 -0.443746 -0.985588 -1.30383 -0.594818 -1.07683 -1.55792 -0.318231 -1.05195 -1.81202 -0.251905 -0.984553 -2.06612 -0.26254 -0.892711 -2.25213 -0.347285 -0.801029 -2.32021 -0.483434 -0.734073 -2.25213 -0.634505 -0.709784 -2.06612 -0.76002 -0.73467 -1.81202 -0.826346 -0.802064 -1.55792 -0.815711 -0.893906 -1.37191 -0.730966 -1.35068 -1.63836 -0.696182 -1.31672 -1.58331 -0.757676 -1.37201 -1.72361 -0.657579 -1.37497 -1.81624 -0.65221 -1.35879 -1.89141 -0.681515 -1.32779 -1.92899 -0.73764 -1.29028 -1.91891 -0.805547 -1.25632 -1.86386 -0.867041 -1.23499 -1.7786 -0.905645 -1.23203 -1.68598 -0.911013 -1.24821 -1.6108 -0.881709 -1.27921 -1.57322 -0.825584 -2.30267 -1.38762 -1.45549 -2.17444 -1.21867 -1.68765 -2.38889 -1.60851 -1.2994 -2.40998 -1.82214 -1.26121 -2.3603 -1.97129 -1.35115 -2.25317 -2.01598 -1.54512 -2.11728 -1.94424 -1.79115 -1.98905 -1.77529 -2.02331 -1.90284 -1.55441 -2.1794 -1.88174 -1.34077 -2.21759 -1.93142 -1.19162 -2.12765 -2.03856 -1.14693 -1.93368 -19.1497 -1.39752 -11.5966 -19.1134 -1.3123 -11.6624 -19.1687 -1.55711 -11.5623 -19.1652 -1.74831 -11.5687 -19.1401 -1.91989 -11.6141 -19.1002 -2.02588 -11.6863 -19.0562 -2.03787 -11.7659 -19.0199 -1.95266 -11.8317 -19.0009 -1.79307 -11.8661 -19.0045 -1.60187 -11.8597 -19.0295 -1.43028 -11.8143 -19.0694 -1.3243 -11.7421 -0.942936 -1.21009 -0.569076 -0.841029 -1.28577 -0.720408 -0.292299 -1.23176 -0.389243 -0.738945 -1.49252 -0.814603 -0.227758 -1.45126 -0.506096 -0.664037 -1.77495 -0.826423 -0.204134 -1.75111 -0.548867 -0.636375 -2.05738 -0.752701 -0.227758 -2.05095 -0.506096 -0.663373 -2.26414 -0.61319 -0.292299 -2.27046 -0.389242 -0.737795 -2.33982 -0.445272 -0.380463 -2.3508 -0.229618 -0.839702 -2.26414 -0.293941 -0.468628 -2.27046 -0.0699933 -0.941786 -2.05738 -0.199745 -0.533168 -2.05095 0.04686 -1.01669 -1.77495 -0.187925 -0.556792 -1.75111 0.0896314 -1.04436 -1.49252 -0.261647 -0.533168 -1.45126 0.0468601 -1.01736 -1.28577 -0.401158 -0.468628 -1.23176 -0.0699932 -0.380463 -1.15141 -0.229618 -0.841185 -1.335 -0.699149 -0.749342 -1.52101 -0.783894 -0.681949 -1.77511 -0.794528 -0.657063 -2.0292 -0.728202 -0.681352 -2.21522 -0.602688 -0.748308 -2.2833 -0.451616 -0.83999 -2.21522 -0.315468 -0.931833 -2.0292 -0.230722 -0.999226 -1.77511 -0.220088 -1.02411 -1.52101 -0.286414 -0.999823 -1.335 -0.411928 -0.932867 -1.26692 -0.563 -0.893754 -1.48379 -0.682202 -0.825257 -1.62251 -0.745405 -0.774995 -1.81202 -0.753336 -0.756435 -2.00153 -0.70387 -0.774549 -2.14025 -0.61026 -0.824486 -2.19103 -0.49759 -0.892863 -2.14025 -0.39605 -0.961359 -2.00153 -0.332846 -1.01162 -1.81202 -0.324915 -1.03018 -1.62251 -0.374382 -1.01207 -1.48379 -0.467991 -0.962131 -1.43301 -0.580661 -10.6083 -1.5923 -6.30283 -10.4995 -2.02435 -6.49973 -10.2499 -1.65449 -6.95179 -10.5491 -1.39599 -6.4101 -10.4577 -1.26061 -6.57556 -10.3586 -1.22244 -6.75489 -10.5797 -1.95508 -6.35458 -10.6195 -1.79694 -6.28251 -10.3091 -1.8508 -6.84452 -10.4005 -1.98618 -6.67906 -10.2784 -1.29171 -6.90004 -10.2386 -1.44985 -6.97211 -1.57714 -1.93157 -1.22192 -1.49605 -1.81958 -1.36875 -1.76584 -1.81919 -0.880282 -1.73291 -1.93135 -0.939905 -1.46318 -1.40121 -1.42825 -1.53225 -1.36008 -1.30321 -1.61895 -1.40099 -1.14624 -1.70004 -1.51299 -0.999408 -1.44228 -1.6665 -1.4661 -1.66384 -1.97249 -1.06495 -1.75381 -1.66606 -0.902062 -1.43025 -1.51337 -1.48788 -0.54575 -1.50053 16.2145 -0.434538 -1.5512 19.6742 -0.29543 -2.00342 16.2145 -0.257611 -2.02065 19.6742 0.0692197 -1.78073 16.2145 0.033645 -1.76453 19.6742 -0.181101 -1.27785 16.2145 -0.143282 -1.29508 19.6742 0.0308647 -1.56884 19.6742 0.0566065 -1.58057 16.2145 -0.132907 -2.02537 19.6742 -0.134029 -2.02486 16.2145 -0.0338949 -1.39701 19.6742 -0.0350168 -1.3965 16.2145 -0.267986 -1.29035 19.6742 -0.342502 -1.2564 16.2145 -0.0262996 -1.93163 19.6742 -0.000557895 -1.94336 16.2145 -0.366998 -1.91871 19.6742 -0.441513 -1.88476 16.2145 -0.374593 -1.3841 19.6742 -0.475973 -1.3379 16.2145 -0.431757 -1.74688 19.6742 -0.533137 -1.70069 16.2145 13.7063 -1.50052 -7.6132 16.5171 -1.55119 -9.44374 13.5812 -2.00341 -7.8398 16.4286 -2.02064 -9.6039 13.3988 -1.78073 -8.16991 16.283 -1.76452 -9.86757 13.524 -1.27784 -7.9433 16.3714 -1.29507 -9.7074 16.2844 -1.56884 -9.86505 13.4052 -1.58057 -8.15849 16.3662 -2.02537 -9.71679 13.5005 -2.02486 -7.98591 16.3167 -1.39701 -9.80643 13.451 -1.3965 -8.07555 16.4338 -1.29034 -9.59451 13.6047 -1.25639 -7.79719 16.3129 -1.93162 -9.8133 13.4337 -1.94335 -8.10674 16.4833 -1.91871 -9.50488 13.6542 -1.88475 -7.70756 16.4871 -1.38409 -9.498 13.6714 -1.3379 -7.67636 16.5157 -1.74688 -9.44625 13.7 -1.70068 -7.62461 -13.1606 -1.50052 -8.6013 -16.0825 -1.55119 -10.2305 -13.2857 -2.00341 -8.37469 -16.171 -2.02064 -10.0703 -13.4681 -1.78073 -8.04458 -16.3166 -1.76452 -9.80665 -13.3429 -1.27784 -8.27119 -16.2281 -1.29507 -9.96682 -16.3152 -1.56884 -9.80917 -13.4618 -1.58057 -8.056 -16.2333 -2.02537 -9.95743 -13.3664 -2.02486 -8.22857 -16.2828 -1.39701 -9.86779 -13.4159 -1.3965 -8.13894 -16.1658 -1.29034 -10.0797 -13.2622 -1.25639 -8.4173 -16.2866 -1.93162 -9.86092 -13.4332 -1.94335 -8.10775 -16.1163 -1.9187 -10.1693 -13.2127 -1.88475 -8.50693 -16.1125 -1.38409 -10.1762 -13.1955 -1.3379 -8.53813 -16.0839 -1.74687 -10.228 -13.1669 -1.70068 -8.58988</float_array>
          <technique_common>
            <accessor source="#Cylinder.001-mesh-positions-array" count="600" stride="3">
              <param name="X" type="float"/>
              <param name="Y" type="float"/>
              <param name="Z" type="float"/>
            </accessor>
          </technique_common>
        </source>
        <source id="Cylinder.001-mesh-normals">
          <float_array id="Cylinder.001-mesh-normals-array" count="2676">0.679923 -0.575601 0.4543 -0.0886096 -0.890899 -0.445475 -0.679923 -0.575601 -0.4543 0.802019 -0.5756 0.159532 -0.802019 -0.5756 -0.159532 0.802018 -0.5756 -0.159533 -0.802018 -0.575601 0.159534 0.679922 -0.575601 -0.454301 -0.679922 -0.575601 0.454302 0.454306 -0.575601 -0.679919 -0.454306 -0.575601 0.679918 0.15953 -0.575598 -0.80202 0.159524 -0.575601 0.80202 -0.15953 -0.575598 0.80202 -0.159524 -0.575601 -0.80202 0.454308 -0.575602 0.679917 -0.454307 -0.575602 -0.679917 0 1 0 0.0694802 0.934432 0.349298 0.19786 0.934432 0.296123 0.296123 0.934432 0.197858 0.349297 0.934433 0.0694803 0.349298 0.934432 -0.06948 0.296123 0.934432 -0.197858 0.197859 0.934432 -0.296122 0.0694794 0.934431 -0.3493 -0.0694802 0.934432 -0.349298 -0.197861 0.934432 -0.296123 -0.296123 0.934432 -0.197858 -0.349297 0.934433 -0.0694801 -0.349297 0.934432 0.06948 -0.296123 0.934432 0.197859 -0.197859 0.934432 0.296122 -0.0694795 0.934431 0.3493 -0.555566 0 -0.831473 -0.546209 -0.182751 -0.81747 0.555565 0 0.831473 0.546209 -0.182751 0.81747 -0.195089 0 -0.980786 -0.191804 -0.182747 -0.964269 -0.195089 0 0.980786 -0.191796 -0.182752 0.96427 0.195088 0 0.980786 0.191804 -0.182747 0.964269 0.195089 0 -0.980786 0.191796 -0.182752 -0.96427 -0.555565 0 0.831473 -0.546213 -0.182747 0.817468 0.555565 0 -0.831473 0.546214 -0.182747 -0.817468 -0.831475 0 0.555562 -0.817473 -0.182751 0.546206 0.831476 0 -0.555561 0.817473 -0.182751 -0.546205 -0.980785 0 0.195092 -0.964268 -0.18275 0.191806 0.980785 0 -0.195092 0.964268 -0.18275 -0.191806 -0.980785 0 -0.195092 -0.964268 -0.18275 -0.191807 0.980785 0 0.195092 0.964268 -0.18275 0.191807 -0.831475 0 -0.555562 -0.817472 -0.182749 -0.546208 0.831476 0 0.555561 0.817472 -0.182748 0.546208 0.258818 0.909823 0.3244 0.707106 0.666036 0.23748 0.965926 0.243786 0.0869229 0.965926 -0.243787 -0.0869226 0.707106 -0.666037 -0.237478 0.258819 -0.909822 -0.324402 -0.258819 -0.909822 -0.324403 -0.707106 -0.666036 -0.237481 -0.965925 -0.243788 -0.0869227 -0.965926 0.243786 0.0869237 -0.421394 -0.884283 0.201175 -0.707107 0.666036 0.237479 -0.258819 0.909822 0.324401 0 0 -1 3.49339e-06 -0.335843 0.941918 -5.24007e-06 -0.335844 0.941918 0 -0.335846 0.941917 -0.359013 -0.926722 -0.110885 0.952465 -0.296261 0.0709916 -0.335434 0.941075 -0.0431468 0.430187 0.902737 -0.00219777 -0.752111 -0.639682 0.158543 0.649923 -0.744481 0.152802 0.0787999 0.996752 -0.0166289 0.685478 0.728092 -0.000964242 -0.992144 -0.108025 0.0630893 0.221438 -0.952282 0.210056 0.962828 0.269879 0.0112665 -0.806397 0.590489 -0.0323574 -0.895196 0.444589 0.0310692 0.661807 -0.749674 0.000363155 -0.168119 0.960036 -0.223755 0.375695 0.925209 -0.0533138 -0.587396 -0.779712 -0.21683 0.12172 -0.992413 -0.0173348 0.136586 0.98438 -0.111088 0.641691 0.766557 -0.024957 -0.867191 -0.291207 -0.403953 -0.153188 -0.986846 -0.0516487 0.966083 0.258113 -0.00785328 -0.645808 0.64487 -0.408747 0 0 1 -0.480568 -0.87694 0.00552923 0.895601 -0.444789 0.00789252 -0.615711 0.787752 0.0186142 0.56758 0.823318 -0.000117694 -0.84174 -0.53946 0.0213553 0.615816 -0.78789 -0.000280365 -0.0798823 0.996796 0.00396463 0.841921 0.539573 0.0054236 -0.999152 -0.0241395 0.0333554 -0.0222867 -0.999748 -0.00280621 0.999651 0.0241529 0.0106751 -0.00768855 -0.333892 0.94258 -0.22817 -0.851542 -0.472032 -0.00206237 -0.34308 0.939304 0.965924 -0.258818 -0.00207406 -0.706809 0.706807 0.0290546 0.706809 0.706808 0.0290546 0.965903 0.258813 0.00683413 -0.851543 -0.228171 -0.47203 0.00205969 -0.328586 0.944472 0.258791 -0.965815 0.0151233 0.851543 -0.22817 -0.472031 0.851543 0.228172 -0.47203 -0.851543 0.22817 -0.472031 0.00563414 -0.341141 0.939995 0.623375 0.623373 -0.472028 -0.258791 -0.965815 0.0151229 -0.965903 0.258813 0.00683395 0.707094 -0.707093 0.00613364 -0.965923 -0.258819 -0.00207397 -0.00769847 -0.337776 0.941195 -0.623372 0.623372 -0.472031 0.00768848 -0.337775 0.941196 0.228171 -0.851542 -0.472032 0.623373 -0.623371 -0.472033 -0.13642 -0.764959 0.629466 -0.258517 0.964795 0.0483625 -0.00563251 -0.330526 0.94378 -0.00562693 -0.341134 0.939998 0.228171 0.851543 -0.472031 0.258517 0.964795 0.0483621 0.00563675 -0.330528 0.943779 -0.22817 0.851541 -0.472034 0.00206148 -0.343073 0.939306 -0.707094 -0.707093 0.00613322 -0.00206296 -0.32858 0.944474 -0.623373 -0.623372 -0.472032 -0.947755 -0.31826 0.0217085 0.509125 -0.413901 0.754637 -0.372703 0.0656552 0.925625 0.00769381 -0.333891 0.94258 -0.372705 -0.636463 0.675282 0.372707 -0.636463 0.675281 0.372706 0.0656558 0.925624 0.136422 0.19415 0.97144 -0.509125 -0.413901 0.754638 0.136419 -0.764958 0.629467 0.509126 -0.156909 0.846269 -0.509124 -0.156908 0.84627 0.947967 0.318331 0.00501627 0.246225 -0.969212 -0.000977156 -0.246217 0.969175 0.0088148 -0.153393 -0.988165 -0.00107795 -0.136424 0.194148 0.97144 0.112585 0.993641 0.00148704 0.399317 0.916813 -0.000296781 -0.36124 -0.932471 0.00194077 -0.75949 0.650161 0.0215632 0.601712 0.798712 0.00144969 -0.601687 -0.798682 0.00895324 0.759662 -0.650308 0.00349209 0 -1 0 0.25234 -0.890898 0.377658 -0.252341 -0.890898 -0.377657 0.37766 -0.890898 0.252336 -0.37766 -0.890898 -0.252336 0.445477 -0.890898 0.088612 -0.445477 -0.890898 -0.0886129 0.445476 -0.890898 -0.0886117 -0.445476 -0.890898 0.0886117 0.377659 -0.890898 -0.252339 -0.377659 -0.890898 0.252339 0.252342 -0.890899 -0.377655 -0.252342 -0.890899 0.377655 0.0886064 -0.8909 -0.445473 0.0886092 -0.890899 0.445475 -0.0886064 -0.8909 0.445473 -0.634591 0.464683 -0.617547 0.994028 0.10823 -0.0139707 -0.137016 -0.987483 -0.0781254 -0.769512 -0.205593 -0.604635 0.761422 0.647601 -0.0291528 0.0771485 0.975861 -0.204314 0.172468 -0.984876 -0.0165353 -0.595089 -0.71089 -0.374839 0.428979 0.900202 -0.0749179 -0.30436 0.853896 -0.422169 0.707607 -0.706584 0.00562552 -0.369295 -0.909444 -0.191135 0.15153 0.909822 -0.386344 -0.147892 0.666037 -0.731111 -0.407688 0.243787 -0.879977 -0.558243 -0.243785 -0.793054 -0.559215 -0.666037 -0.493632 -0.41035 -0.909822 -0.0619421 -0.151531 -0.909821 0.386346 0.147891 -0.666036 0.731112 0.407682 -0.243787 0.879979 0.558239 0.243786 0.793056 0.384921 -0.884282 0.264351 0.559214 0.666037 0.493633 0.410348 0.909823 0.0619441 -0.866025 1.53942e-07 0.5 0.815723 -0.335847 -0.470959 0.815725 -0.335842 -0.47096 0.815725 -0.335845 -0.470957 0.0834778 -0.926722 0.366358 -0.414752 -0.296262 -0.860354 0.130352 0.941074 0.31207 -0.216997 0.902737 -0.371454 0.513358 -0.639683 0.572074 -0.192631 -0.74448 -0.639252 -0.0538026 0.996752 -0.0599317 -0.343575 0.728093 -0.593159 0.550711 -0.108024 0.827677 0.0711956 -0.952283 -0.296797 -0.471657 0.269882 -0.839466 0.375177 0.590488 0.714539 0.474508 0.444573 0.759735 -0.33059 -0.749673 -0.573324 -0.109718 0.960035 0.257477 -0.234019 0.925208 -0.298705 0.105918 -0.779712 0.617115 -0.0758724 -0.992413 -0.0967454 -0.164499 0.98438 -0.0627415 -0.342458 0.766559 -0.54324 0.0837627 -0.291207 0.952986 0.0318653 -0.986846 0.158491 -0.489844 0.258111 -0.832726 -0.0310826 0.644871 0.763659 0.866027 0 -0.499997 0.245075 -0.876939 0.413421 -0.440961 -0.444808 -0.779551 0.323974 0.787755 0.523911 -0.2839 0.823306 -0.491495 0.439359 -0.539475 0.718283 -0.308148 -0.787892 -0.53317 0.0433744 0.996796 0.0671971 -0.416263 0.539574 -0.731837 0.528463 -0.0241438 0.848613 0.0087123 -0.999748 0.0207023 -0.49058 0.024167 -0.871061 0.820146 -0.333889 -0.464627 -0.294707 -0.851542 0.433618 0.814491 -0.343082 -0.467866 -0.484758 -0.258819 -0.835478 0.378566 0.706808 0.597587 -0.328243 0.706809 -0.626641 -0.477034 0.258813 -0.839913 0.0169799 -0.22817 0.973473 0.816905 -0.328589 -0.474021 -0.116298 -0.965815 -0.231681 -0.834562 -0.22817 -0.501443 -0.834562 0.228171 -0.501442 0.0169795 0.22817 0.973473 0.811243 -0.34114 -0.474877 -0.720476 0.623373 -0.303843 0.142492 -0.965815 0.216558 0.48887 0.258813 0.83308 -0.348236 -0.707092 -0.615429 0.481166 -0.258821 0.837551 0.818946 -0.337776 -0.463934 -0.0971019 0.623371 0.775874 0.811251 -0.337775 -0.477263 -0.522877 -0.851542 0.038414 -0.720476 -0.623373 -0.303841 0.613342 -0.764959 -0.196593 0.171141 0.964795 0.199702 0.820156 -0.330524 -0.467011 0.816877 -0.341138 -0.465121 -0.522874 0.851544 0.0384152 -0.0873756 0.964796 -0.248063 0.814519 -0.330529 -0.47677 -0.294707 0.851542 0.433617 0.812432 -0.343077 -0.471437 0.358858 -0.707092 0.609295 0.818965 -0.328593 -0.470449 -0.0971053 -0.623372 0.775872 0.492676 -0.318265 0.809924 0.398973 -0.413901 -0.818234 0.987967 0.0656548 -0.140041 0.812453 -0.333892 -0.47795 0.771165 -0.636461 -0.0148674 0.398458 -0.636462 -0.660415 0.615262 0.065654 -0.785584 0.77308 0.194152 -0.603864 0.908098 -0.4139 0.0635964 0.476924 -0.764959 -0.432876 0.478328 -0.156909 -0.86405 0.987453 -0.156908 0.0177819 -0.46964 0.318326 -0.823472 -0.123958 -0.969213 -0.212748 0.130743 0.969174 0.208825 0.0757632 -0.988165 0.133382 0.909501 0.194154 -0.367576 -0.0550054 0.993641 -0.0982467 -0.199915 0.916813 -0.345669 0.182301 -0.932471 0.311872 0.398416 0.650169 0.646951 -0.2996 0.798713 -0.521821 0.308597 -0.798682 0.516599 -0.376806 -0.65031 -0.659632 -0.217517 0.464685 0.858344 -0.509114 0.108229 -0.853867 0.000850263 -0.987483 0.157722 -0.138874 -0.205594 0.968734 -0.405956 0.647605 -0.644832 -0.215516 0.975861 0.0353407 -0.100555 -0.984876 -0.141095 -0.0270754 -0.710889 0.702783 -0.27937 0.900202 -0.33405 -0.213427 0.853895 0.474671 -0.348931 -0.706582 -0.61562 0.0191195 -0.909444 0.415387 -0.410347 0.909823 0.0619463 -0.559216 0.666036 0.493633 -0.55824 0.243786 0.793055 -0.407686 -0.243786 0.879978 -0.147891 -0.666038 0.73111 0.151528 -0.909823 0.386345 0.410349 -0.909822 -0.0619444 0.559215 -0.666036 -0.493634 0.558242 -0.243786 -0.793054 0.40769 0.243786 -0.879976 0.0364755 -0.884282 -0.465527 0.14789 0.666037 -0.731111 -0.151524 0.909824 -0.386344 0.866025 -1.3308e-07 0.5 -0.815725 -0.335845 -0.470957 -0.815723 -0.335845 -0.470961 -0.815725 -0.335842 -0.470959 -0.815724 -0.335843 -0.470959 0.275536 -0.926722 -0.255472 -0.537713 -0.296263 0.789362 0.205085 0.941074 -0.268924 -0.21319 0.902737 0.373651 0.238752 -0.639685 -0.730617 -0.457292 -0.744479 0.486451 -0.0249997 0.996752 0.0765598 -0.341903 0.72809 0.594127 0.441436 -0.108025 -0.890766 -0.292633 -0.952283 0.0867395 -0.49117 0.269881 0.8282 0.431219 0.590494 -0.682178 0.420694 0.444577 -0.790802 -0.331218 -0.749676 0.572958 0.277838 0.960036 -0.0337184 -0.141676 0.925208 0.352019 0.481478 -0.779712 -0.400285 -0.0458485 -0.992413 0.11408 0.0279132 0.98438 0.173831 -0.299231 0.766558 0.568199 0.783428 -0.291209 -0.549033 0.121323 -0.986846 -0.10684 -0.47624 0.258114 0.840578 0.676889 0.644871 -0.354912 -0.866026 0 -0.5 0.235498 -0.876937 -0.418954 -0.454637 -0.444778 0.771672 0.291729 0.787762 -0.542518 -0.283688 0.823319 0.491597 0.402371 -0.539474 -0.739638 -0.30766 -0.787896 0.533446 0.0365088 0.996796 -0.0711645 -0.425657 0.539574 0.726413 0.470688 -0.0241662 -0.881969 0.0135726 -0.999748 -0.0178964 -0.50907 0.0241334 0.860387 -0.812452 -0.333888 -0.477955 0.522877 -0.851542 0.0384147 -0.812429 -0.343083 -0.471438 -0.481165 -0.258819 0.837551 0.328242 0.706809 -0.626641 -0.378566 0.706808 0.597587 -0.48887 0.258813 0.83308 0.834562 -0.22817 -0.501442 -0.818965 -0.328589 -0.470453 -0.142492 -0.965815 0.216558 -0.0169813 -0.228169 0.973473 -0.0169826 0.22817 0.973473 0.834562 0.228171 -0.501443 -0.816878 -0.341135 -0.465121 0.0971045 0.623373 0.775872 0.116298 -0.965815 -0.231682 0.477034 0.258812 -0.839914 -0.358858 -0.707093 0.609295 0.484758 -0.258818 -0.835478 -0.811252 -0.337775 -0.477261 0.720475 0.623373 -0.303844 -0.818947 -0.337776 -0.463932 0.294706 -0.851542 0.433617 0.0971043 -0.623373 0.775872 -0.476926 -0.764958 -0.432875 0.0873757 0.964795 -0.248064 -0.81452 -0.330529 -0.476768 -0.811246 -0.34114 -0.474873 0.294706 0.851543 0.433617 -0.171141 0.964796 0.199701 -0.820154 -0.330527 -0.467011 0.522877 0.851542 0.0384186 -0.814492 -0.343075 -0.46787 0.348235 -0.707094 -0.615427 -0.816907 -0.328584 -0.47402 0.720477 -0.623373 -0.303841 0.455077 -0.318261 -0.831634 -0.908098 -0.413901 0.0635965 -0.61526 0.0656563 -0.785586 -0.820143 -0.333893 -0.464631 -0.398458 -0.636462 -0.660415 -0.771165 -0.636462 -0.0148673 -0.987967 0.0656543 -0.140037 -0.909501 0.194151 -0.367578 -0.398974 -0.413901 -0.818233 -0.613343 -0.76496 -0.196589 -0.987454 -0.156906 0.0177784 -0.478329 -0.156907 -0.86405 -0.478327 0.318332 0.818454 -0.122267 -0.969212 0.213726 0.115476 0.969174 -0.217639 0.0776301 -0.988165 -0.132305 -0.773081 0.194148 -0.603864 -0.0575806 0.993641 0.096759 -0.199402 0.916812 0.345968 0.178939 -0.932471 -0.313814 0.361069 0.650165 -0.668516 -0.302111 0.798712 0.520373 0.29309 -0.798682 -0.525552 -0.382855 -0.650309 0.65614 0.852105 0.464688 -0.240797 -0.484915 0.108229 0.867839 0.136167 -0.987483 -0.0795972 0.908385 -0.205592 -0.364099 -0.355464 0.647602 0.673986 0.138365 0.975861 0.16897 -0.0719154 -0.984876 0.15763 0.622163 -0.710892 -0.327942 -0.149608 0.900202 0.408966 0.517789 0.853896 -0.0525018 -0.358675 -0.706582 0.609995 0.350176 -0.909443 -0.224252 0.982997 0.183346 0.0100376 0.994254 0.106541 0.0103798 -0.112586 -0.99364 -0.00175581 -0.0779086 -0.996958 -0.00216227 -0.982563 -0.183266 0.0313654 -0.993785 -0.106491 0.0324338 0.697842 0.71624 0.00393493 0.763271 0.646062 0.00458996 0.077909 0.996958 0.00216222 0.0222886 0.999748 0.00280629 0.337977 -0.941154 -0.000200126 0.459338 -0.888261 -0.000236433 -0.697762 -0.716162 0.015495 -0.763152 -0.645966 0.018074 0.431008 0.902348 -6.41073e-05 0.480572 0.876955 -8.32854e-05 -0.337953 0.941069 0.0132857 -0.459286 0.88815 0.0156982 0.807802 -0.589406 0.00751101 0.853672 -0.520753 0.0077247 -0.399316 -0.916807 0.00345944 -0.431006 -0.902339 0.00426013 -0.807469 0.589168 0.0295688 -0.853302 0.52053 0.0304093 -0.482806 0.183349 -0.856318 -0.488139 0.106528 -0.86624 0.0547723 -0.99364 0.0983807 0.0370818 -0.996958 0.0685528 0.518444 -0.183278 0.83524 0.524981 -0.106477 0.844427 -0.345514 0.716239 -0.606318 -0.377657 0.64607 -0.663302 -0.0370811 0.996958 -0.06855 -0.00871206 0.999748 -0.0207012 -0.169159 -0.941156 -0.292592 -0.229873 -0.888262 -0.39768 0.362302 -0.716159 0.596535 0.397227 -0.645967 0.651872 -0.215561 0.902346 -0.373235 -0.240361 0.876952 -0.41615 0.180484 0.941068 0.286035 0.243241 0.888146 0.389911 -0.3974 -0.589397 -0.703338 -0.420141 -0.520768 -0.743157 0.202653 -0.916808 0.344086 0.219193 -0.902338 0.371134 0.429339 0.589177 0.684499 0.452986 0.520527 0.723778 -0.500191 0.183349 0.846281 -0.506116 0.106539 0.85586 0.0578129 -0.993641 -0.0966237 0.0408259 -0.996958 -0.0663888 0.464118 -0.183258 -0.866609 0.468803 -0.10651 -0.876858 -0.352327 0.716243 0.602379 -0.385606 0.646071 0.658711 -0.0408267 0.996958 0.0663895 -0.0135735 0.999748 0.0178979 -0.168816 -0.941154 0.292798 -0.229463 -0.888263 0.397915 0.335461 -0.716163 -0.612026 0.365921 -0.645973 -0.669941 -0.215448 0.902349 0.373294 -0.240211 0.876958 0.416224 0.157471 0.941069 -0.299319 0.216049 0.888149 -0.405604 -0.410405 -0.589407 0.695821 -0.433527 -0.520747 0.735444 0.196662 -0.916807 -0.347548 0.211815 -0.902338 -0.375394 0.378129 0.589163 -0.714076 0.400309 0.520555 -0.754172 -0.0886064 -0.8909 -0.445473 0.159524 -0.575601 -0.80202 0.15953 -0.575599 0.80202 -0.159524 -0.575601 0.80202 -0.15953 -0.575598 -0.80202 -0.555565 0 0.831473 0.817473 -0.182751 0.546205 0.707109 0.666035 0.237476 -0.707108 -0.666036 -0.237474 -0.224135 -0.955842 0.190075 -0.373903 -0.920791 -0.111088 0.806301 -0.590421 0.0357961 -0.672683 0.737124 -0.0643889 0.242086 0.969798 -0.0297559 -0.647249 -0.744886 0.161904 0.333923 -0.93683 0.104142 -0.239808 0.969329 -0.0537844 0.761487 0.647656 -0.0260804 -0.95144 -0.298076 0.076892 -0.0778996 -0.985303 0.152018 0.99403 0.108231 -0.013836 -0.959672 0.280363 -0.0206523 -0.853222 0.520481 0.0333555 0.707597 -0.706573 -0.00785334 -0.118844 0.968948 -0.21683 0.360757 0.931229 -0.051649 -0.625615 -0.747355 -0.223755 0.172437 -0.984704 -0.0249575 0.152446 0.982072 -0.110885 0.601623 0.798592 -0.0173339 -0.881721 -0.235573 -0.408747 -0.137241 -0.989102 -0.0533134 0.947978 0.318335 0.000363072 -0.605407 0.685787 -0.403953 9.91363e-06 0 1 2.03137e-05 0 1 -0.567578 -0.82331 0.0039647 0.853649 -0.520739 0.0106751 -0.459239 0.888056 0.0213553 0.48057 0.876952 -0.00280623 -0.927097 -0.374359 0.0186142 0.459332 -0.888248 0.00542365 0.0222885 0.999736 0.00552922 0.927259 0.37442 -0.000280351 -0.997557 0.0625707 0.0310691 0.0798806 -0.996804 -0.000117722 0.998008 -0.0625986 0.00789253 -0.00769915 -0.33389 0.94258 -0.00206148 -0.343073 0.939306 0.962483 -0.271246 -0.00716234 -0.691611 0.721364 0.0361597 0.691611 0.721364 0.0361597 0.962814 0.269937 0.0110962 0.243993 -0.969741 0.00841144 0.00562694 -0.341135 0.939998 -0.243993 -0.96974 0.00841144 -0.962814 0.269937 0.0110963 0.686675 -0.726941 -0.00582511 -0.962483 -0.271248 -0.00716243 -0.00768848 -0.337776 0.941195 0.00769845 -0.337776 0.941195 -0.248735 0.967208 0.0513853 -0.00563676 -0.330522 0.943781 -0.00563417 -0.341142 0.939995 0.248734 0.967208 0.0513856 0.00563254 -0.330528 0.943779 0.00206237 -0.34308 0.939304 -0.686676 -0.726941 -0.00582471 -0.00206235 -0.328586 0.944472 -0.982818 -0.183314 0.0215632 -0.372707 0.065655 0.925623 -0.372705 -0.636464 0.675282 0.372704 0.0656553 0.925625 -0.509124 -0.413901 0.754638 -0.509126 -0.156908 0.846269 0.983041 0.183354 0.00349212 0.121739 -0.992561 0.0014497 -0.121736 0.992522 0.00895324 -0.112586 -0.993642 -0.000296763 0.153392 0.988164 0.00194075 0.361239 0.932472 -0.00107794 -0.399318 -0.916811 0.00148705 -0.66165 0.749498 0.0217085 0.697847 0.716246 -0.000977142 -0.697818 -0.71622 0.00881478 0.661799 -0.749665 0.00501629 0 -1 5.31201e-06 0 -1 -5.312e-06 0.252342 -0.890899 0.377655 -0.25234 -0.890898 0.377657 0.0886095 -0.890899 -0.445475 -0.563621 0.562803 -0.604636 0.966097 0.258117 0.00562545 -0.0785938 -0.994088 -0.0749175 -0.781913 -0.085135 -0.617548 0.641803 0.766692 -0.0165347 0.134902 0.972249 -0.191135 0.335606 -0.941551 -0.0291526 -0.690535 -0.587311 -0.42217 0.37508 0.923694 -0.0781257 -0.159917 0.913194 -0.374838 0.80674 -0.590742 -0.0139709 -0.421114 -0.883697 -0.204312 -0.407685 0.243784 -0.879979 -0.558238 -0.243785 -0.793057 0.407686 -0.243787 0.879977 0.276677 -0.955843 0.0990665 0.410349 0.909822 0.0619454 -0.866025 1.35702e-06 0.500001 0.0907462 -0.920791 0.379353 -0.37215 -0.590421 -0.716175 0.280579 0.737124 0.614755 -0.146812 0.969799 -0.194774 0.463837 -0.744885 0.479585 -0.0767716 -0.936829 -0.34126 0.0733249 0.969329 0.234572 -0.403329 0.647658 -0.646425 0.542309 -0.298077 0.785526 0.170601 -0.985303 -0.00854803 -0.508997 0.108229 -0.853937 0.461951 0.280365 0.841426 0.455497 0.520482 0.722233 -0.360599 -0.706571 -0.608872 -0.128358 0.968948 0.211338 -0.225109 0.931228 -0.286601 0.11903 -0.747356 0.653675 -0.107834 -0.984703 -0.136861 -0.172253 0.982072 -0.076581 -0.315822 0.798594 -0.512351 0.0868747 -0.235573 0.967966 0.02245 -0.989102 0.145511 -0.473675 0.318331 -0.821156 -0.0471299 0.685787 0.726275 0.866023 0 -0.500003 0.866025 5.41687e-05 -0.5 0.866022 3.96553e-05 -0.500006 0.86603 -2.90297e-05 -0.499992 0.866025 3.35203e-05 -0.500001 0.866023 -2.28949e-05 -0.500005 0.866021 5.41714e-05 -0.500008 0.287216 -0.82332 0.489541 -0.417576 -0.520748 -0.744615 0.248115 0.888055 0.387037 -0.242714 0.876953 -0.414781 0.47967 -0.374352 0.793585 -0.22497 -0.888247 -0.400508 -0.00635383 0.999736 -0.0220624 -0.463874 0.374416 -0.802891 0.525684 0.0625925 0.848374 -0.0400444 -0.996804 -0.0691206 -0.492169 -0.0625831 -0.868247 -0.487445 -0.271246 -0.829954 0.377121 0.721365 0.580872 -0.31449 0.721365 -0.617032 -0.471797 0.269937 -0.83937 0.816905 -0.328586 -0.474023 -0.114712 -0.969741 -0.215509 0.811248 -0.341134 -0.474873 0.129281 -0.969741 0.207097 0.491017 0.269937 0.828273 -0.348383 -0.726941 -0.591765 0.475039 -0.271247 0.837116 0.811251 -0.337776 -0.477262 0.168868 0.967208 0.189717 0.82015 -0.330533 -0.467013 -0.522876 0.851543 0.038414 -0.0798659 0.967208 -0.241102 -0.294703 0.851544 0.433616 0.338292 -0.726941 0.597591 0.510082 -0.183323 0.840362 0.39897 -0.413901 -0.818235 0.398457 -0.636461 -0.660415 -0.488496 0.183354 -0.853084 -0.0596142 -0.992561 -0.106154 0.0686216 0.992522 0.10095 0.0560361 -0.993642 0.0976496 0.909502 0.194152 -0.367575 -0.0750157 0.988164 -0.133811 -0.181554 0.932472 -0.312304 0.200947 -0.916811 0.345078 0.349625 0.749499 0.562151 -0.349769 0.716248 -0.603863 0.356545 -0.716218 0.599923 -0.326557 -0.74966 -0.575648 -0.241819 0.562803 0.790428 -0.478177 0.258115 -0.839478 -0.0255849 -0.994088 0.105523 -0.143854 -0.0851353 0.98593 -0.335221 0.766693 -0.547548 -0.23298 0.972249 -0.0212609 -0.19305 -0.941551 -0.276068 -0.0203408 -0.587314 0.809103 -0.255199 0.923694 -0.285767 -0.244661 0.913193 0.325913 -0.41547 -0.590739 -0.691674 0.0336183 -0.883696 0.466852 -0.410349 0.909822 0.0619436 -0.559214 0.666037 0.493635 -0.558242 0.243786 0.793054 0.407683 0.243787 -0.879979 -0.0525435 -0.955843 -0.289141 0.147897 0.666036 -0.731111 -0.151531 0.909823 -0.386343 0.283157 -0.920791 -0.268266 -0.434151 -0.590422 0.680378 0.392103 0.737126 -0.550364 -0.0952737 0.969799 0.224529 0.183412 -0.744884 -0.641489 -0.257153 -0.936829 0.237116 0.166482 0.96933 -0.180786 -0.358156 0.647658 0.672506 0.409129 -0.298079 -0.862417 -0.092703 -0.985303 -0.143472 -0.485032 0.108232 0.867773 0.497721 0.280363 -0.820774 0.397717 0.520499 -0.755581 -0.346997 -0.706573 0.616723 0.247203 0.968948 0.00549333 -0.135649 0.931229 0.33825 0.506585 -0.747355 -0.429921 -0.0646064 -0.984704 0.161817 0.0198059 0.982072 0.187465 -0.285799 0.798593 0.529686 0.794846 -0.235573 -0.559219 0.114792 -0.989102 -0.0921999 -0.474304 0.318336 0.820791 0.652536 0.685789 -0.32232 -0.866033 -3.96558e-05 -0.499987 -0.86605 0.000108341 -0.499957 -0.866022 -4.57889e-05 -0.500005 -0.866028 2.90297e-05 -0.499995 -0.86602 4.57894e-05 -0.500009 -0.866043 0.000108341 -0.49997 -0.866021 -3.96555e-05 -0.500007 0.280359 -0.823305 -0.493526 -0.436077 -0.520718 0.733955 0.211124 0.888058 -0.408387 -0.237853 0.876953 0.417587 0.447423 -0.374387 -0.812187 -0.234361 -0.888251 0.395077 -0.0159318 0.999736 0.0165367 -0.463385 0.374431 0.803166 0.471872 0.0625945 -0.879443 -0.0398401 -0.996804 0.0692371 -0.505839 -0.062603 0.860353 -0.475039 -0.271245 0.837116 0.31449 0.721366 -0.617031 -0.37712 0.721365 0.580873 -0.491017 0.269936 0.828274 -0.818968 -0.328587 -0.470449 -0.129281 -0.969741 0.207097 0.114712 -0.969741 -0.21551 0.471797 0.269936 -0.83937 -0.338292 -0.726942 0.597591 0.487445 -0.271247 -0.829953 0.097105 -0.623372 0.775872 -0.476924 -0.764959 -0.432875 0.0798664 0.967208 -0.241103 -0.811243 -0.34114 -0.474878 -0.168868 0.967208 0.189717 0.522874 0.851544 0.0384129 0.348382 -0.726941 -0.591766 -0.816905 -0.328595 -0.474017 0.472735 -0.183309 -0.861928 -0.615264 0.0656548 -0.785583 -0.820147 -0.333891 -0.464624 -0.398459 -0.636459 -0.660416 -0.494545 0.183347 0.849593 -0.0621249 -0.992561 0.104703 0.0531143 0.992522 -0.109903 0.0565493 -0.993642 -0.097353 -0.0783764 0.988164 0.131871 -0.179686 0.932472 0.313382 0.198371 -0.916812 -0.346562 0.312026 0.749498 -0.583861 -0.348075 0.71625 0.604838 0.341276 -0.71622 -0.608737 -0.335244 -0.749664 0.570627 0.80544 0.562803 -0.185792 -0.487919 0.258117 0.833853 0.104177 -0.994088 -0.0306024 0.925767 -0.0851405 -0.368384 -0.306581 0.766693 0.564084 0.0980779 0.972249 0.212397 -0.142556 -0.941551 0.30522 0.710877 -0.58731 -0.386937 -0.119881 0.923694 0.363892 0.404579 0.913193 0.0489275 -0.391271 -0.590743 0.705641 0.387499 -0.883695 -0.262542 0.99428 0.106543 0.00751107 0.999678 0.0241535 0.00772473 -0.0779087 -0.996961 -6.40762e-05 -0.0222868 -0.999752 -8.32451e-05 -0.993873 -0.106501 0.0295688 -0.999246 -0.0241425 0.0304093 0.763279 0.64607 -0.000200019 0.841933 0.539581 -0.00023639 0.112584 0.993636 0.00345942 0.0779085 0.996951 0.00426016 0.246224 -0.969205 0.0039348 0.337974 -0.941144 0.00458994 -0.763209 -0.646015 0.0132857 -0.841829 -0.539517 0.0156982 0.399317 0.916811 -0.00175576 0.431008 0.902346 -0.00216214 -0.246198 0.969096 0.015495 -0.337927 0.940999 0.018074 0.759629 -0.65028 0.0100377 0.807781 -0.589391 0.0103798 -0.431009 -0.902345 0.00216216 -0.480572 -0.876951 0.00280629 -0.759293 0.649992 0.0313655 -0.807397 0.589116 0.0324338 -0.490636 0.106529 -0.864829 -0.493149 0.0241528 -0.869609 0.0388991 -0.996961 0.0675017 0.0110706 -0.999752 0.0193407 0.522544 -0.106496 0.845935 0.525959 -0.0241356 0.850168 -0.381809 0.64608 -0.660911 -0.421173 0.539579 -0.729018 -0.0532968 0.993636 -0.0992318 -0.0352639 0.996952 -0.0695993 -0.119703 -0.969205 -0.215203 -0.16501 -0.941145 -0.294986 0.39311 -0.646017 0.654314 0.434507 -0.539527 0.721189 -0.201179 0.916812 -0.344939 -0.217378 0.902344 -0.372186 0.136519 0.969095 0.205469 0.184617 0.940998 0.283618 -0.371122 -0.650279 -0.662877 -0.394906 -0.58938 -0.704755 0.217379 -0.902345 0.372184 0.242716 -0.876953 0.414781 0.40681 0.649995 0.641882 0.431792 0.589106 0.683016 -0.503645 0.10653 0.857317 -0.506529 0.0241448 0.861885 0.0390094 -0.996961 -0.0674376 0.0112144 -0.999752 -0.0192584 0.471329 -0.106502 -0.875503 0.473288 -0.0241379 -0.880577 -0.381462 0.646078 0.661113 -0.420765 0.539573 0.729259 -0.0592882 0.993636 0.0957722 -0.0426434 0.996952 0.0653403 -0.12652 -0.969205 0.211269 -0.172963 -0.941144 0.2904 0.370097 -0.646018 -0.667599 0.407317 -0.539524 -0.73689 -0.198139 0.916811 0.346698 -0.21363 0.902347 0.374343 0.10968 0.969096 -0.22096 0.153311 0.940999 -0.30169 -0.388508 -0.650279 0.652839 -0.412881 -0.589389 0.694371 0.213632 -0.902344 -0.374348 0.237858 -0.876948 -0.417595 0.35248 0.65 -0.673244 0.375611 0.589113 -0.715445</float_array>
          <technique_common>
            <accessor source="#Cylinder.001-mesh-normals-array" count="892" stride="3">
              <param name="X" type="float"/>
              <param name="Y" type="float"/>
              <param name="Z" type="float"/>
            </accessor>
          </technique_common>
        </source>
        <source id="Cylinder.001-mesh-texcoord">
          <float_array id="Cylinder.001-mesh-texcoord-array" count="1390">0.111224 0.802804 0.10171 0.821359 0.0972308 0.813274 0.0818483 0.78001 0.0623056 0.773893 0.0808476 0.772923 0.0973065 0.761637 0.0812939 0.765656 0.0825045 0.758232 0.0928666 0.806442 0.105849 0.797622 0.0838501 0.750218 0.100009 0.755428 0.101813 0.792574 0.0889885 0.799976 0.104056 0.748624 0.0857078 0.741492 0.0857255 0.793598 0.0988064 0.787825 0.0878625 0.731548 0.110071 0.739792 0.0831076 0.786992 0.0968471 0.782867 0.0895921 0.719356 0.118621 0.728372 0.0956843 0.777898 0.142871 0.830044 0.106349 0.831184 0.128505 0.81661 0.131108 0.708128 0.089394 0.70385 0.0953737 0.772788 0.118641 0.808923 0.0958393 0.767397 0.114529 0.783984 0.107215 0.776217 0.112706 0.766824 0.136277 0.773632 0.133987 0.785348 0.130696 0.780775 0.124379 0.784292 0.125005 0.788086 0.118644 0.787803 0.118919 0.784943 0.1137 0.786353 0.110183 0.784456 0.111233 0.782801 0.108985 0.781036 0.107707 0.78212 0.106171 0.779423 0.107645 0.778833 0.105518 0.776409 0.105462 0.773347 0.107028 0.773547 0.107843 0.771042 0.106277 0.770294 0.108259 0.767385 0.109657 0.768775 0.111328 0.764628 0.116085 0.762023 0.117051 0.764964 0.122839 0.764691 0.122906 0.760577 0.13296 0.761832 0.130201 0.767546 0.150299 0.771884 0.102028 0.768843 0.101238 0.773018 0.124389 0.797563 0.136358 0.800085 0.101328 0.777079 0.157585 0.735797 0.157585 0.80278 0.1317 0.744412 0.10235 0.781015 0.119316 0.750383 0.111895 0.755249 0.104243 0.784708 0.107033 0.788306 0.10704 0.76017 0.103903 0.76455 0.111062 0.791563 0.116661 0.794894 0.296785 0.96458 0.297365 0.96656 0.296601 0.966399 0.296719 0.968585 0.295949 0.968234 0.294784 0.970093 0.293888 0.972904 0.292999 0.972104 0.290309 0.974472 0.291569 0.975634 0.286446 0.978354 0.288332 0.951855 0.292254 0.954557 0.291209 0.955346 0.294108 0.956904 0.293309 0.957545 0.294808 0.959351 0.296577 0.960719 0.29587 0.96106 0.296447 0.952711 0.313004 0.95011 0.314464 0.952731 0.296535 0.962796 0.297539 0.964561 0.290462 0.966468 0.287763 0.962223 0.291477 0.96391 0.298656 0.966849 0.29882 0.964567 0.298012 0.969154 0.2969 0.971515 0.295346 0.97401 0.295578 0.970655 0.293529 0.976925 0.288489 0.980056 0.29392 0.953564 0.289927 0.950656 0.292609 0.950184 0.296669 0.958205 0.295306 0.956129 0.295517 0.958869 0.297758 0.960231 0.297266 0.962608 0.298504 0.962346 0.334426 0.945656 0.354839 0.93009 0.358085 0.937881 0.299567 0.972908 0.31546 0.975753 0.297991 0.975392 0.301093 0.961946 0.316903 0.959748 0.31676 0.962559 0.301318 0.967524 0.316464 0.96575 0.316171 0.96888 0.297569 0.955047 0.315777 0.955183 0.315252 0.978284 0.296581 0.978116 0.301515 0.964705 0.315931 0.971519 0.300608 0.970268 0.298873 0.957184 0.316603 0.957408 0.315125 0.981153 0.295971 0.981312 0.3157 0.973652 0.300134 0.959424 0.807289 0.957312 0.906147 0.955601 0.906111 0.958963 0.331923 0.979876 0.356381 0.981013 0.355947 0.98534 0.338536 0.954102 0.359927 0.956451 0.337352 0.958139 0.335678 0.96338 0.357525 0.970782 0.334144 0.968918 0.337365 0.948876 0.360198 0.943508 0.331148 0.984657 0.355267 0.991612 0.358669 0.963481 0.356796 0.976739 0.333101 0.973542 0.338685 0.951348 0.360991 0.947274 0.330258 0.99074 0.354635 0.999702 0.332493 0.976704 0.360813 0.951027 0.665848 0.603503 0.667084 0.606438 0.657863 0.605114 0.807744 0.943144 0.906343 0.949222 0.807566 0.946863 0.807562 0.978793 0.906264 0.973634 0.906331 0.976996 0.807312 0.960894 0.90612 0.961983 0.807398 0.968341 0.90615 0.964618 0.90618 0.967253 0.906229 0.95224 0.807414 0.950442 0.807652 0.982374 0.906402 0.980015 0.807355 0.964617 0.906214 0.970273 0.807438 0.971923 0.807318 0.953876 0.906465 0.982649 0.807744 0.986096 0.807489 0.975358 0.294471 0.959599 0.291767 0.964657 0.291983 0.965467 0.291663 0.965358 0.290719 0.955797 0.287409 0.952272 0.290663 0.966891 0.292567 0.971624 0.289337 0.967248 0.295532 0.961229 0.291862 0.963771 0.29152 0.962814 0.295582 0.968046 0.291514 0.96624 0.294411 0.969788 0.291231 0.965982 0.296235 0.966311 0.296424 0.964585 0.287496 0.966803 0.285313 0.977607 0.285305 0.964525 0.291188 0.963042 0.290751 0.962008 0.290504 0.962417 0.289459 0.96143 0.289328 0.966642 0.289786 0.973885 0.289372 0.962062 0.287398 0.961434 0.285544 0.963386 0.292938 0.957886 0.287954 0.966042 0.292105 0.964617 0.2958 0.950051 0.296185 0.962887 0.287072 0.964061 0.609726 0.950395 0.291824 0.981089 0.610007 0.978912 0.610089 0.982885 0.61021 0.987557 0.609737 0.954414 0.609814 0.959071 0.610331 0.993177 0.609899 0.964673 0.609955 0.97028 0.61005 0.941715 0.609977 0.97494 0.609844 0.946377 0.672117 0.583839 0.676062 0.589743 0.668773 0.600653 0.0884908 0.83592 0.0861016 0.828233 0.0637525 0.764622 0.0830674 0.821034 0.0657714 0.756098 0.0781518 0.81456 0.0659369 0.747323 0.0750197 0.807126 0.0683607 0.738766 0.0701831 0.800162 0.0687396 0.729935 0.0656137 0.792121 0.0684308 0.720704 0.0648364 0.782921 0.11023 0.843893 0.0670886 0.7111 0.33015 0.941424 0.300727 0.894713 0.30138 0.896807 0.300562 0.896658 0.300773 0.898977 0.299937 0.898643 0.298812 0.900697 0.298129 0.903754 0.2971 0.903008 0.294572 0.905856 0.293659 0.911862 0.29132 0.910502 0.292593 0.880279 0.296315 0.883516 0.295127 0.884274 0.297185 0.886875 0.298111 0.886236 0.298714 0.888977 0.299524 0.888489 0.299796 0.890911 0.300873 0.881919 0.317772 0.879812 0.319196 0.882496 0.301248 0.89262 0.300464 0.892806 0.301528 0.894684 0.293736 0.897002 0.28982 0.891961 0.294821 0.894041 0.302747 0.897072 0.302871 0.894674 0.30114 0.902016 0.302155 0.899513 0.299768 0.904751 0.299697 0.901231 0.298205 0.90798 0.296039 0.906868 0.297208 0.879119 0.294554 0.879286 0.298178 0.882655 0.300823 0.887836 0.299461 0.885481 0.300579 0.890578 0.302555 0.892376 0.301876 0.89013 0.339319 0.875515 0.359744 0.86003 0.362967 0.867805 0.303815 0.903351 0.32026 0.905815 0.30267 0.906107 0.305001 0.891852 0.321569 0.889638 0.321416 0.892479 0.305519 0.897692 0.321128 0.8957 0.320862 0.898864 0.301945 0.884371 0.320483 0.885002 0.320113 0.908362 0.301378 0.908952 0.305625 0.894727 0.320654 0.901532 0.304853 0.900583 0.303331 0.88663 0.321288 0.887269 0.320058 0.911238 0.300976 0.912142 0.320457 0.903691 0.304362 0.889107 0.811185 0.887195 0.90983 0.885488 0.909795 0.888842 0.336827 0.90978 0.361258 0.910851 0.360832 0.915169 0.3434 0.883982 0.364788 0.886344 0.342204 0.888024 0.340524 0.893269 0.362388 0.900643 0.338996 0.89881 0.342243 0.878748 0.365068 0.873422 0.336086 0.91456 0.360165 0.921426 0.363528 0.893359 0.361667 0.906585 0.33797 0.903438 0.343556 0.881225 0.365857 0.877182 0.335243 0.920632 0.35955 0.929494 0.337378 0.906604 0.365676 0.88093 0.667679 0.606438 0.668914 0.603503 0.6769 0.605114 0.811638 0.873057 0.910026 0.879122 0.811461 0.876768 0.811457 0.90863 0.909947 0.903482 0.910014 0.906836 0.811208 0.890769 0.909804 0.891856 0.811293 0.8982 0.909833 0.894485 0.909863 0.897114 0.909912 0.882134 0.811309 0.880339 0.811547 0.912203 0.910085 0.909849 0.811251 0.894485 0.909897 0.900128 0.811333 0.901774 0.811213 0.883766 0.910147 0.912477 0.811638 0.915917 0.811384 0.905202 0.298328 0.88923 0.295075 0.895675 0.295552 0.894827 0.295442 0.895787 0.291606 0.880587 0.294004 0.897489 0.296586 0.902548 0.292468 0.898068 0.299421 0.891082 0.295257 0.893876 0.294856 0.89277 0.299537 0.898461 0.294944 0.896684 0.298391 0.900402 0.294608 0.896402 0.300169 0.896575 0.30034 0.894721 0.289961 0.897913 0.29004 0.909955 0.285305 0.895822 0.294468 0.893038 0.293959 0.891809 0.293633 0.892287 0.292354 0.891038 0.292386 0.897312 0.29393 0.905325 0.292208 0.891856 0.289627 0.890738 0.285918 0.892049 0.296746 0.887219 0.290399 0.896712 0.295171 0.894879 0.300377 0.879202 0.300086 0.892898 0.29454 0.884701 0.287238 0.893862 0.614056 0.880293 0.296932 0.912187 0.614336 0.908748 0.614418 0.912712 0.614538 0.917373 0.614066 0.884304 0.614143 0.88895 0.614659 0.922982 0.614228 0.894539 0.614284 0.900134 0.614378 0.871633 0.614306 0.904784 0.614173 0.876284 0.33507 0.871257 0.300727 0.824653 0.30138 0.826747 0.300563 0.826598 0.300773 0.828917 0.299937 0.828583 0.299698 0.83117 0.298812 0.830637 0.298129 0.833695 0.2971 0.832948 0.294572 0.835796 0.293659 0.841802 0.291321 0.840442 0.292593 0.810218 0.296315 0.813456 0.295127 0.814213 0.298112 0.816176 0.297185 0.816815 0.298714 0.818917 0.299524 0.818429 0.299797 0.820851 0.300873 0.811859 0.317772 0.809752 0.319196 0.812436 0.300579 0.820518 0.300464 0.822746 0.301248 0.82256 0.293736 0.826942 0.28982 0.821901 0.294821 0.82398 0.302747 0.827012 0.301529 0.824624 0.302871 0.824613 0.302155 0.829453 0.299768 0.834691 0.30114 0.831956 0.298205 0.83792 0.29604 0.836809 0.298179 0.812595 0.294554 0.809226 0.297208 0.809059 0.300823 0.817776 0.299461 0.815421 0.302555 0.822316 0.301876 0.82007 0.33932 0.805454 0.359746 0.78997 0.362969 0.797744 0.303815 0.833291 0.32026 0.835755 0.30267 0.836047 0.305002 0.821792 0.321569 0.819578 0.321416 0.822419 0.305519 0.827632 0.321128 0.82564 0.320863 0.828804 0.301945 0.81431 0.320484 0.814942 0.320114 0.838302 0.301378 0.838893 0.305626 0.824667 0.320654 0.831473 0.304853 0.830523 0.303332 0.81657 0.321288 0.817209 0.320058 0.841178 0.300976 0.842082 0.320457 0.833631 0.304362 0.819047 0.81119 0.817134 0.909832 0.815427 0.909796 0.818782 0.336828 0.83972 0.36126 0.840791 0.360834 0.845109 0.343401 0.813922 0.364789 0.816284 0.342205 0.817964 0.340524 0.823209 0.36239 0.830582 0.338997 0.82875 0.342244 0.808688 0.365069 0.803361 0.336087 0.8445 0.360167 0.851366 0.363529 0.823299 0.361668 0.836525 0.337971 0.833377 0.343557 0.811164 0.365858 0.807122 0.335244 0.850572 0.359551 0.859435 0.337378 0.836544 0.365678 0.810869 0.685878 0.58632 0.685878 0.589504 0.677893 0.584708 0.811643 0.802997 0.910028 0.809062 0.811466 0.806708 0.811462 0.838569 0.909949 0.833421 0.910016 0.836775 0.811212 0.820709 0.909806 0.821795 0.811298 0.828139 0.909835 0.824425 0.909865 0.827053 0.909914 0.812074 0.811314 0.810279 0.811552 0.842142 0.910087 0.839787 0.811255 0.824424 0.909899 0.830067 0.811338 0.831713 0.811218 0.813706 0.910149 0.842415 0.811643 0.845855 0.811389 0.835141 0.298328 0.81917 0.295076 0.825615 0.295553 0.824767 0.295442 0.825727 0.291606 0.810526 0.294004 0.827429 0.296586 0.832488 0.292469 0.828008 0.299422 0.821022 0.295257 0.823816 0.294856 0.82271 0.299537 0.828401 0.294944 0.826624 0.298391 0.830342 0.294608 0.826342 0.300341 0.824661 0.289961 0.827852 0.29004 0.839895 0.285305 0.825761 0.294468 0.822978 0.293959 0.821749 0.293633 0.822227 0.292354 0.820978 0.292386 0.827252 0.29393 0.835265 0.292208 0.821796 0.289627 0.820678 0.285918 0.821989 0.296746 0.817159 0.2904 0.826652 0.295171 0.824819 0.300378 0.809142 0.300087 0.822837 0.29454 0.814641 0.287238 0.823802 0.300169 0.826515 0.614061 0.810232 0.296932 0.842127 0.614341 0.838688 0.614423 0.842652 0.614544 0.847313 0.614071 0.814243 0.614148 0.818889 0.614664 0.852922 0.614233 0.82448 0.614289 0.830074 0.614384 0.801572 0.614311 0.834724 0.614179 0.806224 0.335071 0.801197 0.708721 0.97721 0.70867 0.973677 0.709019 0.989801 0.708902 0.984972 0.708498 0.952027 0.708603 0.948495 0.708624 0.969447 0.708513 0.959791 0.708569 0.964619 0.708797 0.980742 0.708789 0.944267 0.708477 0.95556 0.610289 0.9361 0.709018 0.939442 0.712834 0.907049 0.712783 0.903525 0.713131 0.919612 0.713014 0.914794 0.712611 0.881922 0.712716 0.878398 0.712737 0.899304 0.712627 0.889668 0.712682 0.894486 0.712909 0.910573 0.712902 0.874179 0.712591 0.885447 0.614617 0.866029 0.71313 0.869364 0.712838 0.836989 0.712788 0.833464 0.713136 0.849552 0.713018 0.844733 0.712616 0.811861 0.712721 0.808337 0.712741 0.829243 0.712631 0.819608 0.712687 0.824425 0.712914 0.840513 0.712907 0.804119 0.712595 0.815387 0.614622 0.795969 0.713135 0.799303 0.667084 0.609623 0.665848 0.612204 0.661238 0.613135 0.663709 0.613489 0.659099 0.611235 0.657863 0.608299 0.659099 0.602534 0.663709 0.601603 0.661238 0.601248 0.906465 0.946589 0.665153 0.600653 0.661808 0.599267 0.659249 0.596708 0.657863 0.593363 0.657863 0.589743 0.659248 0.586399 0.661808 0.583839 0.665153 0.582454 0.668773 0.582453 0.674677 0.586399 0.676062 0.593363 0.674677 0.596708 0.672117 0.599267 0.0900406 0.844123 0.671054 0.601603 0.673525 0.601248 0.675664 0.602534 0.6769 0.608299 0.675664 0.611235 0.667679 0.609623 0.673525 0.613135 0.671054 0.613489 0.668914 0.612204 0.910147 0.876496 0.684643 0.59244 0.682504 0.59434 0.677893 0.593409 0.680033 0.594694 0.676658 0.590828 0.676658 0.587644 0.680033 0.582808 0.682504 0.582453 0.684643 0.583739 0.910149 0.806436</float_array>
          <technique_common>
            <accessor source="#Cylinder.001-mesh-texcoord-array" count="695" stride="2">
              <param name="S" type="float"/>
              <param name="T" type="float"/>
            </accessor>
          </technique_common>
        </source>
        <vertices id="Cylinder.001-mesh-vertices">
          <input semantic="POSITION" source="#Cylinder.001-mesh-positions"/>
        </vertices>
        <triangles count="1184" material="Plastic010_1K_Displacement">
          <input semantic="VERTEX" source="#Cylinder.001-mesh-vertices" offset="0"/>
          <input semantic="NORMAL" source="#Cylinder.001-mesh-normals" offset="1"/>
          <input semantic="TEXCOORD" source="#Cylinder.001-mesh-texcoord" offset="2" set="0"/>
          <p>50 0 0 18 0 1 19 0 2 24 1 3 221 1 4 25 1 5 54 2 6 26 2 7 27 2 8 50 3 0 20 3 9 56 3 10 54 4 6 28 4 11 58 4 12 60 5 13 20 5 9 21 5 14 62 6 15 28 6 11 29 6 16 60 7 13 22 7 17 64 7 18 62 8 15 30 8 19 66 8 20 64 9 18 23 9 21 68 9 22 66 10 20 31 10 23 70 10 24 72 11 25 23 11 21 24 11 3 75 12 26 16 12 27 76 12 28 75 13 29 31 13 23 17 13 30 72 14 25 25 14 5 78 14 31 49 15 32 16 15 27 18 15 1 53 16 33 25 16 5 26 16 7 4 17 34 8 17 35 12 17 36 1 18 37 32 18 38 0 18 39 2 19 40 32 19 38 34 19 41 2 20 40 35 20 42 3 20 43 4 21 34 35 21 42 36 21 44 4 22 34 37 22 45 5 22 46 6 23 47 37 23 45 38 23 48 6 24 47 39 24 49 7 24 50 8 25 35 39 25 49 40 25 51 8 26 35 41 26 52 9 26 53 10 27 54 41 27 52 42 27 55 10 28 54 43 28 56 11 28 57 12 29 36 43 29 56 44 29 58 12 30 36 45 30 59 13 30 60 14 31 61 45 31 59 46 31 62 14 32 61 47 32 63 15 32 64 1 33 37 47 33 63 33 33 65 41 34 52 52 34 66 42 34 55 79 35 67 53 35 33 52 35 66 32 36 38 48 36 68 34 36 41 77 37 69 49 37 32 48 37 68 40 38 51 79 38 67 41 38 52 73 39 70 78 39 31 79 39 67 47 40 63 74 40 71 33 40 65 74 41 71 70 41 24 75 41 29 33 42 65 77 42 69 32 42 38 74 43 72 76 43 28 77 43 69 39 44 49 73 44 70 40 44 51 73 45 70 68 45 22 72 45 25 46 46 62 71 46 73 47 46 63 71 47 73 66 47 20 70 47 24 38 48 48 69 48 74 39 48 49 69 49 74 64 49 18 68 49 22 45 50 59 67 50 75 46 50 62 63 51 76 66 51 20 67 51 75 37 52 45 65 52 77 38 52 48 61 53 78 64 53 18 65 53 77 44 54 58 63 54 76 45 54 59 63 55 76 58 55 12 62 55 15 36 56 44 61 56 78 37 56 45 61 57 78 56 57 10 60 57 13 43 58 56 59 58 79 44 58 58 55 59 80 58 59 12 59 59 79 35 60 42 57 60 81 36 60 44 51 61 82 56 61 10 57 61 81 42 62 55 55 62 80 43 62 56 55 63 80 53 63 33 54 63 6 34 64 41 51 64 82 35 64 42 51 65 82 49 65 32 50 65 0 187 66 83 104 66 84 186 66 85 186 67 85 106 67 86 185 67 87 106 68 86 184 68 88 185 68 87 184 69 88 108 69 89 183 69 90 108 70 89 182 70 91 183 70 90 109 71 92 181 71 93 182 71 91 181 72 94 111 72 95 180 72 96 180 73 96 112 73 97 179 73 98 112 74 97 178 74 99 179 74 98 178 75 99 114 75 100 177 75 101 95 76 102 122 76 103 123 76 104 114 77 100 176 77 105 177 77 101 176 78 105 105 78 106 187 78 83 86 79 107 94 79 108 102 79 109 198 80 110 105 80 106 199 80 111 197 81 112 104 81 84 198 81 110 196 80 113 106 80 86 197 80 112 195 80 114 107 80 115 196 80 113 194 80 116 108 80 89 195 80 114 194 80 116 110 80 117 109 80 92 192 80 118 110 80 119 193 80 120 192 80 118 112 80 97 111 80 95 190 80 121 112 80 97 191 80 122 190 80 121 114 80 100 113 80 123 189 80 124 115 80 125 114 80 100 188 82 126 105 82 106 115 82 125 229 83 127 134 83 128 135 83 129 87 84 130 120 84 131 89 84 132 103 85 133 126 85 134 127 85 135 83 86 136 117 86 137 116 86 138 97 87 139 123 87 104 124 87 140 89 88 132 121 88 141 91 88 142 81 89 143 127 89 135 117 89 137 83 90 136 118 90 144 85 90 145 99 91 146 124 91 140 125 91 147 91 92 142 122 92 148 93 92 149 85 93 145 119 93 150 87 93 130 101 94 151 125 94 147 126 94 134 548 95 152 149 95 153 150 95 154 231 96 155 131 96 156 132 96 157 232 97 158 139 97 159 233 97 160 234 98 161 128 98 162 235 98 163 236 99 164 135 99 129 136 99 165 237 100 166 132 100 157 133 100 167 233 101 160 129 101 168 234 101 161 235 102 163 130 102 169 238 102 170 239 103 171 136 103 165 137 103 172 228 104 173 133 104 167 134 104 174 238 105 170 131 105 156 230 105 175 239 106 171 138 106 176 232 106 158 144 107 177 143 107 178 148 107 179 531 108 180 147 108 181 546 108 182 544 109 183 143 109 184 144 109 185 542 110 186 150 110 154 151 110 187 540 111 188 141 111 189 140 111 190 546 112 182 148 112 191 550 112 192 538 113 193 144 113 185 145 113 194 535 114 195 151 114 187 141 114 189 540 115 188 142 115 196 536 115 197 550 116 192 149 116 153 529 116 198 538 117 193 146 117 199 531 117 200 536 118 197 143 118 184 533 118 201 177 119 101 157 119 202 178 119 99 80 120 203 174 120 204 82 120 205 181 121 94 161 121 206 163 121 207 170 122 208 167 122 209 168 122 210 155 123 211 154 123 212 156 123 213 174 124 204 171 124 214 172 124 215 172 125 215 169 125 216 170 125 208 84 126 217 170 126 208 86 126 107 187 127 83 173 127 218 152 127 219 166 128 220 163 128 221 164 128 222 100 129 223 158 129 224 156 129 213 98 130 225 160 130 226 158 130 224 86 131 107 168 131 210 88 131 227 183 132 90 165 132 228 167 132 209 96 133 229 162 133 230 160 133 226 163 134 207 162 134 230 164 134 231 157 135 202 156 135 213 158 135 224 168 136 210 165 136 228 166 136 220 159 137 232 158 137 224 160 137 226 178 138 99 159 138 232 179 138 98 88 139 227 166 139 220 90 139 233 184 140 88 167 140 209 169 140 216 80 141 203 154 141 212 175 141 234 102 142 109 156 142 213 154 142 212 95 143 102 193 143 120 93 143 235 153 144 236 175 144 234 154 144 212 176 145 105 155 145 211 177 145 101 179 146 98 161 146 206 180 146 96 92 147 237 162 147 230 94 147 108 175 148 234 173 148 218 174 148 204 186 149 85 171 149 214 173 149 218 90 150 233 164 150 222 92 150 237 181 151 93 165 151 228 182 151 91 161 152 206 160 152 226 162 152 230 187 153 83 153 153 236 176 153 105 82 154 205 172 154 215 84 154 217 136 155 165 211 155 238 137 155 172 87 156 130 195 156 114 196 156 113 101 157 151 188 157 126 189 157 124 185 158 87 169 158 216 171 158 214 95 159 102 191 159 122 192 159 118 89 160 132 194 160 116 195 160 114 85 161 145 198 161 110 83 161 136 83 162 136 199 162 111 81 162 143 99 163 146 191 163 122 97 163 139 91 164 142 193 164 239 194 164 116 87 165 130 197 165 112 85 165 145 99 166 146 189 166 124 190 166 121 130 167 169 207 167 240 131 167 156 133 168 167 206 168 241 201 168 242 139 169 159 210 169 243 205 169 244 133 170 167 209 170 245 134 170 174 81 171 143 188 171 126 103 171 133 129 172 168 205 172 244 204 172 246 128 173 162 204 173 246 203 173 247 134 174 128 208 174 248 135 174 129 138 175 176 211 175 238 210 175 243 128 176 162 200 176 249 130 176 169 135 177 129 202 177 250 136 177 165 132 178 157 207 178 240 206 178 241 220 179 251 218 179 252 214 179 253 18 180 1 212 180 254 214 180 255 26 181 7 221 181 4 222 181 256 19 182 2 214 182 255 215 182 257 27 183 8 222 183 256 223 183 258 19 184 2 216 184 259 20 184 9 27 185 8 224 185 260 28 185 11 21 186 14 216 186 259 217 186 261 29 187 16 224 187 260 225 187 262 21 188 14 218 188 263 22 188 17 29 189 16 226 189 264 30 189 19 22 190 17 219 190 265 23 190 21 30 191 19 227 191 266 31 191 23 24 192 3 219 192 265 220 192 267 17 193 268 212 193 254 16 193 27 17 194 30 227 194 266 213 194 269 125 195 147 232 195 158 126 195 134 118 196 144 230 196 175 119 196 150 122 197 148 237 197 166 228 197 173 125 198 147 236 198 164 239 198 171 116 199 138 238 199 170 118 199 144 127 200 135 234 200 161 117 200 137 121 201 141 231 201 155 237 201 166 124 202 140 229 202 127 236 202 164 117 203 137 235 203 163 116 203 138 126 204 134 233 204 160 127 204 135 120 205 131 230 205 175 231 205 155 123 206 104 228 206 270 229 206 127 347 207 271 264 207 272 346 207 273 346 208 273 266 208 274 345 208 275 266 209 274 344 209 276 345 209 275 344 210 276 268 210 277 343 210 278 268 211 277 342 211 279 343 211 278 342 212 279 270 212 280 341 212 281 341 213 282 271 213 283 340 213 284 271 214 283 339 214 285 340 214 284 272 215 286 338 215 287 339 215 285 273 216 288 337 216 289 338 216 287 255 217 290 282 217 291 283 217 292 337 218 289 275 218 293 336 218 294 336 219 294 265 219 295 347 219 271 246 220 296 254 220 297 262 220 298 358 221 299 265 221 295 359 221 300 358 222 299 266 222 274 264 222 272 356 222 301 266 222 274 357 222 302 355 221 303 267 221 304 356 221 301 354 222 305 268 222 277 355 222 303 354 222 305 270 222 280 269 222 306 353 222 307 271 222 283 270 222 308 352 223 309 272 223 286 271 223 283 350 223 310 272 223 286 351 223 311 350 222 310 274 222 312 273 222 288 348 223 313 274 223 312 349 223 314 359 222 300 275 222 293 348 222 313 373 224 315 294 224 316 295 224 317 247 225 318 280 225 319 249 225 320 263 226 321 286 226 322 287 226 323 243 227 324 277 227 325 276 227 326 257 228 327 283 228 292 284 228 328 249 229 320 281 229 329 251 229 330 241 230 331 287 230 323 277 230 325 243 231 324 278 231 332 245 231 333 259 232 334 284 232 328 285 232 335 251 233 330 282 233 336 253 233 337 245 234 333 279 234 338 247 234 318 261 235 339 285 235 335 286 235 322 572 236 340 309 236 341 310 236 342 375 237 343 291 237 344 292 237 345 376 238 346 299 238 347 377 238 348 378 239 349 288 239 350 379 239 351 380 240 352 295 240 317 296 240 353 381 241 354 292 241 345 293 241 355 377 242 348 289 242 356 378 242 349 379 243 351 290 243 357 382 243 358 383 244 359 296 244 353 297 244 360 372 245 361 293 245 355 294 245 362 382 246 358 291 246 344 374 246 363 383 247 359 298 247 364 376 247 346 303 248 365 302 248 366 310 248 367 555 249 368 307 249 369 570 249 370 568 250 371 303 250 372 304 250 373 566 251 374 310 251 342 311 251 375 564 252 376 301 252 377 300 252 378 570 253 370 308 253 379 574 253 380 562 254 381 304 254 373 305 254 382 559 255 383 311 255 375 301 255 377 564 256 376 302 256 384 560 256 385 574 257 380 309 257 341 553 257 386 562 258 381 306 258 387 555 258 388 560 259 385 303 259 372 557 259 389 337 260 289 317 260 390 338 260 287 242 261 391 335 261 392 334 261 393 340 262 284 323 262 394 341 262 282 330 263 395 327 263 396 328 263 397 315 264 398 314 264 399 316 264 400 334 265 393 331 265 401 332 265 402 332 266 402 329 266 403 330 266 395 244 267 404 330 267 395 246 267 296 347 268 271 333 268 405 312 268 406 326 269 407 323 269 408 324 269 409 260 270 410 318 270 411 316 270 400 258 271 412 320 271 413 318 271 411 246 272 296 328 272 397 248 272 414 343 273 278 325 273 415 327 273 396 254 274 297 320 274 413 256 274 416 323 275 394 322 275 417 324 275 418 317 276 390 316 276 400 318 276 411 328 277 397 325 277 415 326 277 407 319 278 419 318 278 411 320 278 413 338 279 287 319 279 419 339 279 285 248 280 414 326 280 407 250 280 420 344 281 276 327 281 396 329 281 403 240 282 421 314 282 399 335 282 392 262 283 298 316 283 400 314 283 399 255 284 290 353 284 307 253 284 422 313 285 423 335 285 392 314 285 399 337 286 289 313 286 423 315 286 398 339 287 285 321 287 424 340 287 284 252 288 425 322 288 417 254 288 297 335 289 392 333 289 405 334 289 393 346 290 273 331 290 401 333 290 405 250 291 420 324 291 409 252 291 425 342 292 279 323 292 408 325 292 415 321 293 424 320 293 413 322 293 417 336 294 294 312 294 406 313 294 423 242 295 391 332 295 402 244 295 404 296 296 353 371 296 426 297 296 360 247 297 318 355 297 303 356 297 301 261 298 339 348 298 313 349 298 314 345 299 275 329 299 403 331 299 401 255 300 290 351 300 311 352 300 309 249 301 320 354 301 305 355 301 303 245 302 333 358 302 299 243 302 324 243 303 324 359 303 300 241 303 331 259 304 334 351 304 311 257 304 327 251 305 330 353 305 427 354 305 305 245 306 333 356 306 301 357 306 302 259 307 334 349 307 314 350 307 310 290 308 357 367 308 428 291 308 344 293 309 355 366 309 429 361 309 430 299 310 347 370 310 431 365 310 432 293 311 355 369 311 433 294 311 362 241 312 331 348 312 313 263 312 321 289 313 356 365 313 432 364 313 434 288 314 350 364 314 434 363 314 435 294 315 316 368 315 436 295 315 317 298 316 364 371 316 426 370 316 431 288 317 350 360 317 437 290 317 357 295 318 317 362 318 438 296 318 353 292 319 345 367 319 428 366 319 429 285 320 335 376 320 346 286 320 322 278 321 332 374 321 363 279 321 338 282 322 336 381 322 354 372 322 361 285 323 335 380 323 352 383 323 359 276 324 326 382 324 358 278 324 332 287 325 323 378 325 349 277 325 325 281 326 329 375 326 343 381 326 354 284 327 328 373 327 315 380 327 352 277 328 325 379 328 351 276 328 326 286 329 322 377 329 348 287 329 323 280 330 319 374 330 363 375 330 343 283 331 292 372 331 439 373 331 315 491 332 440 408 332 441 490 332 442 490 333 442 410 333 443 489 333 444 489 334 444 411 334 445 488 334 446 488 335 446 412 335 447 487 335 448 412 336 447 486 336 449 487 336 448 486 337 449 414 337 450 485 337 451 485 338 452 415 338 453 484 338 454 484 339 454 416 339 455 483 339 456 416 340 455 482 340 457 483 340 456 417 341 458 481 341 459 482 341 457 399 342 460 426 342 461 427 342 462 418 343 463 480 343 464 481 343 459 419 344 465 491 344 440 480 344 464 390 345 466 398 345 467 406 345 468 502 346 469 409 346 470 503 346 471 501 347 472 408 347 441 502 347 469 501 348 472 411 348 445 410 348 443 499 349 473 411 349 445 500 349 474 498 348 475 412 348 447 499 348 473 498 348 475 414 348 450 413 348 476 496 349 477 414 349 478 497 349 479 496 348 477 416 348 455 415 348 453 494 349 480 416 349 455 495 349 481 494 349 480 418 349 463 417 349 458 492 348 482 418 348 463 493 348 483 503 349 471 419 349 465 492 349 482 517 350 484 438 350 485 439 350 486 391 351 487 424 351 488 393 351 489 407 352 490 430 352 491 431 352 492 387 353 493 421 353 494 420 353 495 401 354 496 427 354 462 428 354 497 393 355 489 425 355 498 395 355 499 385 356 500 431 356 492 421 356 494 387 357 493 422 357 501 389 357 502 403 358 503 428 358 497 429 358 504 395 359 499 426 359 505 397 359 506 389 360 502 423 360 507 391 360 487 405 361 508 429 361 504 430 361 491 596 362 509 453 362 510 454 362 511 519 363 512 435 363 513 436 363 514 520 364 515 443 364 516 521 364 517 522 365 518 432 365 519 523 365 520 524 366 521 439 366 486 440 366 522 525 367 523 436 367 514 437 367 524 521 368 517 433 368 525 522 368 518 523 369 520 434 369 526 526 369 527 527 370 528 440 370 522 441 370 529 516 371 530 437 371 524 438 371 531 526 372 527 435 372 513 518 372 532 527 373 528 442 373 533 520 373 515 448 374 534 447 374 535 452 374 536 579 375 537 451 375 538 594 375 539 592 376 540 447 376 541 448 376 542 590 377 543 454 377 511 455 377 544 588 378 545 445 378 546 444 378 547 594 379 539 452 379 548 598 379 549 586 380 550 448 380 542 449 380 551 583 381 552 455 381 544 445 381 546 588 382 545 446 382 553 584 382 554 598 383 549 453 383 510 577 383 555 586 384 550 450 384 556 579 384 557 584 385 554 447 385 541 581 385 558 481 386 459 461 386 559 482 386 457 386 387 560 479 387 561 478 387 562 484 388 454 467 388 563 485 388 452 474 389 564 471 389 565 472 389 566 459 390 567 458 390 568 460 390 569 478 391 562 475 391 570 476 391 571 476 392 571 473 392 572 474 392 564 388 393 573 474 393 564 390 393 466 490 394 442 456 394 574 491 394 440 470 395 575 467 395 576 468 395 577 404 396 578 462 396 579 460 396 569 402 397 580 464 397 581 462 397 579 390 398 466 472 398 566 392 398 582 487 399 448 469 399 583 471 399 565 400 400 584 466 400 585 464 400 581 467 401 563 466 401 585 468 401 586 461 402 559 460 402 569 462 402 579 472 403 566 469 403 583 470 403 575 463 404 587 462 404 579 464 404 581 482 405 457 463 405 587 483 405 456 392 406 582 470 406 575 394 406 588 487 407 448 473 407 572 488 407 446 384 408 589 458 408 568 479 408 561 406 409 468 460 409 569 458 409 568 399 410 460 497 410 479 397 410 590 457 411 591 479 411 561 458 411 568 480 412 464 459 412 567 481 412 459 483 413 456 465 413 592 484 413 454 396 414 593 466 414 585 398 414 467 479 415 561 477 415 594 478 415 562 490 416 442 475 416 570 477 416 594 394 417 588 468 417 577 396 417 593 486 418 449 467 418 576 469 418 583 465 419 592 464 419 581 466 419 585 480 420 464 456 420 574 457 420 591 386 421 560 476 421 571 388 421 573 440 422 522 515 422 595 441 422 529 393 423 489 500 423 474 391 423 487 405 424 508 492 424 482 493 424 483 489 425 444 473 425 572 475 425 570 399 426 460 495 426 481 496 426 477 393 427 489 498 427 475 499 427 473 389 428 502 502 428 469 387 428 493 387 429 493 503 429 471 385 429 500 403 430 503 495 430 481 401 430 496 395 431 499 497 431 596 498 431 475 391 432 487 501 432 472 389 432 502 403 433 503 493 433 483 494 433 480 434 434 526 511 434 597 435 434 513 437 435 524 510 435 598 505 435 599 443 436 516 514 436 600 509 436 601 437 437 524 513 437 602 438 437 531 407 438 490 503 438 471 492 438 482 433 439 525 509 439 601 508 439 603 432 440 519 508 440 603 507 440 604 438 441 485 512 441 605 439 441 486 442 442 533 515 442 595 514 442 600 432 443 519 504 443 606 434 443 526 439 444 486 506 444 607 440 444 522 436 445 514 511 445 597 510 445 598 429 446 504 520 446 515 430 446 491 422 447 501 518 447 532 423 447 507 426 448 505 525 448 523 516 448 530 429 449 504 524 449 521 527 449 528 420 450 495 526 450 527 422 450 501 431 451 492 522 451 518 421 451 494 425 452 498 519 452 512 525 452 523 428 453 497 517 453 484 524 453 521 421 454 494 523 454 520 420 454 495 430 455 491 521 455 517 431 455 492 424 456 488 518 456 532 519 456 512 427 457 462 516 457 608 517 457 484 200 458 249 532 458 609 207 458 240 537 459 610 533 459 201 532 459 609 201 460 242 530 460 611 209 460 245 539 461 612 531 461 200 530 461 611 202 462 250 528 462 613 211 462 238 551 463 614 529 463 198 528 463 613 203 464 247 537 464 610 200 464 249 541 465 615 536 465 197 537 465 610 204 466 246 543 466 616 534 466 617 534 467 617 542 467 186 535 467 195 201 468 242 545 468 618 539 468 612 539 469 612 544 469 183 538 469 193 208 470 248 551 470 614 202 470 250 547 471 619 550 471 192 551 471 614 203 472 247 534 472 617 541 472 615 541 473 615 535 473 195 540 473 188 205 474 244 549 474 620 543 474 616 543 475 616 548 475 152 542 475 186 206 476 241 532 476 609 545 476 618 545 477 618 533 477 201 544 477 183 209 478 621 547 478 619 208 478 248 530 479 622 546 479 182 547 479 619 210 480 243 528 480 613 549 480 620 549 481 620 529 481 198 548 481 152 360 482 437 556 482 623 367 482 428 561 483 624 557 483 389 556 483 623 361 484 430 554 484 625 369 484 433 563 485 626 555 485 388 554 485 625 362 486 438 552 486 627 371 486 426 575 487 628 553 487 386 552 487 627 363 488 435 561 488 624 360 488 437 565 489 629 560 489 385 561 489 624 364 490 434 567 490 630 558 490 631 558 491 631 566 491 374 559 491 383 361 492 430 569 492 632 563 492 626 563 493 626 568 493 371 562 493 381 368 494 436 575 494 628 362 494 438 571 495 633 574 495 380 575 495 628 363 496 435 558 496 631 565 496 629 565 497 629 559 497 383 564 497 376 365 498 432 573 498 634 567 498 630 567 499 630 572 499 340 566 499 374 366 500 429 556 500 623 569 500 632 569 501 632 557 501 389 568 501 371 369 502 635 571 502 633 368 502 436 554 503 636 570 503 370 571 503 633 370 504 431 552 504 627 573 504 634 573 505 634 553 505 386 572 505 340 504 506 606 580 506 637 511 506 597 585 507 638 581 507 558 580 507 637 505 508 599 578 508 639 513 508 602 587 509 640 579 509 557 578 509 639 506 510 607 576 510 641 515 510 595 599 511 642 577 511 555 576 511 641 507 512 604 585 512 638 504 512 606 589 513 643 584 513 554 585 513 638 508 514 603 591 514 644 582 514 645 582 515 645 590 515 543 583 515 552 505 516 599 593 516 646 587 516 640 587 517 640 592 517 540 586 517 550 512 518 605 599 518 642 506 518 607 595 519 647 598 519 549 599 519 642 507 520 604 582 520 645 589 520 643 589 521 643 583 521 552 588 521 545 509 522 601 597 522 648 591 522 644 591 523 644 596 523 509 590 523 543 510 524 598 580 524 637 593 524 646 593 525 646 581 525 558 592 525 540 513 526 649 595 526 647 512 526 605 578 527 650 594 527 539 595 527 647 514 528 600 576 528 641 597 528 648 597 529 648 577 529 555 596 529 509 50 0 0 49 0 32 18 0 1 24 530 3 220 530 267 221 530 4 54 2 6 53 2 33 26 2 7 50 3 0 19 3 2 20 3 9 54 4 6 27 4 8 28 4 11 60 5 13 56 5 10 20 5 9 62 6 15 58 6 12 28 6 11 60 7 13 21 7 14 22 7 17 62 8 15 29 8 16 30 8 19 64 9 18 22 9 17 23 9 21 66 10 20 30 10 19 31 10 23 72 531 25 68 531 22 23 531 21 75 532 26 17 532 268 16 532 27 75 533 29 70 533 24 31 533 23 72 534 25 24 534 3 25 534 5 49 15 32 76 15 28 16 15 27 53 16 33 78 16 31 25 16 5 1 17 37 0 17 39 2 17 40 2 17 40 3 17 43 1 17 37 3 17 43 4 17 34 1 17 37 4 17 34 5 17 46 8 17 35 5 17 46 6 17 47 8 17 35 6 17 47 7 17 50 8 17 35 8 17 35 9 17 53 10 17 54 10 17 54 11 17 57 8 17 35 11 17 57 12 17 36 8 17 35 12 17 36 13 17 60 1 17 37 13 17 60 14 17 61 1 17 37 14 17 61 15 17 64 1 17 37 1 17 37 4 17 34 12 17 36 1 18 37 33 18 65 32 18 38 2 19 40 0 19 39 32 19 38 2 20 40 34 20 41 35 20 42 4 21 34 3 21 43 35 21 42 4 22 34 36 22 44 37 22 45 6 23 47 5 23 46 37 23 45 6 24 47 38 24 48 39 24 49 8 25 35 7 25 50 39 25 49 8 26 35 40 26 51 41 26 52 10 27 54 9 27 53 41 27 52 10 28 54 42 28 55 43 28 56 12 29 36 11 29 57 43 29 56 12 30 36 44 30 58 45 30 59 14 31 61 13 31 60 45 31 59 14 32 61 46 32 62 47 32 63 1 33 37 15 33 64 47 33 63 41 34 52 79 34 67 52 34 66 79 35 67 78 35 31 53 35 33 32 36 38 77 36 69 48 36 68 77 37 69 76 37 28 49 37 32 40 38 51 73 38 70 79 38 67 73 39 70 72 39 25 78 39 31 47 40 63 71 40 73 74 40 71 74 41 71 71 41 73 70 41 24 33 42 65 74 42 72 77 42 69 74 43 72 75 43 26 76 43 28 39 44 49 69 44 74 73 44 70 73 45 70 69 45 74 68 45 22 46 535 62 67 535 75 71 535 73 71 47 73 67 47 75 66 47 20 38 48 48 65 48 77 69 48 74 69 49 74 65 49 77 64 49 18 45 50 59 63 50 76 67 50 75 63 51 76 62 51 15 66 51 20 37 52 45 61 52 78 65 52 77 61 53 78 60 53 13 64 53 18 44 54 58 59 54 79 63 54 76 63 55 76 59 55 79 58 55 12 36 56 44 57 56 81 61 56 78 61 57 78 57 57 81 56 57 10 43 58 56 55 58 80 59 58 79 55 59 80 54 59 6 58 59 12 35 60 42 51 60 82 57 60 81 51 61 82 50 61 0 56 61 10 42 62 55 52 62 66 55 62 80 55 63 80 52 63 66 53 63 33 34 64 41 48 64 68 51 64 82 51 536 82 48 536 68 49 536 32 187 66 83 105 66 106 104 66 84 186 537 85 104 537 84 106 537 86 106 68 86 107 68 115 184 68 88 184 69 88 107 69 115 108 69 89 108 70 89 109 70 92 182 70 91 109 71 92 110 71 117 181 71 93 181 72 94 110 72 119 111 72 95 180 538 96 111 538 95 112 538 97 112 74 97 113 74 123 178 74 99 178 75 99 113 75 123 114 75 100 95 539 102 93 539 235 122 539 103 114 77 100 115 77 125 176 77 105 176 78 105 115 78 125 105 78 106 102 79 109 80 79 203 82 79 205 82 79 205 84 79 217 102 79 109 84 79 217 86 79 107 102 79 109 86 79 107 88 79 227 94 79 108 88 79 227 90 79 233 94 79 108 90 79 233 92 79 237 94 79 108 94 79 108 96 79 229 102 79 109 96 79 229 98 79 225 102 79 109 98 79 225 100 79 223 102 79 109 198 82 110 104 82 84 105 82 106 197 80 112 106 80 86 104 80 84 196 80 113 107 80 115 106 80 86 195 80 114 108 80 89 107 80 115 194 80 116 109 80 92 108 80 89 194 80 116 193 80 239 110 80 117 192 80 118 111 80 95 110 80 119 192 82 118 191 82 122 112 82 97 190 80 121 113 80 123 112 80 97 190 80 121 189 80 124 114 80 100 189 80 124 188 80 126 115 80 125 188 80 126 199 80 111 105 80 106 229 540 127 228 540 270 134 540 128 87 541 130 119 541 150 120 541 131 103 542 133 101 542 151 126 542 134 83 543 136 81 543 143 117 543 137 97 544 139 95 544 102 123 544 104 89 545 132 120 545 131 121 545 141 81 546 143 103 546 133 127 546 135 83 547 136 116 547 138 118 547 144 99 548 146 97 548 139 124 548 140 91 549 142 121 549 141 122 549 148 85 550 145 118 550 144 119 550 150 101 551 151 99 551 146 125 551 147 548 552 152 529 552 198 149 552 153 231 553 155 230 553 175 131 553 156 232 554 158 138 554 176 139 554 159 234 555 161 129 555 168 128 555 162 236 556 164 229 556 127 135 556 129 237 557 166 231 557 155 132 557 157 233 558 160 139 558 159 129 558 168 235 559 163 128 559 162 130 559 169 239 560 171 236 560 164 136 560 165 228 561 173 237 561 166 133 561 167 238 562 170 130 562 169 131 562 156 239 563 171 137 563 172 138 563 176 142 564 651 140 564 652 151 564 653 140 565 652 141 565 654 151 565 653 151 107 653 150 107 655 142 107 651 150 107 655 149 107 656 142 107 651 149 107 656 148 107 179 143 107 178 142 564 651 149 564 656 143 564 178 148 107 179 147 107 657 145 107 658 147 107 657 146 107 659 145 107 658 145 564 658 144 564 177 148 564 179 531 566 180 146 566 660 147 566 181 544 567 183 533 567 201 143 567 184 542 568 186 548 568 152 150 568 154 540 569 188 535 569 195 141 569 189 546 570 182 147 570 181 148 570 191 538 571 193 544 571 183 144 571 185 535 572 195 542 572 186 151 572 187 540 573 188 140 573 190 142 573 196 550 574 192 148 574 191 149 574 153 538 575 193 145 575 194 146 575 199 536 576 197 142 576 196 143 576 184 177 577 101 155 577 211 157 577 202 80 120 203 175 120 234 174 120 204 181 578 94 180 578 96 161 578 206 170 579 208 169 579 216 167 579 209 155 580 211 153 580 236 154 580 212 174 581 204 173 581 218 171 581 214 172 582 215 171 582 214 169 582 216 84 126 217 172 126 215 170 126 208 187 127 83 186 127 85 173 127 218 166 583 220 165 583 228 163 583 221 100 129 223 98 129 225 158 129 224 98 130 225 96 130 229 160 130 226 86 131 107 170 131 208 168 131 210 183 584 90 182 584 91 165 584 228 96 133 229 94 133 108 162 133 230 163 585 207 161 585 206 162 585 230 157 586 202 155 586 211 156 586 213 168 587 210 167 587 209 165 587 228 159 588 232 157 588 202 158 588 224 178 589 99 157 589 202 159 589 232 88 139 227 168 139 210 166 139 220 184 590 88 183 590 90 167 590 209 80 141 203 102 141 109 154 141 212 102 142 109 100 142 223 156 142 213 95 143 102 192 143 118 193 143 120 153 591 236 152 591 219 175 591 234 176 592 105 153 592 236 155 592 211 179 593 98 159 593 232 161 593 206 92 147 237 164 147 231 162 147 230 175 594 234 152 594 219 173 594 218 186 595 85 185 595 87 171 595 214 90 150 233 166 150 220 164 150 222 181 596 93 163 596 221 165 596 228 161 597 206 159 597 232 160 597 226 187 598 83 152 598 219 153 598 236 82 154 205 174 154 204 172 154 215 136 599 165 202 599 250 211 599 238 87 156 130 89 156 132 195 156 114 101 600 151 103 600 133 188 600 126 185 158 87 184 158 88 169 158 216 95 601 102 97 601 139 191 601 122 89 160 132 91 160 142 194 160 116 85 602 145 197 602 112 198 602 110 83 162 136 198 162 110 199 162 111 99 603 146 190 603 121 191 603 122 91 164 142 93 164 149 193 164 239 87 165 130 196 165 113 197 165 112 99 604 146 101 604 151 189 604 124 130 605 169 200 605 249 207 605 240 133 606 167 132 606 157 206 606 241 139 607 159 138 607 176 210 607 243 133 608 167 201 608 242 209 608 245 81 171 143 199 171 111 188 171 126 129 609 168 139 609 159 205 609 244 128 610 162 129 610 168 204 610 246 134 611 128 209 611 621 208 611 248 138 612 176 137 612 172 211 612 238 128 613 162 203 613 247 200 613 249 135 614 129 208 614 248 202 614 250 132 615 157 131 615 156 207 615 240 214 616 253 212 616 661 213 616 662 213 616 662 227 616 663 226 616 664 226 179 664 225 179 665 224 179 666 224 179 666 223 179 667 226 179 664 223 179 667 222 179 668 226 179 664 222 617 668 221 617 669 220 617 251 220 617 251 219 617 670 218 617 252 218 179 252 217 179 671 214 179 253 217 179 671 216 179 672 214 179 253 216 179 672 215 179 673 214 179 253 214 179 253 213 179 662 222 179 668 213 179 662 226 179 664 222 179 668 222 179 668 220 179 251 214 179 253 18 618 1 16 618 27 212 618 254 26 181 7 25 181 5 221 181 4 19 182 2 18 182 1 214 182 255 27 183 8 26 183 7 222 183 256 19 184 2 215 184 257 216 184 259 27 185 8 223 185 258 224 185 260 21 186 14 20 186 9 216 186 259 29 187 16 28 187 11 224 187 260 21 188 14 217 188 261 218 188 263 29 189 16 225 189 262 226 189 264 22 190 17 218 190 263 219 190 265 30 619 19 226 619 264 227 619 266 24 620 3 23 620 21 219 620 265 17 193 268 213 193 674 212 193 254 17 194 30 31 194 23 227 194 266 125 621 147 239 621 171 232 621 158 118 622 144 238 622 170 230 622 175 122 623 148 121 623 141 237 623 166 125 624 147 124 624 140 236 624 164 116 625 138 235 625 163 238 625 170 127 626 135 233 626 160 234 626 161 121 627 141 120 627 131 231 627 155 124 628 140 123 628 104 229 628 127 117 629 137 234 629 161 235 629 163 126 630 134 232 630 158 233 630 160 120 631 131 119 631 150 230 631 175 123 632 104 122 632 103 228 632 270 347 207 271 265 207 295 264 207 272 346 208 273 264 208 272 266 208 274 266 633 274 267 633 304 344 633 276 344 634 276 267 634 304 268 634 277 268 211 277 269 211 306 342 211 279 342 212 279 269 212 306 270 212 280 341 213 282 270 213 308 271 213 283 271 214 283 272 214 286 339 214 285 272 635 286 273 635 288 338 635 287 273 216 288 274 216 312 337 216 289 255 636 290 253 636 422 282 636 291 337 218 289 274 218 312 275 218 293 336 637 294 275 637 293 265 637 295 262 220 298 240 220 421 242 220 391 242 220 391 244 220 404 262 220 298 244 220 404 246 220 296 262 220 298 246 220 296 248 220 414 250 220 420 250 638 420 252 638 425 246 638 296 252 220 425 254 220 297 246 220 296 254 638 297 256 638 416 262 638 298 256 220 416 258 220 412 262 220 298 258 220 412 260 220 410 262 220 298 358 222 299 264 222 272 265 222 295 358 223 299 357 223 302 266 223 274 356 222 301 267 222 304 266 222 274 355 222 303 268 222 277 267 222 304 354 222 305 269 222 306 268 222 277 354 223 305 353 223 427 270 223 280 353 221 307 352 221 309 271 221 283 352 223 309 351 223 311 272 223 286 350 222 310 273 222 288 272 222 286 350 223 310 349 223 314 274 223 312 348 222 313 275 222 293 274 222 312 359 221 300 265 221 295 275 221 293 373 639 315 372 639 439 294 639 316 247 640 318 279 640 338 280 640 319 263 641 321 261 641 339 286 641 322 243 642 324 241 642 331 277 642 325 257 643 327 255 643 290 283 643 292 249 644 320 280 644 319 281 644 329 241 645 331 263 645 321 287 645 323 243 646 324 276 646 326 278 646 332 259 647 334 257 647 327 284 647 328 251 648 330 281 648 329 282 648 336 245 649 333 278 649 332 279 649 338 261 650 339 259 650 334 285 650 335 572 651 340 553 651 386 309 651 341 375 652 343 374 652 363 291 652 344 376 653 346 298 653 364 299 653 347 378 654 349 289 654 356 288 654 350 380 655 352 373 655 315 295 655 317 381 656 354 375 656 343 292 656 345 377 657 348 299 657 347 289 657 356 379 658 351 288 658 350 290 658 357 383 659 359 380 659 352 296 659 353 372 660 361 381 660 354 293 660 355 382 661 358 290 661 357 291 661 344 383 662 359 297 662 360 298 662 364 302 663 366 300 663 675 310 663 367 300 664 675 301 664 676 311 664 677 310 665 367 300 665 675 311 665 677 310 666 367 309 666 678 303 666 365 309 667 678 308 667 679 304 667 680 308 668 679 307 668 681 304 668 680 307 669 681 306 669 682 305 669 683 304 663 680 307 663 681 305 663 683 304 248 680 303 248 365 309 248 678 555 670 368 306 670 684 307 670 369 568 671 371 557 671 389 303 671 372 566 672 374 572 672 340 310 672 342 564 673 376 559 673 383 301 673 377 570 674 370 307 674 369 308 674 379 562 675 381 568 675 371 304 675 373 559 676 383 566 676 374 311 676 375 564 677 376 300 677 378 302 677 384 574 678 380 308 678 379 309 678 341 562 679 381 305 679 382 306 679 387 560 680 385 302 680 384 303 680 372 337 260 289 315 260 398 317 260 390 242 261 391 240 261 421 335 261 392 340 262 284 321 262 424 323 262 394 330 681 395 329 681 403 327 681 396 315 682 398 313 682 423 314 682 399 334 683 393 333 683 405 331 683 401 332 684 402 331 684 401 329 684 403 244 267 404 332 267 402 330 267 395 347 685 271 346 685 273 333 685 405 326 686 407 325 686 415 323 686 408 260 270 410 258 270 412 318 270 411 258 271 412 256 271 416 320 271 413 246 272 296 330 272 395 328 272 397 343 687 278 342 687 279 325 687 415 254 274 297 322 274 417 320 274 413 323 688 394 321 688 424 322 688 417 317 689 390 315 689 398 316 689 400 328 690 397 327 690 396 325 690 415 319 691 419 317 691 390 318 691 411 338 279 287 317 279 390 319 279 419 248 280 414 328 280 397 326 280 407 344 692 276 343 692 278 327 692 396 240 282 421 262 282 298 314 282 399 262 283 298 260 283 410 316 283 400 255 284 290 352 284 309 353 284 307 313 693 423 312 693 406 335 693 392 337 694 289 336 694 294 313 694 423 339 287 285 319 287 419 321 287 424 252 695 425 324 695 418 322 695 417 335 696 392 312 696 406 333 696 405 346 290 273 345 290 275 331 290 401 250 697 420 326 697 407 324 697 409 342 292 279 341 292 281 323 292 408 321 698 424 319 698 419 320 698 413 336 294 294 347 294 271 312 294 406 242 295 391 334 295 393 332 295 402 296 699 353 362 699 438 371 699 426 247 700 318 249 700 320 355 700 303 261 298 339 263 298 321 348 298 313 345 299 275 344 299 276 329 299 403 255 300 290 257 300 327 351 300 311 249 701 320 251 701 330 354 701 305 245 302 333 357 302 302 358 302 299 243 303 324 358 303 299 359 303 300 259 304 334 350 304 310 351 304 311 251 305 330 253 305 337 353 305 427 245 306 333 247 306 318 356 306 301 259 307 334 261 307 339 349 307 314 290 702 357 360 702 437 367 702 428 293 703 355 292 703 345 366 703 429 299 704 347 298 704 364 370 704 431 293 705 355 361 705 430 369 705 433 241 706 331 359 706 300 348 706 313 289 707 356 299 707 347 365 707 432 288 708 350 289 708 356 364 708 434 294 709 316 369 709 635 368 709 436 298 710 364 297 710 360 371 710 426 288 711 350 363 711 435 360 711 437 295 712 317 368 712 436 362 712 438 292 713 345 291 713 344 367 713 428 285 714 335 383 714 359 376 714 346 278 715 332 382 715 358 374 715 363 282 716 336 281 716 329 381 716 354 285 717 335 284 717 328 380 717 352 276 718 326 379 718 351 382 718 358 287 719 323 377 719 348 378 719 349 281 720 329 280 720 319 375 720 343 284 721 328 283 721 292 373 721 315 277 722 325 378 722 349 379 722 351 286 723 322 376 723 346 377 723 348 280 724 319 279 724 338 374 724 363 283 725 292 282 725 291 372 725 439 491 726 440 409 726 470 408 726 441 490 727 442 408 727 441 410 727 443 489 728 444 410 728 443 411 728 445 488 335 446 411 335 445 412 335 447 412 336 447 413 336 476 486 336 449 486 337 449 413 337 476 414 337 450 485 338 452 414 338 478 415 338 453 484 339 454 415 339 453 416 339 455 416 340 455 417 340 458 482 340 457 417 729 458 418 729 463 481 729 459 399 730 460 397 730 590 426 730 461 418 731 463 419 731 465 480 731 464 419 732 465 409 732 470 491 732 440 406 345 468 384 345 589 386 345 560 386 345 560 388 345 573 406 345 468 388 345 573 390 345 466 406 345 468 390 345 466 392 345 582 394 345 588 394 345 588 396 345 593 390 345 466 396 345 593 398 345 467 390 345 466 398 345 467 400 345 584 406 345 468 400 345 584 402 345 580 406 345 468 402 345 580 404 345 578 406 345 468 502 349 469 408 349 441 409 349 470 501 348 472 410 348 443 408 348 441 501 349 472 500 349 474 411 349 445 499 347 473 412 347 447 411 347 445 498 348 475 413 348 476 412 348 447 498 349 475 497 349 596 414 349 450 496 348 477 415 348 453 414 348 478 496 347 477 495 347 481 416 347 455 494 349 480 417 349 458 416 349 455 494 348 480 493 348 483 418 348 463 492 346 482 419 346 465 418 346 463 503 347 471 409 347 470 419 347 465 517 733 484 516 733 608 438 733 485 391 734 487 423 734 507 424 734 488 407 735 490 405 735 508 430 735 491 387 736 493 385 736 500 421 736 494 401 737 496 399 737 460 427 737 462 393 738 489 424 738 488 425 738 498 385 739 500 407 739 490 431 739 492 387 740 493 420 740 495 422 740 501 403 741 503 401 741 496 428 741 497 395 742 499 425 742 498 426 742 505 389 743 502 422 743 501 423 743 507 405 744 508 403 744 503 429 744 504 596 745 509 577 745 555 453 745 510 519 746 512 518 746 532 435 746 513 520 747 515 442 747 533 443 747 516 522 748 518 433 748 525 432 748 519 524 749 521 517 749 484 439 749 486 525 750 523 519 750 512 436 750 514 521 751 517 443 751 516 433 751 525 523 752 520 432 752 519 434 752 526 527 753 528 524 753 521 440 753 522 516 754 530 525 754 523 437 754 524 526 755 527 434 755 526 435 755 513 527 756 528 441 756 529 442 756 533 446 757 685 444 757 686 455 757 687 444 758 686 445 758 688 455 758 687 455 759 687 454 759 689 446 759 685 454 374 689 453 374 690 446 374 685 453 374 690 452 374 536 447 374 535 446 760 685 453 760 690 447 760 535 452 761 536 451 761 691 448 761 534 451 762 691 450 762 692 449 762 693 448 763 534 451 763 691 449 763 693 579 764 537 450 764 694 451 764 538 592 765 540 581 765 558 447 765 541 590 766 543 596 766 509 454 766 511 588 767 545 583 767 552 445 767 546 594 768 539 451 768 538 452 768 548 586 769 550 592 769 540 448 769 542 583 770 552 590 770 543 455 770 544 588 771 545 444 771 547 446 771 553 598 772 549 452 772 548 453 772 510 586 773 550 449 773 551 450 773 556 584 774 554 446 774 553 447 774 541 481 386 459 459 386 567 461 386 559 386 387 560 384 387 589 479 387 561 484 388 454 465 388 592 467 388 563 474 775 564 473 775 572 471 775 565 459 776 567 457 776 591 458 776 568 478 777 562 477 777 594 475 777 570 476 778 571 475 778 570 473 778 572 388 393 573 476 393 571 474 393 564 490 779 442 477 779 594 456 779 574 470 780 575 469 780 583 467 780 576 404 396 578 402 396 580 462 396 579 402 397 580 400 397 584 464 397 581 390 398 466 474 398 564 472 398 566 487 399 448 486 399 449 469 399 583 400 400 584 398 400 467 466 400 585 467 781 563 465 781 592 466 781 585 461 782 559 459 782 567 460 782 569 472 783 566 471 783 565 469 783 583 463 784 587 461 784 559 462 784 579 482 405 457 461 405 559 463 405 587 392 406 582 472 406 566 470 406 575 487 407 448 471 407 565 473 407 572 384 408 589 406 408 468 458 408 568 406 785 468 404 785 578 460 785 569 399 786 460 496 786 477 497 786 479 457 787 591 456 787 574 479 787 561 480 412 464 457 412 591 459 412 567 483 788 456 463 788 587 465 788 592 396 414 593 468 414 586 466 414 585 479 789 561 456 789 574 477 789 594 490 416 442 489 416 444 475 416 570 394 790 588 470 790 575 468 790 577 486 418 449 485 418 451 467 418 576 465 791 592 463 791 587 464 791 581 480 792 464 491 792 440 456 792 574 386 421 560 478 421 562 476 421 571 440 793 522 506 793 607 515 793 595 393 423 489 499 423 473 500 423 474 405 794 508 407 794 490 492 794 482 489 795 444 488 795 446 473 795 572 399 796 460 401 796 496 495 796 481 393 427 489 395 427 499 498 427 475 389 428 502 501 428 472 502 428 469 387 429 493 502 429 469 503 429 471 403 430 503 494 430 480 495 430 481 395 431 499 397 431 506 497 431 596 391 432 487 500 432 474 501 432 472 403 433 503 405 433 508 493 433 483 434 797 526 504 797 606 511 797 597 437 798 524 436 798 514 510 798 598 443 799 516 442 799 533 514 799 600 437 800 524 505 800 599 513 800 602 407 438 490 385 438 500 503 438 471 433 801 525 443 801 516 509 801 601 432 802 519 433 802 525 508 802 603 438 803 485 513 803 649 512 803 605 442 804 533 441 804 529 515 804 595 432 805 519 507 805 604 504 805 606 439 806 486 512 806 605 506 806 607 436 807 514 435 807 513 511 807 597 429 808 504 527 808 528 520 808 515 422 809 501 526 809 527 518 809 532 426 810 505 425 810 498 525 810 523 429 811 504 428 811 497 524 811 521 420 812 495 523 812 520 526 812 527 431 813 492 521 813 517 522 813 518 425 814 498 424 814 488 519 814 512 428 815 497 427 815 462 517 815 484 421 816 494 522 816 518 523 816 520 430 817 491 520 817 515 521 817 517 424 818 488 423 818 507 518 818 532 427 819 462 426 819 461 516 819 608 200 820 249 537 820 610 532 820 609 537 821 610 536 821 197 533 821 201 201 822 242 539 822 612 530 822 611 539 823 612 538 823 193 531 823 200 202 824 250 551 824 614 528 824 613 551 825 614 550 825 192 529 825 198 203 826 247 541 826 615 537 826 610 541 827 615 540 827 188 536 827 197 204 828 246 205 828 244 543 828 616 534 829 617 543 829 616 542 829 186 201 830 242 206 830 241 545 830 618 539 831 612 545 831 618 544 831 183 208 832 248 547 832 619 551 832 614 547 833 619 546 833 182 550 833 192 203 834 247 204 834 246 534 834 617 541 835 615 534 835 617 535 835 195 205 836 244 210 836 243 549 836 620 543 837 616 549 837 620 548 837 152 206 838 241 207 838 240 532 838 609 545 839 618 532 839 609 533 839 201 209 840 621 530 840 622 547 840 619 530 841 622 531 841 180 546 841 182 210 842 243 211 842 238 528 842 613 549 843 620 528 843 613 529 843 198 360 844 437 561 844 624 556 844 623 561 845 624 560 845 385 557 845 389 361 846 430 563 846 626 554 846 625 563 847 626 562 847 381 555 847 388 362 848 438 575 848 628 552 848 627 575 849 628 574 849 380 553 849 386 363 850 435 565 850 629 561 850 624 565 851 629 564 851 376 560 851 385 364 852 434 365 852 432 567 852 630 558 853 631 567 853 630 566 853 374 361 854 430 366 854 429 569 854 632 563 855 626 569 855 632 568 855 371 368 856 436 571 856 633 575 856 628 571 857 633 570 857 370 574 857 380 363 858 435 364 858 434 558 858 631 565 859 629 558 859 631 559 859 383 365 860 432 370 860 431 573 860 634 567 861 630 573 861 634 572 861 340 366 862 429 367 862 428 556 862 623 569 863 632 556 863 623 557 863 389 369 864 635 554 864 636 571 864 633 554 865 636 555 865 368 570 865 370 370 866 431 371 866 426 552 866 627 573 867 634 552 867 627 553 867 386 504 868 606 585 868 638 580 868 637 585 869 638 584 869 554 581 869 558 505 870 599 587 870 640 578 870 639 587 871 640 586 871 550 579 871 557 506 872 607 599 872 642 576 872 641 599 873 642 598 873 549 577 873 555 507 874 604 589 874 643 585 874 638 589 875 643 588 875 545 584 875 554 508 876 603 509 876 601 591 876 644 582 877 645 591 877 644 590 877 543 505 878 599 510 878 598 593 878 646 587 879 640 593 879 646 592 879 540 512 880 605 595 880 647 599 880 642 595 881 647 594 881 539 598 881 549 507 882 604 508 882 603 582 882 645 589 883 643 582 883 645 583 883 552 509 884 601 514 884 600 597 884 648 591 885 644 597 885 648 596 885 509 510 886 598 511 886 597 580 886 637 593 887 646 580 887 637 581 887 558 513 888 649 578 888 650 595 888 647 578 889 650 579 889 537 594 889 539 514 890 600 515 890 595 576 890 641 597 891 648 576 891 641 577 891 555</p>
        </triangles>
      </mesh>
    </geometry>
  </library_geometries>
  <library_visual_scenes>
    <visual_scene id="Scene" name="Scene">
      <node id="Cylinder.001" name="Cylinder.001" type="NODE">
        <instance_geometry url="#Cylinder.001-mesh">
          <bind_material>
            <technique_common>
              <instance_material symbol="Plastic010_1K_Displacement" target="#Plastic010_1K_Displacement-material"/>
            </technique_common>
          </bind_material>
        </instance_geometry>
      </node>
    </visual_scene>
  </library_visual_scenes>
  <scene>
    <instance_visual_scene url="#Scene"/>
  </scene>
</COLLADA>
