<?xml version="1.0" encoding="utf-8"?>
<COLLADA xmlns="http://www.collada.org/2005/11/COLLADASchema" version="1.4.1">
  <asset>
    <contributor>
      <authoring_tool>Blender COLLADA Exporter</authoring_tool>
    </contributor>
    <up_axis>Z_UP</up_axis>
  </asset>
  <library_images>
    <image id="Plastic010_1K_Displacement-image" name="Plastic010_1K_Displacement-image">
      <init_from>../Plastic010_1K_Displacement.jpg</init_from>
    </image>
  </library_images>
  <library_effects>
    <effect id="Plastic010_1K_Displacement-effect">
      <profile_COMMON>
        <newparam sid="Plastic010_1K_Displacement-surface">
          <surface type="2D">
            <init_from>Plastic010_1K_Displacement-image</init_from>
          </surface>
        </newparam>
        <newparam sid="Plastic010_1K_Displacement-sampler">
          <sampler2D>
            <source>Plastic010_1K_Displacement-surface</source>
          </sampler2D>
        </newparam>
        <technique sid="common">
          <lambert>
            <emission>
              <color sid="emission">0 0 0 1</color>
            </emission>
            <diffuse>
              <texture texture="Plastic010_1K_Displacement-sampler" texcoord="UVMap"/>
            </diffuse>
          </lambert>
        </technique>
      </profile_COMMON>
    </effect>
  </library_effects>
  <library_materials>
    <material id="Plastic010_1K_Displacement-material" name="Plastic010_1K_Displacement">
      <instance_effect url="#Plastic010_1K_Displacement-effect"/>
    </material>
  </library_materials>
  <library_geometries>
    <geometry id="Cylinder-mesh" name="Cylinder">
      <mesh>
        <source id="Cylinder-mesh-positions">
          <float_array id="Cylinder-mesh-positions-array" count="615">0.151974 0.701814 -0.410953 0.0129901 0.72601 -0.410953 0.281486 0.630875 -0.410953 0.392701 0.518028 -0.410953 0.478039 0.370962 -0.410953 0.531685 0.1997 -0.410953 -0.505705 0.1997 -0.410953 -0.452059 0.370962 -0.410953 -0.366721 0.518028 -0.410953 -0.255507 0.630875 -0.410953 -0.125994 0.701814 -0.410953 0.0129899 -2.25014 2.36232 0.427564 -2.25014 2.27788 0.779022 -2.25014 2.03741 1.01386 -2.25014 1.67753 1.09632 -2.25014 1.25301 1.01386 -2.25014 0.828498 0.779022 -2.25014 0.46861 0.427564 -2.25014 0.228141 0.0129901 -2.25014 0.143702 -0.401583 -2.25014 0.228141 -0.753042 -2.25014 0.46861 -0.987879 -2.25014 0.828498 -1.07034 -2.25014 1.25301 -0.987879 -2.25014 1.67753 -0.753042 -2.25014 2.03741 -0.401583 -2.25014 2.27788 0.0129899 -1.83787 2.44959 0.460177 -1.83787 2.3585 0.839284 -1.83787 2.09912 1.09259 -1.83787 1.71092 1.18155 -1.83787 1.25301 1.09259 -1.83787 0.795102 0.839284 -1.83787 0.406904 0.460177 -1.83787 0.147519 0.0129901 -1.83787 0.0564363 -0.434197 -1.83787 0.147519 -0.813304 -1.83787 0.406904 -1.06662 -1.83787 0.795102 -1.15557 -1.83787 1.25301 -1.06662 -1.83787 1.71092 -0.813304 -1.83787 2.09912 -0.434197 -1.83787 2.3585 0.186719 0.87329 -0.309283 0.0129895 0.903535 -0.309283 0.34861 0.784616 -0.309283 0.487628 0.643556 -0.309283 0.594301 0.459724 -0.309283 0.661358 0.245647 -0.309283 0.68423 0.0159136 -0.309283 0.661358 -0.21382 -0.309283 0.594301 -0.427897 -0.309283 0.487628 -0.611729 -0.309283 0.34861 -0.752789 -0.309283 0.18672 -0.841462 -0.309283 0.0129896 -0.871708 -0.309283 -0.16074 -0.841463 -0.309283 -0.322631 -0.752789 -0.309283 -0.461649 -0.61173 -0.309283 -0.568322 -0.427897 -0.309283 -0.635379 -0.21382 -0.309283 -0.658251 0.0159131 -0.309283 -0.63538 0.245646 -0.309283 -0.568322 0.459724 -0.309283 -0.46165 0.643556 -0.309283 -0.322631 0.784616 -0.309283 -0.160741 0.873289 -0.309283 0.186715 0.87329 0.107403 0.0129851 0.903535 0.107403 0.348606 0.784616 0.107403 0.487624 0.643556 0.107403 0.594297 0.459724 0.107403 0.661354 0.245647 0.107403 0.684226 0.0159136 0.107403 0.661354 -0.21382 0.107403 0.594297 -0.427897 0.107403 0.487624 -0.611729 0.107403 0.348606 -0.752789 0.107403 0.186715 -0.841462 0.107403 0.0129854 -0.871708 0.107403 -0.160744 -0.841463 0.107403 -0.322635 -0.752789 0.107403 -0.461653 -0.61173 0.107403 -0.568326 -0.427897 0.107403 -0.635384 -0.21382 0.107403 -0.658256 0.0159131 0.107403 -0.635384 0.245646 0.107403 -0.568327 0.459724 0.107403 -0.461654 0.643556 0.107403 -0.322636 0.784616 0.107403 -0.160745 0.873289 0.107403 0.338859 -2.39579 2.0586 0.0129899 -2.39579 2.12497 0.615118 -2.39579 1.86958 0.799708 -2.39579 1.58669 0.864528 -2.39579 1.25301 0.799708 -2.39579 0.919331 0.615118 -2.39579 0.636443 0.338859 -2.39579 0.447427 0.01299 -2.39579 0.381057 -0.312879 -2.39579 0.447427 -0.589138 -2.39579 0.636443 -0.773728 -2.39579 0.919331 -0.838548 -2.39579 1.25301 -0.773728 -2.39579 1.58669 -0.589138 -2.39579 1.86958 -0.312879 -2.39579 2.0586 0.405643 4.53544 1.94738 0.690858 4.53544 1.70661 0.594782 4.53063 1.84348 0.690858 4.53544 1.04044 0.405643 4.53544 0.799668 0.594782 4.53063 0.90356 1.31299 -1.85404 1.77112 0.518965 -1.85404 2.58418 1.08043 -1.85404 2.34604 0.518965 -1.85404 -0.0781607 1.31299 -1.85404 0.734902 1.08043 -1.85404 0.159986 -0.664878 4.53544 1.70661 -0.379663 4.53544 1.94738 -0.568803 4.53063 1.84348 -0.379663 4.53544 0.799668 -0.664878 4.53544 1.04044 -0.568803 4.53063 0.90356 -0.492985 -1.85404 2.58418 -1.28701 -1.85404 1.77112 -1.05445 -1.85404 2.34604 -1.28701 -1.85404 0.734902 -0.492985 -1.85404 -0.0781607 -1.05445 -1.85404 0.159986 1.03493 4.12687 2.32541 0.518965 4.1137 2.58443 1.31299 4.1137 1.84482 -0.492985 4.1137 2.58443 -1.00895 4.12687 2.32541 -1.28701 4.1137 1.84482 -1.00895 4.12687 0.42163 -0.492985 4.1137 0.162618 -1.28701 4.1137 0.902223 0.518965 4.1137 0.162618 1.03493 4.12687 0.42163 1.31299 4.1137 0.902223 0.956709 4.32875 2.23404 0.507159 4.32457 2.46202 1.19747 4.32457 1.82541 -0.481179 4.32457 2.46202 -0.930729 4.32875 2.23404 -1.17149 4.32457 1.82541 -0.930729 4.32875 0.513005 -0.481179 4.32457 0.285027 -1.17149 4.32457 0.921629 0.507159 4.32457 0.285027 0.956709 4.32875 0.513005 1.19747 4.32457 0.921629 0.81588 4.53063 2.08557 0.462568 4.53544 2.26739 1.00337 4.53544 1.77604 -0.436588 4.53544 2.26739 -0.7899 4.53063 2.08557 -0.977392 4.53544 1.77604 -0.7899 4.53063 0.661474 -0.436588 4.53544 0.479659 -0.977392 4.53544 0.971009 0.462568 4.53544 0.479659 0.81588 4.53063 0.661474 1.00337 4.53544 0.971009 0.594782 4.59647 1.84348 0.405643 4.60421 1.94738 0.690858 4.60421 1.70661 -0.379663 4.60421 1.94738 -0.568803 4.59647 1.84348 -0.664878 4.60421 1.70661 -0.568803 4.59647 0.90356 -0.379663 4.60421 0.799668 -0.664878 4.60421 1.04044 0.405643 4.60421 0.799668 0.594782 4.59647 0.90356 0.690858 4.60421 1.04044 -0.511339 0.143107 -0.410953 -0.371114 -0.49201 -0.406247 0.481686 -0.341919 -0.407762 -0.456197 -0.342294 -0.407335 0.396767 -0.491577 -0.406599 -0.508691 -0.168931 -0.408613 0.284967 -0.60702 -0.40568 -0.525272 0.0159132 -0.409992 0.153983 -0.679904 -0.405075 0.0129903 -0.70489 -0.404821 -0.128047 -0.680124 -0.404944 0.550603 0.0159136 -0.410483 0.478057 0.370976 -0.413115 -0.505709 0.199701 -0.41138 0.531693 0.199703 -0.411854 -0.452074 0.370973 -0.412692 -0.366741 0.518054 -0.413839 -0.255525 0.630917 -0.414736 -0.126005 0.701868 -0.415328 0.151985 0.70187 -0.415455 0.281506 0.63092 -0.414981 0.534061 -0.168715 -0.409091 -0.259153 -0.607401 -0.40543 0.0129901 0.72607 -0.415574 0.392723 0.518057 -0.414182 0.543714 0.0788774 -0.410953</float_array>
          <technique_common>
            <accessor source="#Cylinder-mesh-positions-array" count="205" stride="3">
              <param name="X" type="float"/>
              <param name="Y" type="float"/>
              <param name="Z" type="float"/>
            </accessor>
          </technique_common>
        </source>
        <source id="Cylinder-mesh-normals">
          <float_array id="Cylinder-mesh-normals-array" count="681">-0.363999 0.474373 -0.801546 0.793323 0.608723 0.00976111 -0.991399 0.130522 0.00959682 0.923839 0.382653 0.00988385 -0.923832 0.38267 0.00990336 0.991396 0.130523 0.00987189 -0.793307 0.608743 0.00979493 -0.608725 0.793321 0.00979263 -0.382663 0.923836 0.00976327 0.130521 0.991397 0.00981626 -0.130524 0.991396 0.00986781 0.382667 0.923834 0.00982946 0.608738 0.793311 0.00981149 0.188435 -0.258945 0.947333 0.536618 -0.258954 0.803109 0.803108 -0.258954 0.53662 0.94733 -0.258955 0.188436 0.94733 -0.258955 -0.188436 0.803108 -0.258953 -0.53662 0.53662 -0.258953 -0.803108 0.188434 -0.258949 -0.947332 -0.188434 -0.258949 -0.947332 -0.536619 -0.258953 -0.803108 -0.803108 -0.258954 -0.53662 -0.94733 -0.258955 -0.188436 -0.94733 -0.258955 0.188435 -0.803108 -0.258954 0.53662 -0.0850534 -0.899951 0.427615 -0.536618 -0.258954 0.803109 -0.188435 -0.258945 0.947333 0 0.0520328 -0.998645 0 0 1 -1 1.53173e-08 0 0 -1 9.75638e-08 1 0 0 0.92388 -0.382683 9.81027e-06 -0.364004 -0.474363 -0.801549 0.552415 -0.228818 -0.801548 -0.22882 0.552419 -0.801545 0.0780466 0.592819 -0.801545 -0.47437 -0.364006 -0.801544 0.474377 -0.364002 -0.801542 -0.0780462 0.592819 -0.801545 0.22882 0.55242 -0.801545 -0.55242 -0.228822 -0.801544 0.364 -0.474372 -0.801546 0.364001 0.474375 -0.801543 -0.592819 -0.0780456 -0.801545 0.228823 -0.552428 -0.801538 0.474375 0.364001 -0.801544 0.0780473 -0.592821 -0.801543 0.552421 0.228819 -0.801544 -0.552418 0.228819 -0.801546 -0.0780425 -0.592825 -0.801541 0.592822 0.0780458 -0.801543 -0.474373 0.363997 -0.801546 -0.228821 -0.552423 -0.801542 0.592826 -0.0780466 -0.80154 -0.382684 0.923879 -4.08376e-06 0.130526 0.991445 1.51001e-06 -0.793352 -0.608763 -8.58397e-06 0.793354 -0.608761 8.46136e-06 -0.130527 0.991445 -1.27239e-06 0.382684 0.923879 3.86684e-06 -0.92388 -0.382683 -9.81027e-06 0.608762 -0.793353 6.4993e-06 0.608762 0.793353 6.42798e-06 -0.991445 -0.130528 -1.05384e-05 0.382683 -0.92388 3.92411e-06 0.793352 0.608763 8.45919e-06 -0.991445 0.130525 -9.91018e-06 0.130527 -0.991445 1.22628e-06 0.92388 0.382683 9.83225e-06 -0.923879 0.382684 -9.81238e-06 -0.130526 -0.991445 -1.47154e-06 0.991445 0.130525 9.9087e-06 -0.793355 0.60876 -8.02289e-06 -0.382683 -0.92388 -3.92411e-06 0.991445 -0.130527 1.05384e-05 -0.608761 0.793354 -6.51626e-06 -0.608761 -0.793354 -6.0088e-06 0.427617 -0.899949 0.0850591 -0.0850563 -0.899949 -0.427619 -0.362518 -0.899948 0.242226 0.242229 -0.899948 0.362517 0.242226 -0.899949 -0.362517 -0.427617 -0.899949 -0.0850597 0.427617 -0.899949 -0.0850584 -0.242228 -0.899948 -0.362518 -0.242225 -0.899949 0.362517 0.362516 -0.89995 0.242222 0.0850527 -0.899951 -0.427615 0.0850559 -0.899949 0.427617 -0.427617 -0.89995 0.0850584 0.362518 -0.899948 -0.242226 -0.362516 -0.89995 -0.242221 0.440044 0.00842523 0.897937 0.860393 0.010924 0.509513 -0.382691 -4.83844e-05 0.923876 -0.92386 -0.00610307 0.382681 -0.438666 0.0550857 -0.896961 -0.860368 0.0184419 -0.509339 0.382248 0.0480814 -0.922808 0.923437 0.0308984 -0.382505 0 -5.23676e-05 1 0.351611 0.60011 0.718497 0.714297 0.566317 0.411175 -0.350084 0.578326 0.736872 -0.690534 0.594554 0.411908 -0.351612 0.600114 -0.718493 -0.714297 0.566318 -0.411174 0.350084 0.578325 -0.736873 0.690532 0.594557 -0.411908 0 0.59983 0.800128 0.809834 0.586659 0 0 0.599828 -0.800129 -0.809835 0.586658 0 -0.634799 0.772678 0 0 0.766098 -0.642724 0.634798 0.772678 0 0 0.766095 0.642727 0.516693 0.790026 -0.32998 0.29552 0.764886 -0.572378 -0.550444 0.768589 -0.32601 -0.271836 0.78262 -0.56001 -0.516692 0.790027 0.329979 -0.295523 0.764884 0.57238 0.550444 0.768589 0.32601 0.271835 0.782621 0.56001 0.0127985 0.999846 -0.0119701 -0.00229979 0.999941 0.0105998 -0.00942678 0.999954 -0.00171561 0.0164403 0.999747 0.0153762 -0.0127985 0.999847 0.011968 0.00229978 0.999941 -0.0105998 0.00942678 0.999954 0.00171562 -0.0164403 0.999747 -0.0153762 0 1 -7.12581e-07 -0.812022 0 -0.583626 -0.472707 0 0.88122 0.472707 0 -0.88122 -0.812023 0 0.583626 0 0 -1 0.47271 0 0.881218 0.812022 0 -0.583626 -0.472708 0 -0.881219 0.812023 0 0.583626 -0.592817 0.0780458 -0.801546 0.793308 0.608741 0.00982483 0.923832 0.382673 0.00975122 -0.923857 0.382618 0.00955972 -0.793314 0.608732 0.0099155 -0.608737 0.793312 0.00978175 -0.38267 0.923833 0.0097917 0.130522 0.991396 0.00986783 -0.13052 0.991398 0.00977975 0.382661 0.923837 0.00981081 0.608731 0.793316 0.00982912 0.803109 -0.258956 0.536617 0.94733 -0.258955 0.188436 0.803109 -0.258956 -0.536618 -0.803108 -0.258956 -0.536618 -0.94733 -0.258954 0.188436 -0.803108 -0.258957 0.536617 -0.0850561 -0.89995 0.427617 -0.364001 -0.474377 -0.801542 0.55242 -0.228836 -0.80154 0.0780465 0.592819 -0.801545 -0.47437 -0.363997 -0.801548 0.474376 -0.363986 -0.801549 -0.0780468 0.592819 -0.801545 0.363998 -0.47438 -0.801542 0.364001 0.474374 -0.801544 0.22883 -0.552412 -0.801547 0.0780402 -0.592829 -0.801538 -0.0780466 -0.592821 -0.801544 0.592821 0.0780426 -0.801544 0.592822 -0.0780392 -0.801544 -0.991445 0.130528 -1.05422e-05 0.991445 0.130527 1.05422e-05 0.991445 -0.130525 9.91113e-06 -0.0850527 -0.89995 -0.427617 -0.362516 -0.89995 0.242222 0.362518 -0.899949 0.242226 0.0850563 -0.899949 -0.427619 0.0850532 -0.89995 0.427616 0.362517 -0.89995 -0.242221 -0.362518 -0.899949 -0.242226 0.382691 -4.83844e-05 0.923876 0.92386 -0.00610308 0.382681 -0.440044 0.00842521 0.897936 -0.860394 0.0109239 0.509513 -0.382248 0.0480814 -0.922808 -0.923437 0.0308984 -0.382505 0.438666 0.0550857 -0.89696 0.860368 0.0184419 -0.509339 0.350084 0.578326 0.736872 0.690534 0.594554 0.411908 -0.351612 0.600111 0.718496 -0.714297 0.566318 0.411175 -0.350084 0.578325 -0.736872 -0.690532 0.594556 -0.411908 0.351612 0.600113 -0.718494 0.714298 0.566317 -0.411174 0 0.766097 -0.642725 0 0.766095 0.642728 0.550444 0.768588 -0.326011 0.271836 0.78262 -0.56001 -0.516693 0.790026 -0.32998 -0.29552 0.764886 -0.572378 -0.550444 0.768589 0.326009 -0.271835 0.782621 0.56001 0.516692 0.790027 0.329979 0.295523 0.764884 0.57238 0.00942678 0.999954 -0.00171561 -0.0164403 0.999747 0.0153762 -0.0127985 0.999846 -0.011968 0.0022998 0.999941 0.0105998 -0.00942678 0.999954 0.00171562 0.0164403 0.999747 -0.0153762 0.0127985 0.999846 0.0119701 -0.00229978 0.999941 -0.0105998 -0.0877264 0.990444 -0.106416 -0.0877266 0.990444 0.106421 0.0877268 0.990445 0.106408 0.0877266 0.990445 -0.106412 -0.592819 0.0780498 -0.801545</float_array>
          <technique_common>
            <accessor source="#Cylinder-mesh-normals-array" count="227" stride="3">
              <param name="X" type="float"/>
              <param name="Y" type="float"/>
              <param name="Z" type="float"/>
            </accessor>
          </technique_common>
        </source>
        <source id="Cylinder-mesh-texcoord">
          <float_array id="Cylinder-mesh-texcoord-array" count="512">0.790127 0.430765 0.7944 0.427901 0.793724 0.431466 0.815788 0.42875 0.811719 0.430043 0.815789 0.428675 0.782324 0.42803 0.780982 0.427318 0.782325 0.428015 0.82014 0.42674 0.82014 0.426708 0.786355 0.429645 0.786351 0.429705 0.823219 0.42488 0.790121 0.430864 0.793716 0.431596 0.797223 0.43181 0.797216 0.43196 0.804224 0.4317 0.8007 0.43183 0.804229 0.431545 0.800694 0.431988 0.807876 0.431102 0.807879 0.430963 0.811717 0.430155 0.615769 0.522591 0.598853 0.532521 0.598779 0.520902 0.584487 0.533663 0.582151 0.522665 0.566306 0.527825 0.570933 0.538306 0.551796 0.536398 0.548648 0.555375 0.539723 0.548161 0.540678 0.567303 0.53056 0.562103 0.524281 0.577915 0.53563 0.581004 0.52167 0.595243 0.534922 0.61024 0.523257 0.61271 0.539235 0.624518 0.528552 0.629237 0.537204 0.644286 0.54689 0.637319 0.54906 0.657238 0.569085 0.656367 0.563647 0.66702 0.582974 0.661921 0.579828 0.673377 0.614307 0.662578 0.598301 0.65414 0.611464 0.652758 0.59734 0.676436 0.59813 0.664058 0.615769 0.675677 0.220611 0.553146 0.0626631 0.52961 0.217694 0.520648 0.282661 0.41461 0.262802 0.446998 0.260667 0.445558 0.0669729 0.441202 0.217728 0.487861 0.0634267 0.482516 0.550646 0.771914 0.52167 0.742937 0.616552 0.706008 0.227622 0.585994 0.0832664 0.657423 0.0740039 0.616847 0.828219 0.409488 0.814576 0.410141 0.814903 0.406006 0.759583 0.405247 0.771062 0.408018 0.764432 0.412398 0.835518 0.414507 0.824816 0.415115 0.797485 0.42829 0.80374 0.427881 0.774328 0.41363 0.769129 0.417981 0.841569 0.406645 0.831276 0.401708 0.800578 0.428277 0.807005 0.427141 0.777779 0.417964 0.773656 0.422304 0.847878 0.395228 0.833185 0.391021 0.810402 0.426054 0.781332 0.421304 0.777995 0.425709 0.854286 0.377893 0.832263 0.376191 0.813884 0.424484 0.853701 0.353723 0.825926 0.354245 0.817438 0.422277 0.78808 0.425782 0.748845 0.388896 0.765569 0.391026 0.754528 0.396728 0.821027 0.41927 0.791278 0.427086 0.768064 0.40064 0.829823 0.419886 0.784428 0.400259 0.812388 0.394633 0.804395 0.420412 0.797797 0.422566 0.80217 0.42182 0.783856 0.405055 0.784496 0.409248 0.814498 0.400514 0.799954 0.422494 0.786036 0.412716 0.807175 0.419667 0.788278 0.415576 0.806143 0.39219 0.809595 0.418346 0.789789 0.418054 0.784763 0.4239 0.797813 0.392301 0.811676 0.416361 0.791756 0.419895 0.78906 0.396376 0.813292 0.41366 0.793619 0.421297 0.795688 0.422111 0.558945 0.545738 0.574692 0.546545 0.56426 0.552685 0.53388 0.595577 0.544185 0.608398 0.585369 0.652566 0.586398 0.542832 0.54899 0.571429 0.544906 0.583294 0.557046 0.647942 0.554484 0.631712 0.562987 0.641031 0.555607 0.56114 0.548176 0.620568 0.54302 0.59583 0.613726 0.534643 0.598605 0.541573 0.573465 0.648035 0.640781 0.520902 0.664108 0.525541 0.672681 0.568644 0.263925 0.650779 0.0900044 0.680786 0.248793 0.631341 0.239377 0.614655 0.234384 0.425821 0.070369 0.417516 0.0745179 0.394074 0.222786 0.459447 0.0623056 0.506202 0.216939 0.503816 0.0693258 0.593518 0.0661343 0.570282 0.223389 0.570234 0.0820646 0.353689 0.257734 0.390528 0.270008 0.642986 0.254723 0.627005 0.246095 0.612014 0.240751 0.430031 0.227127 0.4437 0.22909 0.460315 0.232922 0.445885 0.224094 0.519527 0.222753 0.503748 0.224031 0.489108 0.227321 0.552956 0.233621 0.583323 0.229228 0.569106 0.264834 0.396062 0.232947 0.490939 0.237985 0.461718 0.236372 0.552552 0.232809 0.518242 0.255237 0.60804 0.242047 0.579556 0.249062 0.435625 0.272856 0.404369 0.237796 0.567315 0.231365 0.503867 0.241307 0.449151 0.262908 0.620623 0.28299 0.617362 0.274772 0.610207 0.269982 0.602744 0.252051 0.463237 0.254642 0.454954 0.246732 0.515429 0.245864 0.504393 0.247327 0.495913 0.251289 0.553366 0.254827 0.57259 0.252012 0.56432 0.657268 0.62152 0.624946 0.631928 0.616365 0.62152 0.248258 0.504494 0.256816 0.455949 0.272224 0.601463 0.254352 0.563826 0.254635 0.463828 0.253745 0.553144 0.276647 0.608588 0.28471 0.61546 0.25731 0.571553 0.249295 0.515177 0.249809 0.496311 0.28471 0.416061 0.616552 0.742937 0.587575 0.771914 0.608065 0.763427 0.530157 0.763427 0.52167 0.706008 0.530157 0.685519 0.550646 0.677032 0.587575 0.677032 0.608065 0.685519 0.762432 0.376922 0.824806 0.423906 0.610618 0.543512 0.664108 0.577218 0.652906 0.581858 0.640781 0.581858 0.629579 0.577218 0.621005 0.568644 0.616365 0.557442 0.616365 0.545317 0.621005 0.534115 0.629579 0.525542 0.652906 0.520902 0.672681 0.534115 0.677321 0.545317 0.677321 0.557442 0.0970715 0.703255 0.276789 0.632501 0.657268 0.592861 0.653576 0.628432 0.648687 0.631928 0.620056 0.628432 0.616365 0.592862 0.620056 0.58595 0.624946 0.582453 0.648687 0.582453 0.653576 0.58595</float_array>
          <technique_common>
            <accessor source="#Cylinder-mesh-texcoord-array" count="256" stride="2">
              <param name="S" type="float"/>
              <param name="T" type="float"/>
            </accessor>
          </technique_common>
        </source>
        <vertices id="Cylinder-mesh-vertices">
          <input semantic="POSITION" source="#Cylinder-mesh-positions"/>
        </vertices>
        <triangles count="360" material="Plastic010_1K_Displacement">
          <input semantic="VERTEX" source="#Cylinder-mesh-vertices" offset="0"/>
          <input semantic="NORMAL" source="#Cylinder-mesh-normals" offset="1"/>
          <input semantic="TEXCOORD" source="#Cylinder-mesh-texcoord" offset="2" set="0"/>
          <p>8 0 0 65 0 1 9 0 2 191 1 3 3 1 4 4 1 5 192 2 6 179 2 7 6 2 8 193 3 9 4 3 5 5 3 10 192 4 6 7 4 11 194 4 12 204 5 13 193 5 9 5 5 10 194 6 12 8 6 0 195 6 14 195 7 14 9 7 2 196 7 15 196 8 15 10 8 16 197 8 17 198 9 18 1 9 19 0 9 20 197 10 17 1 10 19 202 10 21 199 11 22 0 11 20 2 11 23 203 12 24 2 12 23 3 12 4 27 13 25 12 13 26 28 13 27 28 14 27 13 14 28 29 14 29 13 15 28 30 15 30 29 15 29 14 16 31 31 16 32 30 16 30 31 17 32 16 17 33 32 17 34 32 18 34 17 18 35 33 18 36 17 19 35 34 19 37 33 19 36 18 20 38 35 20 39 34 20 37 35 21 39 20 21 40 36 21 41 36 22 41 21 22 42 37 22 43 21 23 42 38 23 44 37 23 43 22 24 45 39 24 46 38 24 44 39 25 46 24 25 47 40 25 48 40 26 48 25 26 49 41 26 50 11 27 51 106 27 52 92 27 53 25 28 49 42 28 54 41 28 50 26 29 55 27 29 56 42 29 54 140 30 57 129 30 58 138 30 59 107 31 60 170 31 61 120 31 62 126 32 63 139 32 64 128 32 65 113 33 66 114 33 67 129 33 68 142 34 69 113 34 70 117 34 71 51 35 72 74 35 73 75 35 74 201 36 75 58 36 76 180 36 77 181 37 78 50 37 79 51 37 72 9 38 2 66 38 80 10 38 16 1 39 19 43 39 81 0 39 20 180 40 77 59 40 82 182 40 83 183 41 84 51 41 72 52 41 85 10 42 16 44 42 86 1 42 19 0 43 20 45 43 87 2 43 23 182 44 83 60 44 88 184 44 89 185 45 90 52 45 85 53 45 91 2 46 23 46 46 92 3 46 4 184 47 89 61 47 93 186 47 94 187 48 95 53 48 91 54 48 96 3 49 4 47 49 97 4 49 5 188 50 98 54 50 96 55 50 99 4 51 5 48 51 100 5 51 10 6 52 8 63 52 101 7 52 11 188 53 102 56 53 103 189 53 104 49 54 105 204 54 13 48 54 100 7 55 11 64 55 106 8 55 0 189 56 104 57 56 107 201 56 75 200 57 108 49 57 105 50 57 79 81 31 109 77 31 110 69 31 111 65 58 1 90 58 112 66 58 80 44 59 86 67 59 113 43 59 81 59 60 82 82 60 114 83 60 115 52 61 85 75 61 74 76 61 116 66 62 80 68 62 117 44 62 86 43 63 81 69 63 111 45 63 87 60 64 88 83 64 115 84 64 118 53 65 91 76 65 116 77 65 110 45 66 87 70 66 119 46 66 92 61 67 93 84 67 118 85 67 120 54 68 96 77 68 110 78 68 121 46 69 92 71 69 122 47 69 97 61 70 93 86 70 123 62 70 124 55 71 99 78 71 121 79 71 125 47 72 97 72 72 126 48 72 100 62 73 124 87 73 127 63 73 101 56 74 103 79 74 125 80 74 128 48 75 100 73 75 129 49 75 105 63 76 101 88 76 130 64 76 106 57 77 107 80 77 128 81 77 109 50 78 79 73 78 129 74 78 73 64 79 106 89 79 131 65 79 1 58 80 76 81 80 109 82 80 114 15 81 132 94 81 133 95 81 134 19 82 135 100 82 136 20 82 40 24 83 47 105 83 137 25 83 49 12 84 26 93 84 138 13 84 28 18 85 38 97 85 139 98 85 140 23 86 141 102 86 142 103 86 143 15 87 132 96 87 144 16 87 33 20 88 40 101 88 145 21 88 42 26 89 55 105 89 137 106 89 52 14 90 31 93 90 138 94 90 133 19 91 135 98 91 140 99 91 146 11 92 147 91 92 148 12 92 26 23 93 141 104 93 149 24 93 47 16 94 33 97 94 139 17 94 35 22 95 45 101 95 145 102 95 142 99 33 150 97 33 151 93 33 152 132 96 153 115 96 154 131 96 155 115 97 154 133 97 156 131 97 155 134 98 157 127 98 158 125 98 159 127 99 158 136 99 160 126 99 63 138 100 59 130 100 161 137 100 162 137 101 162 128 101 65 139 101 64 140 102 57 118 102 163 116 102 164 141 103 165 117 103 71 118 103 163 134 104 157 114 104 166 132 104 167 144 105 168 131 105 155 143 105 169 145 106 170 131 106 155 133 106 156 146 107 171 135 107 172 134 107 157 148 108 173 135 108 172 147 108 174 150 109 175 137 109 162 149 109 176 151 110 177 137 110 162 139 110 64 152 111 178 141 111 165 140 111 57 154 112 179 141 112 165 153 112 180 146 113 171 132 113 167 144 113 181 145 114 170 142 114 69 154 114 179 152 115 178 138 115 59 150 115 175 151 116 177 136 116 160 148 116 173 163 117 182 148 117 173 160 117 183 164 118 184 150 118 175 162 118 185 157 119 186 154 119 179 166 119 187 158 120 188 144 120 181 156 120 189 166 121 187 153 121 180 165 121 190 165 122 190 152 122 178 164 122 184 163 123 182 149 123 176 151 123 177 161 124 191 150 124 175 149 124 176 160 125 183 147 125 174 159 125 192 159 126 192 146 126 171 158 126 188 157 127 186 143 127 169 145 127 170 155 128 193 144 128 168 143 128 169 107 129 194 155 129 193 109 129 195 108 130 196 155 130 193 157 130 186 120 131 62 159 131 192 158 131 188 119 132 197 159 132 192 121 132 198 122 133 199 161 133 191 124 133 200 123 134 201 161 134 191 163 134 182 111 135 202 165 135 190 164 135 184 110 136 203 165 136 190 112 136 204 120 137 62 156 137 189 107 137 60 108 137 196 166 137 187 110 137 203 111 137 202 162 137 185 122 137 199 123 137 201 160 137 183 119 137 197 174 137 205 172 137 206 170 137 207 123 138 201 173 138 208 124 138 200 120 139 62 171 139 209 121 139 198 110 34 203 169 34 210 108 34 196 111 140 202 177 140 211 112 140 204 119 141 197 171 141 209 172 141 212 122 142 199 176 142 213 111 142 202 107 143 194 167 143 214 168 143 215 110 144 203 177 144 211 178 144 216 122 145 199 173 145 208 174 145 217 119 32 197 175 32 218 123 32 201 108 146 196 167 146 214 109 146 195 179 147 7 61 147 93 62 147 124 8 0 0 64 0 106 65 0 1 191 148 3 203 148 24 3 148 4 193 149 9 191 149 3 4 149 5 192 150 6 6 150 8 7 150 11 194 151 12 7 151 11 8 151 0 195 152 14 8 152 0 9 152 2 196 153 15 9 153 2 10 153 16 198 154 18 202 154 21 1 154 19 197 155 17 10 155 16 1 155 19 199 156 22 198 156 18 0 156 20 203 157 24 199 157 22 2 157 23 27 13 25 11 13 147 12 13 26 28 14 27 12 14 26 13 14 28 13 158 28 14 158 31 30 158 30 14 159 31 15 159 132 31 159 32 31 17 32 15 17 132 16 17 33 32 160 34 16 160 33 17 160 35 17 19 35 18 19 38 34 19 37 18 20 38 19 20 135 35 20 39 35 21 39 19 21 135 20 21 40 36 22 41 20 22 40 21 22 42 21 161 42 22 161 45 38 161 44 22 24 45 23 24 141 39 24 46 39 162 46 23 162 141 24 162 47 40 163 48 24 163 47 25 163 49 11 164 51 26 164 55 106 164 52 25 28 49 26 28 55 42 28 54 26 29 55 11 29 51 27 29 56 140 30 57 116 30 164 129 30 58 107 31 60 168 31 219 170 31 61 126 32 63 136 32 160 139 32 64 129 33 68 116 33 220 117 33 221 116 33 220 118 33 222 117 33 221 117 33 221 113 33 66 129 33 68 113 33 66 115 33 223 114 33 67 114 33 67 125 33 224 129 33 68 125 33 224 127 33 225 126 33 226 129 33 68 125 33 224 128 33 227 126 33 226 128 33 227 125 33 224 128 33 227 130 33 228 129 33 68 142 34 69 133 34 156 113 34 70 51 35 72 50 35 79 74 35 73 201 165 75 57 165 107 58 165 76 181 166 78 200 166 108 50 166 79 9 38 2 65 38 1 66 38 80 1 167 19 44 167 86 43 167 81 180 168 77 58 168 76 59 168 82 183 169 84 181 169 78 51 169 72 10 170 16 66 170 80 44 170 86 0 43 20 43 43 81 45 43 87 182 44 83 59 44 82 60 44 88 185 171 90 183 171 84 52 171 85 2 172 23 45 172 87 46 172 92 184 47 89 60 47 88 61 47 93 187 173 95 185 173 90 53 173 91 3 49 4 46 49 92 47 49 97 188 174 98 187 174 95 54 174 96 4 51 5 47 51 97 48 51 100 6 52 8 62 52 124 63 52 101 188 175 102 55 175 229 56 175 103 190 176 230 204 176 13 49 176 105 204 54 13 5 54 10 48 54 100 7 55 11 63 55 101 64 55 106 189 56 104 56 56 103 57 56 107 200 177 108 190 177 230 49 177 105 69 31 111 67 31 113 68 31 117 68 31 117 90 31 112 69 31 111 90 31 112 89 31 131 69 31 111 89 31 131 88 31 130 87 31 127 87 31 127 86 31 123 85 31 120 85 31 120 84 31 118 81 31 109 84 31 118 83 31 115 81 31 109 83 31 115 82 31 114 81 31 109 81 31 109 80 31 128 77 31 110 80 31 128 79 31 125 77 31 110 79 31 125 78 31 121 77 31 110 77 31 110 76 31 116 75 31 74 75 31 74 74 31 73 73 31 129 73 31 129 72 31 126 71 31 122 71 31 122 70 31 119 73 31 129 70 31 119 69 31 111 73 31 129 89 31 131 87 31 127 69 31 111 87 31 127 85 31 120 69 31 111 77 31 110 75 31 74 69 31 111 75 31 74 73 31 129 69 31 111 85 31 120 81 31 109 69 31 111 65 58 1 89 58 131 90 58 112 44 59 86 68 59 117 67 59 113 59 60 82 58 60 76 82 60 114 52 61 85 51 61 72 75 61 74 66 62 80 90 62 112 68 62 117 43 63 81 67 63 113 69 63 111 60 64 88 59 64 82 83 64 115 53 65 91 52 65 85 76 65 116 45 66 87 69 66 111 70 66 119 61 67 93 60 67 88 84 67 118 54 68 96 53 68 91 77 68 110 46 69 92 70 69 119 71 69 122 61 178 93 85 178 120 86 178 123 55 71 99 54 71 96 78 71 121 47 72 97 71 72 122 72 72 126 62 73 124 86 73 123 87 73 127 56 74 103 55 74 229 79 74 125 48 179 100 72 179 126 73 179 129 63 76 101 87 76 127 88 76 130 57 77 107 56 77 103 80 77 128 50 180 79 49 180 105 73 180 129 64 79 106 88 79 130 89 79 131 58 80 76 57 80 107 81 80 109 15 81 132 14 81 31 94 81 133 19 181 135 99 181 146 100 181 136 24 182 47 104 182 149 105 182 137 12 84 26 91 84 148 93 84 138 18 85 38 17 85 35 97 85 139 23 86 141 22 86 45 102 86 142 15 87 132 95 87 134 96 87 144 20 88 40 100 88 136 101 88 145 26 89 55 25 89 49 105 89 137 14 183 31 13 183 28 93 183 138 19 184 135 18 184 38 98 184 140 11 185 147 92 185 231 91 185 148 23 93 141 103 93 143 104 93 149 16 186 33 96 186 144 97 186 139 22 187 45 21 187 42 101 187 145 93 33 152 91 33 232 92 33 233 92 33 233 106 33 234 105 33 235 105 33 235 104 33 236 103 33 237 103 33 237 102 33 238 105 33 235 102 33 238 101 33 239 105 33 235 101 33 239 100 33 240 99 33 150 99 33 150 98 33 241 97 33 151 97 33 151 96 33 242 93 33 152 96 33 242 95 33 243 93 33 152 95 33 243 94 33 244 93 33 152 93 33 152 92 33 233 101 33 239 92 33 233 105 33 235 101 33 239 101 33 239 99 33 150 93 33 152 132 188 153 114 188 245 115 188 154 115 189 154 113 189 70 133 189 156 134 190 157 135 190 172 127 190 158 127 191 158 135 191 172 136 191 160 138 192 59 129 192 58 130 192 161 137 193 162 130 193 161 128 193 65 140 194 57 141 194 165 118 194 163 141 195 165 142 195 69 117 195 71 134 104 157 125 104 159 114 104 166 144 196 168 132 196 153 131 196 155 145 197 170 143 197 169 131 197 155 146 198 171 147 198 174 135 198 172 148 199 173 136 199 160 135 199 172 150 200 175 138 200 59 137 200 162 151 201 177 149 201 176 137 201 162 152 202 178 153 202 180 141 202 165 154 203 179 142 203 69 141 203 165 146 113 171 134 113 157 132 113 167 145 114 170 133 114 156 142 114 69 152 115 178 140 115 57 138 115 59 151 116 177 139 116 64 136 116 160 163 117 182 151 117 177 148 117 173 164 204 184 152 204 178 150 204 175 157 119 186 145 119 170 154 119 179 158 205 188 146 205 171 144 205 181 166 206 187 154 206 179 153 206 180 165 207 190 153 207 180 152 207 178 163 208 182 161 208 191 149 208 176 161 209 191 162 209 185 150 209 175 160 210 183 148 210 173 147 210 174 159 211 192 147 211 174 146 211 171 157 212 186 155 212 193 143 212 169 155 213 193 156 213 246 144 213 168 107 214 194 156 214 246 155 214 193 108 215 196 109 215 195 155 215 193 120 216 62 121 216 198 159 216 192 119 217 197 160 217 183 159 217 192 122 218 199 162 218 185 161 218 191 123 219 201 124 219 200 161 219 191 111 220 202 112 220 204 165 220 190 110 221 203 166 221 187 165 221 190 120 137 62 158 137 188 156 137 189 108 137 196 157 137 186 166 137 187 111 137 202 164 137 184 162 137 185 123 137 201 163 137 182 160 137 183 176 137 247 174 137 205 170 137 207 174 222 205 173 222 248 175 222 249 172 137 206 174 137 205 175 137 249 172 223 206 171 223 250 170 223 207 170 137 207 168 137 251 176 137 247 168 224 251 167 224 252 169 224 253 176 137 247 168 137 251 178 137 254 169 137 253 178 137 254 168 137 251 178 225 254 177 225 255 176 225 247 123 138 201 175 138 218 173 138 208 120 139 62 170 139 61 171 139 209 110 34 203 178 34 216 169 34 210 111 140 202 176 140 213 177 140 211 119 141 197 121 141 198 171 141 209 122 142 199 174 142 217 176 142 213 107 143 194 109 143 195 167 143 214 110 144 203 112 144 204 177 144 211 122 145 199 124 145 200 173 145 208 119 32 197 172 32 212 175 32 218 108 146 196 169 146 210 167 146 214 62 147 124 6 147 8 179 147 7 179 226 7 186 226 94 61 226 93</p>
        </triangles>
      </mesh>
    </geometry>
  </library_geometries>
  <library_visual_scenes>
    <visual_scene id="Scene" name="Scene">
      <node id="Cylinder" name="Cylinder" type="NODE">
        <instance_geometry url="#Cylinder-mesh">
          <bind_material>
            <technique_common>
              <instance_material symbol="Plastic010_1K_Displacement" target="#Plastic010_1K_Displacement-material"/>
            </technique_common>
          </bind_material>
        </instance_geometry>
      </node>
    </visual_scene>
  </library_visual_scenes>
  <scene>
    <instance_visual_scene url="#Scene"/>
  </scene>
</COLLADA>
