<?xml version="1.0" encoding="utf-8"?>
<COLLADA xmlns="http://www.collada.org/2005/11/COLLADASchema" version="1.4.1">
  <asset>
    <contributor>
      <authoring_tool>Blender COLLADA Exporter</authoring_tool>
    </contributor>
    <up_axis>Z_UP</up_axis>
  </asset>
  <library_effects>
    <effect id="Plastic010_1K_Displacement-effect">
      <profile_COMMON>
        <technique sid="common">
          <lambert>
            <emission>
              <color sid="emission">0 0 0 1</color>
            </emission>
            <diffuse>
              <color sid="diffuse">0.8 0.8 0.8 1</color>
            </diffuse>
          </lambert>
        </technique>
      </profile_COMMON>
    </effect>
  </library_effects>
  <library_materials>
    <material id="Plastic010_1K_Displacement-material" name="Plastic010_1K_Displacement">
      <instance_effect url="#Plastic010_1K_Displacement-effect"/>
    </material>
  </library_materials>
  <library_geometries>
    <geometry id="Cylinder.002-mesh" name="Cylinder.002">
      <mesh>
        <source id="Cylinder.002-mesh-positions">
          <float_array id="Cylinder.002-mesh-positions-array" count="837">0 1.7 -0.426424 0 0.842665 0.426424 0.439992 1.64207 -0.426424 0.218098 0.813952 0.426424 0.85 1.47224 -0.426424 0.421333 0.72977 0.426424 1.20208 1.20208 -0.426424 0.595854 0.595854 0.426424 1.47224 0.85 -0.426424 0.72977 0.421333 0.426424 1.64207 0.439992 -0.426424 0.813952 0.218098 0.426424 1.7 0 -0.426424 0.842665 0 0.426424 1.64207 -0.439992 -0.426424 0.813952 -0.218098 0.426424 1.47224 -0.85 -0.426424 0.72977 -0.421332 0.426424 1.20208 -1.20208 -0.426424 0.595855 -0.595854 0.426424 0.85 -1.47224 -0.426424 0.421333 -0.72977 0.426424 0.439993 -1.64207 -0.426424 0.218098 -0.813952 0.426424 6.62004e-07 -1.7 -0.426424 3.65638e-07 -0.842665 0.426424 -0.439992 -1.64207 -0.426424 -0.218097 -0.813952 0.426424 -0.849999 -1.47224 -0.426424 -0.421332 -0.72977 0.426424 -1.20208 -1.20208 -0.426424 -0.595854 -0.595855 0.426424 -1.47224 -0.850001 -0.426424 -0.72977 -0.421333 0.426424 -1.64207 -0.439993 -0.426424 -0.813952 -0.218098 0.426424 -1.7 -7.9035e-07 -0.426424 -0.842666 -3.909e-07 0.426424 -1.64207 0.439991 -0.426424 -0.813952 0.218097 0.426424 -1.47224 0.849999 -0.426424 -0.72977 0.421332 0.426424 -1.20208 1.20208 -0.426424 -0.595855 0.595854 0.426424 -0.850001 1.47224 -0.426424 -0.421333 0.729769 0.426424 -0.439994 1.64207 -0.426424 -0.218099 0.813952 0.426424 0.439992 1.64207 0.305139 0 1.7 0.305139 0.85 1.47224 0.305139 1.20208 1.20208 0.305139 1.47224 0.85 0.305139 1.64207 0.439992 0.305139 1.7 0 0.305139 1.64207 -0.439992 0.305139 1.47224 -0.85 0.305139 1.20208 -1.20208 0.305139 0.85 -1.47224 0.305139 0.439993 -1.64207 0.305139 6.62004e-07 -1.7 0.305139 -0.439992 -1.64207 0.305139 -0.849999 -1.47224 0.305139 -1.20208 -1.20208 0.305139 -1.47224 -0.850001 0.305139 -1.64207 -0.439993 0.305139 -1.7 -7.9035e-07 0.305139 -1.64207 0.439991 0.305139 -1.47224 0.849999 0.305139 -1.20208 1.20208 0.305139 -0.850001 1.47224 0.305139 -0.439994 1.64207 0.305139 0.421333 0 43.0689 0.406976 -0.109049 43.0689 0.364885 -0.210666 43.0689 0.297927 -0.297927 43.0689 0.210667 -0.364885 43.0689 0.109049 -0.406976 43.0689 3.59218e-07 -0.421333 43.0689 -0.109049 -0.406976 43.0689 -0.210666 -0.364885 43.0689 -0.297927 -0.297927 43.0689 -0.364884 -0.210667 43.0689 -0.406976 -0.109049 43.0689 -0.421333 -2.61946e-07 43.0689 0 1.27133 0.426424 0.329045 1.22801 0.426424 0.635666 1.10101 0.426424 0.898968 0.898968 0.426424 1.10101 0.635666 0.426424 1.22801 0.329045 0.426424 1.27133 0 0.426424 1.22801 -0.329045 0.426424 1.10101 -0.635666 0.426424 0.898968 -0.898968 0.426424 0.635667 -1.10101 0.426424 0.329045 -1.22801 0.426424 5.13822e-07 -1.27133 0.426424 -0.329045 -1.22801 0.426424 -0.635666 -1.10101 0.426424 -0.898968 -0.898969 0.426424 -1.10101 -0.635667 0.426424 -1.22801 -0.329046 0.426424 -1.27133 -5.90626e-07 0.426424 -1.22801 0.329044 0.426424 -1.10101 0.635666 0.426424 -0.898969 0.898968 0.426424 -0.635667 1.10101 0.426424 -0.329046 1.22801 0.426424 0.169366 0.632083 1.7291 0 0.654381 1.7291 0.654381 0 1.7291 0.632083 0.169366 1.7291 0.632083 -0.169366 1.7291 2.94788e-07 -0.654381 1.7291 0.169366 -0.632083 1.7291 -0.169366 -0.632084 1.7291 -0.654381 -3.35631e-07 1.7291 -0.632083 -0.169366 1.7291 -0.632083 0.169366 1.7291 -0.169367 0.632083 1.7291 0 0.987267 1.7291 0.255524 0.953627 1.7291 0.953627 0.255524 1.7291 0.987267 0 1.7291 0.953627 -0.255523 1.7291 0.255524 -0.953627 1.7291 4.09862e-07 -0.987267 1.7291 -0.255523 -0.953627 1.7291 -0.953627 -0.255524 1.7291 -0.987267 -4.90731e-07 1.7291 -0.953627 0.255523 1.7291 -0.255524 0.953627 1.7291 0.384519 1.43504 0.426424 0.742833 1.28662 0.426424 1.05052 1.05052 0.426424 1.28663 0.742833 0.426424 1.43504 0.384519 0.426424 1.48567 0 0.426424 1.43504 -0.384519 0.426424 1.28663 -0.742833 0.426424 1.05053 -1.05052 0.426424 0.742834 -1.28662 0.426424 0.384519 -1.43504 0.426424 5.87913e-07 -1.48567 0.426424 -0.384518 -1.43504 0.426424 -0.742833 -1.28663 0.426424 -1.05052 -1.05053 0.426424 -1.28662 -0.742834 0.426424 -1.43504 -0.384519 0.426424 -1.48567 -6.90487e-07 0.426424 -1.43504 0.384518 0.426424 -1.28663 0.742833 0.426424 -1.05053 1.05052 0.426424 -0.742834 1.28662 0.426424 -0.38452 1.43504 0.426424 0 1.48567 0.426424 0.240664 -0.416842 36.9969 0.124577 -0.464927 36.9969 0.34035 0.34035 36.9969 0.416842 0.240664 36.9969 -0.481327 -2.80308e-07 36.9969 -0.464926 0.124576 36.9969 3.60133e-07 -0.481327 36.9969 0.464927 0.124577 36.9969 -0.416842 0.240663 36.9969 -0.124576 -0.464927 36.9969 0.481327 0 36.9969 -0.34035 0.34035 36.9969 -0.240663 -0.416842 36.9969 0.464927 -0.124577 36.9969 -0.240664 0.416842 36.9969 -0.34035 -0.34035 36.9969 0.416842 -0.240664 36.9969 -0.124577 0.464926 36.9969 2.28563e-07 0.481327 36.9969 0.124577 0.464926 36.9969 -0.416842 -0.240664 36.9969 0.34035 -0.34035 36.9969 0.240664 0.416842 36.9969 -0.464926 -0.124577 36.9969 0.132081 -0.492931 34.0626 0.44195 0.25516 34.0626 -0.492931 0.13208 34.0626 3.60575e-07 -0.51032 34.0626 0.492931 0.13208 34.0626 -0.44195 0.25516 34.0626 -0.13208 -0.492931 34.0626 0.51032 0 34.0626 -0.360851 0.36085 34.0626 -0.255159 -0.44195 34.0626 0.492931 -0.13208 34.0626 -0.25516 0.44195 34.0626 -0.36085 -0.360851 34.0626 0.44195 -0.25516 34.0626 -0.132081 0.492931 34.0626 0.132081 0.492931 34.0626 -0.44195 -0.25516 34.0626 0.360851 -0.360851 34.0626 0.25516 0.44195 34.0626 -0.492931 -0.132081 34.0626 0.25516 -0.44195 34.0626 0.360851 0.36085 34.0626 -0.51032 -2.89182e-07 34.0626 2.2108e-07 0.51032 34.0626 0.140733 -0.525222 30.6792 0.470902 0.271875 30.6792 -0.525222 0.140732 30.6792 3.61083e-07 -0.54375 30.6792 0.525222 0.140733 30.6792 -0.470902 0.271875 30.6792 -0.140732 -0.525222 30.6792 0.54375 0 30.6792 -0.38449 0.384489 30.6792 -0.271875 -0.470902 30.6792 0.525222 -0.140733 30.6792 -0.271875 0.470901 30.6792 -0.384489 -0.38449 30.6792 0.470902 -0.271875 30.6792 -0.140733 0.525222 30.6792 0.140733 0.525222 30.6792 -0.470901 -0.271875 30.6792 0.38449 -0.384489 30.6792 0.271875 0.470901 30.6792 -0.525222 -0.140733 30.6792 0.271875 -0.470902 30.6792 0.38449 0.384489 30.6792 -0.54375 -2.99414e-07 30.6792 2.12452e-07 0.54375 30.6792 0.148009 -0.552376 27.8341 0.495247 0.28593 27.8341 -0.552375 0.148008 27.8341 3.61512e-07 -0.571861 27.8341 0.552376 0.148009 27.8341 -0.495246 0.28593 27.8341 -0.148008 -0.552376 27.8341 0.571861 0 27.8341 -0.404367 0.404367 27.8341 -0.28593 -0.495247 27.8341 0.552376 -0.148009 27.8341 -0.285931 0.495246 27.8341 -0.404367 -0.404367 27.8341 0.495247 -0.28593 27.8341 -0.148009 0.552375 27.8341 0.148009 0.552375 27.8341 -0.495246 -0.285931 27.8341 0.404367 -0.404367 27.8341 0.285931 0.495246 27.8341 -0.552375 -0.148009 27.8341 0.285931 -0.495246 27.8341 0.404367 0.404367 27.8341 -0.571861 -3.08018e-07 27.8341 2.05197e-07 0.571861 27.8341 0.416414 0.0373593 43.0689 0.297945 0.297944 43.0664 2.4404e-07 0.421368 43.0653 -0.213527 -0.369841 43.0731 0.408841 -0.109549 43.0703 0.109058 0.407009 43.0654 0.210682 0.364911 43.0658 -0.210681 0.36491 43.066 -0.109058 0.407008 43.0655 -0.297943 0.297943 43.0667 -0.364896 0.210673 43.0675 -0.406979 0.109049 43.0685 0.364899 0.210675 43.0672 0.406983 0.109051 43.0682 3.29669e-07 -0.427686 43.0736 -0.11066 -0.412991 43.0735 0.110626 -0.41286 43.0734 0.213397 -0.369615 43.0729 -0.409319 -0.109677 43.0707 -0.422328 -2.62298e-07 43.0696 0.301118 -0.301117 43.0722 -0.368131 -0.212541 43.0717 0.367746 -0.212318 43.0713 0.421819 0 43.0692 -0.301374 -0.301374 43.0725 -0.411397 0.0754695 43.0689</float_array>
          <technique_common>
            <accessor source="#Cylinder.002-mesh-positions-array" count="279" stride="3">
              <param name="X" type="float"/>
              <param name="Y" type="float"/>
              <param name="Z" type="float"/>
            </accessor>
          </technique_common>
        </source>
        <source id="Cylinder.002-mesh-normals">
          <float_array id="Cylinder.002-mesh-normals-array" count="762">0.130535 0.991444 0 0.382682 0.92388 0 0.608761 0.793354 0 0.793354 0.608761 0 0.92388 0.382682 0 0.991444 0.130535 0 0.991444 -0.130535 0 0.991444 -0.130535 0 0.92388 -0.382682 0 0.793354 -0.608761 0 0.608761 -0.793354 0 0.382683 -0.92388 0 0.130535 -0.991444 0 -0.130535 -0.991444 0 -0.382683 -0.92388 0 -0.60876 -0.793355 0 -0.793353 -0.608762 0 -0.92388 -0.382682 0 -0.991444 -0.130535 0 -0.991444 -0.130535 0 -0.991444 0.130535 0 -0.991444 0.130535 0 -0.92388 0.382682 0 -0.793355 0.60876 0 -0.608762 0.793353 0 0.382666 -0.923835 0.00979553 0.382661 -0.923837 0.00979553 -0.382683 0.92388 0 -0.130534 0.991444 0 1.39934e-08 0 -1 0.0645332 0.49018 0.869229 0.0645387 0.49022 0.869206 0.189201 0.456771 0.869232 0.189232 0.456846 0.869185 0.189217 0.45681 0.869207 0.300972 0.392235 0.869234 0.300971 0.392233 0.869235 0.300973 0.392236 0.869233 0.392308 0.301029 0.869181 0.392302 0.301025 0.869185 0.392395 0.301097 0.869118 0.45678 0.189204 0.869226 0.456814 0.189218 0.869205 0.456783 0.189206 0.869224 0.490263 0.0645445 0.869182 0.490219 -0.0645387 0.869206 0.490183 -0.0645337 0.869227 0.45678 -0.189204 0.869226 0.456814 -0.189218 0.869205 0.456887 -0.189248 0.86916 0.392245 -0.300979 0.869227 0.392246 -0.300981 0.869226 0.392248 -0.300982 0.869225 0.300975 -0.392238 0.869232 0.300976 -0.392239 0.869231 0.189217 -0.456809 0.869208 0.1892 -0.45677 0.869232 0.189232 -0.456846 0.869185 0.0645445 -0.490263 0.869182 -0.0645442 -0.490261 0.869183 -0.0645454 -0.490266 0.86918 -0.189219 -0.456814 0.869205 -0.189236 -0.456857 0.869178 -0.189201 -0.456771 0.869231 -0.300979 -0.392245 0.869227 -0.300982 -0.392249 0.869224 -0.392305 -0.301026 0.869184 -0.39224 -0.300977 0.86923 -0.456769 -0.1892 0.869233 -0.456847 -0.189233 0.869184 -0.49018 -0.0645334 0.869229 -0.490299 -0.0645497 0.86916 -0.490178 0.0645331 0.86923 -0.456853 0.189233 0.869181 -0.456858 0.189235 0.869178 -0.392311 0.30103 0.869179 -0.392381 0.301084 0.869129 -0.301025 0.392304 0.869184 -0.301001 0.392272 0.869207 -0.300977 0.392241 0.86923 -0.1892 0.45677 0.869232 -0.0645444 0.49026 0.869183 -0.0645328 0.490176 0.869232 0.130514 -0.991398 0.00979541 0.130524 -0.991397 0.00979564 -0.130514 -0.991398 0.00979567 -0.130523 -0.991397 0.00979544 -0.382666 -0.923835 0.00979546 -0.382664 -0.923836 0.00979559 0.991398 -0.130513 0.00979568 0.991397 -0.130523 0.00979544 -0.60873 -0.793317 0.00979553 -0.608734 -0.793314 0.00979551 0.923835 -0.382666 0.00979543 0.923836 -0.382663 0.00979563 -0.793315 -0.608733 0.00979552 -0.793315 -0.608732 0.00979562 0.793314 -0.608734 0.00979553 -0.923837 -0.38266 0.00979547 -0.923834 -0.382669 0.0097957 0.608734 -0.793314 0.00979559 0.608739 -0.793311 0.00979564 -0.991397 -0.130521 0.00979556 -0.594188 0.0779047 -0.800545 -0.594184 0.0778885 -0.800549 -0.594168 0.077898 -0.80056 -0.25882 0.965926 -4.03687e-08 -2.19386e-08 0 1 0.968956 0.127566 0.211782 0.968936 0.127563 0.211875 0.968916 0.127561 0.211969 -0.981352 0.129197 -0.142325 -0.981419 0.129209 -0.141851 0.25882 0.965926 -6.85607e-08 0.968916 -0.12756 0.211969 0.968875 -0.127554 0.212156 -0.981372 -0.1292 -0.142183 -0.981419 -0.129209 -0.141851 -0.981338 -0.129195 -0.142421 0.965926 0.25882 -1.2546e-08 0.129206 0.98142 -0.14185 0.129199 0.981372 -0.142183 -0.127563 -0.968936 0.211875 -0.12756 -0.968916 0.211969 -0.127551 -0.968855 0.21225 -0.965925 0.258822 1.46198e-07 -0.1292 -0.981372 -0.142183 -0.129198 -0.981352 -0.142326 -0.129196 -0.981338 -0.14242 0.127558 -0.968895 0.212063 0.127563 -0.968936 0.211875 0.127566 -0.968956 0.211782 -0.968936 0.127563 0.211875 -0.25882 -0.965926 6.57191e-07 0.1292 -0.981372 -0.142183 0.129196 -0.981338 -0.14242 -0.968956 -0.127566 0.211782 -0.968916 -0.127561 0.211969 -0.965926 -0.25882 6.57191e-07 0.965926 -0.25882 -1.2546e-08 0.981352 0.129198 -0.142326 0.981338 0.129196 -0.142421 0.981339 0.129189 -0.142421 -0.127561 0.968916 0.211969 -0.127563 0.968936 0.211876 0.981372 -0.129201 -0.142184 0.981352 -0.129197 -0.142326 0.981339 -0.129194 -0.142421 0.258822 -0.965925 1.64205e-07 0.258822 -0.965925 1.86794e-07 -0.129206 0.981419 -0.141851 -0.129196 0.981338 -0.142421 0.127559 0.968916 0.211969 0.127557 0.968896 0.212063 0.127554 0.968875 0.212156 0.608734 0.793314 0.00979547 0.608729 -0.793317 0.00979549 -0.923835 -0.382665 0.00979561 0.382665 0.923835 0.00979552 0.38266 0.923837 0.00979563 -0.130521 0.991397 0.00979568 0.793317 -0.60873 0.00979571 0.130521 0.991397 0.00979563 -0.382665 0.923835 0.00979561 -0.382659 0.923838 0.00979549 -0.608734 0.793314 0.00979561 -0.382665 -0.923835 0.00979552 -0.793314 0.608733 0.00979561 -0.793317 0.60873 0.00979556 0.991397 0.130523 0.00979569 0.991398 0.130513 0.00979545 -0.923836 0.382663 0.00979559 0.923836 0.382662 0.00979554 0.923835 0.382666 0.00979555 -0.991397 0.130522 0.00979564 0.793315 0.608733 0.00979561 0.382665 -0.923835 0.0097956 -0.60873 0.793317 0.00979553 -0.382667 0.923835 0.00979561 0.382666 0.923835 0.00979553 0.60873 0.793317 0.0097957 0.793315 0.608733 0.00979551 0.793312 0.608736 0.0097956 0.608736 0.793312 0.00979558 -0.0780192 -0.593017 -0.801401 0.0781111 -0.592487 -0.801784 0.0780875 -0.592732 -0.801605 0.0782867 -0.59239 -0.801839 0.229042 -0.552325 -0.801547 0.229033 -0.552315 -0.801556 0.229083 -0.552298 -0.801554 -0.594384 -0.0778858 -0.800401 -0.594435 -0.0778867 -0.800363 0.364031 -0.474327 -0.801558 0.364029 -0.474324 -0.801561 0.364158 -0.474392 -0.801462 -0.551161 -0.228969 -0.802369 0.474664 -0.363987 -0.801379 0.47467 -0.363992 -0.801373 0.474448 -0.363937 -0.801529 0.552396 -0.228836 -0.801556 0.552362 -0.228818 -0.801585 0.552419 -0.22896 -0.801505 0.59675 -0.0778253 -0.798644 0.596296 -0.0778175 -0.798984 0.592491 -0.0780426 -0.801788 -0.47485 -0.363856 -0.801328 -0.364298 -0.474104 -0.801569 -0.228416 -0.552367 -0.801696 -0.991395 0.130538 0.00979554 0.592689 0.0780878 -0.801637 0.592729 0.0780947 -0.801607 0.592727 0.0780951 -0.801608 0.991444 0.130535 0 0.0645441 0.490259 0.869184 0.300944 0.392199 0.86926 0.39228 0.301007 0.869201 0.456887 0.189248 0.86916 0.490347 0.0645557 0.869133 0.490258 -0.064544 0.869184 0.456783 -0.189206 0.869224 0.300948 -0.392204 0.869256 -0.064555 -0.490341 0.869137 -0.301003 -0.392277 0.869204 -0.392368 -0.301075 0.869138 -0.490258 0.064544 0.869184 -0.456901 0.189252 0.869152 -0.392276 0.301003 0.869205 -0.300973 0.392236 0.869233 -0.189153 0.456656 0.869303 -0.0645396 0.490224 0.869204 -0.981339 0.129194 -0.142421 0.968956 -0.127565 0.211782 0.129197 0.981352 -0.142325 -0.965925 0.258822 2.13479e-07 -0.968986 -0.12757 0.211641 0.981419 -0.129209 -0.141851 0.127568 0.968986 0.211641 -0.793323 0.608722 0.00979566 -0.0780094 -0.592909 -0.801482 0.0779395 -0.592769 -0.801592 0.22903 -0.552365 -0.801523 -0.592068 -0.0780741 -0.802097 0.363899 -0.474256 -0.80166 -0.553096 -0.228603 -0.801141 0.474885 -0.364042 -0.801223 0.552345 -0.228701 -0.801631 0.599854 -0.0775673 -0.796341 -0.47467 -0.364005 -0.801367 -0.363988 -0.474315 -0.801585 -0.363988 -0.474314 -0.801585 -0.22902 -0.552489 -0.80144 -0.991393 0.130554 0.00979565 0.991395 0.130536 0.0097954</float_array>
          <technique_common>
            <accessor source="#Cylinder.002-mesh-normals-array" count="254" stride="3">
              <param name="X" type="float"/>
              <param name="Y" type="float"/>
              <param name="Z" type="float"/>
            </accessor>
          </technique_common>
        </source>
        <source id="Cylinder.002-mesh-texcoord">
          <float_array id="Cylinder.002-mesh-texcoord-array" count="814">0.431264 0.556699 0.433835 0.590621 0.420675 0.584468 0.450814 0.566506 0.444797 0.599983 0.467319 0.580887 0.452888 0.612012 0.479717 0.598988 0.458164 0.625531 0.487225 0.619663 0.459611 0.639953 0.489273 0.641561 0.457224 0.65453 0.485779 0.663239 0.450838 0.668308 0.477222 0.683136 0.44329 0.681768 0.464633 0.700244 0.432668 0.692481 0.450082 0.714622 0.419231 0.700757 0.433213 0.727483 0.402788 0.705508 0.412409 0.739602 0.380866 0.698447 0.341738 0.730282 0.362691 0.685803 0.330418 0.703895 0.351588 0.671203 0.321745 0.682192 0.345404 0.655728 0.31606 0.661279 0.342675 0.640933 0.314014 0.640391 0.343976 0.62628 0.316189 0.619705 0.347947 0.61277 0.322844 0.600045 0.35533 0.600932 0.333982 0.582465 0.365259 0.591293 0.34916 0.568046 0.377454 0.584655 0.367606 0.557765 0.391318 0.581336 0.848867 0.704094 0.855638 0.377997 0.855638 0.704102 0.388288 0.552286 0.405976 0.581881 0.409925 0.551937 0.436177 0.543082 0.458938 0.554478 0.478224 0.571232 0.501512 0.61651 0.492742 0.592356 0.499734 0.667424 0.503897 0.642115 0.489446 0.69042 0.474307 0.70885 0.458541 0.724098 0.441342 0.738531 0.420901 0.753532 0.395365 0.76941 0.316653 0.708971 0.324269 0.733987 0.302803 0.663608 0.308655 0.686316 0.300556 0.640288 0.310519 0.594127 0.302949 0.616772 0.32333 0.573687 0.362329 0.544692 0.340909 0.556813 0.386332 0.538147 0.411444 0.537588 0.711757 0.696936 0.747973 0.389664 0.718149 0.697563 0.753834 0.397087 0.724256 0.698135 0.759096 0.405512 0.730274 0.698675 0.824636 0.703799 0.829917 0.419975 0.830554 0.703911 0.76411 0.412611 0.736228 0.699188 0.835755 0.414669 0.836529 0.703998 0.768937 0.418142 0.742145 0.699674 0.84203 0.406866 0.842609 0.704059 0.773559 0.422406 0.748042 0.700137 0.848682 0.395458 0.777963 0.425751 0.753932 0.700575 0.780982 0.427318 0.777995 0.425709 0.151725 0.271617 0.0705708 0.260806 0.152303 0.244758 0.701165 0.716741 0.687814 0.736162 0.681907 0.721901 0.679892 0.706597 0.69983 0.706597 0.701165 0.696453 0.681907 0.691293 0.705081 0.687001 0.687814 0.677032 0.617578 0.677032 0.678962 0.692462 0.617148 0.692462 0.151815 0.298663 0.0867166 0.28479 0.152074 0.286185 0.69919 0.560611 0.685839 0.580032 0.679932 0.565771 0.677917 0.550467 0.697854 0.550467 0.679932 0.535163 0.69919 0.540323 0.703105 0.53087 0.685839 0.520902 0.151811 0.1357 0.0721114 0.146213 0.0871831 0.129797 0.679297 0.704444 0.617578 0.707892 0.465067 0.789374 0.450495 0.749391 0.477177 0.773326 0.490559 0.758829 0.467387 0.733926 0.484082 0.71863 0.504841 0.745545 0.521074 0.734263 0.503406 0.70003 0.0891523 0.276988 0.151661 0.0271616 0.0704838 0.0164203 0.152215 0.000297815 0.700383 0.643963 0.687032 0.663384 0.681125 0.649123 0.67911 0.633819 0.699047 0.633819 0.700383 0.623675 0.681125 0.618515 0.704298 0.614223 0.687032 0.604254 0.152022 0.0417314 0.0871405 0.0483273 0.0866534 0.0403942 0.0867195 0.203329 0.0705659 0.179348 0.0891532 0.195526 0.0866983 0.121864 0.0623519 0.121684 0.0705367 0.0978866 0.0891298 0.11406 0.0623056 0.0402213 0.0890826 0.0325888 0.0871966 0.292722 0.062373 0.284596 0.0721264 0.227673 0.0623747 0.203142 0.15818 0.719281 0.220329 0.731263 0.158611 0.734711 0.151774 0.0542119 0.0720728 0.0647491 0.151825 0.217184 0.15208 0.204705 0.158611 0.70385 0.219995 0.719281 0.220925 0.719281 0.283074 0.731263 0.221356 0.734711 0.072117 0.309128 0.151727 0.190136 0.221356 0.70385 0.28274 0.719281 0.152297 0.163276 0.087202 0.211262 0.151706 0.108651 0.616365 0.647954 0.678514 0.635972 0.67818 0.647954 0.152063 0.12322 0.152268 0.0817889 0.678514 0.659937 0.616796 0.663384 0.413381 0.520902 0.384207 0.521629 0.356295 0.529336 0.331373 0.543562 0.310983 0.563311 0.296258 0.587118 0.287747 0.613263 0.285305 0.640029 0.288125 0.665977 0.294683 0.690319 0.302757 0.713214 0.309079 0.736105 0.430899 0.767578 0.516043 0.672752 0.521074 0.643055 0.518358 0.613062 0.508142 0.584785 0.491179 0.560076 0.46865 0.54051 0.442123 0.527247 0.574337 0.399826 0.710261 0.407783 0.574249 0.406021 0.57412 0.455589 0.710193 0.460377 0.574176 0.461785 0.574849 0.498955 0.710988 0.501276 0.575018 0.505149 0.574441 0.393631 0.710344 0.40194 0.57408 0.449393 0.71014 0.454533 0.574048 0.437001 0.71008 0.442845 0.574056 0.443197 0.574697 0.492761 0.710829 0.495434 0.574562 0.387435 0.710443 0.396096 0.710102 0.448689 0.574056 0.430805 0.710072 0.437001 0.574561 0.486566 0.710685 0.489592 0.574698 0.381241 0.710556 0.390254 0.57408 0.424609 0.71008 0.431157 0.57444 0.480371 0.710556 0.483749 0.574851 0.375047 0.710685 0.384411 0.57412 0.418413 0.710102 0.425314 0.574336 0.474176 0.710443 0.477906 0.575019 0.368853 0.710829 0.378569 0.574176 0.412217 0.71014 0.41947 0.574248 0.467981 0.710344 0.472063 0.575203 0.36266 0.710988 0.372728 0.710193 0.413626 0.710261 0.46622 0.711162 0.507117 0.575202 0.511342 0.418231 0.509612 0.418428 0.516212 0.417335 0.463407 0.417411 0.470008 0.417412 0.403989 0.417335 0.410591 0.418429 0.357786 0.418233 0.364385 0.417506 0.47661 0.417275 0.417192 0.418053 0.370985 0.417616 0.483211 0.417233 0.423795 0.417891 0.377585 0.417744 0.489812 0.417207 0.430396 0.417746 0.384185 0.41789 0.496412 0.417198 0.436999 0.417207 0.443601 0.417232 0.450203 0.417617 0.390786 0.418052 0.503013 0.417275 0.456805 0.417506 0.397388 0.285629 0.395338 0.285531 0.402281 0.285386 0.457828 0.285449 0.464771 0.286203 0.506425 0.286392 0.513366 0.285746 0.388396 0.285341 0.450884 0.285305 0.436998 0.285314 0.443941 0.286033 0.499483 0.285881 0.381454 0.285315 0.430054 0.28588 0.492542 0.286034 0.374512 0.285342 0.423111 0.285745 0.485599 0.286205 0.36757 0.285387 0.416167 0.285628 0.478657 0.286393 0.360629 0.28545 0.409224 0.28553 0.471714 0.2866 0.353689 0.286598 0.520306 0.151727 0.339485 0.931392 0.35007 0.151698 0.353093 0.151775 0.2444 0.931467 0.254756 0.15175 0.258008 0.931518 0.132219 0.931524 0.0368325 0.93146 0.268364 0.931515 0.145828 0.15179 0.149309 0.931522 0.0505018 0.931452 0.281973 0.931511 0.159436 0.151769 0.162918 0.931523 0.0641109 0.151757 0.0678213 0.931438 0.29564 0.931508 0.173045 0.151748 0.176527 0.931523 0.0777204 0.15174 0.0814309 0.931427 0.309247 0.151785 0.31227 0.931504 0.186655 0.93149 0.213932 0.931524 0.0913302 0.151723 0.0950409 0.931415 0.322854 0.151756 0.325877 0.9315 0.200264 0.931483 0.22754 0.1518 0.230792 0.931524 0.10494 0.931404 0.336462 0.931475 0.241148 0.931524 0.118551 0.801083 0.703139 0.804224 0.4317 0.807876 0.431102 0.777499 0.702076 0.797216 0.43196 0.783398 0.702384 0.771602 0.70174 0.793716 0.431596 0.765708 0.701377 0.790121 0.430864 0.759819 0.700988 0.786351 0.429705 0.818742 0.703667 0.815788 0.42875 0.82014 0.42674 0.754528 0.396728 0.855484 0.353689 0.854286 0.377893 0.853701 0.353723 0.847878 0.395228 0.841569 0.406645 0.773656 0.422304 0.835518 0.414507 0.829823 0.419886 0.824806 0.423906 0.769129 0.417981 0.764432 0.412398 0.759583 0.405247 0.795191 0.702914 0.800694 0.431988 0.789296 0.702663 0.812856 0.703514 0.811717 0.430155 0.80697 0.703338 0.823219 0.42488 0.824823 0.423928 0.385048 0.751414 0.742378 0.389115 0.705081 0.726193 0.679297 0.680479 0.703105 0.570063 0.152345 0.162074 0.704298 0.653416 0.152316 0.0805871 0.220329 0.707298 0.152333 0.325034 0.283074 0.707298 0.152351 0.243556 0.616796 0.632524 0.407304 0.783797 0.711162 0.366886 0.93152 0.0232214 0.782324 0.42803 0.748845 0.388896</float_array>
          <technique_common>
            <accessor source="#Cylinder.002-mesh-texcoord-array" count="407" stride="2">
              <param name="S" type="float"/>
              <param name="T" type="float"/>
            </accessor>
          </technique_common>
        </source>
        <vertices id="Cylinder.002-mesh-vertices">
          <input semantic="POSITION" source="#Cylinder.002-mesh-positions"/>
        </vertices>
        <triangles count="530" material="Plastic010_1K_Displacement">
          <input semantic="VERTEX" source="#Cylinder.002-mesh-vertices" offset="0"/>
          <input semantic="NORMAL" source="#Cylinder.002-mesh-normals" offset="1"/>
          <input semantic="TEXCOORD" source="#Cylinder.002-mesh-texcoord" offset="2" set="0"/>
          <p>49 0 0 2 0 1 0 0 2 48 1 3 4 1 4 2 1 1 50 2 5 6 2 6 4 2 4 51 3 7 8 3 8 6 3 6 52 4 9 10 4 10 8 4 8 53 5 11 12 5 12 10 5 10 54 6 13 14 6 14 12 7 12 55 8 15 16 8 16 14 8 14 56 9 17 18 9 18 16 9 16 57 10 19 20 10 20 18 10 18 58 11 21 22 11 22 20 11 20 59 12 23 24 12 24 22 12 22 60 13 25 26 13 26 24 13 24 61 14 27 28 14 28 26 14 26 62 15 29 30 15 30 28 15 28 63 16 31 32 16 32 30 16 30 64 17 33 34 17 34 32 17 32 65 18 35 36 19 36 34 19 34 66 20 37 38 20 38 36 21 36 67 22 39 40 22 40 38 22 38 68 23 41 42 23 42 40 23 40 69 24 43 44 24 44 42 24 42 157 25 45 77 26 46 158 25 47 70 27 48 46 27 49 44 27 44 71 28 50 0 28 2 46 28 49 22 29 22 30 29 30 46 29 49 156 30 51 48 31 3 49 30 0 133 32 52 50 33 5 48 34 3 134 35 53 51 36 7 50 37 5 136 38 54 51 39 7 135 40 55 136 41 54 53 42 11 52 43 9 138 44 56 53 44 11 137 44 57 139 45 58 54 45 13 138 46 56 140 47 59 55 48 15 139 49 58 141 50 60 56 51 17 140 52 59 142 53 61 57 54 19 141 54 60 143 55 62 58 56 21 142 57 61 144 58 63 59 58 23 143 58 62 145 59 64 60 59 25 144 60 65 145 61 64 62 62 29 61 63 27 147 64 66 62 64 29 146 65 67 147 66 66 64 66 33 63 67 31 148 68 68 65 69 35 64 68 33 150 70 69 65 70 35 149 71 70 151 72 71 66 72 37 150 72 69 151 73 71 68 74 41 67 73 39 153 75 72 68 75 41 152 76 73 154 77 74 69 78 43 153 79 72 155 80 75 70 80 48 154 80 74 155 81 75 49 81 0 71 82 50 158 83 76 78 84 77 163 83 78 163 85 78 79 86 79 166 85 80 166 87 80 80 88 81 169 87 82 167 89 83 73 90 84 170 89 85 169 91 82 81 92 86 172 91 87 170 93 85 74 94 88 173 93 89 172 95 87 82 96 90 177 95 91 173 97 89 75 97 92 178 97 93 177 98 91 83 99 94 180 98 95 178 100 93 76 101 96 157 100 45 180 102 95 84 102 97 161 102 98 278 103 99 84 104 97 272 105 100 11 106 101 123 106 102 90 106 103 45 107 104 108 107 105 107 107 106 45 107 104 106 107 107 43 107 108 41 107 109 106 107 107 105 107 110 39 107 111 105 107 110 104 107 112 90 108 113 124 109 114 91 110 115 15 111 116 111 112 117 13 111 118 33 107 119 102 107 120 101 107 121 33 107 119 100 107 122 31 107 123 31 107 123 99 107 124 29 107 125 27 107 126 99 107 124 98 107 127 39 113 128 131 113 129 119 113 130 91 114 115 125 114 131 92 115 132 23 107 133 95 107 134 21 107 135 19 107 136 95 107 134 94 107 137 19 107 136 93 107 138 17 107 139 15 107 140 93 107 138 92 107 141 13 116 118 112 117 142 11 118 101 23 119 143 126 119 144 96 119 145 9 107 146 90 107 147 89 107 148 9 107 146 88 107 149 7 107 150 5 107 151 88 107 149 87 107 152 3 107 153 87 107 152 86 107 154 25 120 155 116 121 156 114 121 157 110 107 158 132 107 159 120 107 160 117 107 161 131 107 129 130 107 162 117 107 161 129 107 163 118 107 164 116 107 156 127 107 165 114 107 157 114 107 157 126 107 144 115 107 166 113 107 167 124 107 168 111 107 117 112 107 142 124 107 168 123 107 102 110 107 158 122 107 169 121 107 170 97 122 171 128 123 172 98 124 173 27 125 174 128 125 175 116 125 156 3 126 176 110 127 158 1 128 177 96 129 178 127 130 179 97 131 171 103 132 180 131 132 181 104 132 182 15 133 116 125 133 183 113 133 167 1 134 177 120 135 160 47 135 184 102 136 185 130 136 186 103 137 180 47 138 184 132 138 159 108 138 187 3 139 176 122 139 169 109 139 188 35 140 189 117 141 161 118 142 164 85 143 190 132 143 191 121 144 192 39 145 128 117 146 161 37 147 193 35 148 189 129 148 163 102 149 194 25 150 155 115 150 166 23 151 143 85 152 190 122 153 195 86 154 196 108 107 197 156 107 51 155 107 75 108 107 197 154 107 74 107 107 198 107 107 198 153 107 72 106 107 199 105 107 200 153 107 72 152 107 73 105 107 200 151 107 71 104 107 201 103 107 202 151 107 71 150 107 69 103 107 202 149 107 70 102 107 203 101 107 204 149 107 70 148 107 68 100 107 205 148 107 68 147 107 66 100 107 205 146 107 67 99 107 206 98 107 207 146 107 67 145 107 64 97 107 208 145 107 64 144 107 65 96 107 209 144 107 63 143 107 62 96 107 209 142 107 61 95 107 134 94 107 137 142 107 61 141 107 60 94 107 137 140 107 59 93 107 138 93 107 138 139 107 58 92 107 141 91 107 210 139 107 58 138 107 56 91 107 210 137 107 57 90 107 211 89 107 212 137 107 57 136 107 54 89 107 212 135 107 55 88 107 213 87 107 214 135 107 55 134 107 53 86 107 215 134 107 53 133 107 52 85 107 216 133 107 52 156 107 51 200 102 217 161 102 218 203 102 219 199 155 220 159 155 221 202 155 222 198 156 223 157 100 224 201 156 225 197 157 226 180 98 227 200 157 217 196 158 228 179 159 229 199 158 220 195 160 230 175 160 231 204 160 232 194 161 233 178 97 234 198 161 223 193 95 235 177 95 236 197 95 226 204 162 232 176 162 237 196 162 228 192 163 238 174 164 239 195 163 230 191 94 240 173 93 241 194 94 233 190 91 242 172 91 243 193 91 235 189 165 244 171 165 245 192 165 238 188 90 246 170 89 247 191 90 240 187 166 248 169 87 249 190 166 242 186 167 250 168 168 251 189 167 244 185 169 252 167 170 253 188 169 246 184 86 254 166 85 255 187 86 248 183 171 256 165 171 257 186 171 250 182 172 258 164 173 259 185 172 252 181 84 260 163 83 261 184 84 254 203 174 219 162 174 262 183 174 256 202 175 222 160 175 263 182 175 258 201 176 225 158 25 264 181 176 265 225 26 266 181 176 265 205 26 267 226 175 268 182 175 258 206 175 269 227 174 270 183 174 256 207 174 271 205 84 272 184 84 254 208 84 273 206 172 269 185 172 252 209 172 274 207 171 271 186 171 250 210 171 275 208 86 273 187 86 248 211 86 276 209 169 274 188 169 246 212 169 277 210 167 275 189 167 244 213 167 278 211 88 276 190 166 242 214 88 279 212 90 277 191 90 240 215 90 280 213 177 278 192 165 238 216 177 281 214 92 279 193 91 235 217 92 282 215 94 280 194 94 233 218 94 283 216 178 281 195 163 230 219 178 284 228 162 285 196 162 228 220 162 286 217 96 282 197 95 226 221 96 287 218 97 283 198 161 223 222 97 288 219 160 284 204 160 232 228 160 285 220 179 286 199 158 220 223 179 289 221 99 287 200 157 217 224 99 290 222 100 288 201 156 225 225 100 266 223 180 289 202 155 222 226 180 268 224 102 290 203 102 219 227 102 270 248 102 291 227 102 270 251 102 292 247 180 293 226 180 268 250 180 294 246 156 295 225 100 266 249 156 296 245 98 297 224 99 290 248 98 291 244 159 298 223 179 289 247 159 293 243 160 299 228 160 285 252 160 300 242 97 301 222 97 288 246 97 295 241 96 302 221 96 287 245 96 297 252 162 300 220 162 286 244 162 298 240 164 303 219 178 284 243 164 299 239 93 304 218 94 283 242 93 301 238 91 305 217 92 282 241 91 302 237 177 306 216 177 281 240 177 303 236 90 307 215 90 280 239 90 304 235 88 308 214 88 279 238 88 305 234 168 309 213 167 278 237 168 306 233 169 310 212 169 277 236 169 307 232 86 311 211 86 276 235 86 308 231 171 312 210 171 275 234 171 309 230 173 313 209 172 274 233 173 310 229 84 314 208 84 273 232 84 311 251 174 292 207 174 271 231 174 312 250 181 294 206 175 269 230 181 313 249 25 296 205 26 267 229 25 315 21 26 316 229 25 317 23 26 318 7 182 319 230 181 320 9 182 321 37 174 193 231 174 322 39 174 128 23 84 143 232 84 323 25 84 155 9 172 321 233 173 324 11 172 101 39 171 128 234 171 325 41 171 326 25 86 155 235 86 327 27 86 174 11 169 101 236 169 328 13 169 118 41 168 326 237 168 329 43 168 330 27 88 174 238 88 331 29 88 332 13 90 118 239 90 333 15 90 116 43 177 330 240 177 334 45 177 335 29 91 332 241 91 336 31 91 337 15 94 116 242 93 338 17 94 339 45 178 335 243 164 340 47 178 184 1 162 177 244 162 341 3 162 176 31 95 337 245 96 342 33 95 343 17 161 339 246 97 344 19 161 345 47 160 184 252 160 346 1 160 177 3 159 176 247 159 347 5 159 348 33 98 343 248 98 349 35 98 189 19 100 345 249 156 350 21 100 316 5 183 348 250 180 351 7 183 319 35 102 189 251 102 352 37 102 193 179 159 353 258 159 354 259 159 355 171 164 356 261 164 357 174 164 358 168 165 359 260 165 360 171 165 356 165 168 361 262 168 362 168 168 359 162 171 363 263 171 364 165 171 361 164 173 365 265 173 366 266 173 367 78 184 77 268 184 368 79 184 79 78 185 369 269 186 370 267 187 371 77 188 46 270 189 372 269 190 370 83 191 94 272 192 100 84 191 97 76 193 96 273 194 373 270 195 372 82 196 90 271 196 374 83 196 94 75 197 92 275 198 375 273 199 373 74 200 88 257 201 376 275 202 375 73 203 84 276 204 377 257 205 376 81 206 86 274 206 378 82 206 90 80 207 81 277 207 379 81 207 86 79 208 79 256 208 380 80 208 81 176 162 381 255 162 382 258 162 354 174 160 358 255 160 382 175 160 383 160 175 384 254 181 385 265 181 366 159 155 386 259 155 355 254 155 385 161 174 98 84 174 97 278 209 99 253 170 387 167 170 83 266 170 367 72 210 388 253 211 387 276 212 377 49 0 0 48 0 3 2 0 1 48 1 3 50 1 5 4 1 4 50 2 5 51 2 7 6 2 6 51 3 7 52 3 9 8 3 8 52 4 9 53 4 11 10 4 10 53 5 11 54 213 13 12 5 12 54 6 13 55 6 15 14 6 14 55 8 15 56 8 17 16 8 16 56 9 17 57 9 19 18 9 18 57 10 19 58 10 21 20 10 20 58 11 21 59 11 23 22 11 22 59 12 23 60 12 389 24 12 24 60 13 25 61 13 27 26 13 26 61 14 27 62 14 29 28 14 28 62 15 29 63 15 31 30 15 30 63 16 31 64 16 33 32 16 32 64 17 33 65 17 35 34 17 34 65 18 35 66 18 37 36 19 36 66 20 37 67 20 39 38 20 38 67 22 39 68 22 41 40 22 40 68 23 41 69 23 43 42 23 42 69 24 43 70 24 48 44 24 44 157 25 45 76 26 96 77 26 46 70 27 48 71 27 50 46 27 49 71 28 50 49 28 0 0 28 2 46 29 49 0 29 2 6 29 6 0 29 2 2 29 1 6 29 6 2 29 1 4 29 4 6 29 6 6 29 6 8 29 8 10 29 10 10 29 10 12 29 12 14 29 14 14 29 14 16 29 16 18 29 18 18 29 18 20 29 20 22 29 22 22 29 22 24 29 24 26 29 26 26 29 26 28 29 28 30 29 30 30 29 30 32 29 32 34 29 34 34 29 34 36 29 36 38 29 38 38 29 38 40 29 40 42 29 42 42 29 42 44 29 44 46 29 49 6 29 6 10 29 10 14 29 14 14 29 14 18 29 18 22 29 22 22 29 22 26 29 26 30 29 30 30 29 30 34 29 34 46 29 49 34 29 34 38 29 38 46 29 49 38 29 38 42 29 42 46 29 49 46 29 49 6 29 6 14 29 14 14 29 14 22 29 22 46 29 49 156 30 51 133 214 52 48 31 3 133 32 52 134 32 53 50 33 5 134 35 53 135 215 55 51 36 7 136 38 54 52 216 9 51 39 7 136 41 54 137 217 57 53 42 11 138 44 56 54 218 13 53 44 11 139 45 58 55 219 15 54 45 13 140 47 59 56 220 17 55 48 15 141 50 60 57 50 19 56 51 17 142 53 61 58 221 21 57 54 19 143 55 62 59 56 23 58 56 21 144 58 63 60 58 389 59 58 23 145 59 64 61 222 27 60 59 25 145 61 64 146 62 67 62 62 29 147 64 66 63 223 31 62 64 29 147 66 66 148 224 68 64 66 33 148 68 68 149 68 70 65 69 35 150 70 69 66 70 37 65 70 35 151 72 71 67 225 39 66 72 37 151 73 71 152 226 73 68 74 41 153 75 72 69 227 43 68 75 41 154 77 74 70 228 48 69 78 43 155 80 75 71 229 50 70 80 48 155 81 75 156 230 51 49 81 0 158 83 76 77 84 390 78 84 77 163 85 78 78 86 77 79 86 79 166 87 80 79 88 79 80 88 81 167 89 83 72 90 388 73 90 84 169 91 82 80 92 81 81 92 86 170 93 85 73 94 84 74 94 88 172 95 87 81 96 86 82 96 90 173 97 89 74 97 88 75 97 92 177 98 91 82 99 90 83 99 94 178 100 93 75 101 92 76 101 96 180 102 95 83 102 94 84 102 97 11 106 101 112 106 142 123 106 102 45 107 104 47 107 391 108 107 105 45 107 104 107 107 106 106 107 107 41 107 109 43 107 108 106 107 107 39 107 111 41 107 109 105 107 110 90 108 113 123 108 392 124 109 114 15 111 116 113 231 167 111 112 117 33 107 119 35 107 393 102 107 120 33 107 119 101 107 121 100 107 122 31 107 123 100 107 122 99 107 124 27 107 126 29 107 125 99 107 124 39 113 128 104 113 394 131 113 129 91 114 115 124 232 114 125 114 131 23 107 133 96 107 209 95 107 134 19 107 136 21 107 135 95 107 134 19 107 136 94 107 137 93 107 138 15 107 140 17 107 139 93 107 138 13 116 118 111 116 117 112 117 142 23 119 143 115 119 166 126 119 144 9 107 146 11 107 395 90 107 147 9 107 146 89 107 148 88 107 149 5 107 151 7 107 150 88 107 149 3 107 153 5 107 151 87 107 152 25 120 155 27 233 174 116 121 156 110 107 158 121 107 170 132 107 159 117 107 161 119 107 130 131 107 129 117 107 161 130 107 162 129 107 163 116 107 156 128 107 175 127 107 165 114 107 157 127 107 165 126 107 144 113 107 167 125 107 183 124 107 168 112 107 142 111 107 117 124 107 168 110 107 158 109 107 188 122 107 169 97 122 171 127 123 179 128 123 172 27 125 174 98 234 396 128 125 175 3 126 176 109 128 188 110 127 158 96 129 178 126 130 397 127 130 179 103 132 180 130 132 186 131 132 181 15 133 116 92 133 398 125 133 183 1 134 177 110 135 158 120 135 160 102 136 185 129 235 399 130 136 186 47 138 184 120 138 160 132 138 159 3 139 176 86 139 400 122 139 169 35 140 189 37 140 193 117 141 161 85 143 190 108 144 401 132 143 191 39 145 128 119 236 130 117 146 161 35 148 189 118 148 164 129 148 163 25 150 155 114 150 157 115 150 166 85 152 190 121 237 192 122 153 195 108 107 197 85 107 216 156 107 51 108 107 197 155 107 75 154 107 74 107 107 198 154 107 74 153 107 72 105 107 200 106 107 199 153 107 72 105 107 200 152 107 73 151 107 71 103 107 202 104 107 201 151 107 71 103 107 202 150 107 69 149 107 70 101 107 204 102 107 203 149 107 70 100 107 205 101 107 204 148 107 68 100 107 205 147 107 66 146 107 67 98 107 207 99 107 206 146 107 67 97 107 208 98 107 207 145 107 64 96 107 209 97 107 402 144 107 63 96 107 209 143 107 62 142 107 61 94 107 137 95 107 134 142 107 61 94 107 137 141 107 60 140 107 59 93 107 138 140 107 59 139 107 58 91 107 210 92 107 141 139 107 58 91 107 210 138 107 56 137 107 57 89 107 212 90 107 211 137 107 57 89 107 212 136 107 54 135 107 55 87 107 214 88 107 213 135 107 55 86 107 215 87 107 214 134 107 53 85 107 216 86 107 215 133 107 52 200 102 217 180 102 227 161 102 218 199 155 220 179 155 229 159 155 221 198 156 223 178 100 234 157 100 224 197 157 226 177 98 236 180 98 227 196 158 228 176 159 237 179 159 229 195 160 230 174 160 239 175 160 231 194 161 233 173 97 241 178 97 234 193 95 235 172 95 243 177 95 236 204 162 232 175 162 231 176 162 237 192 163 238 171 164 245 174 164 239 191 94 240 170 93 247 173 93 241 190 91 242 169 91 249 172 91 243 189 165 244 168 165 251 171 165 245 188 90 246 167 89 253 170 89 247 187 166 248 166 87 255 169 87 249 186 167 250 165 168 257 168 168 251 185 169 252 164 170 259 167 170 253 184 86 254 163 85 261 166 85 255 183 171 256 162 171 262 165 171 257 182 172 258 160 173 263 164 173 259 181 84 260 158 83 403 163 83 261 203 174 219 161 174 218 162 174 262 202 175 222 159 175 221 160 175 263 201 176 225 157 25 224 158 25 264 225 26 266 201 176 225 181 176 265 226 175 268 202 175 222 182 175 258 227 174 270 203 174 219 183 174 256 205 84 272 181 84 260 184 84 254 206 172 269 182 172 258 185 172 252 207 171 271 183 171 256 186 171 250 208 86 273 184 86 254 187 86 248 209 169 274 185 169 252 188 169 246 210 167 275 186 167 250 189 167 244 211 88 276 187 166 248 190 166 242 212 90 277 188 90 246 191 90 240 213 177 278 189 165 244 192 165 238 214 92 279 190 91 242 193 91 235 215 94 280 191 94 240 194 94 233 216 178 281 192 163 238 195 163 230 228 162 285 204 162 232 196 162 228 217 96 282 193 95 235 197 95 226 218 97 283 194 161 233 198 161 223 219 160 284 195 160 230 204 160 232 220 179 286 196 158 228 199 158 220 221 99 287 197 157 226 200 157 217 222 100 288 198 156 223 201 156 225 223 180 289 199 155 220 202 155 222 224 102 290 200 102 217 203 102 219 248 102 291 224 102 290 227 102 270 247 180 293 223 180 289 226 180 268 246 156 295 222 100 288 225 100 266 245 98 297 221 99 287 224 99 290 244 159 298 220 179 286 223 179 289 243 160 299 219 160 284 228 160 285 242 97 301 218 97 283 222 97 288 241 96 302 217 96 282 221 96 287 252 162 300 228 162 285 220 162 286 240 164 303 216 178 281 219 178 284 239 93 304 215 94 280 218 94 283 238 91 305 214 92 279 217 92 282 237 177 306 213 177 278 216 177 281 236 90 307 212 90 277 215 90 280 235 88 308 211 88 276 214 88 279 234 168 309 210 167 275 213 167 278 233 169 310 209 169 274 212 169 277 232 86 311 208 86 273 211 86 276 231 171 312 207 171 271 210 171 275 230 173 313 206 172 269 209 172 274 229 84 314 205 84 272 208 84 273 251 174 292 227 174 270 207 174 271 250 181 294 226 175 268 206 175 269 249 25 296 225 26 266 205 26 267 21 26 316 249 25 350 229 25 317 7 182 319 250 181 351 230 181 320 37 174 193 251 174 352 231 174 322 23 84 143 229 84 404 232 84 323 9 172 321 230 173 320 233 173 324 39 171 128 231 171 322 234 171 325 25 86 155 232 86 323 235 86 327 11 169 101 233 169 324 236 169 328 41 168 326 234 168 325 237 168 329 27 88 174 235 88 327 238 88 331 13 90 118 236 90 328 239 90 333 43 177 330 237 177 329 240 177 334 29 91 332 238 91 331 241 91 336 15 94 116 239 93 333 242 93 338 45 178 335 240 164 334 243 164 340 1 162 177 252 162 346 244 162 341 31 95 337 241 96 336 245 96 342 17 161 339 242 97 338 246 97 344 47 160 184 243 160 340 252 160 346 3 159 176 244 159 341 247 159 347 33 98 343 245 98 342 248 98 349 19 100 345 246 156 344 249 156 350 5 183 348 247 180 347 250 180 351 35 102 189 248 102 349 251 102 352 179 159 353 176 159 381 258 159 354 171 164 356 260 164 360 261 164 357 168 177 359 262 177 362 260 177 360 165 238 361 263 238 364 262 238 362 162 171 363 264 171 405 263 171 364 164 173 365 160 173 384 265 173 366 78 239 77 267 239 406 268 239 368 78 185 369 77 240 46 269 186 370 77 188 46 76 241 96 270 189 372 83 242 94 271 242 374 272 242 100 76 193 96 75 243 92 273 194 373 82 244 90 274 244 378 271 244 374 75 197 92 74 245 88 275 198 375 74 200 88 73 246 84 257 201 376 73 203 84 72 247 388 276 204 377 81 248 86 277 248 379 274 248 378 80 249 81 256 250 380 277 250 379 79 251 79 268 251 368 256 251 380 176 162 381 175 162 383 255 162 382 174 160 358 261 160 357 255 160 382 160 175 384 159 175 386 254 181 385 159 155 386 179 155 353 259 155 355 264 252 405 162 174 363 278 209 99 162 174 363 161 174 98 278 209 99 72 253 388 167 253 83 253 253 387 167 170 83 164 170 365 266 170 367</p>
        </triangles>
      </mesh>
    </geometry>
  </library_geometries>
  <library_visual_scenes>
    <visual_scene id="Scene" name="Scene">
      <node id="Cylinder.002" name="Cylinder.002" type="NODE">
        <instance_geometry url="#Cylinder.002-mesh">
          <bind_material>
            <technique_common>
              <instance_material symbol="Plastic010_1K_Displacement" target="#Plastic010_1K_Displacement-material"/>
            </technique_common>
          </bind_material>
        </instance_geometry>
      </node>
    </visual_scene>
  </library_visual_scenes>
  <scene>
    <instance_visual_scene url="#Scene"/>
  </scene>
</COLLADA>
