<?xml version="1.0" encoding="utf-8"?>
<COLLADA xmlns="http://www.collada.org/2005/11/COLLADASchema" version="1.4.1" xmlns:xsi="http://www.w3.org/2001/XMLSchema-instance">
  <asset>
    <contributor>
      <author>Blender User</author>
      <authoring_tool>Blender 4.5.11 LTS commit date:2026-06-22, commit time:11:08, hash:4db51e9d1e1e</authoring_tool>
    </contributor>
    <created>2026-07-02T13:17:04</created>
    <modified>2026-07-02T13:17:04</modified>
    <unit name="meter" meter="1"/>
    <up_axis>Z_UP</up_axis>
  </asset>
  <library_effects>
    <effect id="Plastic010_1K_Displacement-effect">
      <profile_COMMON>
        <newparam sid="Plastic010_1K_Displacement_jpg-surface">
          <surface type="2D">
            <init_from>Plastic010_1K_Displacement_jpg</init_from>
          </surface>
        </newparam>
        <newparam sid="Plastic010_1K_Displacement_jpg-sampler">
          <sampler2D>
            <source>Plastic010_1K_Displacement_jpg-surface</source>
          </sampler2D>
        </newparam>
        <technique sid="common">
          <lambert>
            <emission>
              <color sid="emission">0 0 0 1</color>
            </emission>
            <diffuse>
              <texture texture="Plastic010_1K_Displacement_jpg-sampler" texcoord="Cylinder-mesh-texcoord"/>
            </diffuse>
            <index_of_refraction>
              <float sid="ior">1.5</float>
            </index_of_refraction>
          </lambert>
        </technique>
      </profile_COMMON>
    </effect>
  </library_effects>
  <library_images>
    <image id="Plastic010_1K_Displacement_jpg" name="Plastic010_1K_Displacement_jpg">
      <init_from>Plastic010_1K_Displacement.jpg</init_from>
    </image>
  </library_images>
  <library_materials>
    <material id="Plastic010_1K_Displacement-material" name="Plastic010_1K_Displacement">
      <instance_effect url="#Plastic010_1K_Displacement-effect"/>
    </material>
  </library_materials>
  <library_geometries>
    <geometry id="Cylinder-mesh" name="Cylinder">
      <mesh>
        <source id="Cylinder-mesh-positions">
          <float_array id="Cylinder-mesh-positions-array" count="615">0.151974 0.701814 -0.410953 0.01299005 0.72601 -0.410953 0.281486 0.630875 -0.410953 0.392701 0.518028 -0.410953 0.478039 0.370962 -0.410953 0.531685 0.1996999 -0.410953 -0.505705 0.1996999 -0.410953 -0.452059 0.370962 -0.410953 -0.366721 0.518028 -0.410953 -0.255507 0.630875 -0.410953 -0.125994 0.701814 -0.410953 0.01298987 -2.25014 2.36232 0.427564 -2.25014 2.27788 0.779022 -2.25014 2.03741 1.01386 -2.25014 1.67753 1.09632 -2.25014 1.25301 1.01386 -2.25014 0.828498 0.779022 -2.25014 0.46861 0.427564 -2.25014 0.228141 0.01299005 -2.25014 0.143702 -0.401583 -2.25014 0.228141 -0.753042 -2.25014 0.46861 -0.987879 -2.25014 0.828498 -1.07034 -2.25014 1.25301 -0.987879 -2.25014 1.67753 -0.753042 -2.25014 2.03741 -0.401583 -2.25014 2.27788 0.01298987 -1.83787 2.44959 0.460177 -1.83787 2.3585 0.839284 -1.83787 2.09912 1.09259 -1.83787 1.71092 1.18155 -1.83787 1.25301 1.09259 -1.83787 0.795102 0.839284 -1.83787 0.406904 0.460177 -1.83787 0.1475189 0.01299005 -1.83787 0.0564363 -0.434197 -1.83787 0.1475189 -0.813304 -1.83787 0.406904 -1.06662 -1.83787 0.795102 -1.15557 -1.83787 1.25301 -1.06662 -1.83787 1.71092 -0.813304 -1.83787 2.09912 -0.434197 -1.83787 2.3585 0.186719 0.87329 -0.309283 0.01298946 0.903535 -0.309283 0.34861 0.784616 -0.309283 0.487628 0.643556 -0.309283 0.594301 0.459724 -0.309283 0.661358 0.245647 -0.309283 0.68423 0.0159136 -0.309283 0.661358 -0.21382 -0.309283 0.594301 -0.427897 -0.309283 0.487628 -0.611729 -0.309283 0.34861 -0.752789 -0.309283 0.18672 -0.841462 -0.309283 0.01298958 -0.871708 -0.309283 -0.16074 -0.841463 -0.309283 -0.322631 -0.752789 -0.309283 -0.461649 -0.61173 -0.309283 -0.568322 -0.427897 -0.309283 -0.635379 -0.21382 -0.309283 -0.658251 0.01591306 -0.309283 -0.63538 0.2456459 -0.309283 -0.568322 0.459724 -0.309283 -0.46165 0.643556 -0.309283 -0.322631 0.784616 -0.309283 -0.160741 0.873289 -0.309283 0.186715 0.87329 0.107403 0.01298505 0.903535 0.107403 0.348606 0.784616 0.107403 0.487624 0.643556 0.107403 0.594297 0.459724 0.107403 0.661354 0.245647 0.107403 0.684226 0.0159136 0.107403 0.661354 -0.21382 0.107403 0.594297 -0.427897 0.107403 0.487624 -0.611729 0.107403 0.348606 -0.752789 0.107403 0.186715 -0.841462 0.107403 0.01298534 -0.871708 0.107403 -0.160744 -0.841463 0.107403 -0.322635 -0.752789 0.107403 -0.461653 -0.61173 0.107403 -0.568326 -0.427897 0.107403 -0.635384 -0.21382 0.107403 -0.658256 0.01591306 0.107403 -0.635384 0.2456459 0.107403 -0.568327 0.459724 0.107403 -0.461654 0.643556 0.107403 -0.322636 0.784616 0.107403 -0.160745 0.873289 0.107403 0.338859 -2.39579 2.0586 0.01298987 -2.39579 2.12497 0.615118 -2.39579 1.86958 0.799708 -2.39579 1.58669 0.864528 -2.39579 1.25301 0.799708 -2.39579 0.919331 0.615118 -2.39579 0.636443 0.338859 -2.39579 0.447427 0.01298999 -2.39579 0.381057 -0.312879 -2.39579 0.447427 -0.589138 -2.39579 0.636443 -0.773728 -2.39579 0.919331 -0.838548 -2.39579 1.25301 -0.773728 -2.39579 1.58669 -0.589138 -2.39579 1.86958 -0.312879 -2.39579 2.0586 0.405643 4.53544 1.94738 0.690858 4.53544 1.70661 0.594782 4.53063 1.84348 0.690858 4.53544 1.04044 0.405643 4.53544 0.799668 0.594782 4.53063 0.90356 1.31299 -1.85404 1.77112 0.518965 -1.85404 2.58418 1.08043 -1.85404 2.34604 0.518965 -1.85404 -0.0781607 1.31299 -1.85404 0.734902 1.08043 -1.85404 0.159986 -0.664878 4.53544 1.70661 -0.379663 4.53544 1.94738 -0.568803 4.53063 1.84348 -0.379663 4.53544 0.799668 -0.664878 4.53544 1.04044 -0.568803 4.53063 0.90356 -0.492985 -1.85404 2.58418 -1.28701 -1.85404 1.77112 -1.05445 -1.85404 2.34604 -1.28701 -1.85404 0.734902 -0.492985 -1.85404 -0.0781607 -1.05445 -1.85404 0.159986 1.03493 4.12687 2.32541 0.518965 4.1137 2.58443 1.31299 4.1137 1.84482 -0.492985 4.1137 2.58443 -1.00895 4.12687 2.32541 -1.28701 4.1137 1.84482 -1.00895 4.12687 0.42163 -0.492985 4.1137 0.162618 -1.28701 4.1137 0.902223 0.518965 4.1137 0.162618 1.03493 4.12687 0.42163 1.31299 4.1137 0.902223 0.956709 4.32875 2.23404 0.507159 4.32457 2.46202 1.19747 4.32457 1.82541 -0.481179 4.32457 2.46202 -0.930729 4.32875 2.23404 -1.17149 4.32457 1.82541 -0.930729 4.32875 0.513005 -0.481179 4.32457 0.285027 -1.17149 4.32457 0.921629 0.507159 4.32457 0.285027 0.956709 4.32875 0.513005 1.19747 4.32457 0.921629 0.81588 4.53063 2.08557 0.462568 4.53544 2.26739 1.00337 4.53544 1.77604 -0.436588 4.53544 2.26739 -0.7899 4.53063 2.08557 -0.977392 4.53544 1.77604 -0.7899 4.53063 0.661474 -0.436588 4.53544 0.479659 -0.977392 4.53544 0.971009 0.462568 4.53544 0.479659 0.81588 4.53063 0.661474 1.00337 4.53544 0.971009 0.594782 4.59647 1.84348 0.405643 4.60421 1.94738 0.690858 4.60421 1.70661 -0.379663 4.60421 1.94738 -0.568803 4.59647 1.84348 -0.664878 4.60421 1.70661 -0.568803 4.59647 0.90356 -0.379663 4.60421 0.799668 -0.664878 4.60421 1.04044 0.405643 4.60421 0.799668 0.594782 4.59647 0.90356 0.690858 4.60421 1.04044 -0.511339 0.1431069 -0.410953 -0.371114 -0.49201 -0.406247 0.481686 -0.341919 -0.407762 -0.456197 -0.342294 -0.407335 0.396767 -0.491577 -0.406599 -0.508691 -0.168931 -0.408613 0.284967 -0.60702 -0.40568 -0.525272 0.01591318 -0.409992 0.1539829 -0.679904 -0.405075 0.01299029 -0.70489 -0.404821 -0.128047 -0.680124 -0.404944 0.550603 0.0159136 -0.410483 0.478057 0.370976 -0.413115 -0.505709 0.199701 -0.41138 0.531693 0.199703 -0.411854 -0.452074 0.370973 -0.412692 -0.366741 0.518054 -0.413839 -0.255525 0.630917 -0.414736 -0.1260049 0.701868 -0.415328 0.151985 0.70187 -0.415455 0.281506 0.63092 -0.414981 0.534061 -0.168715 -0.409091 -0.259153 -0.607401 -0.40543 0.01299005 0.72607 -0.415574 0.392723 0.518057 -0.414182 0.543714 0.07887738 -0.410953</float_array>
          <technique_common>
            <accessor source="#Cylinder-mesh-positions-array" count="205" stride="3">
              <param name="X" type="float"/>
              <param name="Y" type="float"/>
              <param name="Z" type="float"/>
            </accessor>
          </technique_common>
        </source>
        <source id="Cylinder-mesh-normals">
          <float_array id="Cylinder-mesh-normals-array" count="2649">-0.3640069 0.4743551 -0.8015524 -0.363999 0.4743544 -0.8015564 -0.3640065 0.474355 -0.8015527 0.7933368 0.6087049 0.009762942 0.7933366 0.608705 0.009772837 0.7933375 0.6087039 0.009761333 -0.9913995 0.1305181 0.009598314 -0.9914001 0.1305187 0.00953263 -0.9913995 0.1305181 0.009597122 0.9238555 0.3826149 0.009854674 0.9238548 0.3826156 0.009877145 0.9238554 0.3826142 0.009881496 -0.9238381 0.3826449 0.01029348 -0.9238419 0.3826463 0.009905338 -0.923842 0.382646 0.009906709 0.9913947 0.1305341 0.009871363 0.9913947 0.1305341 0.009869992 0.9913948 0.1305342 0.00987035 -0.7933126 0.6087359 0.009795367 -0.7933126 0.6087358 0.009789824 -0.7933129 0.6087354 0.009795188 -0.608749 0.7933024 0.009806096 -0.6087473 0.7933037 0.00979644 -0.6087496 0.793302 0.009786963 -0.3826978 0.9238221 0.009755492 -0.3826983 0.9238218 0.009768962 -0.3826972 0.9238224 0.009765386 0.1305178 0.9913974 0.009816169 0.130518 0.9913974 0.009814798 0.1305177 0.9913974 0.009817004 -0.1305276 0.9913956 0.009872317 -0.1305277 0.9913955 0.009869754 -0.1305279 0.9913956 0.009868919 0.3826961 0.923822 0.009828567 0.382696 0.9238221 0.009829342 0.3826965 0.9238218 0.009833514 0.6087514 0.7933005 0.009818434 0.6087513 0.7933006 0.00980556 0.6087508 0.7933008 0.009815394 0.1884406 -0.2589229 0.9473379 0.1884375 -0.2589226 0.9473387 0.1884409 -0.2589229 0.9473379 0.5366178 -0.2589626 0.8031064 0.5366155 -0.2589621 0.8031081 0.5366159 -0.2589622 0.8031078 0.8031136 -0.2589442 0.5366157 0.8031125 -0.2589438 0.5366176 0.8031111 -0.2589434 0.53662 0.9473353 -0.2589414 0.1884285 0.9473341 -0.2589409 0.1884356 0.9473336 -0.2589408 0.1884375 0.9473347 -0.258944 -0.1884282 0.9473342 -0.2589439 -0.1884307 0.9473342 -0.2589439 -0.1884308 0.8031109 -0.2589387 -0.5366225 0.8031122 -0.2589391 -0.5366204 0.8031141 -0.2589398 -0.5366173 0.5366214 -0.2589548 -0.8031064 0.5366234 -0.2589552 -0.8031049 0.5366218 -0.2589549 -0.803106 0.1884394 -0.2589277 -0.9473369 0.1884424 -0.2589279 -0.9473362 0.1884375 -0.2589275 -0.9473373 -0.1884354 -0.2589278 -0.9473376 -0.1884414 -0.2589283 -0.9473363 -0.1884393 -0.2589281 -0.9473367 -0.5366175 -0.2589538 -0.8031094 -0.5366231 -0.2589551 -0.8031052 -0.5366189 -0.2589541 -0.8031083 -0.8031136 -0.2589434 -0.5366161 -0.8031128 -0.2589431 -0.5366175 -0.8031144 -0.2589436 -0.5366149 -0.9473398 -0.2589189 -0.1884366 -0.9473403 -0.2589191 -0.1884341 -0.9473405 -0.2589192 -0.1884331 -0.9473406 -0.2589164 0.1884365 -0.947342 -0.2589169 0.1884286 -0.9473407 -0.2589164 0.1884354 -0.8031117 -0.2589474 0.5366171 -0.8031129 -0.2589478 0.536615 -0.8031092 -0.2589465 0.5366213 -0.08506733 -0.8999338 0.427648 -0.08507031 -0.8999338 0.4276474 -0.08505839 -0.8999337 0.4276501 -0.5366138 -0.2589616 0.8031093 -0.5366157 -0.2589619 0.8031079 -0.5366166 -0.2589622 0.8031073 -0.1884353 -0.258923 0.9473389 -0.1884381 -0.2589232 0.9473384 -0.1884388 -0.2589232 0.9473382 6.81146e-7 0.05204617 -0.9986448 0 0.05204617 -0.9986448 5.63714e-7 0.05204617 -0.9986448 0 0 1 -1 0 0 0 -1 0 1 0 0 0.9238889 -0.382661 2.6077e-6 0.9238889 -0.382661 9.09003e-6 0.9238889 -0.382661 4.64817e-6 -0.3640079 -0.4743465 -0.8015571 -0.3640088 -0.4743466 -0.8015567 -0.3640111 -0.4743468 -0.8015555 0.5524172 -0.228823 -0.8015456 0.5524125 -0.2288217 -0.8015492 0.5524161 -0.2288226 -0.8015465 -0.2288194 0.5524047 -0.8015553 -0.2288361 0.5524054 -0.80155 -0.2288276 0.552405 -0.8015528 0.0780524 0.592777 -0.8015756 0.07804864 0.592777 -0.8015759 0.07805097 0.592777 -0.8015757 -0.474372 -0.3639949 -0.801548 -0.4743735 -0.3639951 -0.801547 -0.47437 -0.3639946 -0.8015491 0.4743822 -0.3639925 -0.8015429 0.4743811 -0.3639923 -0.8015437 0.4743764 -0.3639917 -0.8015468 -0.07804888 0.5928146 -0.8015481 -0.07805216 0.5928146 -0.8015478 -0.07805198 0.5928147 -0.8015478 0.2288327 0.5524044 -0.8015517 0.2288221 0.552404 -0.801555 0.2288252 0.5524041 -0.801554 -0.5524191 -0.2288277 -0.801543 -0.5524191 -0.2288277 -0.8015431 -0.5524173 -0.2288272 -0.8015443 0.3640135 -0.4743527 -0.8015509 0.3640104 -0.4743524 -0.8015525 0.3640095 -0.4743524 -0.8015529 0.364004 0.4743583 -0.8015518 0.3639991 0.4743579 -0.8015544 0.3640102 0.4743587 -0.8015487 -0.5928285 -0.07802778 -0.8015398 -0.5928283 -0.0780276 -0.80154 -0.5928288 -0.07802808 -0.8015395 0.2288241 -0.5524114 -0.8015492 0.2288218 -0.5524113 -0.8015499 0.2288388 -0.5524122 -0.8015447 0.4743702 0.3639878 -0.8015522 0.4743775 0.3639888 -0.8015474 0.4743747 0.3639884 -0.8015492 0.07804626 -0.592815 -0.801548 0.07805013 -0.5928151 -0.8015477 0.07804501 -0.5928149 -0.8015482 0.552424 0.2288258 -0.80154 0.5524204 0.2288249 -0.8015427 0.5524184 0.2288244 -0.8015443 -0.5524153 0.2288239 -0.8015466 -0.5524168 0.2288243 -0.8015455 -0.5524162 0.2288242 -0.8015459 -0.07804059 -0.5928208 -0.8015442 -0.07805448 -0.5928211 -0.8015428 -0.07804346 -0.592821 -0.801544 0.5928305 0.07803183 -0.8015379 0.5928313 0.07803249 -0.8015373 0.5928303 0.07803159 -0.8015382 -0.4743786 0.363988 -0.8015472 -0.4743734 0.3639872 -0.8015505 -0.4743728 0.3639872 -0.801551 -0.228829 -0.5524054 -0.8015521 -0.2288331 -0.5524055 -0.8015507 -0.2288258 -0.5524052 -0.801553 0.5928332 -0.07803106 -0.801536 0.5928342 -0.07803183 -0.8015353 0.5928347 -0.07803225 -0.8015348 -0.3826978 0.9238736 0 -0.3826978 0.9238736 -4.2789e-6 -0.3826979 0.9238737 1.1483e-6 0.1305248 0.9914451 -2.40281e-7 0.1305248 0.9914451 -2.12852e-6 0.1305248 0.9914451 1.60405e-6 -0.7933807 -0.6087257 -4.14625e-6 -0.7933807 -0.6087257 -8.00402e-6 -0.7933807 -0.6087257 -8.18068e-6 0.7933794 -0.6087275 0 0.7933794 -0.6087275 8.25982e-6 0.7933794 -0.6087275 1.67819e-6 -0.1305295 0.9914445 2.79397e-7 -0.1305295 0.9914445 -2.51552e-6 -0.1305295 0.9914445 7.26745e-7 0.3827 0.9238728 6.33299e-6 0.3827 0.9238727 5.51365e-6 0.3827 0.9238728 4.51568e-6 -0.9238875 -0.3826644 -6.89924e-6 -0.9238875 -0.3826643 -6.45327e-6 -0.9238875 -0.3826644 -1.14529e-5 0.6087868 -0.793334 1.19433e-5 0.6087867 -0.793334 6.61728e-6 0.6087867 -0.793334 -6.07471e-7 0.6087867 0.7933339 6.83591e-6 0.6087867 0.7933339 1.63227e-5 0.6087868 0.793334 6.88193e-6 -0.9914487 -0.1304979 -9.06363e-6 -0.9914487 -0.1304979 -1.39996e-5 -0.9914487 -0.1304979 -1.19533e-5 0.3826955 -0.9238745 8.16584e-6 0.3826955 -0.9238745 5.77803e-6 0.3826955 -0.9238745 -1.7683e-7 0.7933798 0.6087271 3.73647e-6 0.7933798 0.608727 2.31052e-6 0.7933798 0.6087271 8.19106e-6 -0.9914429 0.1305418 -8.93045e-6 -0.9914429 0.1305419 -1.05092e-5 -0.9914429 0.1305419 -8.13629e-6 0.1305299 -0.9914444 -3.6126e-6 0.13053 -0.9914444 1.62095e-6 0.13053 -0.9914444 -6.4209e-7 0.9238892 0.3826605 1.75461e-6 0.9238891 0.3826605 3.92438e-6 0.9238891 0.3826605 9.10324e-6 -0.923888 0.3826631 -6.13555e-6 -0.923888 0.3826631 -4.27604e-6 -0.923888 0.3826631 -6.93653e-6 -0.1305249 -0.9914451 8.6613e-7 -0.1305249 -0.9914451 -1.60481e-6 -0.1305249 -0.9914451 -1.62538e-6 0.9914487 0.1304978 1.08769e-5 0.9914487 0.1304978 1.21154e-5 0.9914487 0.1304978 9.5362e-6 -0.7933819 0.6087244 -4.11272e-6 -0.7933819 0.6087244 1.75592e-6 -0.7933819 0.6087244 -1.70532e-6 -0.3826997 -0.9238728 -8.48621e-6 -0.3826997 -0.9238728 -1.10539e-5 -0.3826997 -0.9238728 -4.6429e-6 0.9914487 -0.1304976 1.0509e-5 0.9914487 -0.1304976 9.52628e-6 0.9914487 -0.1304976 1.25371e-5 -0.6087839 0.7933362 -3.17767e-6 -0.6087839 0.7933362 -1.08147e-5 -0.6087839 0.7933362 -1.08551e-6 -0.6087843 -0.7933358 5.65126e-6 -0.6087843 -0.7933358 -1.19304e-5 -0.6087843 -0.7933358 -6.79068e-6 0.4276634 -0.8999261 0.08507096 0.4276642 -0.8999262 0.08506613 0.4276629 -0.8999261 0.08507406 -0.08505624 -0.8999362 -0.4276453 -0.08505678 -0.8999362 -0.4276452 -0.08505743 -0.8999362 -0.427645 -0.3625367 -0.899941 0.242226 -0.3625377 -0.899941 0.2422245 -0.3625301 -0.8999407 0.2422371 0.2422557 -0.8999262 0.3625535 0.2422495 -0.8999261 0.362558 0.2422614 -0.8999264 0.3625493 0.2422551 -0.8999292 -0.3625465 0.2422533 -0.8999292 -0.362548 0.2422537 -0.8999291 -0.3625476 -0.4276634 -0.8999262 -0.08507132 -0.4276642 -0.8999262 -0.08506631 -0.4276628 -0.899926 -0.08507436 0.4276554 -0.8999301 -0.08506917 0.4276578 -0.8999302 -0.08505547 0.4276576 -0.8999302 -0.08505696 -0.2422522 -0.899928 -0.3625512 -0.2422463 -0.899928 -0.3625556 -0.2422584 -0.8999282 -0.3625466 -0.2422243 -0.8999447 0.3625283 -0.2422375 -0.8999453 0.3625186 -0.2422378 -0.8999451 0.3625184 0.3625205 -0.8999472 0.2422268 0.3625237 -0.8999474 0.2422217 0.3625158 -0.8999471 0.2422347 0.08506548 -0.8999385 -0.4276386 0.08506828 -0.8999385 -0.4276379 0.0850566 -0.8999384 -0.4276404 0.0850594 -0.8999314 0.4276548 0.0850594 -0.8999313 0.4276548 0.08505904 -0.8999314 0.4276549 -0.4276551 -0.8999305 0.0850678 -0.4276577 -0.8999306 0.08505284 -0.4276547 -0.8999304 0.08506995 0.3625371 -0.8999418 -0.2422224 0.3625291 -0.8999415 -0.2422357 0.3625313 -0.8999415 -0.2422319 -0.3625349 -0.8999438 -0.2422183 -0.3625292 -0.8999435 -0.2422277 -0.3625293 -0.8999435 -0.2422275 0.440046 0.008424401 0.8979358 0.4400461 0.00842458 0.8979358 0.440046 0.00842446 0.8979358 0.8603997 0.010921 0.509503 0.8603996 0.01092034 0.5095031 0.8603996 0.01092082 0.509503 -0.3826888 -4.79812e-5 0.9238774 -0.3826888 -3.85821e-5 0.9238774 -0.3826888 -4.79777e-5 0.9238774 -0.923864 -0.006101965 0.3826726 -0.923864 -0.006101906 0.3826726 -0.9238638 -0.006101071 0.3826727 -0.4386734 0.05507558 -0.8969574 -0.4386723 0.05507463 -0.896958 -0.4386735 0.05507564 -0.8969573 -0.8603757 0.01843643 -0.5093268 -0.8603758 0.01843708 -0.5093266 -0.8603755 0.01843547 -0.5093272 0.3822407 0.04809027 -0.9228106 0.3822416 0.04809099 -0.9228102 0.382241 0.04809045 -0.9228105 0.9234343 0.03090327 -0.3825104 0.9234346 0.03090399 -0.3825098 0.9234341 0.03090274 -0.3825108 0 -4.19088e-5 1 0.3516201 0.6000777 0.7185193 0.3516227 0.6000778 0.7185181 0.3516246 0.6000779 0.7185171 0.7143191 0.5662896 0.4111745 0.7143156 0.5662891 0.4111812 0.7143142 0.566289 0.4111839 -0.3500874 0.5783182 0.7368765 -0.3500816 0.5783179 0.7368795 -0.3500928 0.5783184 0.7368737 -0.6905576 0.5945203 0.4119174 -0.6905608 0.5945206 0.4119116 -0.6905593 0.5945204 0.4119144 -0.351614 0.600091 -0.7185112 -0.3516172 0.6000912 -0.7185095 -0.3516185 0.6000912 -0.7185088 -0.7143234 0.5662839 -0.4111748 -0.7143203 0.5662834 -0.4111809 -0.714318 0.5662831 -0.4111852 0.3500784 0.5783167 -0.7368819 0.3500915 0.5783177 -0.736875 0.3500989 0.5783179 -0.7368713 0.6905493 0.5945286 -0.4119191 0.6905534 0.5945291 -0.4119117 0.6905513 0.5945289 -0.4119156 5.47618e-7 0.5998097 0.8001428 -1.31363e-6 0.5998097 0.8001428 7.5949e-6 0.5998097 0.8001428 0.809841 0.5866496 -3.39188e-6 0.809841 0.5866496 -4.00003e-6 0.8098409 0.5866496 2.4314e-6 -5.4948e-7 0.5998066 -0.800145 1.32713e-6 0.5998066 -0.800145 -7.5949e-6 0.5998067 -0.800145 -0.8098408 0.5866498 3.37884e-6 -0.8098408 0.5866498 2.02097e-6 -0.8098408 0.5866498 -3.11911e-6 -0.6348156 0.7726637 -5.23776e-6 -0.6348156 0.7726638 -1.21221e-5 -0.6348156 0.7726637 9.17426e-6 5.7444e-6 0.7660673 -0.6427604 1.17607e-5 0.7660673 -0.6427605 -6.0756e-6 0.7660674 -0.6427604 0.6348114 0.7726672 5.25266e-6 0.6348113 0.7726672 -5.47804e-6 0.6348113 0.7726672 -7.58841e-6 -5.85988e-6 0.7660639 0.6427645 -1.18595e-5 0.7660638 0.6427645 6.03018e-6 0.7660639 0.6427645 0.5167314 0.7899972 -0.3299895 0.5167281 0.7899972 -0.3299949 0.5167254 0.789997 -0.3299996 0.2955338 0.7648569 -0.5724105 0.2955397 0.7648573 -0.572407 0.2955436 0.7648574 -0.5724049 -0.5504556 0.768577 -0.3260186 -0.5504645 0.7685777 -0.3260021 -0.5504532 0.7685768 -0.326023 -0.2718598 0.7825962 -0.5600316 -0.2718548 0.782596 -0.5600344 -0.2718487 0.7825959 -0.5600376 -0.5167246 0.7899997 0.3299944 -0.516721 0.7899996 0.3300002 -0.5167279 0.7900001 0.3299884 -0.2955432 0.7648527 0.5724111 -0.2955495 0.7648532 0.5724074 -0.295553 0.7648532 0.5724055 0.5504614 0.7685726 0.3260194 0.5504599 0.7685725 0.3260222 0.550458 0.7685722 0.3260257 0.2718437 0.7825975 0.5600376 0.2718562 0.7825978 0.5600311 0.2718505 0.7825978 0.560034 0.01279622 0.9998465 -0.01196807 0.01279658 0.9998466 -0.01196765 0.01279598 0.9998466 -0.01196831 -0.002303719 0.9999411 0.01061606 -0.00230354 0.999941 0.01061612 -0.00230354 0.999941 0.01061612 -0.009443879 0.9999539 -0.001718282 -0.009443879 0.9999539 -0.001718282 -0.009443879 0.9999539 -0.001718282 0.01643931 0.9997467 0.01537477 0.01643913 0.9997467 0.01537501 0.01643919 0.9997467 0.01537495 -0.0127958 0.9998466 0.01196587 -0.01279622 0.9998466 0.01196545 -0.01279574 0.9998466 0.01196599 0.002303659 0.999941 -0.01061683 0.002303719 0.9999411 -0.01061683 0.002304017 0.9999411 -0.01061677 0.009443938 0.9999539 0.001718342 0.009443938 0.9999539 0.001718342 0.009443938 0.9999539 0.001718282 -0.01644033 0.9997466 -0.01537579 -0.01644027 0.9997466 -0.01537579 -0.01644027 0.9997466 -0.01537585 0 1 0 -0.8120366 4.74043e-7 -0.5836066 -0.8120366 -4.45563e-7 -0.5836066 -0.8120366 0 -0.5836066 -0.4727028 0 0.8812219 -0.4727029 4.32545e-7 0.881222 -0.4727028 3.26734e-7 0.8812219 0.4727163 0 -0.8812147 0.4727163 3.78417e-7 -0.8812147 0.4727163 3.30008e-7 -0.8812147 -0.812016 0 0.5836353 -0.812016 -8.67934e-7 0.5836353 -0.812016 -3.623e-7 0.5836353 0 0 -1 0.4727103 0 0.8812179 0.4727103 0 0.881218 0.4727103 0 0.8812179 0.8120366 0 -0.5836067 0.8120365 -9.52918e-7 -0.5836066 0.8120366 -3.35671e-7 -0.5836067 -0.4727202 0 -0.8812127 -0.4727201 0 -0.8812127 -0.4727202 0 -0.8812127 -1 0 0 0.8120118 4.7381e-7 0.5836412 0.8120118 -3.94967e-7 0.5836412 0.8120117 0 0.5836412 -0.5928254 0.07802867 -0.8015421 -0.5928264 0.07802951 -0.8015413 -0.5928272 0.07803016 -0.8015406 -0.3639957 0.474354 -0.8015582 -0.3640122 0.4743554 -0.8015499 -0.3640121 0.4743553 -0.8015498 0.7933444 0.6086991 0.009496331 0.7933407 0.6086988 0.009819269 0.7933409 0.6086984 0.009824872 0.9238517 0.3826398 0.00921452 0.9238462 0.3826398 0.009752511 0.9238461 0.3826397 0.009755611 -0.9238696 0.3825883 0.009555459 -0.9238701 0.382587 0.009561717 -0.9238705 0.3825863 0.009560108 -0.7933436 0.6086935 0.009907782 -0.7933384 0.6086902 0.01051962 -0.7933446 0.608692 0.009925186 -0.6087641 0.7932909 0.009785056 -0.6087496 0.7932842 0.01113486 -0.6087658 0.7932895 0.009796023 -0.3826937 0.9238233 0.009801268 -0.3826938 0.9238234 0.009792923 -0.3826934 0.9238234 0.009801864 0.1305236 0.9913961 0.009870707 0.1305232 0.9913962 0.009871184 0.1305237 0.9913961 0.009871959 -0.1305135 0.9913983 0.009783565 -0.1305141 0.9913982 0.009779751 -0.1305142 0.9913983 0.009776413 0.3826952 0.9238226 0.009809434 0.3826948 0.9238228 0.009806871 0.3826956 0.9238225 0.009810149 0.6087448 0.7932953 0.0105974 0.6087558 0.7932967 0.009830951 0.6087542 0.793298 0.009831011 0.1884337 -0.2589393 0.9473348 0.1884348 -0.2589394 0.9473345 0.1884299 -0.258939 0.9473357 0.536624 -0.2589476 0.803107 0.5366237 -0.2589476 0.8031073 0.5366223 -0.2589473 0.8031083 0.8031208 -0.2589265 0.5366136 0.8031207 -0.2589265 0.5366138 0.80312 -0.2589263 0.5366149 0.9473389 -0.2589234 0.1884353 0.9473389 -0.2589234 0.1884348 0.9473394 -0.2589235 0.1884322 0.9473388 -0.2589234 -0.1884354 0.9473387 -0.2589233 -0.1884362 0.9473397 -0.2589237 -0.1884311 0.8031173 -0.258932 -0.5366162 0.8031165 -0.2589317 -0.5366176 0.8031177 -0.2589321 -0.5366156 0.5366181 -0.2589504 -0.8031102 0.5366234 -0.2589516 -0.8031061 0.5366199 -0.2589508 -0.8031088 0.1884358 -0.2589301 -0.9473369 0.1884357 -0.2589301 -0.9473369 0.1884301 -0.2589296 -0.9473382 -0.1884422 -0.2589305 -0.9473355 -0.188442 -0.2589305 -0.9473356 -0.1884385 -0.2589302 -0.9473363 -0.5366206 -0.2589527 -0.8031076 -0.5366203 -0.2589527 -0.8031079 -0.5366188 -0.2589524 -0.8031089 -0.80311 -0.2589517 -0.5366176 -0.8031115 -0.2589522 -0.5366151 -0.8031109 -0.258952 -0.5366162 -0.9473398 -0.2589238 -0.1884304 -0.9473394 -0.2589237 -0.1884317 -0.9473392 -0.2589236 -0.1884334 -0.9473389 -0.2589231 0.1884355 -0.947339 -0.2589231 0.1884348 -0.9473399 -0.2589235 0.1884298 -0.8031129 -0.2589461 0.536616 -0.8031132 -0.2589462 0.5366154 -0.8031155 -0.258947 0.5366117 -0.08507508 -0.8999314 0.4276515 -0.08505713 -0.8999312 0.4276555 -0.08506333 -0.8999313 0.4276542 -0.5366188 -0.2589482 0.8031104 -0.5366241 -0.2589493 0.8031065 -0.5366204 -0.2589486 0.8031091 -0.1884373 -0.2589395 0.9473341 -0.1884374 -0.2589395 0.9473341 -0.1884317 -0.258939 0.9473353 0 0.05204617 -0.9986448 0 0.05204617 -0.9986448 -1.57277e-7 0.05204617 -0.9986448 -1 0 0 0 -1 2.22895e-7 1 0 0 0.9238891 -0.3826605 4.13394e-6 0.9238891 -0.3826605 9.10843e-6 0.9238891 -0.3826605 4.58583e-6 -0.3640066 -0.4743564 -0.8015519 -0.3640081 -0.4743564 -0.8015511 -0.3640182 -0.4743573 -0.801546 0.5524206 -0.2288382 -0.8015389 0.5524179 -0.2288376 -0.801541 0.5524208 -0.2288383 -0.8015388 -0.2288232 0.5524048 -0.8015542 -0.2288298 0.552405 -0.801552 -0.2288213 0.5524047 -0.8015547 0.078058 0.5928153 -0.8015466 0.07804566 0.5928152 -0.801548 0.0780394 0.5928151 -0.8015487 -0.4743704 -0.3639861 -0.8015528 -0.4743664 -0.3639855 -0.8015555 -0.4743752 -0.3639867 -0.8015496 0.4743778 -0.3639763 -0.8015528 0.4743818 -0.3639769 -0.8015503 0.4743789 -0.3639765 -0.8015521 -0.07805532 0.5927779 -0.8015747 -0.0780546 0.5927779 -0.8015747 -0.07805335 0.5927779 -0.8015748 0.2288327 0.5524047 -0.8015514 0.2288172 0.5524041 -0.8015564 0.2288287 0.5524045 -0.8015527 -0.5524239 -0.2288252 -0.8015404 -0.5524214 -0.2288246 -0.8015423 -0.5524218 -0.2288246 -0.801542 0.3640047 -0.4743637 -0.8015484 0.3640011 -0.4743635 -0.8015502 0.3640004 -0.4743633 -0.8015506 0.3640117 0.4743545 -0.8015507 0.3640084 0.4743542 -0.8015523 0.3640031 0.4743537 -0.8015549 -0.5928289 -0.07802909 -0.8015394 -0.5928285 -0.07802873 -0.8015398 -0.5928277 -0.07802808 -0.8015403 0.2288388 -0.5523947 -0.8015566 0.228833 -0.5523943 -0.8015584 0.2288305 -0.5523943 -0.8015592 0.4743775 0.3639912 -0.8015465 0.4743719 0.3639904 -0.80155 0.4743726 0.3639904 -0.8015496 0.07803511 -0.5927875 -0.8015695 0.07805019 -0.5927878 -0.8015679 0.07803195 -0.5927875 -0.8015697 0.5524237 0.2288251 -0.8015404 0.5524214 0.2288244 -0.8015422 0.5524215 0.2288245 -0.8015422 -0.5524164 0.2288244 -0.8015457 -0.5524144 0.228824 -0.8015473 -0.5524165 0.2288245 -0.8015457 -0.07804954 -0.5928146 -0.801548 -0.07804566 -0.5928146 -0.8015484 -0.07805007 -0.5928146 -0.801548 0.5928288 0.07803034 -0.8015393 0.5928289 0.0780304 -0.8015393 0.5928273 0.07802915 -0.8015406 0.5928311 0.07803207 -0.8015375 0.5928301 0.07803124 -0.8015383 0.5928303 0.07803142 -0.8015381 -0.4743845 0.3639885 -0.8015434 -0.4743707 0.3639866 -0.8015524 -0.4743745 0.363987 -0.8015499 -0.2288322 -0.5524075 -0.8015496 -0.2288191 -0.5524069 -0.8015539 -0.228822 -0.552407 -0.8015528 0.5928285 -0.07802551 -0.8015401 0.5928282 -0.07802528 -0.8015403 0.5928294 -0.07802629 -0.8015393 0 0 1 3.54497e-7 0 1 -2.41822e-7 0 1 1.77244e-7 0 1 -3.54496e-7 0 1 -3.5449e-7 0 1 -3.5449e-7 0 1 0 0 1 -0.3826955 0.9238745 -6.44212e-6 -0.3826955 0.9238745 -5.77803e-6 -0.3826956 0.9238745 -7.41705e-6 0.1305244 0.9914452 2.97677e-6 0.1305244 0.9914452 -2.50664e-7 0.1305244 0.9914452 2.02097e-7 -0.793381 -0.6087255 -8.24098e-6 -0.793381 -0.6087254 -1.66396e-6 -0.793381 -0.6087254 0 0.7933799 -0.608727 7.90625e-6 0.7933798 -0.608727 8.20528e-6 0.7933798 -0.608727 3.99724e-6 -0.1305298 0.9914444 1.64708e-6 -0.1305298 0.9914444 -2.02618e-6 -0.1305298 0.9914444 -2.21655e-7 0.3827 0.9238727 4.34028e-6 0.3827 0.9238728 -1.16429e-6 0.3827 0.9238727 0 -0.9238887 -0.3826612 -9.10635e-6 -0.9238888 -0.3826613 -4.66449e-6 -0.9238888 -0.3826613 -2.6226e-6 0.6087868 -0.793334 1.21809e-5 0.6087868 -0.793334 6.90291e-6 0.6087868 -0.793334 -5.39795e-6 0.6087867 0.793334 9.31128e-6 0.6087867 0.793334 -4.06746e-7 0.6087867 0.793334 1.52364e-6 -0.9914487 -0.1304979 -1.1955e-5 -0.9914487 -0.1304979 -1.0414e-5 -0.9914487 -0.1304979 -7.33603e-6 0.3826979 -0.9238736 1.05597e-5 0.3826979 -0.9238736 4.35501e-6 0.382698 -0.9238736 7.96467e-6 0.7933794 0.6087276 -1.71343e-6 0.7933794 0.6087276 1.70193e-6 0.7933794 0.6087276 4.07174e-6 -0.9914423 0.1305455 -8.9209e-6 -0.9914423 0.1305455 -1.19502e-5 -0.9914424 0.1305455 -8.22078e-6 0.1305292 -0.9914445 2.06459e-6 0.1305292 -0.9914445 2.07625e-6 0.1305292 -0.9914445 -4.23752e-7 0.9238889 0.382661 1.98525e-6 0.9238889 0.382661 4.70836e-6 0.9238889 0.382661 6.7614e-6 -0.9238896 0.3826592 -4.19341e-6 -0.9238896 0.3826592 -9.24877e-6 -0.9238896 0.3826592 -1.99303e-6 -0.1305247 -0.9914451 -1.50452e-6 -0.1305247 -0.9914451 7.58517e-7 -0.1305247 -0.9914451 3.72157e-6 0.9914487 0.1304978 1.03735e-5 0.9914487 0.1304978 7.99247e-6 0.9914487 0.1304978 8.79262e-6 -0.7933794 0.6087276 -4.30849e-6 -0.7933794 0.6087276 -1.03456e-5 -0.7933794 0.6087275 -5.83008e-6 -0.3826997 -0.9238729 -4.43446e-6 -0.3826997 -0.9238729 1.35755e-6 -0.3826997 -0.9238729 -7.06315e-6 0.9914487 -0.1304976 1.16201e-5 0.9914487 -0.1304976 9.53446e-6 0.9914487 -0.1304977 6.6869e-6 -0.608787 0.7933338 -1.62369e-5 -0.608787 0.7933338 -6.79612e-6 -0.608787 0.7933338 -6.74278e-6 -0.6087841 -0.793336 -6.70581e-6 -0.6087841 -0.793336 5.18941e-7 -0.6087841 -0.793336 -1.20401e-5 0.4276543 -0.899931 0.08506423 0.4276536 -0.899931 0.08506762 0.4276556 -0.8999312 0.08505678 -0.08507025 -0.8999379 -0.4276385 -0.08505469 -0.8999379 -0.427642 -0.08505296 -0.8999379 -0.4276424 -0.3625191 -0.8999466 0.2422317 -0.3625268 -0.8999469 0.242219 -0.3625231 -0.8999466 0.242225 0.2422423 -0.8999454 0.3625147 0.2422359 -0.8999452 0.3625195 0.242239 -0.8999454 0.3625172 0.2422503 -0.8999281 -0.3625524 0.2422432 -0.8999279 -0.3625575 0.2422497 -0.8999281 -0.3625528 -0.4276572 -0.8999294 -0.08506697 -0.4276592 -0.8999295 -0.08505588 -0.4276583 -0.8999295 -0.08506083 0.4276624 -0.8999261 -0.08507639 0.4276633 -0.8999261 -0.08507174 0.4276638 -0.8999262 -0.08506911 -0.2422602 -0.8999292 -0.3625434 -0.2422536 -0.8999289 -0.3625482 -0.2422564 -0.899929 -0.3625461 -0.242227 -0.899947 0.3625213 -0.242219 -0.8999467 0.3625271 -0.242226 -0.899947 0.362522 0.3625378 -0.899941 0.2422245 0.362539 -0.8999411 0.2422224 0.3625348 -0.8999409 0.2422295 0.08507126 -0.8999362 -0.427642 0.08505421 -0.899936 -0.4276458 0.08505982 -0.8999361 -0.4276446 0.08507198 -0.8999339 0.4276468 0.08505648 -0.8999338 0.4276502 0.08505487 -0.8999337 0.4276505 -0.4276197 -0.8999472 0.08506858 -0.4276204 -0.8999472 0.08506399 -0.427621 -0.8999473 0.08506149 0.3625312 -0.8999443 -0.2422221 0.3625299 -0.8999442 -0.2422242 0.3625265 -0.8999441 -0.2422297 -0.362529 -0.8999415 -0.2422359 -0.3625326 -0.8999416 -0.2422299 -0.3625367 -0.8999418 -0.2422231 0 -1 -5.51124e-6 0 -1 -1.37792e-6 0 -1 4.83847e-7 0 -1 -2.7557e-6 0 -1 4.54104e-7 0 -1 -2.27053e-7 0.3826887 -4.77617e-5 0.9238774 0.3826887 -4.79753e-5 0.9238774 0.3826888 -4.88581e-5 0.9238774 0.9238639 -0.006101131 0.3826725 0.9238639 -0.006101191 0.3826725 0.9238639 -0.006101667 0.3826724 -0.440046 0.008424818 0.8979358 -0.440046 0.008424639 0.8979358 -0.440046 0.008424341 0.8979358 -0.8603996 0.0109207 0.509503 -0.8603996 0.010921 0.5095029 -0.8603996 0.01092076 0.509503 -0.3822411 0.04809045 -0.9228104 -0.3822408 0.04809027 -0.9228106 -0.3822412 0.04809057 -0.9228104 -0.9234343 0.03090345 -0.3825103 -0.9234343 0.03090363 -0.3825101 -0.9234342 0.03090322 -0.3825105 0.4386738 0.055076 -0.896957 0.4386722 0.05507463 -0.8969579 0.438674 0.05507618 -0.896957 0.8603755 0.01843541 -0.5093272 0.8603758 0.01843696 -0.5093266 0.8603758 0.01843684 -0.5093268 0.3500881 0.5783182 0.7368761 0.3500927 0.5783184 0.7368738 0.3500842 0.5783181 0.7368781 0.6905598 0.5945195 0.411915 0.6905613 0.5945196 0.4119122 0.6905613 0.5945197 0.411912 -0.3516361 0.6000788 0.7185108 -0.3516203 0.6000775 0.7185194 -0.3516209 0.6000777 0.718519 -0.7143098 0.5662884 0.4111924 -0.7143146 0.566289 0.4111831 -0.7143144 0.5662889 0.4111836 -0.3500946 0.5783178 -0.7368734 -0.3500832 0.5783169 -0.7368795 -0.3500756 0.5783166 -0.7368833 -0.6905506 0.5945291 -0.4119164 -0.6905525 0.5945293 -0.4119129 -0.6905531 0.5945294 -0.4119119 0.35163 0.6000918 -0.7185028 0.3516144 0.6000908 -0.7185113 0.3516156 0.6000909 -0.7185106 0.7143145 0.566282 -0.4111929 0.7143188 0.5662826 -0.4111846 0.7143194 0.5662826 -0.4111836 7.63778e-6 0.5998088 0.8001434 -4.51899e-6 0.5998089 0.8001433 -8.8755e-6 0.5998089 0.8001434 0.8098416 0.5866487 -5.16698e-6 0.8098415 0.5866488 -7.23739e-6 0.8098415 0.5866488 1.10082e-6 -7.65035e-6 0.5998058 -0.8001456 4.46319e-6 0.599806 -0.8001456 8.93511e-6 0.5998059 -0.8001456 -0.809841 0.5866496 4.3558e-6 -0.809841 0.5866495 5.20416e-6 -0.809841 0.5866495 -1.20327e-6 -0.6348156 0.7726637 7.31461e-6 -0.6348156 0.7726637 -3.83082e-6 -0.6348156 0.7726637 -2.17929e-6 -1.348e-5 0.7660663 -0.6427615 3.99472e-6 0.7660664 -0.6427615 5.46128e-6 0.7660664 -0.6427615 0.6348114 0.7726673 -5.26756e-6 0.6348113 0.7726672 8.45623e-6 0.6348114 0.7726672 2.39164e-6 1.34241e-5 0.766063 0.6427657 -3.87363e-6 0.766063 0.6427656 -5.62519e-6 0.7660629 0.6427656 0.550449 0.7685803 -0.3260223 0.5504593 0.7685809 -0.326003 0.550451 0.7685803 -0.3260186 0.2718546 0.7825962 -0.5600343 0.2718492 0.7825959 -0.5600373 0.2718561 0.7825962 -0.5600336 -0.5167282 0.7899977 -0.3299935 -0.5167331 0.7899981 -0.3299849 -0.516723 0.7899975 -0.3300023 -0.2955519 0.7648576 -0.5724003 -0.2955462 0.7648574 -0.5724034 -0.2955352 0.7648571 -0.5724096 -0.5504621 0.7685691 0.3260263 -0.5504714 0.7685698 0.3260091 -0.5504648 0.7685692 0.3260213 -0.2718388 0.7825971 0.5600405 -0.271851 0.7825976 0.5600339 -0.2718576 0.7825978 0.5600305 0.5167253 0.7899991 0.3299949 0.5167301 0.7899996 0.329986 0.5167201 0.789999 0.3300032 0.2955417 0.7648527 0.5724122 0.2955399 0.7648525 0.5724132 0.295545 0.7648528 0.5724101 0.009443879 0.9999539 -0.001718401 0.009443879 0.9999539 -0.001718401 0.009443879 0.9999539 -0.001718461 -0.01644146 0.9997466 0.01537638 -0.01644122 0.9997466 0.01537662 -0.01644128 0.9997466 0.01537662 -0.01279544 0.9998466 -0.01196539 -0.0127955 0.9998466 -0.01196533 -0.01279532 0.9998466 -0.01196557 0.002303719 0.9999411 0.01061707 0.002303659 0.9999411 0.01061707 0.002303898 0.999941 0.01061701 -0.009443938 0.9999539 0.001718401 -0.009443938 0.9999539 0.001718401 -0.009443938 0.9999539 0.001718401 0.01643836 0.9997467 -0.01537394 0.01643824 0.9997467 -0.01537406 0.01643794 0.9997467 -0.01537448 0.01279628 0.9998466 0.01196885 0.0127967 0.9998466 0.01196837 0.01279687 0.9998466 0.01196819 -0.002303719 0.999941 -0.01061588 -0.002303659 0.999941 -0.01061588 -0.0023036 0.9999411 -0.01061588 -0.0877391 0.990442 -0.1064259 -0.08773791 0.990442 -0.1064271 -0.08773559 0.990442 -0.1064295 -0.08772605 0.9904443 0.1064162 -0.08772414 0.9904443 0.1064175 -0.08772337 0.9904443 0.106418 0.08773225 0.9904443 0.1064103 0.08773064 0.9904443 0.1064119 0.08772927 0.9904443 0.1064133 0.08774161 0.9904412 -0.1064314 0.08774262 0.9904413 -0.1064301 0.08774518 0.9904413 -0.1064276 -0.8120366 3.88931e-7 -0.5836067 -0.8120366 -7.64558e-7 -0.5836067 -0.8120365 1.40956e-6 -0.5836067 -0.4727069 -3.60593e-7 0.8812198 -0.4727069 4.14962e-7 0.8812198 -0.4727068 -4.11877e-7 0.8812198 0.4727236 -3.76603e-7 -0.8812109 0.4727236 4.1601e-7 -0.8812109 0.4727236 -4.09316e-7 -0.8812109 -0.8120169 0 0.5836341 -0.8120169 2.49833e-7 0.583634 -0.8120169 8.42381e-7 0.583634 0.4727029 3.52957e-7 0.881222 0.4727029 0 0.881222 0.4727029 -8.1351e-7 0.881222 0.8120314 0 -0.5836138 0.8120314 2.55159e-7 -0.5836138 0.8120315 7.87666e-7 -0.5836138 -0.4727163 3.33035e-7 -0.8812147 -0.4727163 0 -0.8812147 -0.4727163 -8.4308e-7 -0.8812147 0.812016 5.43385e-7 0.5836353 0.812016 -7.87724e-7 0.5836353 0.812016 -5.23869e-7 0.5836352 -0.5928264 0.07802891 -0.8015413 -0.5928274 0.07802975 -0.8015404 -0.5928264 0.07802891 -0.8015413 -0.5928285 0.07803475 -0.8015391 -0.5928266 0.07803314 -0.8015407 -0.5928278 0.07803416 -0.8015398</float_array>
          <technique_common>
            <accessor source="#Cylinder-mesh-normals-array" count="883" stride="3">
              <param name="X" type="float"/>
              <param name="Y" type="float"/>
              <param name="Z" type="float"/>
            </accessor>
          </technique_common>
        </source>
        <source id="Cylinder-mesh-map-0">
          <float_array id="Cylinder-mesh-map-0-array" count="2160">0.790127 0.430765 0.7944 0.427901 0.793724 0.431466 0.815788 0.42875 0.811719 0.430043 0.815789 0.428675 0.782324 0.42803 0.780982 0.427318 0.782325 0.428015 0.82014 0.42674 0.815789 0.428675 0.82014 0.426708 0.782324 0.42803 0.786355 0.429645 0.786351 0.429705 0.823219 0.42488 0.82014 0.42674 0.82014 0.426708 0.786351 0.429705 0.790127 0.430765 0.790121 0.430864 0.790121 0.430864 0.793724 0.431466 0.793716 0.431596 0.793716 0.431596 0.797223 0.43181 0.797216 0.43196 0.804224 0.4317 0.8007 0.43183 0.804229 0.431545 0.797216 0.43196 0.8007 0.43183 0.800694 0.431988 0.807876 0.431102 0.804229 0.431545 0.807879 0.430963 0.811717 0.430155 0.807879 0.430963 0.811719 0.430043 0.615769 0.522591 0.598853 0.532521 0.598779 0.520902 0.598779 0.520902 0.584487 0.533663 0.582151 0.522665 0.584487 0.533663 0.566306 0.527825 0.582151 0.522665 0.570933 0.538306 0.551796 0.536398 0.566306 0.527825 0.551796 0.536398 0.548648 0.555375 0.539723 0.548161 0.539723 0.548161 0.540678 0.567303 0.53056 0.562103 0.540678 0.567303 0.524281 0.577915 0.53056 0.562103 0.53563 0.581004 0.52167 0.595243 0.524281 0.577915 0.52167 0.595243 0.534922 0.61024 0.523257 0.61271 0.523257 0.61271 0.539235 0.624518 0.528552 0.629237 0.539235 0.624518 0.537204 0.644286 0.528552 0.629237 0.54689 0.637319 0.54906 0.657238 0.537204 0.644286 0.54906 0.657238 0.569085 0.656367 0.563647 0.66702 0.563647 0.66702 0.582974 0.661921 0.579828 0.673377 0.614307 0.662578 0.598301 0.65414 0.611464 0.652758 0.582974 0.661921 0.59734 0.676436 0.579828 0.673377 0.59813 0.664058 0.615769 0.675677 0.59734 0.676436 0.220611 0.553146 0.06266307 0.52961 0.217694 0.520648 0.282661 0.41461 0.262802 0.446998 0.260667 0.445558 0.06697291 0.441202 0.217728 0.487861 0.06342667 0.482516 0.550646 0.771914 0.52167 0.742937 0.616552 0.706008 0.227622 0.585994 0.08326637 0.657423 0.07400387 0.616847 0.828219 0.409488 0.814576 0.410141 0.814903 0.406006 0.759583 0.405247 0.771062 0.408018 0.764432 0.412398 0.835518 0.414507 0.824816 0.415115 0.828219 0.409488 0.793724 0.431466 0.797485 0.42829 0.797223 0.43181 0.8007 0.43183 0.80374 0.427881 0.804229 0.431545 0.764432 0.412398 0.774328 0.41363 0.769129 0.417981 0.841569 0.406645 0.828219 0.409488 0.831276 0.401708 0.797223 0.43181 0.800578 0.428277 0.8007 0.43183 0.804229 0.431545 0.807005 0.427141 0.807879 0.430963 0.769129 0.417981 0.777779 0.417964 0.773656 0.422304 0.847878 0.395228 0.831276 0.401708 0.833185 0.391021 0.807879 0.430963 0.810402 0.426054 0.811719 0.430043 0.773656 0.422304 0.781332 0.421304 0.777995 0.425709 0.854286 0.377893 0.833185 0.391021 0.832263 0.376191 0.811719 0.430043 0.813884 0.424484 0.815789 0.428675 0.853701 0.353723 0.832263 0.376191 0.825926 0.354245 0.815789 0.428675 0.817438 0.422277 0.82014 0.426708 0.782325 0.428015 0.78808 0.425782 0.786355 0.429645 0.748845 0.388896 0.765569 0.391026 0.754528 0.396728 0.821027 0.41927 0.823219 0.42488 0.817438 0.422277 0.786355 0.429645 0.791278 0.427086 0.790127 0.430765 0.754528 0.396728 0.768064 0.40064 0.759583 0.405247 0.829823 0.419886 0.821027 0.41927 0.824816 0.415115 0.784428 0.400259 0.812388 0.394633 0.804395 0.420412 0.7944 0.427901 0.797797 0.422566 0.797485 0.42829 0.800578 0.428277 0.80217 0.42182 0.80374 0.427881 0.774328 0.41363 0.783856 0.405055 0.784496 0.409248 0.831276 0.401708 0.814903 0.406006 0.814498 0.400514 0.797485 0.42829 0.799954 0.422494 0.800578 0.428277 0.80374 0.427881 0.804395 0.420412 0.807005 0.427141 0.777779 0.417964 0.784496 0.409248 0.786036 0.412716 0.833185 0.391021 0.814498 0.400514 0.812388 0.394633 0.807005 0.427141 0.807175 0.419667 0.810402 0.426054 0.781332 0.421304 0.786036 0.412716 0.788278 0.415576 0.832263 0.376191 0.812388 0.394633 0.806143 0.39219 0.810402 0.426054 0.809595 0.418346 0.813884 0.424484 0.781332 0.421304 0.789789 0.418054 0.784763 0.4239 0.825926 0.354245 0.806143 0.39219 0.797813 0.392301 0.813884 0.424484 0.811676 0.416361 0.817438 0.422277 0.784763 0.4239 0.791756 0.419895 0.78808 0.425782 0.765569 0.391026 0.797813 0.392301 0.78906 0.396376 0.817438 0.422277 0.813292 0.41366 0.821027 0.41927 0.78808 0.425782 0.793619 0.421297 0.791278 0.427086 0.768064 0.40064 0.78906 0.396376 0.784428 0.400259 0.824816 0.415115 0.813292 0.41366 0.814576 0.410141 0.791278 0.427086 0.795688 0.422111 0.7944 0.427901 0.771062 0.408018 0.784428 0.400259 0.783856 0.405055 0.558945 0.545738 0.574692 0.546545 0.56426 0.552685 0.53388 0.595577 0.544185 0.608398 0.534922 0.61024 0.569085 0.656367 0.585369 0.652566 0.582974 0.661921 0.598853 0.532521 0.586398 0.542832 0.584487 0.533663 0.53563 0.581004 0.54899 0.571429 0.544906 0.583294 0.557046 0.647942 0.554484 0.631712 0.562987 0.641031 0.558945 0.545738 0.555607 0.56114 0.548648 0.555375 0.534922 0.61024 0.548176 0.620568 0.539235 0.624518 0.59813 0.664058 0.585369 0.652566 0.598301 0.65414 0.570933 0.538306 0.586398 0.542832 0.574692 0.546545 0.53388 0.595577 0.544906 0.583294 0.54302 0.59583 0.613726 0.534643 0.598605 0.541573 0.598853 0.532521 0.557046 0.647942 0.573465 0.648035 0.569085 0.656367 0.548648 0.555375 0.54899 0.571429 0.540678 0.567303 0.54689 0.637319 0.548176 0.620568 0.554484 0.631712 0.640781 0.520902 0.664108 0.525541 0.672681 0.568644 0.263925 0.650779 0.09000438 0.680786 0.248793 0.631341 0.09000438 0.680786 0.239377 0.614655 0.248793 0.631341 0.234384 0.425821 0.070369 0.417516 0.0745179 0.394074 0.070369 0.417516 0.222786 0.459447 0.06697291 0.441202 0.217694 0.520648 0.06230556 0.506202 0.216939 0.503816 0.216939 0.503816 0.06342667 0.482516 0.217728 0.487861 0.220611 0.553146 0.0693258 0.593518 0.06613427 0.570282 0.223389 0.570234 0.07400387 0.616847 0.0693258 0.593518 0.234384 0.425821 0.08206456 0.353689 0.257734 0.390528 0.270008 0.642986 0.248793 0.631341 0.254723 0.627005 0.246095 0.612014 0.248793 0.631341 0.239377 0.614655 0.240751 0.430031 0.227127 0.4437 0.234384 0.425821 0.22909 0.460315 0.227127 0.4437 0.232922 0.445885 0.224094 0.519527 0.216939 0.503816 0.222753 0.503748 0.224031 0.489108 0.216939 0.503816 0.217728 0.487861 0.227321 0.552956 0.223389 0.570234 0.220611 0.553146 0.233621 0.583323 0.223389 0.570234 0.229228 0.569106 0.240751 0.430031 0.257734 0.390528 0.264834 0.396062 0.246095 0.612014 0.227622 0.585994 0.233621 0.583323 0.227321 0.552956 0.217694 0.520648 0.224094 0.519527 0.224031 0.489108 0.222786 0.459447 0.22909 0.460315 0.232947 0.490939 0.22909 0.460315 0.237985 0.461718 0.2363719 0.552552 0.224094 0.519527 0.232809 0.518242 0.255237 0.60804 0.233621 0.583323 0.242047 0.579556 0.249062 0.435625 0.264834 0.396062 0.272856 0.404369 0.242047 0.579556 0.229228 0.569106 0.237796 0.567315 0.237796 0.567315 0.227321 0.552956 0.2363719 0.552552 0.232947 0.490939 0.222753 0.503748 0.224031 0.489108 0.231365 0.503867 0.224094 0.519527 0.222753 0.503748 0.237985 0.461718 0.232922 0.445885 0.241307 0.449151 0.241307 0.449151 0.240751 0.430031 0.249062 0.435625 0.255237 0.60804 0.254723 0.627005 0.246095 0.612014 0.262908 0.620623 0.270008 0.642986 0.254723 0.627005 0.28299 0.617362 0.262908 0.620623 0.274772 0.610207 0.269982 0.602744 0.262908 0.620623 0.255237 0.60804 0.260667 0.445558 0.241307 0.449151 0.249062 0.435625 0.252051 0.463237 0.241307 0.449151 0.254642 0.454954 0.2467319 0.515429 0.231365 0.503867 0.245864 0.504393 0.247327 0.495913 0.231365 0.503867 0.232947 0.490939 0.251289 0.553366 0.237796 0.567315 0.2363719 0.552552 0.254827 0.57259 0.237796 0.567315 0.252012 0.56432 0.260667 0.445558 0.272856 0.404369 0.282661 0.41461 0.269982 0.602744 0.242047 0.579556 0.254827 0.57259 0.251289 0.553366 0.232809 0.518242 0.2467319 0.515429 0.247327 0.495913 0.237985 0.461718 0.252051 0.463237 0.657268 0.62152 0.624946 0.631928 0.616365 0.62152 0.247327 0.495913 0.2482579 0.504494 0.245864 0.504393 0.260667 0.445558 0.256816 0.455949 0.254642 0.454954 0.254827 0.57259 0.272224 0.601463 0.269982 0.602744 0.251289 0.553366 0.254352 0.563826 0.252012 0.56432 0.252051 0.463237 0.256816 0.455949 0.254635 0.463828 0.2467319 0.515429 0.253745 0.553144 0.251289 0.553366 0.28299 0.617362 0.276647 0.608588 0.28471 0.61546 0.254827 0.57259 0.254352 0.563826 0.25731 0.571553 0.2467319 0.515429 0.2482579 0.504494 0.2492949 0.515177 0.252051 0.463237 0.249809 0.496311 0.247327 0.495913 0.269982 0.602744 0.276647 0.608588 0.274772 0.610207 0.780982 0.427318 0.781332 0.421304 0.784763 0.4239 0.790127 0.430765 0.791278 0.427086 0.7944 0.427901 0.815788 0.42875 0.811717 0.430155 0.811719 0.430043 0.82014 0.42674 0.815788 0.42875 0.815789 0.428675 0.782324 0.42803 0.782325 0.428015 0.786355 0.429645 0.786351 0.429705 0.786355 0.429645 0.790127 0.430765 0.790121 0.430864 0.790127 0.430765 0.793724 0.431466 0.793716 0.431596 0.793724 0.431466 0.797223 0.43181 0.804224 0.4317 0.800694 0.431988 0.8007 0.43183 0.797216 0.43196 0.797223 0.43181 0.8007 0.43183 0.807876 0.431102 0.804224 0.4317 0.804229 0.431545 0.811717 0.430155 0.807876 0.431102 0.807879 0.430963 0.615769 0.522591 0.613726 0.534643 0.598853 0.532521 0.598779 0.520902 0.598853 0.532521 0.584487 0.533663 0.584487 0.533663 0.570933 0.538306 0.566306 0.527825 0.570933 0.538306 0.558945 0.545738 0.551796 0.536398 0.551796 0.536398 0.558945 0.545738 0.548648 0.555375 0.539723 0.548161 0.548648 0.555375 0.540678 0.567303 0.540678 0.567303 0.53563 0.581004 0.524281 0.577915 0.53563 0.581004 0.53388 0.595577 0.52167 0.595243 0.52167 0.595243 0.53388 0.595577 0.534922 0.61024 0.523257 0.61271 0.534922 0.61024 0.539235 0.624518 0.539235 0.624518 0.54689 0.637319 0.537204 0.644286 0.54689 0.637319 0.557046 0.647942 0.54906 0.657238 0.54906 0.657238 0.557046 0.647942 0.569085 0.656367 0.563647 0.66702 0.569085 0.656367 0.582974 0.661921 0.614307 0.662578 0.59813 0.664058 0.598301 0.65414 0.582974 0.661921 0.59813 0.664058 0.59734 0.676436 0.59813 0.664058 0.614307 0.662578 0.615769 0.675677 0.220611 0.553146 0.06613427 0.570282 0.06266307 0.52961 0.282661 0.41461 0.28471 0.416061 0.262802 0.446998 0.06697291 0.441202 0.222786 0.459447 0.217728 0.487861 0.616552 0.706008 0.616552 0.742937 0.587575 0.771914 0.616552 0.742937 0.608065 0.763427 0.587575 0.771914 0.587575 0.771914 0.550646 0.771914 0.616552 0.706008 0.550646 0.771914 0.530157 0.763427 0.52167 0.742937 0.52167 0.742937 0.52167 0.706008 0.616552 0.706008 0.52167 0.706008 0.530157 0.685519 0.550646 0.677032 0.616552 0.706008 0.52167 0.706008 0.587575 0.677032 0.550646 0.677032 0.587575 0.677032 0.52167 0.706008 0.587575 0.677032 0.608065 0.685519 0.616552 0.706008 0.227622 0.585994 0.239377 0.614655 0.08326637 0.657423 0.828219 0.409488 0.824816 0.415115 0.814576 0.410141 0.759583 0.405247 0.768064 0.40064 0.771062 0.408018 0.835518 0.414507 0.829823 0.419886 0.824816 0.415115 0.793724 0.431466 0.7944 0.427901 0.797485 0.42829 0.8007 0.43183 0.800578 0.428277 0.80374 0.427881 0.764432 0.412398 0.771062 0.408018 0.774328 0.41363 0.841569 0.406645 0.835518 0.414507 0.828219 0.409488 0.797223 0.43181 0.797485 0.42829 0.800578 0.428277 0.804229 0.431545 0.80374 0.427881 0.807005 0.427141 0.769129 0.417981 0.774328 0.41363 0.777779 0.417964 0.847878 0.395228 0.841569 0.406645 0.831276 0.401708 0.807879 0.430963 0.807005 0.427141 0.810402 0.426054 0.773656 0.422304 0.777779 0.417964 0.781332 0.421304 0.854286 0.377893 0.847878 0.395228 0.833185 0.391021 0.811719 0.430043 0.810402 0.426054 0.813884 0.424484 0.853701 0.353723 0.854286 0.377893 0.832263 0.376191 0.815789 0.428675 0.813884 0.424484 0.817438 0.422277 0.782325 0.428015 0.784763 0.4239 0.78808 0.425782 0.748845 0.388896 0.762432 0.376922 0.765569 0.391026 0.824806 0.423906 0.823219 0.42488 0.821027 0.41927 0.823219 0.42488 0.82014 0.426708 0.817438 0.422277 0.786355 0.429645 0.78808 0.425782 0.791278 0.427086 0.754528 0.396728 0.765569 0.391026 0.768064 0.40064 0.829823 0.419886 0.824806 0.423906 0.821027 0.41927 0.804395 0.420412 0.80217 0.42182 0.799954 0.422494 0.799954 0.422494 0.797797 0.422566 0.804395 0.420412 0.797797 0.422566 0.795688 0.422111 0.804395 0.420412 0.795688 0.422111 0.793619 0.421297 0.791756 0.419895 0.791756 0.419895 0.789789 0.418054 0.788278 0.415576 0.788278 0.415576 0.786036 0.412716 0.784428 0.400259 0.786036 0.412716 0.784496 0.409248 0.784428 0.400259 0.784496 0.409248 0.783856 0.405055 0.784428 0.400259 0.784428 0.400259 0.78906 0.396376 0.812388 0.394633 0.78906 0.396376 0.797813 0.392301 0.812388 0.394633 0.797813 0.392301 0.806143 0.39219 0.812388 0.394633 0.812388 0.394633 0.814498 0.400514 0.814903 0.406006 0.814903 0.406006 0.814576 0.410141 0.813292 0.41366 0.813292 0.41366 0.811676 0.416361 0.809595 0.418346 0.809595 0.418346 0.807175 0.419667 0.813292 0.41366 0.807175 0.419667 0.804395 0.420412 0.813292 0.41366 0.795688 0.422111 0.791756 0.419895 0.804395 0.420412 0.791756 0.419895 0.788278 0.415576 0.804395 0.420412 0.812388 0.394633 0.814903 0.406006 0.804395 0.420412 0.814903 0.406006 0.813292 0.41366 0.804395 0.420412 0.788278 0.415576 0.784428 0.400259 0.804395 0.420412 0.7944 0.427901 0.795688 0.422111 0.797797 0.422566 0.800578 0.428277 0.799954 0.422494 0.80217 0.42182 0.774328 0.41363 0.771062 0.408018 0.783856 0.405055 0.831276 0.401708 0.828219 0.409488 0.814903 0.406006 0.797485 0.42829 0.797797 0.422566 0.799954 0.422494 0.80374 0.427881 0.80217 0.42182 0.804395 0.420412 0.777779 0.417964 0.774328 0.41363 0.784496 0.409248 0.833185 0.391021 0.831276 0.401708 0.814498 0.400514 0.807005 0.427141 0.804395 0.420412 0.807175 0.419667 0.781332 0.421304 0.777779 0.417964 0.786036 0.412716 0.832263 0.376191 0.833185 0.391021 0.812388 0.394633 0.810402 0.426054 0.807175 0.419667 0.809595 0.418346 0.781332 0.421304 0.788278 0.415576 0.789789 0.418054 0.825926 0.354245 0.832263 0.376191 0.806143 0.39219 0.813884 0.424484 0.809595 0.418346 0.811676 0.416361 0.784763 0.4239 0.789789 0.418054 0.791756 0.419895 0.765569 0.391026 0.762432 0.376922 0.797813 0.392301 0.817438 0.422277 0.811676 0.416361 0.813292 0.41366 0.78808 0.425782 0.791756 0.419895 0.793619 0.421297 0.768064 0.40064 0.765569 0.391026 0.78906 0.396376 0.824816 0.415115 0.821027 0.41927 0.813292 0.41366 0.791278 0.427086 0.793619 0.421297 0.795688 0.422111 0.771062 0.408018 0.768064 0.40064 0.784428 0.400259 0.558945 0.545738 0.570933 0.538306 0.574692 0.546545 0.53388 0.595577 0.54302 0.59583 0.544185 0.608398 0.569085 0.656367 0.573465 0.648035 0.585369 0.652566 0.598853 0.532521 0.598605 0.541573 0.586398 0.542832 0.53563 0.581004 0.540678 0.567303 0.54899 0.571429 0.557046 0.647942 0.54689 0.637319 0.554484 0.631712 0.558945 0.545738 0.56426 0.552685 0.555607 0.56114 0.534922 0.61024 0.544185 0.608398 0.548176 0.620568 0.59813 0.664058 0.582974 0.661921 0.585369 0.652566 0.570933 0.538306 0.584487 0.533663 0.586398 0.542832 0.53388 0.595577 0.53563 0.581004 0.544906 0.583294 0.613726 0.534643 0.610618 0.543512 0.598605 0.541573 0.557046 0.647942 0.562987 0.641031 0.573465 0.648035 0.548648 0.555375 0.555607 0.56114 0.54899 0.571429 0.54689 0.637319 0.539235 0.624518 0.548176 0.620568 0.672681 0.568644 0.664108 0.577218 0.652906 0.581858 0.652906 0.581858 0.640781 0.581858 0.629579 0.577218 0.629579 0.577218 0.621005 0.568644 0.616365 0.557442 0.616365 0.557442 0.616365 0.545317 0.629579 0.577218 0.616365 0.545317 0.621005 0.534115 0.629579 0.577218 0.621005 0.534115 0.629579 0.525542 0.640781 0.520902 0.640781 0.520902 0.652906 0.520902 0.664108 0.525541 0.664108 0.525541 0.672681 0.534115 0.672681 0.568644 0.672681 0.534115 0.677321 0.545317 0.672681 0.568644 0.677321 0.545317 0.677321 0.557442 0.672681 0.568644 0.672681 0.568644 0.652906 0.581858 0.621005 0.534115 0.652906 0.581858 0.629579 0.577218 0.621005 0.534115 0.621005 0.534115 0.640781 0.520902 0.672681 0.568644 0.263925 0.650779 0.09707146 0.703255 0.09000438 0.680786 0.09000438 0.680786 0.08326637 0.657423 0.239377 0.614655 0.234384 0.425821 0.227127 0.4437 0.070369 0.417516 0.070369 0.417516 0.227127 0.4437 0.222786 0.459447 0.217694 0.520648 0.06266307 0.52961 0.06230556 0.506202 0.216939 0.503816 0.06230556 0.506202 0.06342667 0.482516 0.220611 0.553146 0.223389 0.570234 0.0693258 0.593518 0.223389 0.570234 0.227622 0.585994 0.07400387 0.616847 0.234384 0.425821 0.0745179 0.394074 0.08206456 0.353689 0.270008 0.642986 0.263925 0.650779 0.248793 0.631341 0.246095 0.612014 0.254723 0.627005 0.248793 0.631341 0.240751 0.430031 0.232922 0.445885 0.227127 0.4437 0.22909 0.460315 0.222786 0.459447 0.227127 0.4437 0.224094 0.519527 0.217694 0.520648 0.216939 0.503816 0.224031 0.489108 0.222753 0.503748 0.216939 0.503816 0.227321 0.552956 0.229228 0.569106 0.223389 0.570234 0.233621 0.583323 0.227622 0.585994 0.223389 0.570234 0.240751 0.430031 0.234384 0.425821 0.257734 0.390528 0.246095 0.612014 0.239377 0.614655 0.227622 0.585994 0.227321 0.552956 0.220611 0.553146 0.217694 0.520648 0.224031 0.489108 0.217728 0.487861 0.222786 0.459447 0.232947 0.490939 0.224031 0.489108 0.22909 0.460315 0.2363719 0.552552 0.227321 0.552956 0.224094 0.519527 0.255237 0.60804 0.246095 0.612014 0.233621 0.583323 0.249062 0.435625 0.240751 0.430031 0.264834 0.396062 0.242047 0.579556 0.233621 0.583323 0.229228 0.569106 0.237796 0.567315 0.229228 0.569106 0.227321 0.552956 0.232947 0.490939 0.231365 0.503867 0.222753 0.503748 0.231365 0.503867 0.232809 0.518242 0.224094 0.519527 0.237985 0.461718 0.22909 0.460315 0.232922 0.445885 0.241307 0.449151 0.232922 0.445885 0.240751 0.430031 0.255237 0.60804 0.262908 0.620623 0.254723 0.627005 0.262908 0.620623 0.276789 0.632501 0.270008 0.642986 0.28299 0.617362 0.276789 0.632501 0.262908 0.620623 0.269982 0.602744 0.274772 0.610207 0.262908 0.620623 0.260667 0.445558 0.254642 0.454954 0.241307 0.449151 0.252051 0.463237 0.237985 0.461718 0.241307 0.449151 0.2467319 0.515429 0.232809 0.518242 0.231365 0.503867 0.247327 0.495913 0.245864 0.504393 0.231365 0.503867 0.251289 0.553366 0.252012 0.56432 0.237796 0.567315 0.254827 0.57259 0.242047 0.579556 0.237796 0.567315 0.260667 0.445558 0.249062 0.435625 0.272856 0.404369 0.269982 0.602744 0.255237 0.60804 0.242047 0.579556 0.251289 0.553366 0.2363719 0.552552 0.232809 0.518242 0.247327 0.495913 0.232947 0.490939 0.237985 0.461718 0.657268 0.592861 0.657268 0.62152 0.616365 0.62152 0.657268 0.62152 0.653576 0.628432 0.648687 0.631928 0.624946 0.631928 0.657268 0.62152 0.648687 0.631928 0.624946 0.631928 0.620056 0.628432 0.616365 0.62152 0.616365 0.62152 0.616365 0.592862 0.657268 0.592861 0.616365 0.592862 0.620056 0.58595 0.624946 0.582453 0.657268 0.592861 0.616365 0.592862 0.648687 0.582453 0.624946 0.582453 0.648687 0.582453 0.616365 0.592862 0.648687 0.582453 0.653576 0.58595 0.657268 0.592861 0.247327 0.495913 0.249809 0.496311 0.2482579 0.504494 0.260667 0.445558 0.262802 0.446998 0.256816 0.455949 0.254827 0.57259 0.25731 0.571553 0.272224 0.601463 0.251289 0.553366 0.253745 0.553144 0.254352 0.563826 0.252051 0.463237 0.254642 0.454954 0.256816 0.455949 0.2467319 0.515429 0.2492949 0.515177 0.253745 0.553144 0.28299 0.617362 0.274772 0.610207 0.276647 0.608588 0.254827 0.57259 0.252012 0.56432 0.254352 0.563826 0.2467319 0.515429 0.245864 0.504393 0.2482579 0.504494 0.252051 0.463237 0.254635 0.463828 0.249809 0.496311 0.269982 0.602744 0.272224 0.601463 0.276647 0.608588 0.784763 0.4239 0.782325 0.428015 0.780982 0.427318 0.780982 0.427318 0.777995 0.425709 0.781332 0.421304</float_array>
          <technique_common>
            <accessor source="#Cylinder-mesh-map-0-array" count="1080" stride="2">
              <param name="S" type="float"/>
              <param name="T" type="float"/>
            </accessor>
          </technique_common>
        </source>
        <vertices id="Cylinder-mesh-vertices">
          <input semantic="POSITION" source="#Cylinder-mesh-positions"/>
        </vertices>
        <triangles material="Plastic010_1K_Displacement-material" count="360">
          <input semantic="VERTEX" source="#Cylinder-mesh-vertices" offset="0"/>
          <input semantic="NORMAL" source="#Cylinder-mesh-normals" offset="1"/>
          <input semantic="TEXCOORD" source="#Cylinder-mesh-map-0" offset="2" set="0"/>
          <p>8 0 0 65 1 1 9 2 2 191 3 3 3 4 4 4 5 5 192 6 6 179 7 7 6 8 8 193 9 9 4 10 10 5 11 11 192 12 12 7 13 13 194 14 14 204 15 15 193 16 16 5 17 17 194 18 18 8 19 19 195 20 20 195 21 21 9 22 22 196 23 23 196 24 24 10 25 25 197 26 26 198 27 27 1 28 28 0 29 29 197 30 30 1 31 31 202 32 32 199 33 33 0 34 34 2 35 35 203 36 36 2 37 37 3 38 38 27 39 39 12 40 40 28 41 41 28 42 42 13 43 43 29 44 44 13 45 45 30 46 46 29 47 47 14 48 48 31 49 49 30 50 50 31 51 51 16 52 52 32 53 53 32 54 54 17 55 55 33 56 56 17 57 57 34 58 58 33 59 59 18 60 60 35 61 61 34 62 62 35 63 63 20 64 64 36 65 65 36 66 66 21 67 67 37 68 68 21 69 69 38 70 70 37 71 71 22 72 72 39 73 73 38 74 74 39 75 75 24 76 76 40 77 77 40 78 78 25 79 79 41 80 80 11 81 81 106 82 82 92 83 83 25 84 84 42 85 85 41 86 86 26 87 87 27 88 88 42 89 89 140 90 90 129 91 91 138 92 92 107 93 93 170 93 94 120 93 95 126 94 96 139 94 97 128 94 98 113 95 99 114 95 100 129 95 101 142 96 102 113 96 103 117 96 104 51 97 105 74 98 106 75 99 107 201 100 108 58 101 109 180 102 110 181 103 111 50 104 112 51 105 113 9 106 114 66 107 115 10 108 116 1 109 117 43 110 118 0 111 119 180 112 120 59 113 121 182 114 122 183 115 123 51 116 124 52 117 125 10 118 126 44 119 127 1 120 128 0 121 129 45 122 130 2 123 131 182 124 132 60 125 133 184 126 134 185 127 135 52 128 136 53 129 137 2 130 138 46 131 139 3 132 140 184 133 141 61 134 142 186 135 143 187 136 144 53 137 145 54 138 146 3 139 147 47 140 148 4 141 149 188 142 150 54 143 151 55 144 152 4 145 153 48 146 154 5 147 155 6 148 156 63 149 157 7 150 158 188 151 159 56 152 160 189 153 161 49 154 162 204 155 163 48 156 164 7 157 165 64 158 166 8 159 167 189 160 168 57 161 169 201 162 170 200 163 171 49 164 172 50 165 173 81 93 174 77 93 175 69 93 176 65 166 177 90 167 178 66 168 179 44 169 180 67 170 181 43 171 182 59 172 183 82 173 184 83 174 185 52 175 186 75 176 187 76 177 188 66 178 189 68 179 190 44 180 191 43 181 192 69 182 193 45 183 194 60 184 195 83 185 196 84 186 197 53 187 198 76 188 199 77 189 200 45 190 201 70 191 202 46 192 203 61 193 204 84 194 205 85 195 206 54 196 207 77 197 208 78 198 209 46 199 210 71 200 211 47 201 212 61 202 213 86 203 214 62 204 215 55 205 216 78 206 217 79 207 218 47 208 219 72 209 220 48 210 221 62 211 222 87 212 223 63 213 224 56 214 225 79 215 226 80 216 227 48 217 228 73 218 229 49 219 230 63 220 231 88 221 232 64 222 233 57 223 234 80 224 235 81 225 236 50 226 237 73 227 238 74 228 239 64 229 240 89 230 241 65 231 242 58 232 243 81 233 244 82 234 245 15 235 246 94 236 247 95 237 248 19 238 249 100 239 250 20 240 251 24 241 252 105 242 253 25 243 254 12 244 255 93 245 256 13 246 257 18 247 258 97 248 259 98 249 260 23 250 261 102 251 262 103 252 263 15 253 264 96 254 265 16 255 266 20 256 267 101 257 268 21 258 269 26 259 270 105 260 271 106 261 272 14 262 273 93 263 274 94 264 275 19 265 276 98 266 277 99 267 278 11 268 279 91 269 280 12 270 281 23 271 282 104 272 283 24 273 284 16 274 285 97 275 286 17 276 287 22 277 288 101 278 289 102 279 290 99 95 291 97 95 292 93 95 293 132 280 294 115 281 295 131 282 296 115 283 297 133 284 298 131 285 299 134 286 300 127 287 301 125 288 302 127 289 303 136 290 304 126 291 305 138 292 306 130 293 307 137 294 308 137 295 309 128 296 310 139 297 311 140 298 312 118 299 313 116 300 314 141 301 315 117 302 316 118 303 317 134 304 318 114 304 319 132 304 320 144 305 321 131 306 322 143 307 323 145 308 324 131 309 325 133 310 326 146 311 327 135 312 328 134 313 329 148 314 330 135 315 331 147 316 332 150 317 333 137 318 334 149 319 335 151 320 336 137 321 337 139 322 338 152 323 339 141 324 340 140 325 341 154 326 342 141 327 343 153 328 344 146 329 345 132 330 346 144 331 347 145 332 348 142 333 349 154 334 350 152 335 351 138 336 352 150 337 353 151 338 354 136 339 355 148 340 356 163 341 357 148 342 358 160 343 359 164 344 360 150 345 361 162 346 362 157 347 363 154 348 364 166 349 365 158 350 366 144 351 367 156 352 368 166 353 369 153 354 370 165 355 371 165 356 372 152 357 373 164 358 374 163 359 375 149 360 376 151 361 377 161 362 378 150 363 379 149 364 380 160 365 381 147 366 382 159 367 383 159 368 384 146 369 385 158 370 386 157 371 387 143 372 388 145 373 389 155 374 390 144 375 391 143 376 392 107 377 393 155 378 394 109 379 395 108 380 396 155 381 397 157 382 398 120 383 399 159 384 400 158 385 401 119 386 402 159 387 403 121 388 404 122 389 405 161 390 406 124 391 407 123 392 408 161 393 409 163 394 410 111 395 411 165 396 412 164 397 413 110 398 414 165 399 415 112 400 416 120 401 417 156 401 418 107 401 419 108 401 420 166 401 421 110 401 422 111 401 423 162 401 424 122 401 425 123 401 426 160 401 427 119 401 428 174 401 429 172 401 430 170 401 431 123 402 432 173 403 433 124 404 434 120 405 435 171 406 436 121 407 437 110 96 438 169 96 439 108 96 440 111 408 441 177 409 442 112 410 443 119 411 444 171 412 445 172 413 446 122 414 447 176 414 448 111 414 449 107 415 450 167 416 451 168 417 452 110 418 453 177 419 454 178 420 455 122 421 456 173 422 457 174 423 458 119 424 459 175 424 460 123 424 461 108 425 462 167 426 463 109 427 464 179 428 465 61 429 466 62 430 467 8 431 468 64 432 469 65 433 470 191 434 471 203 435 472 3 436 473 193 437 474 191 438 475 4 439 476 192 440 477 6 441 478 7 442 479 194 443 480 7 444 481 8 445 482 195 446 483 8 447 484 9 448 485 196 449 486 9 450 487 10 451 488 198 452 489 202 453 490 1 454 491 197 455 492 10 456 493 1 457 494 199 458 495 198 459 496 0 460 497 203 461 498 199 462 499 2 463 500 27 464 501 11 465 502 12 466 503 28 467 504 12 468 505 13 469 506 13 470 507 14 471 508 30 472 509 14 473 510 15 474 511 31 475 512 31 476 513 15 477 514 16 478 515 32 479 516 16 480 517 17 481 518 17 482 519 18 483 520 34 484 521 18 485 522 19 486 523 35 487 524 35 488 525 19 489 526 20 490 527 36 491 528 20 492 529 21 493 530 21 494 531 22 495 532 38 496 533 22 497 534 23 498 535 39 499 536 39 500 537 23 501 538 24 502 539 40 503 540 24 504 541 25 505 542 11 506 543 26 507 544 106 508 545 25 509 546 26 510 547 42 511 548 26 512 549 11 513 550 27 514 551 140 515 552 116 516 553 129 517 554 107 93 555 168 93 556 170 93 557 126 518 558 136 518 559 139 518 560 129 95 561 116 95 562 117 95 563 116 519 564 118 519 565 117 519 566 117 95 567 113 95 568 129 95 569 113 95 570 115 95 571 114 95 572 114 95 573 125 95 574 129 95 575 125 95 576 127 95 577 126 95 578 129 95 579 125 95 580 128 95 581 126 95 582 128 95 583 125 95 584 128 95 585 130 95 586 129 95 587 142 520 588 133 520 589 113 520 590 51 521 591 50 522 592 74 523 593 201 524 594 57 525 595 58 526 596 181 527 597 200 528 598 50 529 599 9 530 600 65 531 601 66 532 602 1 533 603 44 534 604 43 535 605 180 536 606 58 537 607 59 538 608 183 539 609 181 540 610 51 541 611 10 542 612 66 543 613 44 544 614 0 545 615 43 546 616 45 547 617 182 548 618 59 549 619 60 550 620 185 551 621 183 552 622 52 553 623 2 554 624 45 555 625 46 556 626 184 557 627 60 558 628 61 559 629 187 560 630 185 561 631 53 562 632 3 563 633 46 564 634 47 565 635 188 566 636 187 567 637 54 568 638 4 569 639 47 570 640 48 571 641 6 572 642 62 573 643 63 574 644 188 575 645 55 576 646 56 577 647 190 578 648 204 579 649 49 580 650 204 581 651 5 582 652 48 583 653 7 584 654 63 585 655 64 586 656 189 587 657 56 588 658 57 589 659 200 590 660 190 591 661 49 592 662 69 593 663 67 593 664 68 593 665 68 93 666 90 93 667 69 93 668 90 93 669 89 93 670 69 93 671 89 594 672 88 594 673 87 594 674 87 93 675 86 93 676 85 93 677 85 93 678 84 93 679 81 93 680 84 595 681 83 595 682 81 595 683 83 596 684 82 596 685 81 596 686 81 93 687 80 93 688 77 93 689 80 93 690 79 93 691 77 93 692 79 93 693 78 93 694 77 93 695 77 597 696 76 597 697 75 597 698 75 598 699 74 598 700 73 598 701 73 599 702 72 599 703 71 599 704 71 93 705 70 93 706 73 93 707 70 93 708 69 93 709 73 93 710 89 93 711 87 93 712 69 93 713 87 600 714 85 600 715 69 600 716 77 93 717 75 93 718 69 93 719 75 93 720 73 93 721 69 93 722 85 93 723 81 93 724 69 93 725 65 601 726 89 602 727 90 603 728 44 604 729 68 605 730 67 606 731 59 607 732 58 608 733 82 609 734 52 610 735 51 611 736 75 612 737 66 613 738 90 614 739 68 615 740 43 616 741 67 617 742 69 618 743 60 619 744 59 620 745 83 621 746 53 622 747 52 623 748 76 624 749 45 625 750 69 626 751 70 627 752 61 628 753 60 629 754 84 630 755 54 631 756 53 632 757 77 633 758 46 634 759 70 635 760 71 636 761 61 637 762 85 638 763 86 639 764 55 640 765 54 641 766 78 642 767 47 643 768 71 644 769 72 645 770 62 646 771 86 647 772 87 648 773 56 649 774 55 650 775 79 651 776 48 652 777 72 653 778 73 654 779 63 655 780 87 656 781 88 657 782 57 658 783 56 659 784 80 660 785 50 661 786 49 662 787 73 663 788 64 664 789 88 665 790 89 666 791 58 667 792 57 668 793 81 669 794 15 670 795 14 671 796 94 672 797 19 673 798 99 674 799 100 675 800 24 676 801 104 677 802 105 678 803 12 679 804 91 680 805 93 681 806 18 682 807 17 683 808 97 684 809 23 685 810 22 686 811 102 687 812 15 688 813 95 689 814 96 690 815 20 691 816 100 692 817 101 693 818 26 694 819 25 695 820 105 696 821 14 697 822 13 698 823 93 699 824 19 700 825 18 701 826 98 702 827 11 703 828 92 704 829 91 705 830 23 706 831 103 707 832 104 708 833 16 709 834 96 710 835 97 711 836 22 712 837 21 713 838 101 714 839 93 95 840 91 95 841 92 95 842 92 715 843 106 715 844 105 715 845 105 716 846 104 716 847 103 716 848 103 717 849 102 717 850 105 717 851 102 95 852 101 95 853 105 95 854 101 718 855 100 718 856 99 718 857 99 95 858 98 95 859 97 95 860 97 95 861 96 95 862 93 95 863 96 95 864 95 95 865 93 95 866 95 95 867 94 95 868 93 95 869 93 719 870 92 719 871 101 719 872 92 95 873 105 95 874 101 95 875 101 720 876 99 720 877 93 720 878 132 721 879 114 722 880 115 723 881 115 724 882 113 725 883 133 726 884 134 727 885 135 728 886 127 729 887 127 730 888 135 731 889 136 732 890 138 733 891 129 734 892 130 735 893 137 736 894 130 737 895 128 738 896 140 739 897 141 740 898 118 741 899 141 742 900 142 743 901 117 744 902 134 304 903 125 304 904 114 304 905 144 745 906 132 746 907 131 747 908 145 748 909 143 749 910 131 750 911 146 751 912 147 752 913 135 753 914 148 754 915 136 755 916 135 756 917 150 757 918 138 758 919 137 759 920 151 760 921 149 761 922 137 762 923 152 763 924 153 764 925 141 765 926 154 766 927 142 767 928 141 768 929 146 769 930 134 770 931 132 771 932 145 772 933 133 773 934 142 774 935 152 775 936 140 776 937 138 777 938 151 778 939 139 779 940 136 780 941 163 781 942 151 782 943 148 783 944 164 784 945 152 785 946 150 786 947 157 787 948 145 788 949 154 789 950 158 790 951 146 791 952 144 792 953 166 793 954 154 794 955 153 795 956 165 796 957 153 797 958 152 798 959 163 799 960 161 800 961 149 801 962 161 802 963 162 803 964 150 804 965 160 805 966 148 806 967 147 807 968 159 808 969 147 809 970 146 810 971 157 811 972 155 812 973 143 813 974 155 814 975 156 815 976 144 816 977 107 817 978 156 818 979 155 819 980 108 820 981 109 821 982 155 822 983 120 823 984 121 824 985 159 825 986 119 826 987 160 827 988 159 828 989 122 829 990 162 830 991 161 831 992 123 832 993 124 833 994 161 834 995 111 835 996 112 836 997 165 837 998 110 838 999 166 839 1000 165 840 1001 120 401 1002 158 401 1003 156 401 1004 108 401 1005 157 401 1006 166 401 1007 111 401 1008 164 401 1009 162 401 1010 123 401 1011 163 401 1012 160 401 1013 176 401 1014 174 401 1015 170 401 1016 174 841 1017 173 842 1018 175 843 1019 172 401 1020 174 401 1021 175 401 1022 172 844 1023 171 845 1024 170 846 1025 170 401 1026 168 401 1027 176 401 1028 168 847 1029 167 848 1030 169 849 1031 176 401 1032 168 401 1033 178 401 1034 169 401 1035 178 401 1036 168 401 1037 178 850 1038 177 851 1039 176 852 1040 123 853 1041 175 854 1042 173 855 1043 120 856 1044 170 857 1045 171 858 1046 110 96 1047 178 96 1048 169 96 1049 111 859 1050 176 860 1051 177 861 1052 119 862 1053 121 863 1054 171 864 1055 122 414 1056 174 414 1057 176 414 1058 107 865 1059 109 866 1060 167 867 1061 110 868 1062 112 869 1063 177 870 1064 122 871 1065 124 872 1066 173 873 1067 119 424 1068 172 424 1069 175 424 1070 108 874 1071 169 875 1072 167 876 1073 62 877 1074 6 878 1075 179 879 1076 179 880 1077 186 881 1078 61 882 1079</p>
        </triangles>
      </mesh>
    </geometry>
  </library_geometries>
  <library_visual_scenes>
    <visual_scene id="Scene" name="Scene">
      <node id="Rotor" name="Rotor" type="NODE">
        <matrix sid="transform">1 0 0 0 0 1 0 0 0 0 1 0 0 0 0 1</matrix>
        <instance_geometry url="#Cylinder-mesh" name="Rotor">
          <bind_material>
            <technique_common>
              <instance_material symbol="mat-material" target="#mat-material">
                <bind_vertex_input semantic="UVMap" input_semantic="TEXCOORD" input_set="0"/>
              </instance_material>
            </technique_common>
          </bind_material>
        </instance_geometry>
      </node>
    </visual_scene>
  </library_visual_scenes>
  <scene>
    <instance_visual_scene url="#Scene"/>
  </scene>
</COLLADA>