<?xml version="1.0" encoding="utf-8"?>
<COLLADA xmlns="http://www.collada.org/2005/11/COLLADASchema" version="1.4.1" xmlns:xsi="http://www.w3.org/2001/XMLSchema-instance">
  <asset>
    <contributor>
      <author>Blender User</author>
      <authoring_tool>Blender 4.5.11 LTS commit date:2026-06-22, commit time:11:08, hash:4db51e9d1e1e</authoring_tool>
    </contributor>
    <created>2026-07-02T13:12:25</created>
    <modified>2026-07-02T13:12:25</modified>
    <unit name="meter" meter="1"/>
    <up_axis>Z_UP</up_axis>
  </asset>
  <library_effects>
    <effect id="Plastic010_1K_Displacement-effect">
      <profile_COMMON>
        <technique sid="common">
          <lambert>
            <emission>
              <color sid="emission">0 0 0 1</color>
            </emission>
            <diffuse>
              <color sid="diffuse">0.8 0.8 0.8 1</color>
            </diffuse>
            <index_of_refraction>
              <float sid="ior">1.5</float>
            </index_of_refraction>
          </lambert>
        </technique>
      </profile_COMMON>
    </effect>
  </library_effects>
  <library_images/>
  <library_materials>
    <material id="Plastic010_1K_Displacement-material" name="Plastic010_1K_Displacement">
      <instance_effect url="#Plastic010_1K_Displacement-effect"/>
    </material>
  </library_materials>
  <library_geometries>
    <geometry id="Cylinder_002-mesh" name="Cylinder.002">
      <mesh>
        <source id="Cylinder_002-mesh-positions">
          <float_array id="Cylinder_002-mesh-positions-array" count="837">0 1.7 -0.426424 0 0.842665 0.426424 0.439992 1.64207 -0.426424 0.218098 0.813952 0.426424 0.85 1.47224 -0.426424 0.421333 0.72977 0.426424 1.20208 1.20208 -0.426424 0.595854 0.595854 0.426424 1.47224 0.85 -0.426424 0.72977 0.421333 0.426424 1.64207 0.439992 -0.426424 0.813952 0.218098 0.426424 1.7 0 -0.426424 0.842665 0 0.426424 1.64207 -0.439992 -0.426424 0.813952 -0.218098 0.426424 1.47224 -0.85 -0.426424 0.72977 -0.421332 0.426424 1.20208 -1.20208 -0.426424 0.595855 -0.595854 0.426424 0.85 -1.47224 -0.426424 0.421333 -0.72977 0.426424 0.439993 -1.64207 -0.426424 0.218098 -0.813952 0.426424 6.62004e-7 -1.7 -0.426424 3.65638e-7 -0.842665 0.426424 -0.439992 -1.64207 -0.426424 -0.218097 -0.813952 0.426424 -0.849999 -1.47224 -0.426424 -0.421332 -0.72977 0.426424 -1.20208 -1.20208 -0.426424 -0.595854 -0.595855 0.426424 -1.47224 -0.850001 -0.426424 -0.72977 -0.421333 0.426424 -1.64207 -0.439993 -0.426424 -0.813952 -0.218098 0.426424 -1.7 -7.9035e-7 -0.426424 -0.842666 -3.909e-7 0.426424 -1.64207 0.439991 -0.426424 -0.813952 0.218097 0.426424 -1.47224 0.849999 -0.426424 -0.72977 0.421332 0.426424 -1.20208 1.20208 -0.426424 -0.595855 0.595854 0.426424 -0.850001 1.47224 -0.426424 -0.421333 0.729769 0.426424 -0.439994 1.64207 -0.426424 -0.2180989 0.813952 0.426424 0.439992 1.64207 0.305139 0 1.7 0.305139 0.85 1.47224 0.305139 1.20208 1.20208 0.305139 1.47224 0.85 0.305139 1.64207 0.439992 0.305139 1.7 0 0.305139 1.64207 -0.439992 0.305139 1.47224 -0.85 0.305139 1.20208 -1.20208 0.305139 0.85 -1.47224 0.305139 0.439993 -1.64207 0.305139 6.62004e-7 -1.7 0.305139 -0.439992 -1.64207 0.305139 -0.849999 -1.47224 0.305139 -1.20208 -1.20208 0.305139 -1.47224 -0.850001 0.305139 -1.64207 -0.439993 0.305139 -1.7 -7.9035e-7 0.305139 -1.64207 0.439991 0.305139 -1.47224 0.849999 0.305139 -1.20208 1.20208 0.305139 -0.850001 1.47224 0.305139 -0.439994 1.64207 0.305139 0.421333 0 43.0689 0.406976 -0.109049 43.0689 0.364885 -0.210666 43.0689 0.297927 -0.297927 43.0689 0.210667 -0.364885 43.0689 0.109049 -0.406976 43.0689 3.59218e-7 -0.421333 43.0689 -0.109049 -0.406976 43.0689 -0.210666 -0.364885 43.0689 -0.297927 -0.297927 43.0689 -0.364884 -0.210667 43.0689 -0.406976 -0.109049 43.0689 -0.421333 -2.61946e-7 43.0689 0 1.27133 0.426424 0.329045 1.22801 0.426424 0.635666 1.10101 0.426424 0.898968 0.898968 0.426424 1.10101 0.635666 0.426424 1.22801 0.329045 0.426424 1.27133 0 0.426424 1.22801 -0.329045 0.426424 1.10101 -0.635666 0.426424 0.898968 -0.898968 0.426424 0.635667 -1.10101 0.426424 0.329045 -1.22801 0.426424 5.13822e-7 -1.27133 0.426424 -0.329045 -1.22801 0.426424 -0.635666 -1.10101 0.426424 -0.898968 -0.898969 0.426424 -1.10101 -0.635667 0.426424 -1.22801 -0.329046 0.426424 -1.27133 -5.90626e-7 0.426424 -1.22801 0.329044 0.426424 -1.10101 0.635666 0.426424 -0.898969 0.898968 0.426424 -0.635667 1.10101 0.426424 -0.329046 1.22801 0.426424 0.169366 0.632083 1.7291 0 0.654381 1.7291 0.654381 0 1.7291 0.632083 0.169366 1.7291 0.632083 -0.169366 1.7291 2.94788e-7 -0.654381 1.7291 0.169366 -0.632083 1.7291 -0.169366 -0.632084 1.7291 -0.654381 -3.35631e-7 1.7291 -0.632083 -0.169366 1.7291 -0.632083 0.169366 1.7291 -0.169367 0.632083 1.7291 0 0.987267 1.7291 0.255524 0.953627 1.7291 0.953627 0.255524 1.7291 0.987267 0 1.7291 0.953627 -0.255523 1.7291 0.255524 -0.953627 1.7291 4.09862e-7 -0.987267 1.7291 -0.255523 -0.953627 1.7291 -0.953627 -0.255524 1.7291 -0.987267 -4.90731e-7 1.7291 -0.953627 0.255523 1.7291 -0.255524 0.953627 1.7291 0.384519 1.43504 0.426424 0.742833 1.28662 0.426424 1.05052 1.05052 0.426424 1.28663 0.742833 0.426424 1.43504 0.384519 0.426424 1.48567 0 0.426424 1.43504 -0.384519 0.426424 1.28663 -0.742833 0.426424 1.05053 -1.05052 0.426424 0.742834 -1.28662 0.426424 0.384519 -1.43504 0.426424 5.87913e-7 -1.48567 0.426424 -0.384518 -1.43504 0.426424 -0.742833 -1.28663 0.426424 -1.05052 -1.05053 0.426424 -1.28662 -0.742834 0.426424 -1.43504 -0.384519 0.426424 -1.48567 -6.90487e-7 0.426424 -1.43504 0.384518 0.426424 -1.28663 0.742833 0.426424 -1.05053 1.05052 0.426424 -0.742834 1.28662 0.426424 -0.38452 1.43504 0.426424 0 1.48567 0.426424 0.240664 -0.416842 36.9969 0.124577 -0.464927 36.9969 0.34035 0.34035 36.9969 0.416842 0.240664 36.9969 -0.481327 -2.80308e-7 36.9969 -0.464926 0.124576 36.9969 3.60133e-7 -0.481327 36.9969 0.464927 0.124577 36.9969 -0.416842 0.2406629 36.9969 -0.124576 -0.464927 36.9969 0.481327 0 36.9969 -0.34035 0.34035 36.9969 -0.2406629 -0.416842 36.9969 0.464927 -0.124577 36.9969 -0.240664 0.416842 36.9969 -0.34035 -0.34035 36.9969 0.416842 -0.240664 36.9969 -0.124577 0.464926 36.9969 2.28563e-7 0.481327 36.9969 0.124577 0.464926 36.9969 -0.416842 -0.240664 36.9969 0.34035 -0.34035 36.9969 0.240664 0.416842 36.9969 -0.464926 -0.124577 36.9969 0.132081 -0.492931 34.0626 0.44195 0.25516 34.0626 -0.492931 0.13208 34.0626 3.60575e-7 -0.51032 34.0626 0.492931 0.13208 34.0626 -0.44195 0.25516 34.0626 -0.13208 -0.492931 34.0626 0.51032 0 34.0626 -0.360851 0.36085 34.0626 -0.255159 -0.44195 34.0626 0.492931 -0.13208 34.0626 -0.25516 0.44195 34.0626 -0.36085 -0.360851 34.0626 0.44195 -0.25516 34.0626 -0.132081 0.492931 34.0626 0.132081 0.492931 34.0626 -0.44195 -0.25516 34.0626 0.360851 -0.360851 34.0626 0.25516 0.44195 34.0626 -0.492931 -0.132081 34.0626 0.25516 -0.44195 34.0626 0.360851 0.36085 34.0626 -0.51032 -2.89182e-7 34.0626 2.2108e-7 0.51032 34.0626 0.140733 -0.525222 30.6792 0.470902 0.271875 30.6792 -0.525222 0.140732 30.6792 3.61083e-7 -0.54375 30.6792 0.525222 0.140733 30.6792 -0.470902 0.271875 30.6792 -0.140732 -0.525222 30.6792 0.54375 0 30.6792 -0.38449 0.384489 30.6792 -0.271875 -0.470902 30.6792 0.525222 -0.140733 30.6792 -0.271875 0.470901 30.6792 -0.384489 -0.38449 30.6792 0.470902 -0.271875 30.6792 -0.140733 0.525222 30.6792 0.140733 0.525222 30.6792 -0.470901 -0.271875 30.6792 0.38449 -0.384489 30.6792 0.271875 0.470901 30.6792 -0.525222 -0.140733 30.6792 0.271875 -0.470902 30.6792 0.38449 0.384489 30.6792 -0.54375 -2.99414e-7 30.6792 2.12452e-7 0.54375 30.6792 0.148009 -0.552376 27.8341 0.495247 0.28593 27.8341 -0.552375 0.148008 27.8341 3.61512e-7 -0.571861 27.8341 0.552376 0.148009 27.8341 -0.495246 0.28593 27.8341 -0.148008 -0.552376 27.8341 0.571861 0 27.8341 -0.404367 0.404367 27.8341 -0.28593 -0.495247 27.8341 0.552376 -0.148009 27.8341 -0.285931 0.495246 27.8341 -0.404367 -0.404367 27.8341 0.495247 -0.28593 27.8341 -0.148009 0.552375 27.8341 0.148009 0.552375 27.8341 -0.495246 -0.285931 27.8341 0.404367 -0.404367 27.8341 0.285931 0.495246 27.8341 -0.552375 -0.148009 27.8341 0.285931 -0.495246 27.8341 0.404367 0.404367 27.8341 -0.571861 -3.08018e-7 27.8341 2.05197e-7 0.571861 27.8341 0.416414 0.03735929 43.0689 0.297945 0.297944 43.0664 2.4404e-7 0.421368 43.0653 -0.213527 -0.369841 43.0731 0.408841 -0.109549 43.0703 0.109058 0.407009 43.0654 0.210682 0.364911 43.0658 -0.210681 0.36491 43.066 -0.109058 0.407008 43.0655 -0.297943 0.297943 43.0667 -0.364896 0.210673 43.0675 -0.406979 0.109049 43.0685 0.364899 0.210675 43.0672 0.406983 0.109051 43.0682 3.29669e-7 -0.427686 43.0736 -0.11066 -0.412991 43.0735 0.110626 -0.41286 43.0734 0.213397 -0.369615 43.0729 -0.409319 -0.109677 43.0707 -0.422328 -2.62298e-7 43.0696 0.301118 -0.301117 43.0722 -0.368131 -0.212541 43.0717 0.367746 -0.212318 43.0713 0.421819 0 43.0692 -0.301374 -0.301374 43.0725 -0.411397 0.07546949 43.0689</float_array>
          <technique_common>
            <accessor source="#Cylinder_002-mesh-positions-array" count="279" stride="3">
              <param name="X" type="float"/>
              <param name="Y" type="float"/>
              <param name="Z" type="float"/>
            </accessor>
          </technique_common>
        </source>
        <source id="Cylinder_002-mesh-normals">
          <float_array id="Cylinder_002-mesh-normals-array" count="1995">0.1305352 0.9914438 0 0.3826817 0.9238803 0 0.6087607 0.7933539 0 0.793354 0.6087605 0 0.9238805 0.3826812 0 0.9914436 0.1305354 0 0.9914438 -0.1305347 0 0.9238801 -0.3826825 0 0.7933539 -0.6087608 0 0.6087607 -0.7933539 0 0.3826825 -0.9238799 0 0.1305351 -0.9914438 0 -0.130535 -0.9914438 0 -0.3826825 -0.9238799 0 -0.6087596 -0.7933548 0 -0.7933532 -0.6087617 0 -0.9238805 -0.3826812 0 -0.9914437 -0.1305354 0 -0.9914438 0.1305348 0 -0.92388 0.3826824 0 -0.7933547 0.6087598 0 -0.6087619 0.793353 0 0.3826661 -0.9238349 0.009795606 -0.3826826 0.92388 0 -0.1305346 0.9914438 0 0 0 -1 0.06453329 0.4901819 0.869228 0.06453341 0.4901819 0.869228 0.06453353 0.4901819 0.869228 0.1892013 0.4567719 0.869231 0.1892331 0.4568488 0.8691835 0.1892014 0.4567718 0.869231 0.3009479 0.3922034 0.8692565 0.3009736 0.3922363 0.8692328 0.3009734 0.3922364 0.8692328 0.3923621 0.3010715 0.8691422 0.3923944 0.3010976 0.8691184 0.3924604 0.3011485 0.869071 0.4567453 0.1891895 0.8692476 0.4567837 0.1892055 0.8692238 0.4567835 0.1892061 0.8692238 0.4902997 0.06454944 0.8691604 0.4902996 0.0645495 0.8691603 0.4902996 0.06454956 0.8691603 0.4901828 -0.06453365 0.8692274 0.4901828 -0.06453371 0.8692274 0.4567714 -0.1892004 0.8692314 0.4568484 -0.189232 0.869184 0.4569255 -0.1892635 0.8691366 0.3922483 -0.3009815 0.8692247 0.3922476 -0.3009824 0.8692247 0.3922809 -0.3010075 0.869201 0.3010022 -0.3922738 0.8692061 0.3009771 -0.3922405 0.8692297 0.3009772 -0.3922404 0.8692297 0.1892165 -0.4568079 0.8692087 0.1891998 -0.4567698 0.8692323 0.1892322 -0.4568465 0.869185 0.06454956 -0.4902992 0.8691607 0.06454944 -0.4902991 0.8691606 0.06454944 -0.4902992 0.8691607 -0.06455641 -0.4903483 0.8691323 -0.0645563 -0.4903483 0.8691323 -0.06454533 -0.4902657 0.8691798 -0.189249 -0.456887 0.86916 -0.1892325 -0.4568488 0.8691837 -0.1892012 -0.4567716 0.8692312 -0.3009819 -0.3922488 0.8692243 -0.3009818 -0.3922488 0.8692243 -0.3009819 -0.3922488 0.8692243 -0.3922734 -0.3010017 0.8692063 -0.3922734 -0.3010018 0.8692064 -0.3922399 -0.300977 0.86923 -0.4567684 -0.1891998 0.8692331 -0.4568452 -0.1892323 0.8691857 -0.4567684 -0.1891998 0.8692331 -0.4901758 -0.06453281 0.8692315 -0.4901757 -0.06453281 0.8692315 -0.4902995 -0.0645498 0.8691603 -0.4901828 0.06453371 0.8692275 -0.4901828 0.06453377 0.8692275 -0.4568495 0.1892315 0.8691835 -0.4568495 0.1892314 0.8691835 -0.4568495 0.1892315 0.8691835 -0.392315 0.3010331 0.8691768 -0.392315 0.301033 0.8691768 -0.392381 0.3010839 0.8691293 -0.3010272 0.392307 0.8691823 -0.3010023 0.3922736 0.869206 -0.3009514 0.3922076 0.8692534 -0.1891995 0.4567688 0.869233 -0.1891995 0.4567687 0.869233 -0.1891995 0.4567688 0.869233 -0.06455528 0.4903407 0.8691367 -0.06455516 0.4903408 0.8691367 -0.06453269 0.4901757 0.8692315 0.1305134 -0.9913982 0.009795427 -0.1305137 -0.9913982 0.009795606 -0.382666 -0.9238349 0.009795546 0.9913982 -0.1305136 0.009795606 -0.6087294 -0.7933174 0.009795606 0.9238349 -0.3826659 0.009795606 -0.7933145 -0.6087334 0.009795606 0.7933142 -0.6087337 0.009795606 -0.9238377 -0.382659 0.009795486 0.6087335 -0.7933143 0.009795486 -0.9913972 -0.1305212 0.009795427 -0.594187 0.07790434 -0.8005452 -0.5941911 0.07788848 -0.8005439 -0.5941814 0.07789933 -0.8005501 -0.2588202 0.9659256 0 0 0 1 0 0 1 0 0 1 0.968986 0.1275702 0.2116414 0.968986 0.12757 0.2116414 0.9689356 0.1275636 0.2118757 -0.9813385 0.1291953 -0.1424202 -0.9814196 0.1292055 -0.1418508 -0.9813385 0.1291952 -0.1424202 -2.11288e-7 0 1 -3.18769e-7 0 1 0 0 1 0.2588177 0.9659263 -3.09264e-7 0.9689157 -0.12756 0.211969 0.9689158 -0.12756 0.211969 0.9688553 -0.1275511 0.2122501 2.1129e-7 0 1 -0.9814195 -0.129206 -0.1418512 -0.9813385 -0.129195 -0.1424206 0.9659256 0.25882 0 2.11289e-7 0 1 3.1877e-7 0 1 0 0 1 0 0 1 0.1292033 0.9814198 -0.1418509 -7.00735e-7 0 1 5.28601e-7 0 1 2.1144e-6 0 1 7.00732e-7 0 1 2.62775e-7 0 1 -0.1275658 -0.9689559 0.2117817 -0.1275599 -0.9689158 0.2119691 -0.1275525 -0.9688655 0.2122033 -0.965926 0.2588186 -2.06177e-7 -0.129206 -0.9814196 -0.1418507 -0.129198 -0.9813519 -0.1423252 -0.129196 -0.9813384 -0.1424201 0.1275608 -0.9689155 0.2119696 0.1275701 -0.9689859 0.2116416 0.1275702 -0.968986 0.2116416 -0.9689359 0.1275629 0.2118752 -0.9689359 0.1275629 0.2118752 -0.9689359 0.127563 0.2118752 -0.2588177 -0.9659263 4.46715e-7 0.1292052 -0.9814196 -0.1418511 0.1291999 -0.9813722 -0.1421833 0.1291998 -0.9813722 -0.1421833 -0.9689859 -0.1275701 0.2116414 -0.968986 -0.1275702 0.2116414 -0.9689356 -0.1275637 0.2118757 -0.9659256 -0.2588202 6.93808e-7 0.9659255 -0.2588208 0 0.9813518 0.1291979 -0.1423258 0.9813719 0.129202 -0.1421834 0.9813724 0.129198 -0.1421833 -0.1275632 0.9689357 0.2118757 -0.127569 0.9689862 0.2116414 0.981372 -0.129201 -0.1421836 0.9813385 -0.1291944 -0.1424208 0.9813252 -0.1291913 -0.1425157 0.2588225 -0.9659249 1.86795e-7 -0.1292061 0.9814195 -0.1418512 -0.1291977 0.9813518 -0.1423257 0.127559 0.9689158 0.211969 0.127557 0.9688956 0.2120627 0.1275511 0.9688554 0.2122501 0 0 1 1.58466e-7 0 1 -1.58466e-7 0 1 2.11285e-7 0 1 0 0 1 0 0 1 1.80805e-7 0 1 -1.58467e-7 0 1 1.58466e-7 0 1 0 0 1 -0.991397 -0.1305225 0.009795725 0.6087342 0.7933138 0.009795367 0.6087291 -0.7933177 0.009795367 -0.9238349 -0.3826658 0.009795665 0.3826648 0.9238354 0.009795427 -0.1305209 0.9913972 0.009795725 0.7933171 -0.6087299 0.009795606 -0.7933131 -0.6087352 0.009795427 0.1305208 0.9913972 0.009795725 -0.3826648 0.9238354 0.009795665 0.9238362 -0.3826626 0.009795427 -0.6087292 -0.7933177 0.009795427 -0.6087337 0.7933141 0.009795427 0.9913969 -0.1305234 0.009795308 -0.3826649 -0.9238353 0.009795427 -0.793314 0.608734 0.009795427 0.9913969 0.1305229 0.009795725 -0.1305221 -0.991397 0.009795367 -0.9238362 0.3826626 0.009795546 0.9238364 0.3826624 0.009795248 0.1305215 -0.9913971 0.009795725 -0.9913971 0.1305218 0.009795665 0.7933145 0.6087334 0.009795367 0.3826645 -0.9238355 0.009795367 0.3826602 -0.9238372 0.009795546 0.7933143 0.6087335 0.009795725 -0.9913972 0.1305212 0.009795606 0.1305213 -0.9913972 0.009795606 0.9238372 0.3826604 0.009795665 -0.9238384 0.3826575 0.009795725 -0.1305215 -0.9913972 0.009795606 0.9913972 0.1305209 0.009795546 -0.7933143 0.6087336 0.009795725 -0.3826576 -0.9238383 0.009795904 0.9913973 -0.1305205 0.009795606 -0.6087301 0.7933169 0.009795486 -0.6087337 -0.7933143 0.009795725 0.9238373 -0.3826604 0.009795784 -0.3826662 0.9238348 0.009795546 0.1305211 0.9913972 0.009795606 -0.7933171 -0.6087298 0.009795546 0.7933143 -0.6087335 0.009795546 -0.1305208 0.9913973 0.009795546 0.382666 0.9238348 0.009795486 -0.9238348 -0.3826661 0.009795546 0.6087343 -0.7933138 0.009795725 0.6087298 0.7933171 0.009795725 -0.9913971 -0.1305213 0.009795546 -0.991397 -0.1305218 0.009795427 0.6087315 0.7933158 0.009795486 0.6087318 -0.7933158 0.009795367 -0.9238355 -0.3826646 0.009795486 0.3826645 0.9238355 0.009795546 -0.1305209 0.9913972 0.009795486 0.7933151 -0.6087324 0.009795427 -0.7933158 -0.6087315 0.009795606 0.1305211 0.9913972 0.009795427 -0.3826642 0.9238357 0.009795486 0.9238345 -0.3826669 0.009795427 -0.6087322 -0.7933154 0.009795427 -0.6087319 0.7933156 0.009795606 0.991398 -0.1305149 0.009795725 -0.3826639 -0.9238358 0.009795427 -0.7933187 0.6087279 0.009795427 0.991398 0.130515 0.009795486 -0.1305153 -0.991398 0.009795784 -0.9238355 0.3826645 0.009795129 0.9238345 0.3826669 0.009795784 0.1305154 -0.9913979 0.009795427 -0.991397 0.1305218 0.009795427 0.7933156 0.6087319 0.009795427 0.3826699 -0.9238333 0.009795784 0.3826622 -0.9238364 0.009795546 0.7933119 0.6087366 0.009795546 -0.9913969 0.1305234 0.009795606 0.1305197 -0.9913974 0.009795546 0.9238364 0.3826623 0.009795546 -0.9238367 0.3826617 0.009795606 -0.1305199 -0.9913973 0.009795546 0.9913974 0.1305193 0.009795546 -0.7933163 0.6087311 0.009795546 -0.3826622 -0.9238364 0.009795546 0.9913974 -0.1305193 0.009795546 -0.6087309 0.7933163 0.009795546 -0.6087309 -0.7933163 0.009795546 0.923836 -0.3826634 0.009795546 -0.3826677 0.9238341 0.009795606 0.1305195 0.9913974 0.009795546 -0.7933139 -0.608734 0.009795606 0.7933163 -0.6087311 0.009795546 -0.1305189 0.9913975 0.009795546 0.3826623 0.9238364 0.009795606 -0.9238361 -0.3826628 0.009795546 0.6087338 -0.7933142 0.009795606 0.6087359 0.7933124 0.009795546 -0.9913969 -0.1305239 0.009795606 0.3826633 0.923836 0.009795606 -0.382659 0.9238378 0.009795486 -0.6087332 0.7933146 0.009795486 -0.7933176 0.6087293 0.009795427 -0.9238377 0.3826591 0.009795665 0.9238334 0.3826695 0.009795546 -0.07800573 -0.5927831 -0.8015756 -0.07800579 -0.592783 -0.8015755 -0.07800573 -0.5927831 -0.8015756 0.07810664 -0.5925194 -0.8017608 0.0780968 -0.5926742 -0.8016473 0.07830172 -0.5923448 -0.8018707 0.2290983 -0.5523381 -0.8015215 0.2291019 -0.5523304 -0.8015258 0.2290263 -0.5522876 -0.8015769 -0.5943815 -0.07788461 -0.8004028 -0.5944452 -0.07788723 -0.8003553 -0.5943858 -0.07788676 -0.8003994 0.3640285 -0.4743248 -0.8015606 0.3640277 -0.4743227 -0.8015621 0.3641417 -0.4743766 -0.8014785 -0.5511727 -0.2289696 -0.80236 -0.5511674 -0.2289687 -0.8023639 -0.5511716 -0.2289694 -0.8023608 0.4746533 -0.3639804 -0.801388 0.4746846 -0.3640018 -0.8013596 0.474449 -0.3639378 -0.8015282 0.5523675 -0.2288105 -0.8015833 0.5523691 -0.2288249 -0.8015782 0.5524161 -0.2289566 -0.8015081 0.5967535 -0.0778259 -0.7986416 0.5962645 -0.077816 -0.7990078 0.5924986 -0.07804358 -0.8017823 -0.4748466 -0.3638527 -0.8013314 -0.4748452 -0.363852 -0.8013324 -0.4748457 -0.3638528 -0.8013319 -0.3643094 -0.4741048 -0.801563 -0.3643093 -0.4741048 -0.8015632 -0.3643094 -0.4741048 -0.8015631 -0.228412 -0.5523513 -0.8017082 -0.2284123 -0.5523514 -0.801708 -0.2284123 -0.5523514 -0.8017081 0.1305222 0.991397 0.009795546 -0.1305207 0.9913973 0.009795486 0.7933155 0.608732 0.009795606 0.6087341 0.7933138 0.009795606 -0.9913969 0.1305227 0.009795427 0.9913982 0.1305137 0.009795546 0.5926759 0.07808613 -0.801647 0.5927224 0.0780977 -0.8016116 0.592693 0.07808774 -0.8016342 0.1305352 0.9914438 0 0.3826818 0.9238802 0 0.7933539 0.6087608 0 0.9238801 0.3826825 0 0.9914438 0.1305347 0 0.9914436 -0.1305354 0 0.9238805 -0.3826812 0 0.793354 -0.6087605 0 0.3826826 -0.92388 0 0.1305351 -0.9914437 0 -0.130535 -0.9914438 0 -0.3826826 -0.92388 0 -0.793353 -0.6087619 0 -0.92388 -0.3826824 0 -0.9914438 -0.1305347 0 -0.9914436 0.1305355 0 -0.9238805 0.3826811 0 -0.7933548 0.6087595 0 -0.6087616 0.7933533 0 0.3826608 -0.9238371 0.009795486 -0.3826826 0.92388 0 -0.1305346 0.9914438 0 0 0 -1 2.92329e-7 0 -1 -5.84658e-7 0 -1 -5.84657e-7 0 -1 2.92331e-7 0 -1 -2.92332e-7 0 -1 5.84656e-7 0 -1 -5.84616e-7 0 -1 -2.92331e-7 0 -1 -2.30915e-7 0 -1 -1.30129e-7 0 -1 0 0 -1 0 0 -1 0.06453263 0.4901762 0.8692312 0.0645383 0.4902175 0.8692075 0.06453245 0.4901762 0.8692312 0.1891999 0.4567688 0.8692329 0.1892 0.4567688 0.8692329 0.1892319 0.4568457 0.8691855 0.3009441 0.3921988 0.86926 0.300893 0.392133 0.8693073 0.3009699 0.3922315 0.8692362 0.3923131 0.3010329 0.8691775 0.3923134 0.3010326 0.8691775 0.3923129 0.3010333 0.8691775 0.4567714 0.1892004 0.8692315 0.4569255 0.1892636 0.8691366 0.4568484 0.189232 0.869184 0.4903474 0.06455588 0.8691329 0.4903886 0.0645613 0.8691092 0.4903473 0.06455594 0.8691329 0.4902174 -0.06453841 0.8692076 0.4902586 -0.06454402 0.8691839 0.4902173 -0.06453853 0.8692076 0.4567453 -0.1891894 0.8692476 0.4567835 -0.1892061 0.8692238 0.4567837 -0.1892055 0.8692238 0.3922103 -0.3009522 0.869252 0.3922103 -0.3009521 0.869252 0.3922095 -0.3009531 0.869252 0.3009743 -0.3922368 0.8692324 0.3009482 -0.3922043 0.869256 0.3009744 -0.3922367 0.8692324 0.1892014 -0.456771 0.8692314 0.1891847 -0.4567328 0.8692551 0.1891846 -0.4567328 0.8692551 0.06455594 -0.4903473 0.8691329 0.06455582 -0.4903474 0.8691329 0.06455576 -0.4903473 0.8691329 -0.0645495 -0.4902997 0.8691602 -0.0645551 -0.490341 0.8691365 -0.06454938 -0.4902998 0.8691602 -0.1892383 -0.4568619 0.8691755 -0.1892067 -0.4567849 0.8692229 -0.1892067 -0.4567849 0.8692229 -0.3009779 -0.3922436 0.869228 -0.3010282 -0.39231 0.8691806 -0.3009781 -0.3922435 0.8692281 -0.3923024 -0.3010239 0.8691856 -0.3924012 -0.3011004 0.8691144 -0.3923023 -0.3010239 0.8691855 -0.45681 -0.189217 0.8692075 -0.4568099 -0.189217 0.8692075 -0.4568867 -0.1892495 0.86916 -0.4901822 -0.06453377 0.8692277 -0.4901822 -0.06453359 0.8692277 -0.4901822 -0.06453359 0.8692277 -0.4902174 0.06453847 0.8692076 -0.4902586 0.06454408 0.8691839 -0.4902173 0.06453853 0.8692075 -0.4569014 0.1892526 0.8691517 -0.4569787 0.1892835 0.8691042 -0.4569399 0.1892682 0.8691279 -0.3923091 0.3010286 0.8691808 -0.3922431 0.3009778 0.8692283 -0.3923092 0.3010286 0.8691809 -0.3010239 0.3923024 0.8691855 -0.3009732 0.3922363 0.869233 -0.3009988 0.3922692 0.8692092 -0.1892008 0.4567717 0.8692312 -0.189153 0.4566561 0.8693022 -0.1892006 0.4567717 0.8692312 -0.06455659 0.490348 0.8691325 -0.06454533 0.4902654 0.86918 0.1305245 -0.9913967 0.009795606 -0.1305233 -0.9913969 0.009795427 -0.3826639 -0.9238358 0.009795546 0.9913968 -0.1305241 0.009795427 -0.608734 -0.7933139 0.009795486 0.9238359 -0.3826633 0.009795606 -0.793315 -0.6087327 0.009795606 0.7933142 -0.6087337 0.009795606 -0.9238338 -0.3826687 0.009795665 0.6087384 -0.7933107 0.009795606 -0.9913968 -0.1305243 0.009795486 -0.2588204 0.9659255 0 0 0 1 -1.59384e-7 0 1 0.9689358 0.1275637 0.2118752 0.9689358 0.1275637 0.2118752 0.968956 0.1275653 0.2117815 -0.9813519 0.129197 -0.1423257 -0.9813519 0.1291967 -0.1423257 -0.981419 0.1292102 -0.1418513 0 0 1 0 0 1 0.2588202 0.9659256 0 0.9689559 -0.127565 0.211782 0.9689559 -0.127565 0.211782 0.9689559 -0.127565 0.211782 0 0 1 0 0 1 -0.9814191 -0.1292096 -0.1418507 0.9659255 0.2588208 0 0 0 1 0 0 1 0.1292062 0.9814195 -0.1418503 0.129197 0.981352 -0.1423248 -2.62775e-7 0 1 -1.0572e-6 0 1 7.00735e-7 0 1 -2.62776e-7 0 1 2.62775e-7 0 1 -0.1275629 -0.9689357 0.2118757 -0.1275599 -0.9689157 0.2119694 -0.12756 -0.9689157 0.2119694 -0.965925 0.2588223 2.13479e-7 -0.1291999 -0.9813722 -0.1421836 -0.129196 -0.9813382 -0.1424208 -0.129198 -0.9813518 -0.1423259 0.127558 -0.9688954 0.2120625 0.1275654 -0.9689559 0.2117815 0.1275654 -0.9689559 0.2117815 -0.9689558 0.1275654 0.211782 -0.9689559 0.1275653 0.211782 -0.9689559 0.1275654 0.211782 -0.2588202 -0.9659256 6.93809e-7 0.1292086 -0.9814192 -0.1418508 0.129196 -0.9813384 -0.1424202 0.1291961 -0.9813384 -0.1424202 -0.9689862 -0.1275695 0.211641 -0.9690567 -0.1275776 0.211313 -0.9689862 -0.1275694 0.211641 -0.9659262 -0.2588178 4.46715e-7 0.9659256 -0.25882 0 0.9813517 0.129198 -0.1423259 0.9813719 0.1292017 -0.1421836 -0.1275636 0.9689357 0.2118754 -0.1275658 0.9689559 0.2117817 -0.1275637 0.9689357 0.2118754 0.9813721 -0.129201 -0.1421833 0.981419 -0.1292099 -0.1418511 0.9813386 -0.1291944 -0.1424205 0.2588204 -0.9659255 0 -0.1292096 0.9814191 -0.1418507 0.1275642 0.9689561 0.211782 0.1275773 0.9690566 0.2113135 0.1275621 0.9689358 0.2118757 2.11281e-7 0 1 -1.58466e-7 0 1 3.61601e-7 0 1 1.58467e-7 0 1 0 0 1 -2.11282e-7 0 1 -2.11294e-7 0 1 -0.9913973 -0.1305204 0.009795665 0.6087337 0.7933142 0.009795427 0.6087348 -0.7933133 0.009795665 -0.9238373 -0.38266 0.009795427 0.38266 0.9238374 0.009795665 -0.1305208 0.9913972 0.009795665 0.7933142 -0.6087337 0.009795367 -0.7933153 -0.6087322 0.009795308 0.1305213 0.9913971 0.009795665 -0.38266 0.9238374 0.009795427 0.923835 -0.3826657 0.009795248 -0.6087298 -0.7933172 0.009795427 -0.6087348 0.7933133 0.009795308 0.9913983 -0.1305128 0.009795725 -0.3826665 -0.9238347 0.009795367 -0.7933171 0.60873 0.009795606 0.9913982 0.1305134 0.009795308 -0.1305137 -0.9913982 0.009795665 -0.9238375 0.3826596 0.009795665 0.9238346 0.3826666 0.009795427 0.1305135 -0.9913982 0.009795308 -0.9913971 0.1305214 0.009795665 0.7933139 0.6087341 0.009795367 0.3826666 -0.9238346 0.009795367 0.3826657 -0.923835 0.009795784 0.7933145 0.6087333 0.009795725 -0.991397 0.130523 0.009795546 0.1305218 -0.9913971 0.009795546 0.9238365 0.3826619 0.009795784 -0.9238364 0.3826624 0.009795546 -0.1305221 -0.9913971 0.009795486 0.991397 0.1305227 0.009795606 -0.7933148 0.608733 0.009795784 -0.3826657 -0.923835 0.009795546 0.9913969 -0.1305232 0.009795546 -0.608735 0.7933132 0.009795725 -0.6087299 -0.793317 0.009795904 0.9238365 -0.3826619 0.009795665 -0.3826657 0.923835 0.009795486 0.1305217 0.9913972 0.009795486 -0.7933131 -0.6087352 0.009795725 0.7933171 -0.6087299 0.009795725 -0.1305212 0.9913972 0.009795606 0.3826656 0.923835 0.009795546 -0.9238354 -0.3826647 0.009795486 0.6087297 -0.7933173 0.009795486 0.608735 0.7933132 0.009795546 -0.991397 -0.1305219 0.009795546 -0.9913973 -0.1305207 0.009795427 0.6087303 0.7933168 0.009795606 0.6087347 -0.7933134 0.009795486 -0.9238348 -0.3826662 0.009795606 0.3826657 0.923835 0.009795486 -0.1305207 0.9913973 0.009795486 0.7933145 -0.6087332 0.009795427 -0.7933169 -0.6087303 0.009795546 0.1305214 0.9913972 0.009795427 -0.3826667 0.9238346 0.009795606 0.9238373 -0.3826601 0.009795784 -0.6087336 -0.7933143 0.009795427 -0.6087296 0.7933174 0.009795486 0.9913972 -0.1305212 0.009795486 -0.3826577 -0.9238383 0.009795784 -0.793314 0.608734 0.009795129 0.9913972 0.1305209 0.009795784 -0.1305217 -0.9913972 0.009795427 -0.9238381 0.382658 0.009795486 0.9238373 0.3826601 0.009795427 0.1305212 -0.9913972 0.009795784 -0.9913971 0.1305215 0.009795427 0.7933143 0.6087337 0.009795486 0.3826606 -0.9238371 0.009795248 0.3826698 -0.9238333 0.009795606 0.7933154 0.6087321 0.009795546 -0.9913971 0.130522 0.009795606 0.1305152 -0.9913979 0.009795546 0.9238349 0.3826658 0.009795606 -0.923835 0.3826658 0.009795546 -0.1305155 -0.991398 0.009795546 0.991398 0.1305149 0.009795546 -0.7933183 0.6087283 0.009795606 -0.3826639 -0.9238357 0.009795546 0.991398 -0.1305149 0.009795546 -0.6087316 0.7933158 0.009795546 -0.6087328 -0.7933149 0.009795546 0.9238346 -0.3826665 0.009795546 -0.3826645 0.9238356 0.009795546 0.1305214 0.9913971 0.009795546 -0.7933161 -0.6087313 0.009795546 0.7933147 -0.608733 0.009795546 -0.1305209 0.9913972 0.009795606 0.3826643 0.9238355 0.009795546 -0.9238356 -0.3826642 0.009795606 0.6087316 -0.7933158 0.009795546 0.6087316 0.7933158 0.009795606 -0.9913973 -0.1305207 0.009795606 0.3826594 0.9238376 0.009795546 -0.3826579 0.9238382 0.009795486 -0.6087321 0.7933155 0.009795427 -0.7933232 0.608722 0.009795606 -0.9238365 0.3826618 0.009795606 0.923835 0.3826656 0.009795606 -0.07803273 -0.5928617 -0.8015148 -0.07803279 -0.5928618 -0.8015148 -0.07803273 -0.5928618 -0.8015147 0.07798689 -0.5924814 -0.8018003 0.2290424 -0.5523262 -0.8015457 0.2290332 -0.5523723 -0.8015165 0.2290384 -0.5523287 -0.8015451 -0.5920948 -0.07808285 -0.8020766 -0.5920956 -0.07808309 -0.8020761 -0.5920954 -0.07808291 -0.8020762 0.3640299 -0.4743266 -0.8015588 0.3638884 -0.4742432 -0.8016723 0.3640301 -0.4743252 -0.8015596 -0.5530955 -0.2286027 -0.8011406 -0.5530956 -0.2286028 -0.8011405 -0.5530955 -0.228603 -0.8011405 0.4746569 -0.3639817 -0.8013853 0.4748935 -0.3640477 -0.8012151 0.4746562 -0.3639819 -0.8013856 0.552398 -0.2288372 -0.8015548 0.5523263 -0.2286944 -0.8016449 0.5523576 -0.2288172 -0.8015884 0.5967336 -0.07782477 -0.7986567 0.5998451 -0.07756578 -0.7963476 0.596257 -0.07781416 -0.7990136 -0.4746585 -0.3639959 -0.8013778 -0.4746586 -0.3639959 -0.8013777 -0.4746585 -0.3639959 -0.8013777 -0.3639887 -0.4743163 -0.8015837 -0.3639895 -0.4743159 -0.8015836 -0.3639895 -0.4743161 -0.8015835 -0.2290408 -0.5524962 -0.8014289 -0.2290407 -0.5524962 -0.8014289 -0.2290403 -0.5524961 -0.8014291 0.1305211 0.9913972 0.009795486 -0.1305227 0.991397 0.009795546 0.7933142 0.6087338 0.009795606 0.6087334 0.7933144 0.009795606 -0.9913931 0.1305518 0.009795606 -0.9913971 0.1305218 0.009795427 0.9913952 0.1305362 0.009795367 0.9913983 0.1305131 0.009795546</float_array>
          <technique_common>
            <accessor source="#Cylinder_002-mesh-normals-array" count="665" stride="3">
              <param name="X" type="float"/>
              <param name="Y" type="float"/>
              <param name="Z" type="float"/>
            </accessor>
          </technique_common>
        </source>
        <source id="Cylinder_002-mesh-map-0">
          <float_array id="Cylinder_002-mesh-map-0-array" count="3180">0.431264 0.556699 0.433835 0.590621 0.420675 0.584468 0.450814 0.566506 0.444797 0.599983 0.433835 0.590621 0.467319 0.580887 0.452888 0.612012 0.444797 0.599983 0.479717 0.598988 0.458164 0.625531 0.452888 0.612012 0.487225 0.619663 0.459611 0.639953 0.458164 0.625531 0.489273 0.641561 0.457224 0.65453 0.459611 0.639953 0.485779 0.663239 0.450838 0.668308 0.457224 0.65453 0.477222 0.683136 0.44329 0.681768 0.450838 0.668308 0.464633 0.700244 0.432668 0.692481 0.44329 0.681768 0.450082 0.714622 0.419231 0.700757 0.432668 0.692481 0.433213 0.727483 0.402788 0.705508 0.419231 0.700757 0.412409 0.739602 0.380866 0.698447 0.402788 0.705508 0.341738 0.730282 0.362691 0.685803 0.380866 0.698447 0.330418 0.703895 0.351588 0.671203 0.362691 0.685803 0.321745 0.682192 0.345404 0.655728 0.351588 0.671203 0.31606 0.661279 0.342675 0.640933 0.345404 0.655728 0.314014 0.640391 0.343976 0.62628 0.342675 0.640933 0.316189 0.619705 0.347947 0.61277 0.343976 0.62628 0.322844 0.600045 0.35533 0.600932 0.347947 0.61277 0.333982 0.582465 0.365259 0.591293 0.35533 0.600932 0.34916 0.568046 0.377454 0.584655 0.365259 0.591293 0.367606 0.557765 0.391318 0.581336 0.377454 0.584655 0.848867 0.704094 0.855638 0.377997 0.855638 0.704102 0.388288 0.552286 0.405976 0.581881 0.391318 0.581336 0.409925 0.551937 0.420675 0.584468 0.405976 0.581881 0.402788 0.705508 0.345404 0.655728 0.405976 0.581881 0.436177 0.543082 0.450814 0.566506 0.431264 0.556699 0.458938 0.554478 0.467319 0.580887 0.450814 0.566506 0.478224 0.571232 0.479717 0.598988 0.467319 0.580887 0.501512 0.61651 0.479717 0.598988 0.492742 0.592356 0.501512 0.61651 0.489273 0.641561 0.487225 0.619663 0.499734 0.667424 0.489273 0.641561 0.503897 0.642115 0.489446 0.69042 0.485779 0.663239 0.499734 0.667424 0.474307 0.70885 0.477222 0.683136 0.489446 0.69042 0.458541 0.724098 0.464633 0.700244 0.474307 0.70885 0.441342 0.738531 0.450082 0.714622 0.458541 0.724098 0.420901 0.753532 0.433213 0.727483 0.441342 0.738531 0.395365 0.76941 0.412409 0.739602 0.420901 0.753532 0.316653 0.708971 0.341738 0.730282 0.324269 0.733987 0.316653 0.708971 0.321745 0.682192 0.330418 0.703895 0.302803 0.663608 0.321745 0.682192 0.308655 0.686316 0.302803 0.663608 0.314014 0.640391 0.31606 0.661279 0.300556 0.640288 0.316189 0.619705 0.314014 0.640391 0.310519 0.594127 0.316189 0.619705 0.302949 0.616772 0.32333 0.573687 0.322844 0.600045 0.310519 0.594127 0.32333 0.573687 0.34916 0.568046 0.333982 0.582465 0.362329 0.544692 0.34916 0.568046 0.340909 0.556813 0.386332 0.538147 0.367606 0.557765 0.362329 0.544692 0.411444 0.537588 0.388288 0.552286 0.386332 0.538147 0.411444 0.537588 0.431264 0.556699 0.409925 0.551937 0.711757 0.696936 0.747973 0.389664 0.718149 0.697563 0.718149 0.697563 0.753834 0.397087 0.724256 0.698135 0.724256 0.698135 0.759096 0.405512 0.730274 0.698675 0.824636 0.703799 0.829917 0.419975 0.830554 0.703911 0.730274 0.698675 0.76411 0.412611 0.736228 0.699188 0.830554 0.703911 0.835755 0.414669 0.836529 0.703998 0.736228 0.699188 0.768937 0.418142 0.742145 0.699674 0.836529 0.703998 0.84203 0.406866 0.842609 0.704059 0.742145 0.699674 0.773559 0.422406 0.748042 0.700137 0.842609 0.704059 0.848682 0.395458 0.848867 0.704094 0.748042 0.700137 0.777963 0.425751 0.753932 0.700575 0.780982 0.427318 0.777963 0.425751 0.777995 0.425709 0.1517249 0.271617 0.07057076 0.260806 0.152303 0.244758 0.701165 0.716741 0.687814 0.736162 0.681907 0.721901 0.701165 0.716741 0.679892 0.706597 0.69983 0.706597 0.701165 0.696453 0.679892 0.706597 0.681907 0.691293 0.705081 0.687001 0.681907 0.691293 0.687814 0.677032 0.617578 0.677032 0.678962 0.692462 0.617148 0.692462 0.1518149 0.298663 0.08671659 0.28479 0.152074 0.286185 0.69919 0.560611 0.685839 0.580032 0.679932 0.565771 0.69919 0.560611 0.677917 0.550467 0.697854 0.550467 0.697854 0.550467 0.679932 0.535163 0.69919 0.540323 0.703105 0.53087 0.679932 0.535163 0.685839 0.520902 0.151811 0.1357 0.07211136 0.1462129 0.08718305 0.129797 0.617148 0.692462 0.679297 0.704444 0.617578 0.707892 0.465067 0.789374 0.450495 0.749391 0.477177 0.773326 0.490559 0.758829 0.450495 0.749391 0.467387 0.733926 0.490559 0.758829 0.484082 0.71863 0.504841 0.745545 0.521074 0.734263 0.484082 0.71863 0.503406 0.70003 0.152074 0.286185 0.08915227 0.276988 0.1517249 0.271617 0.151661 0.02716159 0.0704838 0.0164203 0.152215 2.97815e-4 0.700383 0.643963 0.687032 0.663384 0.681125 0.649123 0.700383 0.643963 0.67911 0.633819 0.699047 0.633819 0.700383 0.623675 0.67911 0.633819 0.681125 0.618515 0.704298 0.614223 0.681125 0.618515 0.687032 0.604254 0.152022 0.04173135 0.0871405 0.04832726 0.08665341 0.04039418 0.08671945 0.203329 0.07056587 0.179348 0.08915317 0.195526 0.08669829 0.121864 0.07211136 0.1462129 0.06235188 0.121684 0.08669829 0.121864 0.07053667 0.09788656 0.0891298 0.11406 0.0871405 0.04832726 0.06230556 0.04022127 0.08665341 0.04039418 0.08665341 0.04039418 0.0704838 0.0164203 0.08908259 0.03258877 0.08719658 0.292722 0.06237298 0.284596 0.08671659 0.28479 0.08915227 0.276988 0.06237298 0.284596 0.07057076 0.260806 0.08671945 0.203329 0.07212638 0.2276729 0.06237465 0.203142 0.1581799 0.719281 0.220329 0.731263 0.1586109 0.734711 0.151774 0.05421185 0.0720728 0.06474906 0.0871405 0.04832726 0.151825 0.217184 0.08671945 0.203329 0.1520799 0.2047049 0.1586109 0.70385 0.219995 0.719281 0.1581799 0.719281 0.220925 0.719281 0.283074 0.731263 0.221356 0.734711 0.1518149 0.298663 0.07211697 0.309128 0.08719658 0.292722 0.1520799 0.2047049 0.08915317 0.195526 0.151727 0.190136 0.221356 0.70385 0.28274 0.719281 0.220925 0.719281 0.151727 0.190136 0.07056587 0.179348 0.152297 0.163276 0.151825 0.217184 0.07212638 0.2276729 0.08720195 0.211262 0.151706 0.108651 0.08669829 0.121864 0.0891298 0.11406 0.616365 0.647954 0.678514 0.635972 0.67818 0.647954 0.151811 0.1357 0.08669829 0.121864 0.152063 0.12322 0.151706 0.108651 0.07053667 0.09788656 0.1522679 0.08178889 0.152022 0.04173135 0.08908259 0.03258877 0.151661 0.02716159 0.616365 0.647954 0.678514 0.659937 0.616796 0.663384 0.413381 0.520902 0.436177 0.543082 0.411444 0.537588 0.413381 0.520902 0.386332 0.538147 0.384207 0.521629 0.384207 0.521629 0.362329 0.544692 0.356295 0.529336 0.331373 0.543562 0.362329 0.544692 0.340909 0.556813 0.331373 0.543562 0.32333 0.573687 0.310983 0.563311 0.296258 0.587118 0.32333 0.573687 0.310519 0.594127 0.296258 0.587118 0.302949 0.616772 0.287747 0.613263 0.285305 0.640029 0.302949 0.616772 0.300556 0.640288 0.288125 0.665977 0.300556 0.640288 0.302803 0.663608 0.288125 0.665977 0.308655 0.686316 0.294683 0.690319 0.302757 0.713214 0.308655 0.686316 0.316653 0.708971 0.309079 0.736105 0.316653 0.708971 0.324269 0.733987 0.430899 0.767578 0.395365 0.76941 0.420901 0.753532 0.430899 0.767578 0.441342 0.738531 0.450495 0.749391 0.467387 0.733926 0.441342 0.738531 0.458541 0.724098 0.467387 0.733926 0.474307 0.70885 0.484082 0.71863 0.484082 0.71863 0.489446 0.69042 0.503406 0.70003 0.516043 0.672752 0.489446 0.69042 0.499734 0.667424 0.516043 0.672752 0.503897 0.642115 0.521074 0.643055 0.518358 0.613062 0.503897 0.642115 0.501512 0.61651 0.518358 0.613062 0.492742 0.592356 0.508142 0.584785 0.491179 0.560076 0.492742 0.592356 0.478224 0.571232 0.46865 0.54051 0.478224 0.571232 0.458938 0.554478 0.442123 0.527247 0.458938 0.554478 0.436177 0.543082 0.574337 0.399826 0.710261 0.407783 0.574249 0.406021 0.57412 0.455589 0.710193 0.460377 0.574176 0.461785 0.574849 0.498955 0.710988 0.501276 0.575018 0.505149 0.574441 0.393631 0.710344 0.40194 0.574337 0.399826 0.57408 0.449393 0.71014 0.454533 0.57412 0.455589 0.574048 0.437001 0.71008 0.442845 0.574056 0.443197 0.574697 0.492761 0.710829 0.495434 0.574849 0.498955 0.574562 0.387435 0.710443 0.396096 0.574441 0.393631 0.574056 0.443197 0.710102 0.448689 0.57408 0.449393 0.574056 0.430805 0.710072 0.437001 0.574048 0.437001 0.574561 0.486566 0.710685 0.489592 0.574697 0.492761 0.574698 0.381241 0.710556 0.390254 0.574562 0.387435 0.57408 0.424609 0.71008 0.431157 0.574056 0.430805 0.57444 0.480371 0.710556 0.483749 0.574561 0.486566 0.574851 0.375047 0.710685 0.384411 0.574698 0.381241 0.57412 0.418413 0.710102 0.425314 0.57408 0.424609 0.574336 0.474176 0.710443 0.477906 0.57444 0.480371 0.575019 0.368853 0.710829 0.378569 0.574851 0.375047 0.574176 0.412217 0.71014 0.41947 0.57412 0.418413 0.574248 0.467981 0.710344 0.472063 0.574336 0.474176 0.575203 0.36266 0.710988 0.372728 0.575019 0.368853 0.574249 0.406021 0.710193 0.413626 0.574176 0.412217 0.574176 0.461785 0.710261 0.46622 0.574248 0.467981 0.575018 0.505149 0.711162 0.507117 0.575202 0.511342 0.418231 0.509612 0.575202 0.511342 0.418428 0.516212 0.417335 0.463407 0.574248 0.467981 0.417411 0.470008 0.417412 0.403989 0.574176 0.412217 0.417335 0.410591 0.418429 0.357786 0.575019 0.368853 0.418233 0.364385 0.417411 0.470008 0.574336 0.474176 0.417506 0.47661 0.417335 0.410591 0.57412 0.418413 0.417275 0.417192 0.418233 0.364385 0.574851 0.375047 0.418053 0.370985 0.417506 0.47661 0.57444 0.480371 0.417616 0.483211 0.417275 0.417192 0.57408 0.424609 0.417233 0.423795 0.418053 0.370985 0.574698 0.381241 0.417891 0.377585 0.417616 0.483211 0.574561 0.486566 0.417744 0.489812 0.417233 0.423795 0.574056 0.430805 0.417207 0.430396 0.417891 0.377585 0.574562 0.387435 0.417746 0.384185 0.417744 0.489812 0.574697 0.492761 0.41789 0.496412 0.417207 0.430396 0.574048 0.437001 0.417198 0.436999 0.417207 0.443601 0.57408 0.449393 0.417232 0.450203 0.417746 0.384185 0.574441 0.393631 0.417617 0.390786 0.41789 0.496412 0.574849 0.498955 0.418052 0.503013 0.417198 0.436999 0.574056 0.443197 0.417207 0.443601 0.417232 0.450203 0.57412 0.455589 0.417275 0.456805 0.417617 0.390786 0.574337 0.399826 0.417506 0.397388 0.418052 0.503013 0.575018 0.505149 0.418231 0.509612 0.417275 0.456805 0.574176 0.461785 0.417335 0.463407 0.417506 0.397388 0.574249 0.406021 0.417412 0.403989 0.285629 0.395338 0.417412 0.403989 0.285531 0.402281 0.285386 0.457828 0.417335 0.463407 0.285449 0.464771 0.286203 0.506425 0.418231 0.509612 0.286392 0.513366 0.285746 0.388396 0.417506 0.397388 0.285629 0.395338 0.285341 0.450884 0.417275 0.456805 0.285386 0.457828 0.285305 0.436998 0.417207 0.443601 0.285314 0.443941 0.286033 0.499483 0.418052 0.503013 0.286203 0.506425 0.285881 0.381454 0.417617 0.390786 0.285746 0.388396 0.285314 0.443941 0.417232 0.450203 0.285341 0.450884 0.285315 0.430054 0.417198 0.436999 0.285305 0.436998 0.28588 0.492542 0.41789 0.496412 0.286033 0.499483 0.286034 0.374512 0.417746 0.384185 0.285881 0.381454 0.285342 0.423111 0.417207 0.430396 0.285315 0.430054 0.285745 0.485599 0.417744 0.489812 0.28588 0.492542 0.286205 0.36757 0.417891 0.377585 0.286034 0.374512 0.285387 0.416167 0.417233 0.423795 0.285342 0.423111 0.285628 0.478657 0.417616 0.483211 0.285745 0.485599 0.286393 0.360629 0.418053 0.370985 0.286205 0.36757 0.28545 0.409224 0.417275 0.417192 0.285387 0.416167 0.28553 0.471714 0.417506 0.47661 0.285628 0.478657 0.2866 0.353689 0.418233 0.364385 0.286393 0.360629 0.285531 0.402281 0.417335 0.410591 0.28545 0.409224 0.285449 0.464771 0.417411 0.470008 0.28553 0.471714 0.286392 0.513366 0.418428 0.516212 0.286598 0.520306 0.151727 0.339485 0.931392 0.35007 0.1516979 0.353093 0.151775 0.2444 0.931467 0.254756 0.15175 0.258008 0.152063 0.12322 0.931518 0.132219 0.151811 0.1357 0.151661 0.02716159 0.931524 0.03683245 0.152022 0.04173135 0.15175 0.258008 0.93146 0.268364 0.1517249 0.271617 0.151811 0.1357 0.931515 0.145828 0.15179 0.149309 0.152022 0.04173135 0.931522 0.05050176 0.151774 0.05421185 0.1517249 0.271617 0.931452 0.281973 0.152074 0.286185 0.15179 0.149309 0.931511 0.159436 0.151769 0.162918 0.151774 0.05421185 0.931523 0.06411087 0.151757 0.06782126 0.152074 0.286185 0.931438 0.29564 0.1518149 0.298663 0.151769 0.162918 0.931508 0.173045 0.151748 0.176527 0.151757 0.06782126 0.931523 0.0777204 0.15174 0.08143091 0.1518149 0.298663 0.931427 0.309247 0.151785 0.31227 0.151748 0.176527 0.931504 0.186655 0.151727 0.190136 0.1520799 0.2047049 0.93149 0.213932 0.151825 0.217184 0.15174 0.08143091 0.931524 0.09133017 0.151723 0.09504085 0.151785 0.31227 0.931415 0.322854 0.151756 0.325877 0.151727 0.190136 0.9315 0.200264 0.1520799 0.2047049 0.151825 0.217184 0.931483 0.22754 0.1518 0.230792 0.151723 0.09504085 0.931524 0.1049399 0.151706 0.108651 0.151756 0.325877 0.931404 0.336462 0.151727 0.339485 0.1518 0.230792 0.931475 0.2411479 0.151775 0.2444 0.151706 0.108651 0.931524 0.118551 0.152063 0.12322 0.801083 0.703139 0.804224 0.4317 0.807876 0.431102 0.777499 0.702076 0.797216 0.43196 0.783398 0.702384 0.771602 0.70174 0.793716 0.431596 0.777499 0.702076 0.765708 0.701377 0.790121 0.430864 0.771602 0.70174 0.759819 0.700988 0.786351 0.429705 0.765708 0.701377 0.818742 0.703667 0.815788 0.42875 0.82014 0.42674 0.747973 0.389664 0.754528 0.396728 0.753834 0.397087 0.855484 0.353689 0.854286 0.377893 0.853701 0.353723 0.855638 0.377997 0.847878 0.395228 0.854286 0.377893 0.773559 0.422406 0.777995 0.425709 0.777963 0.425751 0.848682 0.395458 0.841569 0.406645 0.847878 0.395228 0.768937 0.418142 0.773656 0.422304 0.773559 0.422406 0.84203 0.406866 0.835518 0.414507 0.841569 0.406645 0.835755 0.414669 0.829823 0.419886 0.835518 0.414507 0.829917 0.419975 0.824806 0.423906 0.829823 0.419886 0.76411 0.412611 0.769129 0.417981 0.768937 0.418142 0.759096 0.405512 0.764432 0.412398 0.76411 0.412611 0.753834 0.397087 0.759583 0.405247 0.759096 0.405512 0.795191 0.702914 0.800694 0.431988 0.804224 0.4317 0.783398 0.702384 0.800694 0.431988 0.789296 0.702663 0.812856 0.703514 0.811717 0.430155 0.815788 0.42875 0.80697 0.703338 0.807876 0.431102 0.811717 0.430155 0.753932 0.700575 0.777963 0.425751 0.780982 0.427318 0.823219 0.42488 0.824636 0.703799 0.82014 0.42674 0.824823 0.423928 0.823219 0.42488 0.824806 0.423906 0.431264 0.556699 0.450814 0.566506 0.433835 0.590621 0.450814 0.566506 0.467319 0.580887 0.444797 0.599983 0.467319 0.580887 0.479717 0.598988 0.452888 0.612012 0.479717 0.598988 0.487225 0.619663 0.458164 0.625531 0.487225 0.619663 0.489273 0.641561 0.459611 0.639953 0.489273 0.641561 0.485779 0.663239 0.457224 0.65453 0.485779 0.663239 0.477222 0.683136 0.450838 0.668308 0.477222 0.683136 0.464633 0.700244 0.44329 0.681768 0.464633 0.700244 0.450082 0.714622 0.432668 0.692481 0.450082 0.714622 0.433213 0.727483 0.419231 0.700757 0.433213 0.727483 0.412409 0.739602 0.402788 0.705508 0.412409 0.739602 0.385048 0.751414 0.380866 0.698447 0.341738 0.730282 0.330418 0.703895 0.362691 0.685803 0.330418 0.703895 0.321745 0.682192 0.351588 0.671203 0.321745 0.682192 0.31606 0.661279 0.345404 0.655728 0.31606 0.661279 0.314014 0.640391 0.342675 0.640933 0.314014 0.640391 0.316189 0.619705 0.343976 0.62628 0.316189 0.619705 0.322844 0.600045 0.347947 0.61277 0.322844 0.600045 0.333982 0.582465 0.35533 0.600932 0.333982 0.582465 0.34916 0.568046 0.365259 0.591293 0.34916 0.568046 0.367606 0.557765 0.377454 0.584655 0.367606 0.557765 0.388288 0.552286 0.391318 0.581336 0.848867 0.704094 0.848682 0.395458 0.855638 0.377997 0.388288 0.552286 0.409925 0.551937 0.405976 0.581881 0.409925 0.551937 0.431264 0.556699 0.420675 0.584468 0.405976 0.581881 0.420675 0.584468 0.452888 0.612012 0.420675 0.584468 0.433835 0.590621 0.452888 0.612012 0.433835 0.590621 0.444797 0.599983 0.452888 0.612012 0.452888 0.612012 0.458164 0.625531 0.459611 0.639953 0.459611 0.639953 0.457224 0.65453 0.450838 0.668308 0.450838 0.668308 0.44329 0.681768 0.432668 0.692481 0.432668 0.692481 0.419231 0.700757 0.402788 0.705508 0.402788 0.705508 0.380866 0.698447 0.362691 0.685803 0.362691 0.685803 0.351588 0.671203 0.345404 0.655728 0.345404 0.655728 0.342675 0.640933 0.343976 0.62628 0.343976 0.62628 0.347947 0.61277 0.35533 0.600932 0.35533 0.600932 0.365259 0.591293 0.377454 0.584655 0.377454 0.584655 0.391318 0.581336 0.405976 0.581881 0.452888 0.612012 0.459611 0.639953 0.450838 0.668308 0.450838 0.668308 0.432668 0.692481 0.402788 0.705508 0.402788 0.705508 0.362691 0.685803 0.345404 0.655728 0.345404 0.655728 0.343976 0.62628 0.405976 0.581881 0.343976 0.62628 0.35533 0.600932 0.405976 0.581881 0.35533 0.600932 0.377454 0.584655 0.405976 0.581881 0.405976 0.581881 0.452888 0.612012 0.450838 0.668308 0.450838 0.668308 0.402788 0.705508 0.405976 0.581881 0.436177 0.543082 0.458938 0.554478 0.450814 0.566506 0.458938 0.554478 0.478224 0.571232 0.467319 0.580887 0.478224 0.571232 0.492742 0.592356 0.479717 0.598988 0.501512 0.61651 0.487225 0.619663 0.479717 0.598988 0.501512 0.61651 0.503897 0.642115 0.489273 0.641561 0.499734 0.667424 0.485779 0.663239 0.489273 0.641561 0.489446 0.69042 0.477222 0.683136 0.485779 0.663239 0.474307 0.70885 0.464633 0.700244 0.477222 0.683136 0.458541 0.724098 0.450082 0.714622 0.464633 0.700244 0.441342 0.738531 0.433213 0.727483 0.450082 0.714622 0.420901 0.753532 0.412409 0.739602 0.433213 0.727483 0.395365 0.76941 0.385048 0.751414 0.412409 0.739602 0.316653 0.708971 0.330418 0.703895 0.341738 0.730282 0.316653 0.708971 0.308655 0.686316 0.321745 0.682192 0.302803 0.663608 0.31606 0.661279 0.321745 0.682192 0.302803 0.663608 0.300556 0.640288 0.314014 0.640391 0.300556 0.640288 0.302949 0.616772 0.316189 0.619705 0.310519 0.594127 0.322844 0.600045 0.316189 0.619705 0.32333 0.573687 0.333982 0.582465 0.322844 0.600045 0.32333 0.573687 0.340909 0.556813 0.34916 0.568046 0.362329 0.544692 0.367606 0.557765 0.34916 0.568046 0.386332 0.538147 0.388288 0.552286 0.367606 0.557765 0.411444 0.537588 0.409925 0.551937 0.388288 0.552286 0.411444 0.537588 0.436177 0.543082 0.431264 0.556699 0.711757 0.696936 0.742378 0.389115 0.747973 0.389664 0.718149 0.697563 0.747973 0.389664 0.753834 0.397087 0.724256 0.698135 0.753834 0.397087 0.759096 0.405512 0.824636 0.703799 0.824823 0.423928 0.829917 0.419975 0.730274 0.698675 0.759096 0.405512 0.76411 0.412611 0.830554 0.703911 0.829917 0.419975 0.835755 0.414669 0.736228 0.699188 0.76411 0.412611 0.768937 0.418142 0.836529 0.703998 0.835755 0.414669 0.84203 0.406866 0.742145 0.699674 0.768937 0.418142 0.773559 0.422406 0.842609 0.704059 0.84203 0.406866 0.848682 0.395458 0.748042 0.700137 0.773559 0.422406 0.777963 0.425751 0.1517249 0.271617 0.08915227 0.276988 0.07057076 0.260806 0.701165 0.716741 0.705081 0.726193 0.687814 0.736162 0.701165 0.716741 0.681907 0.721901 0.679892 0.706597 0.701165 0.696453 0.69983 0.706597 0.679892 0.706597 0.705081 0.687001 0.701165 0.696453 0.681907 0.691293 0.617578 0.677032 0.679297 0.680479 0.678962 0.692462 0.1518149 0.298663 0.08719658 0.292722 0.08671659 0.28479 0.69919 0.560611 0.703105 0.570063 0.685839 0.580032 0.69919 0.560611 0.679932 0.565771 0.677917 0.550467 0.697854 0.550467 0.677917 0.550467 0.679932 0.535163 0.703105 0.53087 0.69919 0.540323 0.679932 0.535163 0.151811 0.1357 0.152345 0.162074 0.07211136 0.1462129 0.617148 0.692462 0.678962 0.692462 0.679297 0.704444 0.465067 0.789374 0.430899 0.767578 0.450495 0.749391 0.490559 0.758829 0.477177 0.773326 0.450495 0.749391 0.490559 0.758829 0.467387 0.733926 0.484082 0.71863 0.521074 0.734263 0.504841 0.745545 0.484082 0.71863 0.152074 0.286185 0.08671659 0.28479 0.08915227 0.276988 0.151661 0.02716159 0.08908259 0.03258877 0.0704838 0.0164203 0.700383 0.643963 0.704298 0.653416 0.687032 0.663384 0.700383 0.643963 0.681125 0.649123 0.67911 0.633819 0.700383 0.623675 0.699047 0.633819 0.67911 0.633819 0.704298 0.614223 0.700383 0.623675 0.681125 0.618515 0.152022 0.04173135 0.151774 0.05421185 0.0871405 0.04832726 0.08671945 0.203329 0.06237465 0.203142 0.07056587 0.179348 0.08669829 0.121864 0.08718305 0.129797 0.07211136 0.1462129 0.08669829 0.121864 0.06235188 0.121684 0.07053667 0.09788656 0.0871405 0.04832726 0.0720728 0.06474906 0.06230556 0.04022127 0.08665341 0.04039418 0.06230556 0.04022127 0.0704838 0.0164203 0.08719658 0.292722 0.07211697 0.309128 0.06237298 0.284596 0.08915227 0.276988 0.08671659 0.28479 0.06237298 0.284596 0.08671945 0.203329 0.08720195 0.211262 0.07212638 0.2276729 0.1581799 0.719281 0.219995 0.719281 0.220329 0.731263 0.151774 0.05421185 0.152316 0.08058708 0.0720728 0.06474906 0.151825 0.217184 0.08720195 0.211262 0.08671945 0.203329 0.1586109 0.70385 0.220329 0.707298 0.219995 0.719281 0.220925 0.719281 0.28274 0.719281 0.283074 0.731263 0.1518149 0.298663 0.152333 0.325034 0.07211697 0.309128 0.1520799 0.2047049 0.08671945 0.203329 0.08915317 0.195526 0.221356 0.70385 0.283074 0.707298 0.28274 0.719281 0.151727 0.190136 0.08915317 0.195526 0.07056587 0.179348 0.151825 0.217184 0.152351 0.243556 0.07212638 0.2276729 0.151706 0.108651 0.152063 0.12322 0.08669829 0.121864 0.616365 0.647954 0.616796 0.632524 0.678514 0.635972 0.151811 0.1357 0.08718305 0.129797 0.08669829 0.121864 0.151706 0.108651 0.0891298 0.11406 0.07053667 0.09788656 0.152022 0.04173135 0.08665341 0.04039418 0.08908259 0.03258877 0.616365 0.647954 0.67818 0.647954 0.678514 0.659937 0.413381 0.520902 0.442123 0.527247 0.436177 0.543082 0.413381 0.520902 0.411444 0.537588 0.386332 0.538147 0.384207 0.521629 0.386332 0.538147 0.362329 0.544692 0.331373 0.543562 0.356295 0.529336 0.362329 0.544692 0.331373 0.543562 0.340909 0.556813 0.32333 0.573687 0.296258 0.587118 0.310983 0.563311 0.32333 0.573687 0.296258 0.587118 0.310519 0.594127 0.302949 0.616772 0.285305 0.640029 0.287747 0.613263 0.302949 0.616772 0.288125 0.665977 0.285305 0.640029 0.300556 0.640288 0.288125 0.665977 0.302803 0.663608 0.308655 0.686316 0.302757 0.713214 0.294683 0.690319 0.308655 0.686316 0.309079 0.736105 0.302757 0.713214 0.316653 0.708971 0.430899 0.767578 0.407304 0.783797 0.395365 0.76941 0.430899 0.767578 0.420901 0.753532 0.441342 0.738531 0.467387 0.733926 0.450495 0.749391 0.441342 0.738531 0.467387 0.733926 0.458541 0.724098 0.474307 0.70885 0.484082 0.71863 0.474307 0.70885 0.489446 0.69042 0.516043 0.672752 0.503406 0.70003 0.489446 0.69042 0.516043 0.672752 0.499734 0.667424 0.503897 0.642115 0.518358 0.613062 0.521074 0.643055 0.503897 0.642115 0.518358 0.613062 0.501512 0.61651 0.492742 0.592356 0.491179 0.560076 0.508142 0.584785 0.492742 0.592356 0.46865 0.54051 0.491179 0.560076 0.478224 0.571232 0.442123 0.527247 0.46865 0.54051 0.458938 0.554478 0.574337 0.399826 0.710344 0.40194 0.710261 0.407783 0.57412 0.455589 0.71014 0.454533 0.710193 0.460377 0.574849 0.498955 0.710829 0.495434 0.710988 0.501276 0.574441 0.393631 0.710443 0.396096 0.710344 0.40194 0.57408 0.449393 0.710102 0.448689 0.71014 0.454533 0.574048 0.437001 0.710072 0.437001 0.71008 0.442845 0.574697 0.492761 0.710685 0.489592 0.710829 0.495434 0.574562 0.387435 0.710556 0.390254 0.710443 0.396096 0.574056 0.443197 0.71008 0.442845 0.710102 0.448689 0.574056 0.430805 0.71008 0.431157 0.710072 0.437001 0.574561 0.486566 0.710556 0.483749 0.710685 0.489592 0.574698 0.381241 0.710685 0.384411 0.710556 0.390254 0.57408 0.424609 0.710102 0.425314 0.71008 0.431157 0.57444 0.480371 0.710443 0.477906 0.710556 0.483749 0.574851 0.375047 0.710829 0.378569 0.710685 0.384411 0.57412 0.418413 0.71014 0.41947 0.710102 0.425314 0.574336 0.474176 0.710344 0.472063 0.710443 0.477906 0.575019 0.368853 0.710988 0.372728 0.710829 0.378569 0.574176 0.412217 0.710193 0.413626 0.71014 0.41947 0.574248 0.467981 0.710261 0.46622 0.710344 0.472063 0.575203 0.36266 0.711162 0.366886 0.710988 0.372728 0.574249 0.406021 0.710261 0.407783 0.710193 0.413626 0.574176 0.461785 0.710193 0.460377 0.710261 0.46622 0.575018 0.505149 0.710988 0.501276 0.711162 0.507117 0.418231 0.509612 0.575018 0.505149 0.575202 0.511342 0.417335 0.463407 0.574176 0.461785 0.574248 0.467981 0.417412 0.403989 0.574249 0.406021 0.574176 0.412217 0.418429 0.357786 0.575203 0.36266 0.575019 0.368853 0.417411 0.470008 0.574248 0.467981 0.574336 0.474176 0.417335 0.410591 0.574176 0.412217 0.57412 0.418413 0.418233 0.364385 0.575019 0.368853 0.574851 0.375047 0.417506 0.47661 0.574336 0.474176 0.57444 0.480371 0.417275 0.417192 0.57412 0.418413 0.57408 0.424609 0.418053 0.370985 0.574851 0.375047 0.574698 0.381241 0.417616 0.483211 0.57444 0.480371 0.574561 0.486566 0.417233 0.423795 0.57408 0.424609 0.574056 0.430805 0.417891 0.377585 0.574698 0.381241 0.574562 0.387435 0.417744 0.489812 0.574561 0.486566 0.574697 0.492761 0.417207 0.430396 0.574056 0.430805 0.574048 0.437001 0.417207 0.443601 0.574056 0.443197 0.57408 0.449393 0.417746 0.384185 0.574562 0.387435 0.574441 0.393631 0.41789 0.496412 0.574697 0.492761 0.574849 0.498955 0.417198 0.436999 0.574048 0.437001 0.574056 0.443197 0.417232 0.450203 0.57408 0.449393 0.57412 0.455589 0.417617 0.390786 0.574441 0.393631 0.574337 0.399826 0.418052 0.503013 0.574849 0.498955 0.575018 0.505149 0.417275 0.456805 0.57412 0.455589 0.574176 0.461785 0.417506 0.397388 0.574337 0.399826 0.574249 0.406021 0.285629 0.395338 0.417506 0.397388 0.417412 0.403989 0.285386 0.457828 0.417275 0.456805 0.417335 0.463407 0.286203 0.506425 0.418052 0.503013 0.418231 0.509612 0.285746 0.388396 0.417617 0.390786 0.417506 0.397388 0.285341 0.450884 0.417232 0.450203 0.417275 0.456805 0.285305 0.436998 0.417198 0.436999 0.417207 0.443601 0.286033 0.499483 0.41789 0.496412 0.418052 0.503013 0.285881 0.381454 0.417746 0.384185 0.417617 0.390786 0.285314 0.443941 0.417207 0.443601 0.417232 0.450203 0.285315 0.430054 0.417207 0.430396 0.417198 0.436999 0.28588 0.492542 0.417744 0.489812 0.41789 0.496412 0.286034 0.374512 0.417891 0.377585 0.417746 0.384185 0.285342 0.423111 0.417233 0.423795 0.417207 0.430396 0.285745 0.485599 0.417616 0.483211 0.417744 0.489812 0.286205 0.36757 0.418053 0.370985 0.417891 0.377585 0.285387 0.416167 0.417275 0.417192 0.417233 0.423795 0.285628 0.478657 0.417506 0.47661 0.417616 0.483211 0.286393 0.360629 0.418233 0.364385 0.418053 0.370985 0.28545 0.409224 0.417335 0.410591 0.417275 0.417192 0.28553 0.471714 0.417411 0.470008 0.417506 0.47661 0.2866 0.353689 0.418429 0.357786 0.418233 0.364385 0.285531 0.402281 0.417412 0.403989 0.417335 0.410591 0.285449 0.464771 0.417335 0.463407 0.417411 0.470008 0.286392 0.513366 0.418231 0.509612 0.418428 0.516212 0.151727 0.339485 0.931404 0.336462 0.931392 0.35007 0.151775 0.2444 0.931475 0.2411479 0.931467 0.254756 0.152063 0.12322 0.931524 0.118551 0.931518 0.132219 0.151661 0.02716159 0.93152 0.02322137 0.931524 0.03683245 0.15175 0.258008 0.931467 0.254756 0.93146 0.268364 0.151811 0.1357 0.931518 0.132219 0.931515 0.145828 0.152022 0.04173135 0.931524 0.03683245 0.931522 0.05050176 0.1517249 0.271617 0.93146 0.268364 0.931452 0.281973 0.15179 0.149309 0.931515 0.145828 0.931511 0.159436 0.151774 0.05421185 0.931522 0.05050176 0.931523 0.06411087 0.152074 0.286185 0.931452 0.281973 0.931438 0.29564 0.151769 0.162918 0.931511 0.159436 0.931508 0.173045 0.151757 0.06782126 0.931523 0.06411087 0.931523 0.0777204 0.1518149 0.298663 0.931438 0.29564 0.931427 0.309247 0.151748 0.176527 0.931508 0.173045 0.931504 0.186655 0.1520799 0.2047049 0.9315 0.200264 0.93149 0.213932 0.15174 0.08143091 0.931523 0.0777204 0.931524 0.09133017 0.151785 0.31227 0.931427 0.309247 0.931415 0.322854 0.151727 0.190136 0.931504 0.186655 0.9315 0.200264 0.151825 0.217184 0.93149 0.213932 0.931483 0.22754 0.151723 0.09504085 0.931524 0.09133017 0.931524 0.1049399 0.151756 0.325877 0.931415 0.322854 0.931404 0.336462 0.1518 0.230792 0.931483 0.22754 0.931475 0.2411479 0.151706 0.108651 0.931524 0.1049399 0.931524 0.118551 0.801083 0.703139 0.795191 0.702914 0.804224 0.4317 0.777499 0.702076 0.793716 0.431596 0.797216 0.43196 0.771602 0.70174 0.790121 0.430864 0.793716 0.431596 0.765708 0.701377 0.786351 0.429705 0.790121 0.430864 0.759819 0.700988 0.782324 0.42803 0.786351 0.429705 0.818742 0.703667 0.812856 0.703514 0.815788 0.42875 0.747973 0.389664 0.748845 0.388896 0.754528 0.396728 0.855484 0.353689 0.855638 0.377997 0.854286 0.377893 0.855638 0.377997 0.848682 0.395458 0.847878 0.395228 0.773559 0.422406 0.773656 0.422304 0.777995 0.425709 0.848682 0.395458 0.84203 0.406866 0.841569 0.406645 0.768937 0.418142 0.769129 0.417981 0.773656 0.422304 0.84203 0.406866 0.835755 0.414669 0.835518 0.414507 0.835755 0.414669 0.829917 0.419975 0.829823 0.419886 0.829917 0.419975 0.824823 0.423928 0.824806 0.423906 0.76411 0.412611 0.764432 0.412398 0.769129 0.417981 0.759096 0.405512 0.759583 0.405247 0.764432 0.412398 0.753834 0.397087 0.754528 0.396728 0.759583 0.405247 0.795191 0.702914 0.789296 0.702663 0.800694 0.431988 0.783398 0.702384 0.797216 0.43196 0.800694 0.431988 0.812856 0.703514 0.80697 0.703338 0.811717 0.430155 0.80697 0.703338 0.801083 0.703139 0.807876 0.431102 0.782324 0.42803 0.759819 0.700988 0.780982 0.427318 0.759819 0.700988 0.753932 0.700575 0.780982 0.427318 0.824823 0.423928 0.824636 0.703799 0.823219 0.42488 0.824636 0.703799 0.818742 0.703667 0.82014 0.42674</float_array>
          <technique_common>
            <accessor source="#Cylinder_002-mesh-map-0-array" count="1590" stride="2">
              <param name="S" type="float"/>
              <param name="T" type="float"/>
            </accessor>
          </technique_common>
        </source>
        <vertices id="Cylinder_002-mesh-vertices">
          <input semantic="POSITION" source="#Cylinder_002-mesh-positions"/>
        </vertices>
        <triangles material="Plastic010_1K_Displacement-material" count="530">
          <input semantic="VERTEX" source="#Cylinder_002-mesh-vertices" offset="0"/>
          <input semantic="NORMAL" source="#Cylinder_002-mesh-normals" offset="1"/>
          <input semantic="TEXCOORD" source="#Cylinder_002-mesh-map-0" offset="2" set="0"/>
          <p>49 0 0 2 0 1 0 0 2 48 1 3 4 1 4 2 1 5 50 2 6 6 2 7 4 2 8 51 3 9 8 3 10 6 3 11 52 4 12 10 4 13 8 4 14 53 5 15 12 5 16 10 5 17 54 6 18 14 6 19 12 6 20 55 7 21 16 7 22 14 7 23 56 8 24 18 8 25 16 8 26 57 9 27 20 9 28 18 9 29 58 10 30 22 10 31 20 10 32 59 11 33 24 11 34 22 11 35 60 12 36 26 12 37 24 12 38 61 13 39 28 13 40 26 13 41 62 14 42 30 14 43 28 14 44 63 15 45 32 15 46 30 15 47 64 16 48 34 16 49 32 16 50 65 17 51 36 17 52 34 17 53 66 18 54 38 18 55 36 18 56 67 19 57 40 19 58 38 19 59 68 20 60 42 20 61 40 20 62 69 21 63 44 21 64 42 21 65 157 22 66 77 22 67 158 22 68 70 23 69 46 23 70 44 23 71 71 24 72 0 24 73 46 24 74 22 25 75 30 25 76 46 25 77 156 26 78 48 27 79 49 28 80 133 29 81 50 30 82 48 31 83 134 32 84 51 33 85 50 34 86 136 35 87 51 36 88 135 37 89 136 38 90 53 39 91 52 40 92 138 41 93 53 42 94 137 43 95 139 44 96 54 44 97 138 45 98 140 46 99 55 47 100 139 48 101 141 49 102 56 50 103 140 51 104 142 52 105 57 53 106 141 54 107 143 55 108 58 56 109 142 57 110 144 58 111 59 59 112 143 60 113 145 61 114 60 62 115 144 63 116 145 64 117 62 65 118 61 66 119 147 67 120 62 68 121 146 69 122 147 70 123 64 71 124 63 72 125 148 73 126 65 74 127 64 75 128 150 76 129 65 77 130 149 78 131 151 79 132 66 79 133 150 80 134 151 81 135 68 82 136 67 83 137 153 84 138 68 85 139 152 86 140 154 87 141 69 88 142 153 89 143 155 90 144 70 91 145 154 92 146 155 93 147 49 94 148 71 95 149 158 96 150 78 96 151 163 96 152 163 97 153 79 97 154 166 97 155 166 98 156 80 98 157 169 98 158 167 99 159 73 99 160 170 99 161 169 100 162 81 100 163 172 100 164 170 101 165 74 101 166 173 101 167 172 102 168 82 102 169 177 102 170 173 103 171 75 103 172 178 103 173 177 104 174 83 104 175 180 104 176 178 105 177 76 105 178 157 105 179 180 106 180 84 106 181 161 106 182 278 107 183 84 108 184 272 109 185 11 110 186 123 110 187 90 110 188 45 111 189 108 111 190 107 111 191 45 112 192 106 112 193 43 112 194 41 113 195 106 113 196 105 113 197 39 112 198 105 112 199 104 112 200 90 114 201 124 115 202 91 116 203 15 117 204 111 118 205 13 119 206 33 120 207 102 120 208 101 120 209 33 121 210 100 121 211 31 121 212 31 112 213 99 112 214 29 112 215 27 122 216 99 122 217 98 122 218 39 123 219 131 123 220 119 123 221 91 124 222 125 125 223 92 126 224 23 112 225 95 112 226 21 112 227 19 112 228 95 112 229 94 112 230 19 112 231 93 112 232 17 112 233 15 127 234 93 127 235 92 127 236 13 128 237 112 128 238 11 129 239 23 130 240 126 130 241 96 130 242 9 131 243 90 131 244 89 131 245 9 132 246 88 132 247 7 132 248 5 133 249 88 133 250 87 133 251 3 134 252 87 134 253 86 134 254 25 135 255 116 135 256 114 135 257 110 112 258 132 112 259 120 112 260 117 136 261 131 136 262 130 136 263 117 137 264 129 137 265 118 137 266 116 138 267 127 138 268 114 138 269 114 112 270 126 112 271 115 112 272 113 112 273 124 112 274 111 112 275 112 139 276 124 139 277 123 139 278 110 140 279 122 140 280 121 140 281 97 141 282 128 142 283 98 143 284 27 144 285 128 144 286 116 144 287 3 145 288 110 146 289 1 147 290 96 148 291 127 149 292 97 150 293 103 151 294 131 152 295 104 153 296 15 154 297 125 154 298 113 154 299 1 155 300 120 156 301 47 157 302 102 158 303 130 159 304 103 160 305 47 161 306 132 161 307 108 161 308 3 162 309 122 162 310 109 162 311 35 163 312 117 164 313 118 165 314 85 166 315 132 166 316 121 167 317 39 168 318 117 169 319 37 170 320 35 171 321 129 171 322 102 171 323 25 172 324 115 172 325 23 173 326 85 174 327 122 175 328 86 176 329 108 177 330 156 177 331 155 177 332 108 112 333 154 112 334 107 112 335 107 112 336 153 112 337 106 112 338 105 112 339 153 112 340 152 112 341 105 178 342 151 178 343 104 178 344 103 112 345 151 112 346 150 112 347 103 179 348 149 179 349 102 179 350 101 112 351 149 112 352 148 112 353 100 112 354 148 112 355 147 112 356 100 180 357 146 180 358 99 180 359 98 112 360 146 112 361 145 112 362 97 181 363 145 181 364 144 181 365 96 182 366 144 182 367 143 182 368 96 112 369 142 112 370 95 112 371 94 183 372 142 183 373 141 183 374 94 112 375 140 112 376 93 112 377 93 184 378 139 184 379 92 184 380 91 112 381 139 112 382 138 112 383 91 185 384 137 185 385 90 185 386 89 112 387 137 112 388 136 112 389 89 112 390 135 112 391 88 112 392 87 112 393 135 112 394 134 112 395 86 112 396 134 112 397 133 112 398 85 186 399 133 186 400 156 186 401 200 187 402 161 187 403 203 187 404 199 188 405 159 188 406 202 188 407 198 189 408 157 189 409 201 189 410 197 190 411 180 190 412 200 190 413 196 191 414 179 191 415 199 191 416 195 192 417 175 192 418 204 192 419 194 193 420 178 193 421 198 193 422 193 194 423 177 194 424 197 194 425 204 195 426 176 195 427 196 195 428 192 196 429 174 196 430 195 196 431 191 197 432 173 197 433 194 197 434 190 198 435 172 198 436 193 198 437 189 199 438 171 199 439 192 199 440 188 200 441 170 200 442 191 200 443 187 201 444 169 201 445 190 201 446 186 202 447 168 202 448 189 202 449 185 203 450 167 203 451 188 203 452 184 204 453 166 204 454 187 204 455 183 205 456 165 205 457 186 205 458 182 206 459 164 206 460 185 206 461 181 207 462 163 207 463 184 207 464 203 208 465 162 208 466 183 208 467 202 209 468 160 209 469 182 209 470 201 210 471 158 210 472 181 210 473 225 211 474 181 211 475 205 211 476 226 212 477 182 212 478 206 212 479 227 213 480 183 213 481 207 213 482 205 214 483 184 214 484 208 214 485 206 215 486 185 215 487 209 215 488 207 216 489 186 216 490 210 216 491 208 217 492 187 217 493 211 217 494 209 218 495 188 218 496 212 218 497 210 219 498 189 219 499 213 219 500 211 220 501 190 220 502 214 220 503 212 221 504 191 221 505 215 221 506 213 222 507 192 222 508 216 222 509 214 223 510 193 223 511 217 223 512 215 224 513 194 224 514 218 224 515 216 225 516 195 225 517 219 225 518 228 226 519 196 226 520 220 226 521 217 227 522 197 227 523 221 227 524 218 228 525 198 228 526 222 228 527 219 229 528 204 229 529 228 229 530 220 230 531 199 230 532 223 230 533 221 231 534 200 231 535 224 231 536 222 232 537 201 232 538 225 232 539 223 233 540 202 233 541 226 233 542 224 234 543 203 234 544 227 234 545 248 235 546 227 235 547 251 235 548 247 236 549 226 236 550 250 236 551 246 237 552 225 237 553 249 237 554 245 238 555 224 238 556 248 238 557 244 239 558 223 239 559 247 239 560 243 240 561 228 240 562 252 240 563 242 241 564 222 241 565 246 241 566 241 242 567 221 242 568 245 242 569 252 243 570 220 243 571 244 243 572 240 244 573 219 244 574 243 244 575 239 245 576 218 245 577 242 245 578 238 246 579 217 246 580 241 246 581 237 247 582 216 247 583 240 247 584 236 248 585 215 248 586 239 248 587 235 249 588 214 249 589 238 249 590 234 250 591 213 250 592 237 250 593 233 251 594 212 251 595 236 251 596 232 252 597 211 252 598 235 252 599 231 253 600 210 253 601 234 253 602 230 254 603 209 254 604 233 254 605 229 255 606 208 255 607 232 255 608 251 256 609 207 256 610 231 256 611 250 257 612 206 257 613 230 257 614 249 258 615 205 258 616 229 258 617 21 259 618 229 259 619 23 259 620 7 260 621 230 260 622 9 260 623 37 261 624 231 261 625 39 261 626 23 262 627 232 262 628 25 262 629 9 263 630 233 263 631 11 263 632 39 264 633 234 264 634 41 264 635 25 265 636 235 265 637 27 265 638 11 266 639 236 266 640 13 266 641 41 267 642 237 267 643 43 267 644 27 268 645 238 268 646 29 268 647 13 269 648 239 269 649 15 269 650 43 270 651 240 270 652 45 270 653 29 271 654 241 271 655 31 271 656 15 272 657 242 272 658 17 272 659 45 273 660 243 273 661 47 273 662 1 274 663 244 274 664 3 274 665 31 275 666 245 275 667 33 275 668 17 276 669 246 276 670 19 276 671 47 277 672 252 277 673 1 277 674 3 278 675 247 278 676 5 278 677 33 279 678 248 279 679 35 279 680 19 280 681 249 280 682 21 280 683 5 281 684 250 281 685 7 281 686 35 282 687 251 282 688 37 282 689 179 283 690 258 283 691 259 283 692 171 284 693 261 284 694 174 284 695 168 285 696 260 285 697 171 285 698 165 286 699 262 286 700 168 286 701 162 287 702 263 287 703 165 287 704 164 288 705 265 288 706 266 288 707 78 289 708 268 290 709 79 291 710 78 292 711 269 293 712 267 294 713 77 295 714 270 296 715 269 297 716 83 298 717 272 299 718 84 300 719 76 301 720 273 302 721 270 303 722 82 304 723 271 305 724 83 306 725 75 307 726 275 308 727 273 309 728 74 310 729 257 311 730 275 312 731 73 313 732 276 314 733 257 315 734 81 316 735 274 317 736 82 318 737 80 319 738 277 320 739 81 321 740 79 322 741 256 323 742 80 324 743 176 325 744 255 325 745 258 325 746 174 326 747 255 326 748 175 326 749 160 327 750 254 327 751 265 327 752 159 328 753 259 328 754 254 328 755 161 329 756 84 329 757 278 329 758 253 330 759 167 330 760 266 330 761 72 331 762 253 332 763 276 333 764 49 334 765 48 334 766 2 334 767 48 335 768 50 335 769 4 335 770 50 2 771 51 2 772 6 2 773 51 336 774 52 336 775 8 336 776 52 337 777 53 337 778 10 337 779 53 338 780 54 338 781 12 338 782 54 339 783 55 339 784 14 339 785 55 340 786 56 340 787 16 340 788 56 341 789 57 341 790 18 341 791 57 9 792 58 9 793 20 9 794 58 342 795 59 342 796 22 342 797 59 343 798 60 343 799 24 343 800 60 344 801 61 344 802 26 344 803 61 345 804 62 345 805 28 345 806 62 14 807 63 14 808 30 14 809 63 346 810 64 346 811 32 346 812 64 347 813 65 347 814 34 347 815 65 348 816 66 348 817 36 348 818 66 349 819 67 349 820 38 349 821 67 350 822 68 350 823 40 350 824 68 351 825 69 351 826 42 351 827 69 352 828 70 352 829 44 352 830 157 353 831 76 353 832 77 353 833 70 354 834 71 354 835 46 354 836 71 355 837 49 355 838 0 355 839 46 356 840 0 356 841 6 356 842 0 356 843 2 356 844 6 356 845 2 357 846 4 357 847 6 357 848 6 358 849 8 358 850 10 358 851 10 356 852 12 356 853 14 356 854 14 359 855 16 359 856 18 359 857 18 360 858 20 360 859 22 360 860 22 356 861 24 356 862 26 356 863 26 361 864 28 361 865 30 361 866 30 362 867 32 362 868 34 362 869 34 363 870 36 363 871 38 363 872 38 356 873 40 356 874 42 356 875 42 364 876 44 364 877 46 364 878 6 356 879 10 356 880 14 356 881 14 365 882 18 365 883 22 365 884 22 356 885 26 356 886 30 356 887 30 366 888 34 366 889 46 366 890 34 356 891 38 356 892 46 356 893 38 367 894 42 367 895 46 367 896 46 368 897 6 368 898 14 368 899 14 356 900 22 356 901 46 356 902 156 369 903 133 370 904 48 371 905 133 372 906 134 373 907 50 374 908 134 375 909 135 376 910 51 377 911 136 378 912 52 379 913 51 380 914 136 381 915 137 382 916 53 383 917 138 384 918 54 385 919 53 386 920 139 387 921 55 388 922 54 389 923 140 390 924 56 391 925 55 392 926 141 393 927 57 394 928 56 395 929 142 396 930 58 397 931 57 398 932 143 399 933 59 400 934 58 401 935 144 402 936 60 403 937 59 404 938 145 405 939 61 406 940 60 407 941 145 408 942 146 409 943 62 410 944 147 411 945 63 412 946 62 413 947 147 414 948 148 415 949 64 416 950 148 417 951 149 418 952 65 419 953 150 420 954 66 421 955 65 422 956 151 423 957 67 424 958 66 425 959 151 426 960 152 427 961 68 428 962 153 429 963 69 430 964 68 431 965 154 432 966 70 433 967 69 434 968 155 435 969 71 436 970 70 437 971 155 438 972 156 439 973 49 438 974 158 440 975 77 440 976 78 440 977 163 441 978 78 441 979 79 441 980 166 442 981 79 442 982 80 442 983 167 443 984 72 443 985 73 443 986 169 444 987 80 444 988 81 444 989 170 445 990 73 445 991 74 445 992 172 446 993 81 446 994 82 446 995 173 447 996 74 447 997 75 447 998 177 448 999 82 448 1000 83 448 1001 178 449 1002 75 449 1003 76 449 1004 180 450 1005 83 450 1006 84 450 1007 11 451 1008 112 451 1009 123 451 1010 45 112 1011 47 112 1012 108 112 1013 45 452 1014 107 452 1015 106 452 1016 41 112 1017 43 112 1018 106 112 1019 39 453 1020 41 453 1021 105 453 1022 90 454 1023 123 455 1024 124 456 1025 15 457 1026 113 458 1027 111 459 1028 33 460 1029 35 460 1030 102 460 1031 33 461 1032 101 461 1033 100 461 1034 31 112 1035 100 112 1036 99 112 1037 27 112 1038 29 112 1039 99 112 1040 39 462 1041 104 462 1042 131 462 1043 91 463 1044 124 464 1045 125 465 1046 23 466 1047 96 466 1048 95 466 1049 19 112 1050 21 112 1051 95 112 1052 19 467 1053 94 467 1054 93 467 1055 15 112 1056 17 112 1057 93 112 1058 13 468 1059 111 468 1060 112 468 1061 23 469 1062 115 469 1063 126 469 1064 9 470 1065 11 470 1066 90 470 1067 9 471 1068 89 471 1069 88 471 1070 5 112 1071 7 112 1072 88 112 1073 3 112 1074 5 112 1075 87 112 1076 25 472 1077 27 473 1078 116 472 1079 110 474 1080 121 474 1081 132 474 1082 117 475 1083 119 475 1084 131 475 1085 117 476 1086 130 476 1087 129 476 1088 116 477 1089 128 477 1090 127 477 1091 114 478 1092 127 478 1093 126 478 1094 113 112 1095 125 112 1096 124 112 1097 112 112 1098 111 112 1099 124 112 1100 110 112 1101 109 112 1102 122 112 1103 97 479 1104 127 480 1105 128 481 1106 27 482 1107 98 482 1108 128 482 1109 3 483 1110 109 484 1111 110 485 1112 96 486 1113 126 487 1114 127 488 1115 103 489 1116 130 490 1117 131 491 1118 15 492 1119 92 492 1120 125 492 1121 1 493 1122 110 494 1123 120 495 1124 102 496 1125 129 497 1126 130 498 1127 47 499 1128 120 499 1129 132 499 1130 3 500 1131 86 500 1132 122 500 1133 35 501 1134 37 501 1135 117 502 1136 85 503 1137 108 504 1138 132 505 1139 39 506 1140 119 507 1141 117 508 1142 35 509 1143 118 509 1144 129 509 1145 25 510 1146 114 510 1147 115 510 1148 85 511 1149 121 512 1150 122 513 1151 108 514 1152 85 514 1153 156 514 1154 108 112 1155 155 112 1156 154 112 1157 107 112 1158 154 112 1159 153 112 1160 105 112 1161 106 112 1162 153 112 1163 105 112 1164 152 112 1165 151 112 1166 103 515 1167 104 515 1168 151 515 1169 103 516 1170 150 516 1171 149 516 1172 101 517 1173 102 517 1174 149 517 1175 100 518 1176 101 518 1177 148 518 1178 100 112 1179 147 112 1180 146 112 1181 98 112 1182 99 112 1183 146 112 1184 97 112 1185 98 112 1186 145 112 1187 96 519 1188 97 519 1189 144 519 1190 96 112 1191 143 112 1192 142 112 1193 94 520 1194 95 520 1195 142 520 1196 94 112 1197 141 112 1198 140 112 1199 93 112 1200 140 112 1201 139 112 1202 91 185 1203 92 185 1204 139 185 1205 91 112 1206 138 112 1207 137 112 1208 89 184 1209 90 184 1210 137 184 1211 89 112 1212 136 112 1213 135 112 1214 87 112 1215 88 112 1216 135 112 1217 86 112 1218 87 112 1219 134 112 1220 85 112 1221 86 112 1222 133 112 1223 200 521 1224 180 521 1225 161 521 1226 199 522 1227 179 522 1228 159 522 1229 198 523 1230 178 523 1231 157 523 1232 197 524 1233 177 524 1234 180 524 1235 196 525 1236 176 525 1237 179 525 1238 195 526 1239 174 526 1240 175 526 1241 194 527 1242 173 527 1243 178 527 1244 193 528 1245 172 528 1246 177 528 1247 204 529 1248 175 529 1249 176 529 1250 192 530 1251 171 530 1252 174 530 1253 191 531 1254 170 531 1255 173 531 1256 190 532 1257 169 532 1258 172 532 1259 189 533 1260 168 533 1261 171 533 1262 188 534 1263 167 534 1264 170 534 1265 187 535 1266 166 535 1267 169 535 1268 186 536 1269 165 536 1270 168 536 1271 185 537 1272 164 537 1273 167 537 1274 184 538 1275 163 538 1276 166 538 1277 183 539 1278 162 539 1279 165 539 1280 182 540 1281 160 540 1282 164 540 1283 181 541 1284 158 541 1285 163 541 1286 203 542 1287 161 542 1288 162 542 1289 202 543 1290 159 543 1291 160 543 1292 201 544 1293 157 544 1294 158 544 1295 225 545 1296 201 545 1297 181 545 1298 226 546 1299 202 546 1300 182 546 1301 227 547 1302 203 547 1303 183 547 1304 205 548 1305 181 548 1306 184 548 1307 206 549 1308 182 549 1309 185 549 1310 207 550 1311 183 550 1312 186 550 1313 208 551 1314 184 551 1315 187 551 1316 209 552 1317 185 552 1318 188 552 1319 210 553 1320 186 553 1321 189 553 1322 211 554 1323 187 554 1324 190 554 1325 212 555 1326 188 555 1327 191 555 1328 213 556 1329 189 556 1330 192 556 1331 214 557 1332 190 557 1333 193 557 1334 215 558 1335 191 558 1336 194 558 1337 216 559 1338 192 559 1339 195 559 1340 228 560 1341 204 560 1342 196 560 1343 217 561 1344 193 561 1345 197 561 1346 218 562 1347 194 562 1348 198 562 1349 219 563 1350 195 563 1351 204 563 1352 220 564 1353 196 564 1354 199 564 1355 221 565 1356 197 565 1357 200 565 1358 222 566 1359 198 566 1360 201 566 1361 223 567 1362 199 567 1363 202 567 1364 224 568 1365 200 568 1366 203 568 1367 248 569 1368 224 569 1369 227 569 1370 247 570 1371 223 570 1372 226 570 1373 246 571 1374 222 571 1375 225 571 1376 245 572 1377 221 572 1378 224 572 1379 244 573 1380 220 573 1381 223 573 1382 243 574 1383 219 574 1384 228 574 1385 242 575 1386 218 575 1387 222 575 1388 241 576 1389 217 576 1390 221 576 1391 252 577 1392 228 577 1393 220 577 1394 240 578 1395 216 578 1396 219 578 1397 239 579 1398 215 579 1399 218 579 1400 238 580 1401 214 580 1402 217 580 1403 237 581 1404 213 581 1405 216 581 1406 236 582 1407 212 582 1408 215 582 1409 235 583 1410 211 583 1411 214 583 1412 234 584 1413 210 584 1414 213 584 1415 233 585 1416 209 585 1417 212 585 1418 232 586 1419 208 586 1420 211 586 1421 231 587 1422 207 587 1423 210 587 1424 230 588 1425 206 588 1426 209 588 1427 229 589 1428 205 589 1429 208 589 1430 251 590 1431 227 590 1432 207 590 1433 250 591 1434 226 591 1435 206 591 1436 249 592 1437 225 592 1438 205 592 1439 21 593 1440 249 593 1441 229 593 1442 7 594 1443 250 594 1444 230 594 1445 37 595 1446 251 595 1447 231 595 1448 23 596 1449 229 596 1450 232 596 1451 9 597 1452 230 597 1453 233 597 1454 39 598 1455 231 598 1456 234 598 1457 25 599 1458 232 599 1459 235 599 1460 11 600 1461 233 600 1462 236 600 1463 41 601 1464 234 601 1465 237 601 1466 27 602 1467 235 602 1468 238 602 1469 13 603 1470 236 603 1471 239 603 1472 43 604 1473 237 604 1474 240 604 1475 29 605 1476 238 605 1477 241 605 1478 15 606 1479 239 606 1480 242 606 1481 45 607 1482 240 607 1483 243 607 1484 1 608 1485 252 608 1486 244 608 1487 31 609 1488 241 609 1489 245 609 1490 17 610 1491 242 610 1492 246 610 1493 47 611 1494 243 611 1495 252 611 1496 3 612 1497 244 612 1498 247 612 1499 33 613 1500 245 613 1501 248 613 1502 19 614 1503 246 614 1504 249 614 1505 5 615 1506 247 615 1507 250 615 1508 35 616 1509 248 616 1510 251 616 1511 179 617 1512 176 617 1513 258 617 1514 171 618 1515 260 618 1516 261 618 1517 168 619 1518 262 619 1519 260 619 1520 165 620 1521 263 620 1522 262 620 1523 162 621 1524 264 621 1525 263 621 1526 164 622 1527 160 622 1528 265 622 1529 78 623 1530 267 624 1531 268 625 1532 78 626 1533 77 626 1534 269 626 1535 77 627 1536 76 628 1537 270 629 1538 83 630 1539 271 631 1540 272 632 1541 76 633 1542 75 634 1543 273 635 1544 82 636 1545 274 637 1546 271 638 1547 75 639 1548 74 640 1549 275 641 1550 74 642 1551 73 643 1552 257 644 1553 73 645 1554 72 646 1555 276 647 1556 81 648 1557 277 649 1558 274 650 1559 80 651 1560 256 652 1561 277 653 1562 79 654 1563 268 655 1564 256 656 1565 176 657 1566 175 657 1567 255 657 1568 174 658 1569 261 658 1570 255 658 1571 160 659 1572 159 659 1573 254 659 1574 159 660 1575 179 660 1576 259 660 1577 264 661 1578 162 661 1579 278 661 1580 162 662 1581 161 662 1582 278 662 1583 72 663 1584 167 663 1585 253 663 1586 167 664 1587 164 664 1588 266 664 1589</p>
        </triangles>
      </mesh>
    </geometry>
  </library_geometries>
  <library_visual_scenes>
    <visual_scene id="Scene" name="Scene">
      <node id="Tower" name="Tower" type="NODE">
        <matrix sid="transform">1 0 0 0 0 1 0 0 0 0 1 0 0 0 0 1</matrix>
        <instance_geometry url="#Cylinder_002-mesh" name="Tower">
          <bind_material>
            <technique_common>
              <instance_material symbol="mat-material" target="#mat-material">
                <bind_vertex_input semantic="UVMap" input_semantic="TEXCOORD" input_set="0"/>
              </instance_material>
            </technique_common>
          </bind_material>
        </instance_geometry>
      </node>
    </visual_scene>
  </library_visual_scenes>
  <scene>
    <instance_visual_scene url="#Scene"/>
  </scene>
</COLLADA>